<svg width="24" height="24" viewBox="0 0 24 24" fill="none" xmlns="http://www.w3.org/2000/svg">
<path d="M20.0001 14C19.9081 14.064 18.0001 16.083 18.0001 17.5C18.0001 18.994 18.9491 19.948 20.0001 20C20.9061 20.044 22.0001 19.109 22.0001 17.5C22.0001 16 20.0921 14.064 20.0001 14ZM9.58606 20C9.96406 20.378 10.4661 20.586 11.0001 20.586C11.5341 20.586 12.0361 20.378 12.4141 20L19.4141 13L18.7071 12.293L11.0001 4.586L8.70706 2.293L7.29306 3.707L9.58606 6L4.00006 11.586C3.62206 11.964 3.41406 12.466 3.41406 13C3.41406 13.534 3.62206 14.036 4.00006 14.414L9.58606 20ZM11.0001 7.414L16.5861 13H5.41406L11.0001 7.414Z" fill="black"/>
</svg>
