<svg width="24" height="24" viewBox="0 0 24 24" fill="none" xmlns="http://www.w3.org/2000/svg">
<path d="M12 4.998C10.164 4.998 8.64404 5.387 7.38304 5.969L3.70704 2.293L2.29304 3.707L5.60804 7.022C2.99504 8.974 2.06505 11.64 2.05105 11.682L1.94604 11.998L2.05105 12.314C2.07305 12.382 4.36704 19 12 19C13.835 19 15.354 18.611 16.615 18.029L20.293 21.707L21.707 20.293L18.39 16.976C21.004 15.024 21.935 12.358 21.949 12.316L22.054 12L21.949 11.684C21.927 11.616 19.633 4.998 12 4.998ZM12.043 7H12C13.3261 7 14.5979 7.52678 15.5356 8.46447C16.4733 9.40215 17 10.6739 17 12C16.995 12.9759 16.6983 13.928 16.148 14.734L15.427 14.013C15.7972 13.4061 15.9952 12.7099 16 11.999C16 11.525 15.901 11.074 15.745 10.65C15.6535 10.7586 15.5395 10.8461 15.4109 10.9065C15.2823 10.967 15.1421 10.9988 15 11C14.7348 11 14.4805 10.8946 14.2929 10.7071C14.1054 10.5196 14 10.2652 14 10C14 9.561 14.288 9.198 14.682 9.064C13.9535 8.38473 12.9961 8.00452 12 7.999C11.265 7.999 10.581 8.217 9.98504 8.571L9.26505 7.851C10.053 7.326 10.982 7 12 7H11.957L12 6.998L12.043 7ZM4.07404 11.999C4.17704 11.764 4.34804 11.413 4.59504 11.01L10.462 16.877C6.24904 16.23 4.52304 13.035 4.07404 11.999ZM13.321 16.907L5.84104 9.427C6.20503 9.06216 6.60281 8.73268 7.02904 8.443L15.084 16.498C14.5119 16.6943 13.9212 16.8314 13.321 16.907Z" fill="black"/>
</svg>
