<svg width="24" height="24" viewBox="0 0 24 24" fill="none" xmlns="http://www.w3.org/2000/svg">
<path d="M21.881 5.22301C21.8783 5.137 21.8533 5.05317 21.8083 4.97976C21.7634 4.90636 21.7002 4.84591 21.6248 4.80435C21.5495 4.76279 21.4646 4.74154 21.3785 4.74271C21.2925 4.74388 21.2082 4.76742 21.134 4.81101C20.462 5.20301 19.416 5.70901 18.491 5.70901C18.07 5.70901 17.642 5.64501 17.202 5.51101C16.9253 5.42858 16.6552 5.32529 16.394 5.20201C15.056 4.56301 13.827 3.43501 12.698 2.31301C12.5118 2.12947 12.2615 2.02548 12 2.02301C11.7385 2.02548 11.4883 2.12947 11.302 2.31301C10.173 3.43501 8.94402 4.56301 7.60602 5.20201C7.34529 5.32544 7.0745 5.42874 6.79802 5.51101C6.35802 5.64501 5.92902 5.70901 5.50902 5.70901C4.58402 5.70901 3.53802 5.20201 2.86602 4.81101C2.79182 4.76742 2.70755 4.74388 2.6215 4.74271C2.53545 4.74154 2.45058 4.76279 2.37523 4.80435C2.29987 4.84591 2.23662 4.90636 2.1917 4.97976C2.14678 5.05317 2.12173 5.137 2.11902 5.22301C2.05802 6.76101 2.04202 10.063 2.80702 12.667C4.20602 17.43 7.28702 20.643 11.717 21.959L11.857 22L11.997 21.986H12L12.143 22L12.283 21.959C16.713 20.643 19.794 17.43 21.193 12.667C21.958 10.063 21.941 6.76101 21.881 5.22301Z" fill="black"/>
</svg>
