<svg width="24" height="24" viewBox="0 0 24 24" fill="none" xmlns="http://www.w3.org/2000/svg">
<path d="M17 14C17.9625 13.9965 18.9035 13.7152 19.71 13.19L20 13C20.1611 12.8908 20.3117 12.7669 20.45 12.63L20.66 12.43C20.836 12.2505 20.9966 12.0565 21.14 11.85L21.2 11.77C21.3619 11.5311 21.4993 11.2765 21.61 11.01C21.646 10.9358 21.6761 10.8589 21.7 10.78C21.7831 10.5756 21.8499 10.3649 21.9 10.15L21.96 9.9C21.9979 9.6016 22.0113 9.30059 22 9V2L19 5H15L12 2V9C12 10.3261 12.5268 11.5979 13.4645 12.5355C14.4021 13.4732 15.6739 14 17 14ZM19 7C19.1978 7 19.3911 7.05865 19.5556 7.16853C19.72 7.27841 19.8482 7.43459 19.9239 7.61732C19.9996 7.80004 20.0194 8.00111 19.9808 8.19509C19.9422 8.38907 19.847 8.56725 19.7071 8.70711C19.5673 8.84696 19.3891 8.9422 19.1951 8.98079C19.0011 9.01937 18.8 8.99957 18.6173 8.92388C18.4346 8.84819 18.2784 8.72002 18.1685 8.55557C18.0586 8.39112 18 8.19778 18 8C18 7.73478 18.1054 7.48043 18.2929 7.29289C18.4804 7.10536 18.7348 7 19 7ZM15 7C15.1978 7 15.3911 7.05865 15.5556 7.16853C15.72 7.27841 15.8482 7.43459 15.9239 7.61732C15.9996 7.80004 16.0194 8.00111 15.9808 8.19509C15.9422 8.38907 15.847 8.56725 15.7071 8.70711C15.5673 8.84696 15.3891 8.9422 15.1951 8.98079C15.0011 9.01937 14.8 8.99957 14.6173 8.92388C14.4346 8.84819 14.2784 8.72002 14.1685 8.55557C14.0586 8.39112 14 8.19778 14 8C14 7.73478 14.1054 7.48043 14.2929 7.29289C14.4804 7.10536 14.7348 7 15 7Z" fill="black"/>
<path d="M11 22V17H8V22H5V11.9C4.49137 11.8261 4.00533 11.6408 3.57662 11.3573C3.14791 11.0738 2.78711 10.6991 2.52 10.26C2.19711 9.72829 2.01792 9.12181 2 8.5C2.01813 8.00249 2.13785 7.51394 2.35179 7.06441C2.56573 6.61488 2.86937 6.21387 3.24404 5.88604C3.6187 5.55821 4.05647 5.31049 4.53042 5.15811C5.00437 5.00574 5.50448 4.95193 6 5C6.26683 5.01604 6.53402 4.9753 6.78394 4.88046C7.03386 4.78562 7.26082 4.63885 7.44984 4.44984C7.63885 4.26082 7.78562 4.03386 7.88046 3.78394C7.9753 3.53402 8.01604 3.26683 8 3C8 2.73478 8.10536 2.48043 8.29289 2.29289C8.48043 2.10536 8.73478 2 9 2C9.26522 2 9.51957 2.10536 9.70711 2.29289C9.89464 2.48043 10 2.73478 10 3C10.0152 3.52941 9.92212 4.05635 9.72648 4.54853C9.53084 5.0407 9.23675 5.48774 8.86225 5.86225C8.48774 6.23675 8.0407 6.53084 7.54853 6.72648C7.05635 6.92212 6.52941 7.01519 6 7C4.19 7 4 8.16 4 8.51C4 8.86 4.18 10 6 10H11.09C11.2369 10.8615 11.5702 11.6805 12.0666 12.3997C12.563 13.119 13.2106 13.7211 13.9639 14.164C14.7173 14.6068 15.5584 14.8798 16.4282 14.9638C17.2981 15.0477 18.1758 14.9406 19 14.65V22H16V17H14V22H11Z" fill="black"/>
</svg>
