<svg width="24" height="24" viewBox="0 0 24 24" fill="none" xmlns="http://www.w3.org/2000/svg">
<path d="M4.00001 15.76L3.00001 19.76C2.96432 19.8907 2.95559 20.0274 2.97433 20.1616C2.99308 20.2959 3.03892 20.4249 3.10906 20.5409C3.17921 20.6568 3.27219 20.7573 3.38238 20.8363C3.49256 20.9152 3.61764 20.9709 3.75001 21C3.91082 21.0406 4.07921 21.0406 4.24001 21L8.24001 20C8.41746 19.9578 8.57999 19.8679 8.71001 19.74L17 11.41L18.29 12.71L19.71 11.29L18.41 10L21 7.41C21.3725 7.03527 21.5816 6.52837 21.5816 6C21.5816 5.47163 21.3725 4.96472 21 4.59L19.41 3C19.0353 2.62749 18.5284 2.41841 18 2.41841C17.4716 2.41841 16.9647 2.62749 16.59 3L14 5.59L12.7 4.29L11.28 5.71L12.58 7L4.29001 15.29C4.15114 15.4163 4.05065 15.5792 4.00001 15.76ZM5.87001 16.51L14 8.42L15.58 10L7.49001 18.1L5.37001 18.63L5.87001 16.51Z" fill="black"/>
</svg>
