<svg width="24" height="24" viewBox="0 0 24 24" fill="none" xmlns="http://www.w3.org/2000/svg">
<path d="M9.17004 13.42C8.71387 12.8092 8.39649 12.1062 8.24004 11.36L10.7 9.00001C10.8803 8.81354 10.981 8.56435 10.981 8.30501C10.981 8.04567 10.8803 7.79648 10.7 7.61001L7.05004 3.51001C6.87381 3.31572 6.62829 3.19846 6.36641 3.1835C6.10453 3.16853 5.84726 3.25706 5.65004 3.43001L3.48004 5.29001C3.30693 5.46378 3.20372 5.69511 3.19004 5.94001C3.15444 9.56216 4.40934 13.0787 6.73004 15.86L2.29004 20.29L3.71004 21.71L21.71 3.71001L20.29 2.29001L9.17004 13.42ZM16.61 13.44C16.4172 13.2663 16.1643 13.1744 15.9049 13.1838C15.6455 13.1931 15.3999 13.3029 15.22 13.49L12.82 16C12.6472 15.9644 12.4768 15.9177 12.31 15.86L9.65004 18.47C12.1013 20.0775 14.9591 20.9549 17.89 21H18.25C18.4949 20.9863 18.7263 20.8831 18.9 20.71L20.76 18.54C20.9287 18.3421 21.0137 18.0863 20.9968 17.8268C20.98 17.5673 20.8628 17.3245 20.67 17.15L16.61 13.44Z" fill="black"/>
</svg>
