<svg width="24" height="24" viewBox="0 0 24 24" fill="none" xmlns="http://www.w3.org/2000/svg">
<path d="M5 5V19C5 19.2652 5.10536 19.5196 5.29289 19.7071C5.48043 19.8946 5.73478 20 6 20H9V18H7V6H9V4H6C5.73478 4 5.48043 4.10536 5.29289 4.29289C5.10536 4.48043 5 4.73478 5 5ZM19.242 4.03L11.242 2.03C11.0946 1.99324 10.9408 1.99054 10.7922 2.0221C10.6436 2.05366 10.5042 2.11866 10.3845 2.21215C10.2648 2.30565 10.1679 2.42519 10.1013 2.5617C10.0347 2.69821 10 2.8481 10 3V21C9.99965 21.152 10.034 21.3021 10.1005 21.4388C10.167 21.5755 10.2639 21.6953 10.3837 21.7888C10.5035 21.8824 10.6431 21.9474 10.7919 21.9788C10.9406 22.0102 11.0946 22.0072 11.242 21.97L19.242 19.97C19.4584 19.916 19.6506 19.7912 19.788 19.6155C19.9253 19.4397 19.9999 19.2231 20 19V5C19.9999 4.77694 19.9253 4.5603 19.788 4.38454C19.6506 4.20877 19.4584 4.08398 19.242 4.03ZM15 12.188C14.9885 12.4455 14.8781 12.6886 14.6918 12.8667C14.5055 13.0449 14.2577 13.1443 14 13.1443C13.7423 13.1443 13.4945 13.0449 13.3082 12.8667C13.1219 12.6886 13.0115 12.4455 13 12.188V11.811C13.0001 11.5458 13.1056 11.2915 13.2932 11.104C13.4809 10.9166 13.7353 10.8114 14.0005 10.8115C14.2657 10.8116 14.52 10.9171 14.7075 11.1047C14.8949 11.2924 15.0001 11.5468 15 11.812V12.188Z" fill="black"/>
</svg>
