<svg width="24" height="24" viewBox="0 0 24 24" fill="none" xmlns="http://www.w3.org/2000/svg">
<path d="M17.726 13.02L14 16H9V15H13.065C13.1554 15 13.2442 14.9754 13.3218 14.9289C13.3993 14.8824 13.4629 14.8157 13.5055 14.736C13.5482 14.6563 13.5685 14.5664 13.5642 14.4761C13.5598 14.3858 13.5311 14.2983 13.481 14.223L12.593 12.891C12.4108 12.6168 12.1636 12.392 11.8735 12.2365C11.5833 12.081 11.2592 11.9998 10.93 12H3C2.73478 12 2.48043 12.1054 2.29289 12.2929C2.10536 12.4804 2 12.7348 2 13V19C2 19.5304 2.21071 20.0391 2.58579 20.4142C2.96086 20.7893 3.46957 21 4 21H13.639C14.0666 21.0001 14.4893 20.9088 14.8787 20.7322C15.2682 20.5556 15.6153 20.2977 15.897 19.976L22 13L20.548 12.516C20.073 12.3576 19.5658 12.3208 19.0729 12.4089C18.5799 12.4969 18.1169 12.707 17.726 13.02ZM15.403 12C16.1986 12 16.9617 11.6839 17.5243 11.1213C18.0869 10.5587 18.403 9.79565 18.403 9C18.403 6.292 15.403 3 15.403 3C15.403 3 12.403 6.271 12.403 9C12.403 9.79565 12.7191 10.5587 13.2817 11.1213C13.8443 11.6839 14.6074 12 15.403 12Z" fill="black"/>
</svg>
