<svg width="24" height="24" viewBox="0 0 24 24" fill="none" xmlns="http://www.w3.org/2000/svg">
<path d="M21 5H3C2.46957 5 1.96086 5.21071 1.58579 5.58579C1.21071 5.96086 1 6.46957 1 7V17C1 17.5304 1.21071 18.0391 1.58579 18.4142C1.96086 18.7893 2.46957 19 3 19H21C21.5304 19 22.0391 18.7893 22.4142 18.4142C22.7893 18.0391 23 17.5304 23 17V7C23 6.46957 22.7893 5.96086 22.4142 5.58579C22.0391 5.21071 21.5304 5 21 5ZM13 7H15V9H13V7ZM13 11H15V13H13V11ZM9 7H11V9H9V7ZM9 11H11V13H9V11ZM5 7H7V9H5V7ZM5 11H7V13H5V11ZM17 17H7V15H17V17ZM19 13H17V11H19V13ZM19 9H17V7H19V9Z" fill="black"/>
</svg>
