<svg width="24" height="24" viewBox="0 0 24 24" fill="none" xmlns="http://www.w3.org/2000/svg">
<path d="M4.92895 19.071C6.71138 20.8518 9.10287 21.8903 11.6209 21.977C11.1579 19.204 11.9859 16.256 14.1209 14.121C16.2569 11.986 19.2039 11.158 21.9769 11.621C21.8849 9.18801 20.9239 6.78201 19.0709 4.92901C17.2179 3.07601 14.8109 2.11501 12.3789 2.02301C12.8419 4.79601 12.0139 7.74401 9.87895 9.87901C7.74295 12.014 4.79595 12.842 2.02295 12.379C2.10878 14.8973 3.14741 17.2891 4.92895 19.071Z" fill="black"/>
<path d="M15.535 15.535C14.7211 16.3495 14.1209 17.3523 13.7875 18.4544C13.4542 19.5566 13.398 20.7239 13.624 21.853C15.687 21.5217 17.593 20.5479 19.0705 19.0705C20.548 17.593 21.5217 15.687 21.853 13.624C20.7239 13.3982 19.5567 13.4546 18.4546 13.7879C17.3525 14.1212 16.3497 14.7213 15.535 15.535ZM8.465 8.46497C9.27886 7.65045 9.87909 6.64764 10.2125 5.54551C10.5458 4.44339 10.602 3.27602 10.376 2.14697C8.31277 2.4781 6.4066 3.45173 4.92892 4.92923C3.45124 6.40673 2.47737 8.31278 2.146 10.376C3.2752 10.6018 4.44267 10.5455 5.54492 10.2122C6.64718 9.87882 7.65017 9.27869 8.465 8.46497Z" fill="black"/>
</svg>
