<svg width="24" height="24" viewBox="0 0 24 24" fill="none" xmlns="http://www.w3.org/2000/svg">
<path d="M5.536 21.886C5.69777 21.9701 5.87939 22.0086 6.06138 21.9974C6.24337 21.9861 6.41886 21.9255 6.569 21.822L19.569 12.822C19.7018 12.73 19.8104 12.6071 19.8854 12.464C19.9603 12.3208 19.9995 12.1616 19.9995 12C19.9995 11.8384 19.9603 11.6792 19.8854 11.536C19.8104 11.3929 19.7018 11.27 19.569 11.178L6.569 2.178C6.41897 2.07419 6.24341 2.0134 6.06131 2.00222C5.87922 1.99103 5.69753 2.02987 5.53593 2.11454C5.37433 2.1992 5.23896 2.32646 5.1445 2.48254C5.05003 2.63861 5.00006 2.81756 5 3V21C4.99997 21.1825 5.0499 21.3616 5.14439 21.5178C5.23887 21.674 5.3743 21.8013 5.536 21.886Z" fill="black"/>
</svg>
