<svg width="24" height="24" viewBox="0 0 24 24" fill="none" xmlns="http://www.w3.org/2000/svg">
<path d="M21.986 9.74C21.9837 9.71063 21.9811 9.6813 21.978 9.652C21.8893 8.39118 21.3267 7.21065 20.4033 6.34766C19.4798 5.48468 18.2639 5.0032 17 5H7C5.71833 4.99421 4.48398 5.48377 3.5547 6.36647C2.62542 7.24916 2.07307 8.45673 2.013 9.737C2.003 9.816 2 9.898 2 9.99V16.5C2 17.425 2.373 18.328 3.022 18.976C3.68081 19.6305 4.57134 19.9985 5.5 20C7.3 20 8.004 19 9 17C9.146 16.708 9.992 15 12 15C13.996 15 14.853 16.707 15 17C16.004 19 16.7 20 18.5 20C19.425 20 20.328 19.627 20.976 18.978C21.6305 18.3192 21.9985 17.4287 22 16.5V10C22 9.905 21.996 9.82 21.986 9.74ZM7 12.031C6.73366 12.037 6.4688 11.9898 6.22098 11.892C5.97315 11.7943 5.74735 11.648 5.55683 11.4618C5.36631 11.2756 5.21491 11.0532 5.11153 10.8077C5.00814 10.5621 4.95485 10.2984 4.95478 10.032C4.95472 9.7656 5.00788 9.50187 5.11114 9.25629C5.2144 9.01071 5.36569 8.78823 5.55611 8.60192C5.74654 8.41562 5.97227 8.26923 6.22005 8.17136C6.46782 8.07349 6.73266 8.02611 6.999 8.032C7.52156 8.04355 8.01883 8.25922 8.38437 8.63284C8.74991 9.00645 8.95465 9.50832 8.95478 10.031C8.95492 10.5537 8.75042 11.0557 8.38507 11.4295C8.01972 11.8033 7.52256 12.0192 7 12.031ZM17 7.031C17.2652 7.031 17.5196 7.13636 17.7071 7.32389C17.8946 7.51143 18 7.76578 18 8.031C18 8.29622 17.8946 8.55057 17.7071 8.73811C17.5196 8.92564 17.2652 9.031 17 9.031C16.7348 9.031 16.4804 8.92564 16.2929 8.73811C16.1054 8.55057 16 8.29622 16 8.031C16 7.76578 16.1054 7.51143 16.2929 7.32389C16.4804 7.13636 16.7348 7.031 17 7.031ZM15 11.031C14.7348 11.031 14.4804 10.9256 14.2929 10.7381C14.1054 10.5506 14 10.2962 14 10.031C14 9.76578 14.1054 9.51143 14.2929 9.32389C14.4804 9.13636 14.7348 9.031 15 9.031C15.2652 9.031 15.5196 9.13636 15.7071 9.32389C15.8946 9.51143 16 9.76578 16 10.031C16 10.2962 15.8946 10.5506 15.7071 10.7381C15.5196 10.9256 15.2652 11.031 15 11.031ZM17 13.031C16.7348 13.031 16.4804 12.9256 16.2929 12.7381C16.1054 12.5506 16 12.2962 16 12.031C16 11.7658 16.1054 11.5114 16.2929 11.3239C16.4804 11.1364 16.7348 11.031 17 11.031C17.2652 11.031 17.5196 11.1364 17.7071 11.3239C17.8946 11.5114 18 11.7658 18 12.031C18 12.2962 17.8946 12.5506 17.7071 12.7381C17.5196 12.9256 17.2652 13.031 17 13.031ZM19 11.031C18.7348 11.031 18.4804 10.9256 18.2929 10.7381C18.1054 10.5506 18 10.2962 18 10.031C18 9.76578 18.1054 9.51143 18.2929 9.32389C18.4804 9.13636 18.7348 9.031 19 9.031C19.2652 9.031 19.5196 9.13636 19.7071 9.32389C19.8946 9.51143 20 9.76578 20 10.031C20 10.2962 19.8946 10.5506 19.7071 10.7381C19.5196 10.9256 19.2652 11.031 19 11.031Z" fill="black"/>
</svg>
