<svg width="24" height="24" viewBox="0 0 24 24" fill="none" xmlns="http://www.w3.org/2000/svg">
<path d="M12 6C13.1046 6 14 5.10457 14 4C14 2.89543 13.1046 2 12 2C10.8954 2 10 2.89543 10 4C10 5.10457 10.8954 6 12 6Z" fill="black"/>
<path d="M14.948 7.684C14.8821 7.48471 14.755 7.3113 14.5848 7.18848C14.4145 7.06567 14.2099 6.99971 14 7H10C9.79014 6.99986 9.58556 7.06588 9.41537 7.18867C9.24518 7.31147 9.11803 7.48479 9.052 7.684L7.052 13.684L8.827 14.277L8 18H10V22H14V18H16L15.173 14.276L16.948 13.683L14.948 7.684Z" fill="black"/>
</svg>
