<svg width="24" height="24" viewBox="0 0 24 24" fill="none" xmlns="http://www.w3.org/2000/svg">
<path d="M11.13 4.40997L15.36 8.63997L14.3 9.69997L10.06 5.45997L8.29001 7.22997L12.53 11.47L11.47 12.53L7.23001 8.28997L5.46001 10.06L9.70001 14.3L8.64001 15.36L4.41001 11.13C1.86001 14 1.55001 18 3.79001 20.21C4.30122 20.7014 4.90454 21.0869 5.56527 21.3443C6.22599 21.6017 6.93109 21.726 7.64001 21.71C9.76028 21.6615 11.7745 20.773 13.24 19.24L19.24 13.24C22.11 10.37 22.55 6.12997 20.24 3.78997C17.93 1.44997 14 1.85997 11.13 4.40997Z" fill="black"/>
</svg>
