<svg width="24" height="24" viewBox="0 0 24 24" fill="none" xmlns="http://www.w3.org/2000/svg">
<path d="M2.00207 9.53801C1.97907 9.94901 2.20907 10.332 2.58307 10.504L10.0871 13.946L13.5291 21.449C13.6931 21.805 14.0491 22.032 14.4381 22.032L14.4951 22.03C14.6958 22.0188 14.8884 21.9473 15.0479 21.8249C15.2074 21.7025 15.3263 21.535 15.3891 21.344L20.9841 4.31201C21.1011 3.95401 21.0071 3.55901 20.7411 3.29201C20.4751 3.02501 20.0811 2.93401 19.7211 3.04901L2.68807 8.64501C2.49705 8.70739 2.32934 8.82603 2.20692 8.98538C2.08451 9.14474 2.0131 9.33736 2.00207 9.53801Z" fill="black"/>
</svg>
