<svg width="24" height="24" viewBox="0 0 24 24" fill="none" xmlns="http://www.w3.org/2000/svg">
<path d="M12 14C13.1046 14 14 13.1046 14 12C14 10.8954 13.1046 10 12 10C10.8954 10 10 10.8954 10 12C10 13.1046 10.8954 14 12 14Z" fill="black"/>
<path d="M7.758 16.243L9.172 14.828C8.79866 14.4574 8.50271 14.0162 8.30134 13.5302C8.09997 13.0442 7.9972 12.523 7.999 11.997C7.999 10.929 8.416 9.92598 9.172 9.17198L7.758 7.75598C7.19877 8.31118 6.75526 8.97182 6.45315 9.69963C6.15104 10.4274 5.99634 11.208 5.998 11.996C5.998 13.6 6.623 15.108 7.758 16.243ZM16.242 16.243C16.8011 15.6872 17.2444 15.0259 17.5461 14.2976C17.8479 13.5693 18.0022 12.7883 18 12C18.0022 11.2116 17.8479 10.4307 17.5461 9.70234C17.2444 8.97402 16.8011 8.3128 16.242 7.75698L14.828 9.17098C15.584 9.92698 16 10.932 16 12C16 13.068 15.584 14.073 14.828 14.829L16.242 16.243Z" fill="black"/>
<path d="M6.34399 17.657C5.59844 16.9156 5.00731 16.0337 4.6048 15.0623C4.20228 14.091 3.99638 13.0495 3.99899 11.998C3.99899 9.86102 4.83199 7.85302 6.34399 6.34402L4.92999 4.92902C3.03999 6.81502 1.99899 9.32602 1.99899 11.998C1.99899 14.67 3.03999 17.181 4.92999 19.071L6.34399 17.657ZM17.657 6.34302C18.4022 7.0842 18.9929 7.96581 19.3951 8.93684C19.7973 9.90786 20.0029 10.949 20 12C20.0029 13.051 19.7973 14.0922 19.3951 15.0632C18.9929 16.0342 18.4022 16.9158 17.657 17.657L19.071 19.071C20.0026 18.1447 20.7412 17.0427 21.244 15.829C21.7467 14.6152 22.0037 13.3138 22 12C22.0036 10.6863 21.7466 9.38486 21.2438 8.17111C20.741 6.95737 20.0025 5.85541 19.071 4.92902L17.657 6.34302Z" fill="black"/>
</svg>
