<svg width="24" height="24" viewBox="0 0 24 24" fill="none" xmlns="http://www.w3.org/2000/svg">
<path d="M4.00003 14H8.00003V21C8.00003 21.2652 8.10539 21.5196 8.29292 21.7071C8.48046 21.8946 8.73481 22 9.00003 22H15C15.2652 22 15.5196 21.8946 15.7071 21.7071C15.8947 21.5196 16 21.2652 16 21V14H20C20.1883 13.9997 20.3727 13.9463 20.5319 13.8459C20.6912 13.7455 20.819 13.6023 20.9005 13.4326C20.9821 13.2629 21.0141 13.0737 20.993 12.8866C20.9719 12.6995 20.8984 12.5222 20.781 12.375L12.781 2.37499C12.4 1.89999 11.6 1.89999 11.219 2.37499L3.21903 12.375C3.10167 12.5222 3.0282 12.6995 3.00706 12.8866C2.98592 13.0737 3.01797 13.2629 3.09953 13.4326C3.18108 13.6023 3.30883 13.7455 3.46812 13.8459C3.6274 13.9463 3.81176 13.9997 4.00003 14Z" fill="black"/>
</svg>
