<svg width="24" height="24" viewBox="0 0 24 24" fill="none" xmlns="http://www.w3.org/2000/svg">
<path d="M2.59994 13.083L6.05194 14.594L15.9999 9.167L9.99994 16.167L18.5999 20.083C18.747 20.1474 18.9074 20.1755 19.0676 20.1648C19.2279 20.1541 19.3831 20.105 19.5204 20.0216C19.6576 19.9382 19.7727 19.8231 19.856 19.6858C19.9393 19.5485 19.9883 19.3932 19.9989 19.233L20.9989 4.233C21.0101 4.05938 20.9758 3.88585 20.8995 3.7295C20.8233 3.57314 20.7076 3.43934 20.5639 3.34126C20.4202 3.24317 20.2534 3.1842 20.08 3.17012C19.9066 3.15605 19.7326 3.18737 19.5749 3.261L2.57494 11.261C2.40152 11.3433 2.25539 11.4736 2.15392 11.6365C2.05245 11.7995 1.9999 11.9881 2.00254 12.18C2.00517 12.3719 2.06287 12.5591 2.16877 12.7191C2.27468 12.8792 2.42433 13.0055 2.59994 13.083ZM7.99994 22.167L12.7759 19.851L7.99994 17.623V22.167Z" fill="black"/>
</svg>
