<svg width="24" height="24" viewBox="0 0 24 24" fill="none" xmlns="http://www.w3.org/2000/svg">
<path d="M21.993 7.95001C21.9914 7.87781 21.9817 7.80602 21.964 7.73601C21.957 7.71101 21.943 7.68701 21.934 7.66201C21.913 7.60501 21.894 7.54901 21.864 7.49701C21.848 7.47001 21.826 7.44801 21.807 7.42201C21.775 7.37701 21.744 7.33101 21.705 7.29201C21.682 7.27001 21.652 7.25201 21.627 7.23101C21.588 7.19901 21.552 7.16401 21.507 7.13701C21.503 7.13401 21.498 7.13401 21.493 7.13101L21.485 7.12501L12.506 2.13501C12.3576 2.05273 12.1908 2.00948 12.0211 2.00931C11.8515 2.00913 11.6845 2.05204 11.536 2.13401L2.515 7.12401C2.512 7.12701 2.509 7.13101 2.504 7.13401L2.494 7.13801C2.459 7.15801 2.433 7.18701 2.4 7.21101C2.364 7.23801 2.326 7.26201 2.294 7.29301C2.264 7.32401 2.241 7.36001 2.215 7.39501C2.188 7.43001 2.158 7.46101 2.136 7.49901C2.11 7.54201 2.096 7.59101 2.077 7.63801C2.063 7.67101 2.045 7.70201 2.036 7.73801C2.01873 7.80675 2.00901 7.87716 2.007 7.94801C2.006 7.96501 2 7.98001 2 7.99801V16C2 16.363 2.197 16.698 2.515 16.874L11.493 21.861L11.494 21.862L11.496 21.863L11.516 21.874C11.559 21.898 11.606 21.911 11.651 21.928C11.683 21.941 11.714 21.958 11.748 21.967C11.914 22.0098 12.088 22.0098 12.254 21.967C12.287 21.958 12.318 21.941 12.351 21.928C12.396 21.911 12.443 21.899 12.486 21.874L12.506 21.863L12.508 21.862L12.509 21.861L21.487 16.874C21.803 16.698 22 16.363 22 16V7.99801C22 7.98101 21.994 7.96701 21.993 7.95001ZM11.972 11.872L5.058 8.00501L7.82 6.47701L14.654 10.382L11.972 11.872ZM12.02 4.15301L18.941 8.00001L16.697 9.24701L9.867 5.34401L12.02 4.15301ZM13 19.301L13.002 13.622L16 11.944V15L18 14V10.825L20 9.70601V15.411L13 19.301Z" fill="black"/>
</svg>
