<svg width="24" height="24" viewBox="0 0 24 24" fill="none" xmlns="http://www.w3.org/2000/svg">
<path d="M6.50002 10C6.27702 10 6.06302 10.034 5.85002 10.065C5.91902 9.833 5.99002 9.597 6.10402 9.385C6.21802 9.077 6.39602 8.81 6.57302 8.541C6.72102 8.25 6.98202 8.053 7.17402 7.804C7.37502 7.562 7.64902 7.401 7.86602 7.2C8.07902 6.99 8.35802 6.885 8.58002 6.737C8.81202 6.604 9.01402 6.457 9.23002 6.387L9.76902 6.165L10.243 5.968L9.75802 4.03L9.16102 4.174C8.97002 4.222 8.73702 4.278 8.47202 4.345C8.20102 4.395 7.91202 4.532 7.59002 4.657C7.27202 4.799 6.90402 4.895 6.56202 5.123C6.21802 5.341 5.82102 5.523 5.47102 5.815C5.13202 6.116 4.72302 6.377 4.42102 6.76C4.09102 7.118 3.76502 7.494 3.51202 7.922C3.21902 8.33 3.02002 8.778 2.81002 9.221C2.62002 9.664 2.46702 10.117 2.34202 10.557C2.10502 11.439 1.99902 12.277 1.95802 12.994C1.92402 13.712 1.94402 14.309 1.98602 14.741C2.00102 14.945 2.02902 15.143 2.04902 15.28L2.07402 15.448L2.10002 15.442C2.27788 16.2728 2.68733 17.0363 3.28099 17.6442C3.87465 18.252 4.62826 18.6794 5.45466 18.8768C6.28106 19.0743 7.14647 19.0337 7.95078 18.7598C8.75509 18.486 9.46543 17.99 9.99963 17.3293C10.5338 16.6686 10.8701 15.8701 10.9694 15.0263C11.0688 14.1825 10.9273 13.3278 10.5612 12.561C10.1951 11.7943 9.61936 11.1469 8.90068 10.6936C8.18199 10.2404 7.34968 9.99994 6.50002 10ZM17.5 10C17.277 10 17.063 10.034 16.85 10.065C16.919 9.833 16.99 9.597 17.104 9.385C17.218 9.077 17.396 8.81 17.573 8.541C17.721 8.25 17.982 8.053 18.174 7.804C18.375 7.562 18.649 7.401 18.866 7.2C19.079 6.99 19.358 6.885 19.58 6.737C19.812 6.604 20.014 6.457 20.23 6.387L20.769 6.165L21.243 5.968L20.758 4.03L20.161 4.174C19.97 4.222 19.737 4.278 19.472 4.345C19.201 4.395 18.912 4.532 18.59 4.657C18.273 4.8 17.904 4.895 17.562 5.124C17.218 5.342 16.821 5.524 16.471 5.816C16.132 6.117 15.723 6.378 15.421 6.76C15.091 7.118 14.765 7.494 14.512 7.922C14.219 8.33 14.02 8.778 13.81 9.221C13.62 9.664 13.467 10.117 13.342 10.557C13.105 11.439 12.999 12.277 12.958 12.994C12.924 13.712 12.944 14.309 12.986 14.741C13.001 14.945 13.029 15.143 13.049 15.28L13.074 15.448L13.1 15.442C13.2779 16.2728 13.6873 17.0363 14.281 17.6442C14.8746 18.252 15.6283 18.6794 16.4547 18.8768C17.2811 19.0743 18.1465 19.0337 18.9508 18.7598C19.7551 18.486 20.4654 17.99 20.9996 17.3293C21.5338 16.6686 21.8701 15.8701 21.9694 15.0263C22.0688 14.1825 21.9273 13.3278 21.5612 12.561C21.1951 11.7943 20.6194 11.1469 19.9007 10.6936C19.182 10.2404 18.3497 9.99994 17.5 10Z" fill="black"/>
</svg>
