<svg width="24" height="24" viewBox="0 0 24 24" fill="none" xmlns="http://www.w3.org/2000/svg">
<path d="M20.707 5.826L17.172 2.293C16.9856 2.10632 16.733 2.00091 16.4692 1.99979C16.2055 1.99866 15.9519 2.10191 15.764 2.287L7.096 10.82C6.96089 10.9537 6.86626 11.1229 6.823 11.308L5.799 15.745L4 18H6.828L7.97 16.871L11.558 16.043C11.738 16.001 11.903 15.91 12.035 15.781L20.702 7.246C20.7961 7.15337 20.8708 7.04303 20.922 6.92135C20.9732 6.79967 20.9998 6.66905 21.0003 6.53704C21.0008 6.40503 20.9751 6.27423 20.9247 6.15219C20.8744 6.03016 20.8004 5.91929 20.707 5.826ZM11.338 13.659L9.217 11.539L16.46 4.408L18.58 6.528L11.338 13.659ZM4 20H20V22H4V20Z" fill="black"/>
</svg>
