<svg width="24" height="24" viewBox="0 0 24 24" fill="none" xmlns="http://www.w3.org/2000/svg">
<path d="M12 4C6.486 4 2 8.486 2 14C1.99871 15.5434 2.35864 17.0656 3.051 18.445C3.221 18.785 3.567 19 3.946 19H20.053C20.432 19 20.779 18.785 20.949 18.445C21.6414 17.0656 22.0013 15.5434 22 14C22 8.486 17.514 4 12 4ZM17.022 9.022L13.06 15.06C12.9498 15.2283 12.8074 15.3733 12.6411 15.4865C12.4748 15.5998 12.2878 15.6791 12.0908 15.72C11.8938 15.7608 11.6906 15.7624 11.493 15.7247C11.2953 15.687 11.1071 15.6106 10.939 15.5C10.7263 15.3609 10.5516 15.171 10.4306 14.9474C10.3097 14.7238 10.2464 14.4737 10.2464 14.2195C10.2464 13.9653 10.3097 13.7152 10.4306 13.4916C10.5516 13.268 10.7263 13.0781 10.939 12.939L16.977 8.977C16.9843 8.97247 16.9931 8.97097 17.0015 8.97284C17.0099 8.97471 17.0173 8.97979 17.022 8.987C17.0252 8.99229 17.0269 8.99834 17.0269 9.0045C17.0269 9.01067 17.0252 9.01671 17.022 9.022Z" fill="black"/>
</svg>
