<svg width="24" height="24" viewBox="0 0 24 24" fill="none" xmlns="http://www.w3.org/2000/svg">
<path d="M19 3H5C3.897 3 3 3.897 3 5V19C3 20.103 3.897 21 5 21H19C20.103 21 21 20.103 21 19V5C21 3.897 20.103 3 19 3ZM9.5 13.5C9.30295 13.4999 9.10785 13.4611 8.92582 13.3856C8.7438 13.3101 8.57842 13.1995 8.43913 13.0602C8.15783 12.7787 7.99987 12.397 8 11.999C8.00007 11.802 8.03894 11.6068 8.11441 11.4248C8.18988 11.2428 8.30046 11.0774 8.43984 10.9381C8.72133 10.6568 9.10304 10.4989 9.501 10.499C9.89896 10.4991 10.2806 10.6573 10.5619 10.9388C10.8432 11.2203 11.0011 11.602 11.001 12C11.0009 12.398 10.8427 12.7796 10.5612 13.0609C10.2797 13.3422 9.89796 13.5001 9.5 13.5ZM14.5 13.5C14.102 13.4999 13.7204 13.3417 13.4391 13.0602C13.1578 12.7787 12.9999 12.397 13 11.999C13.0001 11.601 13.1583 11.2194 13.4398 10.9381C13.7213 10.6568 14.103 10.4989 14.501 10.499C14.899 10.4991 15.2806 10.6573 15.5619 10.9388C15.8432 11.2203 16.0011 11.602 16.001 12C16.0009 12.398 15.8427 12.7796 15.5612 13.0609C15.2797 13.3422 14.898 13.5001 14.5 13.5Z" fill="black"/>
</svg>
