<svg width="24" height="24" viewBox="0 0 24 24" fill="none" xmlns="http://www.w3.org/2000/svg">
<path d="M18.952 17.538C18.203 16.789 18.044 15.669 18.452 14.692L18.473 14.643C18.872 13.669 19.782 13 20.835 13H20.915C21.553 13 22 12.553 22 12C22 11.447 21.553 11 21 11H20.83C19.777 11 18.872 10.331 18.473 9.356L18.452 9.307C18.044 8.33 18.203 7.21 18.952 6.461L19.071 6.342C19.1638 6.24916 19.2375 6.13893 19.2877 6.01763C19.338 5.89632 19.3638 5.7663 19.3638 5.635C19.3638 5.5037 19.338 5.37368 19.2877 5.25237C19.2375 5.13107 19.1638 5.02084 19.071 4.928C18.9782 4.83516 18.8679 4.76151 18.7466 4.71126C18.6253 4.66101 18.4953 4.63515 18.364 4.63515C18.2327 4.63515 18.1027 4.66101 17.9814 4.71126C17.8601 4.76151 17.7498 4.83516 17.657 4.928L17.538 5.047C16.789 5.796 15.669 5.955 14.692 5.547L14.643 5.526C13.669 5.128 13 4.218 13 3.165V3.084C13 2.447 12.553 2 12 2C11.447 2 11 2.447 11 3V3.036C11 4.132 10.34 5.12 9.327 5.539L9.321 5.542C8.8258 5.74697 8.28095 5.80051 7.75532 5.69585C7.2297 5.59119 6.74691 5.33303 6.368 4.954L6.343 4.929L3.707 2.293L2.293 3.707L20.293 21.707L21.707 20.293L19.071 17.657L18.952 17.538ZM12 10C12 9.60444 12.1173 9.21776 12.3371 8.88886C12.5568 8.55996 12.8692 8.30362 13.2346 8.15224C13.6001 8.00087 14.0022 7.96126 14.3902 8.03843C14.7781 8.1156 15.1345 8.30608 15.4142 8.58579C15.6939 8.86549 15.8844 9.22186 15.9616 9.60982C16.0387 9.99778 15.9991 10.3999 15.8478 10.7654C15.6964 11.1308 15.44 11.4432 15.1111 11.6629C14.7822 11.8827 14.3956 12 14 12C13.743 12 13.499 11.947 13.272 11.858L12.141 10.727C12.0491 10.4956 12.0013 10.249 12 10ZM8 13C7.73478 13 7.48043 12.8946 7.29289 12.7071C7.10536 12.5196 7 12.2652 7 12C7.00378 11.7662 7.09022 11.5412 7.244 11.365L5.431 9.552C5.21188 9.98652 4.87668 10.3518 4.46257 10.6074C4.04846 10.863 3.57164 10.9989 3.085 11C2.448 11 2 11.447 2 12C2 12.553 2.447 13 3 13H3.068C3.59457 12.9999 4.10934 13.156 4.54709 13.4487C4.98484 13.7413 5.32587 14.1574 5.527 14.644L5.548 14.693C5.75107 15.1842 5.80406 15.7245 5.7003 16.2458C5.59654 16.7671 5.34068 17.246 4.965 17.622L4.929 17.658C4.74149 17.8455 4.63615 18.0998 4.63615 18.365C4.63615 18.6302 4.74149 18.8845 4.929 19.072C5.11651 19.2595 5.37082 19.3648 5.636 19.3648C5.90118 19.3648 6.15549 19.2595 6.343 19.072L6.379 19.036C6.75493 18.6602 7.2338 18.4043 7.75512 18.3005C8.27644 18.1967 8.81682 18.2498 9.308 18.453L9.451 18.513C9.90964 18.7024 10.3017 19.0237 10.5775 19.4362C10.8533 19.8487 11.0003 20.3338 11 20.83V20.915C11 21.553 11.447 22 12 22C12.553 22 13 21.552 13 21V20.83C13 19.854 13.568 18.977 14.443 18.564L8.634 12.755C8.45866 12.9097 8.23379 12.9966 8 13Z" fill="black"/>
</svg>
