<svg width="24" height="24" viewBox="0 0 24 24" fill="none" xmlns="http://www.w3.org/2000/svg">
<path d="M12 2C10.0222 2 8.08879 2.58649 6.4443 3.6853C4.79981 4.78412 3.51809 6.3459 2.76121 8.17317C2.00433 10.0004 1.8063 12.0111 2.19215 13.9509C2.578 15.8907 3.53041 17.6725 4.92894 19.0711C6.32746 20.4696 8.10929 21.422 10.0491 21.8079C11.9889 22.1937 13.9996 21.9957 15.8268 21.2388C17.6541 20.4819 19.2159 19.2002 20.3147 17.5557C21.4135 15.9112 22 13.9778 22 12C22 10.6868 21.7413 9.38642 21.2388 8.17317C20.7363 6.95991 19.9997 5.85752 19.0711 4.92893C18.1425 4.00035 17.0401 3.26375 15.8268 2.7612C14.6136 2.25866 13.3132 2 12 2ZM12 5.33C12.3303 5.33 12.6532 5.42794 12.9278 5.61145C13.2024 5.79495 13.4165 6.05577 13.5429 6.36092C13.6693 6.66607 13.7024 7.00185 13.6379 7.3258C13.5735 7.64975 13.4144 7.94731 13.1809 8.18087C12.9473 8.41442 12.6498 8.57347 12.3258 8.63791C12.0019 8.70235 11.6661 8.66928 11.3609 8.54288C11.0558 8.41648 10.795 8.20243 10.6115 7.9278C10.4279 7.65317 10.33 7.33029 10.33 7C10.33 6.55709 10.506 6.13232 10.8191 5.81913C11.1323 5.50595 11.5571 5.33 12 5.33ZM15.33 17.83L13.67 18.67L12.28 14.78H11.72L10.33 18.67L8.67 17.83L10.33 13.11V11.45L7 10.33L7.56 8.67L10.89 9.78H13.11L16.44 8.67L17 10.33L13.67 11.45V13.11L15.33 17.83Z" fill="black"/>
</svg>
