<svg width="24" height="24" viewBox="0 0 24 24" fill="none" xmlns="http://www.w3.org/2000/svg">
<path d="M21.706 5.292L18.707 2.293C18.6143 2.19996 18.5041 2.12617 18.3828 2.07589C18.2614 2.0256 18.1313 1.99981 18 2H6C5.86867 1.99987 5.7386 2.02568 5.61727 2.07596C5.49594 2.12624 5.38574 2.2 5.293 2.293L2.294 5.292C2.20066 5.38474 2.12662 5.49506 2.07615 5.61658C2.02569 5.7381 1.99981 5.86842 2 6V19C2 20.103 2.897 21 4 21H20C21.103 21 22 20.103 22 19V6C22.0003 5.8684 21.9745 5.73805 21.924 5.61652C21.8735 5.49498 21.7994 5.38468 21.706 5.292ZM6.414 4H17.586L18.586 5H5.414L6.414 4ZM12 18L7 13H10V10H14V13H17L12 18Z" fill="black"/>
</svg>
