<svg width="24" height="24" viewBox="0 0 24 24" fill="none" xmlns="http://www.w3.org/2000/svg">
<path d="M8 12.052C9.995 12.052 11.5 10.547 11.5 8.55199C11.5 6.55699 9.995 5.05199 8 5.05199C6.005 5.05199 4.5 6.55699 4.5 8.55199C4.5 10.547 6.005 12.052 8 12.052ZM9 13H7C4.243 13 2 15.243 2 18V19H14V18C14 15.243 11.757 13 9 13ZM18.364 2.63599L16.95 4.04999C18.271 5.37299 19 7.13099 19 8.99999C19 10.869 18.271 12.627 16.95 13.95L18.364 15.364C20.064 13.663 21 11.403 21 8.99999C21 6.59699 20.064 4.33699 18.364 2.63599Z" fill="black"/>
<path d="M15.535 5.46399L14.121 6.87999C14.688 7.44499 15 8.19799 15 8.99999C15 9.80199 14.688 10.555 14.121 11.12L15.535 12.536C16.479 11.592 17 10.337 17 8.99999C17 7.66299 16.479 6.40799 15.535 5.46399Z" fill="black"/>
</svg>
