<svg width="24" height="24" viewBox="0 0 24 24" fill="none" xmlns="http://www.w3.org/2000/svg">
<path d="M12.01 14C13.1146 14 14.01 13.1046 14.01 12C14.01 10.8954 13.1146 10 12.01 10C10.9054 10 10.01 10.8954 10.01 12C10.01 13.1046 10.9054 14 12.01 14Z" fill="black"/>
<path d="M11.01 22H13.01L13.51 15H10.51L11.01 22Z" fill="black"/>
<path d="M12 2C9.57196 2.01429 7.23205 2.91149 5.41691 4.52421C3.60177 6.13692 2.43539 8.35496 2.13543 10.7644C1.83547 13.1739 2.42242 15.6102 3.78674 17.6188C5.15107 19.6273 7.19957 21.0708 9.55 21.68L9.4 19.56C7.61038 18.9437 6.09725 17.7128 5.12956 16.086C4.16187 14.4593 3.8023 12.5422 4.11475 10.6754C4.42721 8.80858 5.39145 7.11302 6.8361 5.89007C8.28075 4.66712 10.1122 3.99601 12.005 3.99601C13.8978 3.99601 15.7292 4.66712 17.1739 5.89007C18.6185 7.11302 19.5828 8.80858 19.8952 10.6754C20.2077 12.5422 19.8481 14.4593 18.8804 16.086C17.9127 17.7128 16.3996 18.9437 14.61 19.56L14.46 21.68C16.8112 21.0706 18.8602 19.6262 20.2245 17.6167C21.5888 15.6071 22.175 13.1697 21.8737 10.7595C21.5725 8.34938 20.4043 6.13126 18.5873 4.51935C16.7704 2.90743 14.4289 2.01191 12 2Z" fill="black"/>
<path d="M15.32 9.61001C15.4685 9.82203 15.5927 10.0501 15.69 10.29C15.7921 10.5315 15.8692 10.7828 15.92 11.04C15.9801 11.3024 16.0103 11.5708 16.01 11.84C16.0103 12.1125 15.9801 12.3842 15.92 12.65C15.8692 12.9072 15.7921 13.1585 15.69 13.4C15.5927 13.6399 15.4685 13.868 15.32 14.08C15.2119 14.2301 15.095 14.3737 14.97 14.51L14.78 17.13C14.9795 17.0387 15.1732 16.9352 15.36 16.82C16.0085 16.3939 16.566 15.8433 17 15.2C17.2171 14.8864 17.4014 14.5513 17.55 14.2C17.7043 13.836 17.8216 13.4575 17.9 13.07C17.9751 12.6645 18.0086 12.2523 18 11.84C17.9963 11.4334 17.9528 11.0281 17.87 10.63C17.7192 9.8677 17.4239 9.1413 17 8.49001C16.7844 8.17165 16.54 7.87374 16.27 7.60001C15.9989 7.32711 15.7007 7.08252 15.38 6.87001C15.0644 6.65334 14.7297 6.4659 14.38 6.31001C14.0011 6.16858 13.6092 6.06474 13.21 6.00001C12.4146 5.84 11.5954 5.84 10.8 6.00001C10.4115 6.079 10.0326 6.1997 9.67001 6.36001C9.31872 6.50862 8.98363 6.69292 8.67001 6.91001C8.34935 7.12252 8.05114 7.36711 7.78001 7.64001C7.49452 7.89885 7.23342 8.18338 7.00001 8.49001C6.56556 9.13903 6.26001 9.86556 6.10001 10.63C6.02723 11.0291 5.99374 11.4344 6.00001 11.84C5.99934 12.2463 6.03954 12.6517 6.12001 13.05C6.19846 13.4375 6.31572 13.816 6.47001 14.18C6.61862 14.5313 6.80292 14.8664 7.02001 15.18C7.4554 15.8154 8.00466 16.3646 8.64001 16.8C8.82678 16.9152 9.02048 17.0187 9.22001 17.11L9.00001 14.51C8.87498 14.3737 8.75811 14.2301 8.65001 14.08C8.50148 13.868 8.37736 13.6399 8.28001 13.4C8.17787 13.1585 8.1008 12.9072 8.05001 12.65C8.00329 12.3827 7.98651 12.111 8.00001 11.84C7.99638 11.5712 8.02322 11.3028 8.08001 11.04C8.1308 10.7828 8.20787 10.5315 8.31001 10.29C8.40736 10.0501 8.53148 9.82203 8.68001 9.61001C8.82617 9.3907 8.99365 9.18637 9.18001 9.00001C9.36044 8.82102 9.55806 8.66025 9.77001 8.52001C9.98203 8.37148 10.2101 8.24736 10.45 8.15001C10.6912 8.04465 10.9425 7.96423 11.2 7.91001C11.732 7.81006 12.278 7.81006 12.81 7.91001C13.0675 7.96423 13.3188 8.04465 13.56 8.15001C14.0396 8.33863 14.4728 8.62857 14.83 9.00001C15.0157 9.18433 15.1801 9.38895 15.32 9.61001Z" fill="black"/>
</svg>
