<svg width="24" height="24" viewBox="0 0 24 24" fill="none" xmlns="http://www.w3.org/2000/svg">
<path d="M12.0701 8.70998C13.7269 8.70998 15.0701 7.94439 15.0701 6.99998C15.0701 6.05557 13.7269 5.28998 12.0701 5.28998C10.4132 5.28998 9.07007 6.05557 9.07007 6.99998C9.07007 7.94439 10.4132 8.70998 12.0701 8.70998Z" fill="black"/>
<path d="M12.0701 22C16.5501 22 20.0701 19.8 20.0701 17V7C20.0701 4.2 16.5501 2 12.0701 2C7.59007 2 4.07007 4.2 4.07007 7V17C4.07007 19.8 7.58007 22 12.0701 22ZM12.0701 4C15.6001 4 18.0701 5.58 18.0701 7C18.0421 7.30855 17.9428 7.60638 17.7801 7.87C17.1001 8.87 15.2501 9.87 12.7801 9.99H11.3901C8.88007 9.83 7.00007 8.89 6.35007 7.84C6.20965 7.60659 6.11465 7.34872 6.07007 7.08V7C6.07007 5.58 8.53007 4 12.0701 4Z" fill="black"/>
</svg>
