<svg width="24" height="24" viewBox="0 0 24 24" fill="none" xmlns="http://www.w3.org/2000/svg">
<path d="M20.247 3.03401C20.178 3.01601 18.505 2.60101 16.195 2.60101C13.353 2.60101 9.32704 3.24101 6.28504 6.28801C0.945036 11.637 2.94504 19.898 3.03304 20.248C3.07728 20.4236 3.16837 20.5839 3.29659 20.7117C3.4248 20.8396 3.58533 20.9303 3.76104 20.974C3.83004 20.992 5.48704 21.4 7.77904 21.4C10.628 21.4 14.663 20.759 17.711 17.712C23.046 12.377 21.062 4.11201 20.975 3.76301C20.9308 3.58712 20.8397 3.42648 20.7116 3.29813C20.5834 3.16979 20.4229 3.07852 20.247 3.03401ZM16.71 12.296L15.296 13.71L13.503 11.918L11.917 13.504L13.709 15.297L12.295 16.711L10.503 14.918L8.71004 16.711L7.29604 15.297L9.08904 13.504L7.29604 11.71L8.71004 10.296L10.503 12.09L12.089 10.504L10.295 8.71101L11.709 7.29701L13.503 9.09001L15.296 7.29701L16.71 8.71101L14.917 10.504L16.71 12.296Z" fill="black"/>
</svg>
