<svg width="24" height="24" viewBox="0 0 24 24" fill="none" xmlns="http://www.w3.org/2000/svg">
<path d="M14 19V15H10V19C10 20.103 10.897 21 12 21C13.103 21 14 20.103 14 19Z" fill="black"/>
<path d="M12 2C6.486 2 2 6.486 2 12C2 16.434 4.903 20.198 8.906 21.505C8.32444 20.7993 8.00441 19.9144 8 19V16.501C6.412 15.027 6 13 6 13H18C18 13 17.589 15.027 16 16.501V19C16 19.953 15.651 20.816 15.094 21.504C19.097 20.197 22 16.434 22 12C22 6.486 17.514 2 12 2ZM8.5 11C8.30295 10.9999 8.10785 10.9611 7.92582 10.8856C7.7438 10.8101 7.57842 10.6995 7.43913 10.5602C7.15783 10.2787 6.99987 9.89696 7 9.499C7.00007 9.30195 7.03894 9.10685 7.11441 8.92482C7.18988 8.7428 7.30046 8.57742 7.43984 8.43813C7.72133 8.15683 8.10304 7.99887 8.501 7.999C8.89896 7.99913 9.28056 8.15735 9.56187 8.43884C9.84317 8.72033 10.0011 9.10204 10.001 9.5C10.0009 9.89796 9.84265 10.2796 9.56116 10.5609C9.27967 10.8422 8.89796 11.0001 8.5 11ZM13 11C13 11 13.5 9 15.5 9C17.499 9 18 11 18 11H13Z" fill="black"/>
</svg>
