<svg width="24" height="24" viewBox="0 0 24 24" fill="none" xmlns="http://www.w3.org/2000/svg">
<path d="M20 3H12.79C12.298 3.00019 11.8233 3.18174 11.4567 3.50995C11.0901 3.83816 10.8574 4.28998 10.803 4.779L10 12H4C3.46957 12 2.96086 12.2107 2.58579 12.5858C2.21071 12.9609 2 13.4696 2 14C2 14.5304 2.21071 15.0391 2.58579 15.4142C2.96086 15.7893 3.46957 16 4 16H16L14.788 19.03C14.6868 19.2831 14.6384 19.5543 14.6458 19.8268C14.6531 20.0993 14.7161 20.3674 14.8308 20.6147C14.9455 20.8621 15.1095 21.0833 15.3128 21.2649C15.5161 21.4466 15.7544 21.5848 16.013 21.671L16.353 21.784C16.5438 21.8477 16.7494 21.8523 16.9428 21.7972C17.1362 21.742 17.3085 21.6297 17.437 21.475L21.769 16.278C21.918 16.099 22 15.872 22 15.638V5C22 4.46957 21.7893 3.96086 21.4142 3.58579C21.0391 3.21071 20.5304 3 20 3Z" fill="black"/>
</svg>
