<svg width="24" height="24" viewBox="0 0 24 24" fill="none" xmlns="http://www.w3.org/2000/svg">
<path d="M3.43296 17.325L3.07896 19.8C3.05708 19.9536 3.07125 20.1102 3.12036 20.2574C3.16946 20.4046 3.25214 20.5384 3.36186 20.6481C3.47159 20.7578 3.60534 20.8405 3.75253 20.8896C3.89973 20.9387 4.05634 20.9529 4.20996 20.931L6.68496 20.577C7.05996 20.524 7.99996 18 7.99996 18C7.99996 18 8.47196 18.405 8.66496 18.466C9.07696 18.596 9.47796 18.192 9.61296 17.782L9.99996 16.01C9.99996 16.01 10.577 16.302 10.786 16.345C11.052 16.4 11.31 16.236 11.493 16.052C11.6029 15.9424 11.6855 15.8085 11.734 15.661L12 14.01C12 14.01 12.675 14.197 12.906 14.224C13.169 14.254 13.425 14.12 13.613 13.931L14.751 12.794C15.7143 13.1062 16.745 13.1464 17.7297 12.9103C18.7144 12.6743 19.6149 12.171 20.332 11.456C21.3616 10.4237 21.9399 9.02508 21.9399 7.567C21.9399 6.10892 21.3616 4.71035 20.332 3.678C19.2996 2.64831 17.901 2.07007 16.443 2.07007C14.9849 2.07007 13.5863 2.64831 12.554 3.678C11.8388 4.39492 11.3354 5.29539 11.0993 6.28014C10.8632 7.2649 10.9036 8.29572 11.216 9.259L3.71496 16.759C3.56185 16.9119 3.46284 17.1107 3.43296 17.325ZM18.504 5.506C19.0495 6.05317 19.3559 6.79432 19.3559 7.567C19.3559 8.33968 19.0495 9.08083 18.504 9.628L14.382 5.506C14.9291 4.96044 15.6703 4.65408 16.443 4.65408C17.2156 4.65408 17.9568 4.96044 18.504 5.506Z" fill="black"/>
</svg>
