<svg width="24" height="24" viewBox="0 0 24 24" fill="none" xmlns="http://www.w3.org/2000/svg">
<path d="M21.316 4.05499C19.556 3.47799 15 1.98499 15 1.99999C15 2.79564 14.6839 3.5587 14.1213 4.12131C13.5587 4.68392 12.7957 4.99999 12 4.99999C11.2044 4.99999 10.4413 4.68392 9.87869 4.12131C9.31608 3.5587 9.00001 2.79564 9.00001 1.99999C9.00001 1.98499 4.44401 3.47799 2.68301 4.05499C2.48349 4.12039 2.30987 4.24741 2.18714 4.41777C2.0644 4.58812 1.99888 4.79303 2.00001 5.00299V8.71899C2.00006 8.87089 2.0347 9.02078 2.10132 9.15729C2.16794 9.2938 2.26478 9.41334 2.38449 9.50683C2.50421 9.60033 2.64365 9.66533 2.79223 9.69689C2.94081 9.72845 3.09463 9.72575 3.24201 9.68899L6.00001 8.99999V21C6.00001 21.2652 6.10537 21.5196 6.29291 21.7071C6.48044 21.8946 6.7348 22 7.00001 22H17C17.2652 22 17.5196 21.8946 17.7071 21.7071C17.8947 21.5196 18 21.2652 18 21V8.99999L20.758 9.68899C20.9054 9.72575 21.0592 9.72845 21.2078 9.69689C21.3564 9.66533 21.4958 9.60033 21.6155 9.50683C21.7352 9.41334 21.8321 9.2938 21.8987 9.15729C21.9653 9.02078 22 8.87089 22 8.71899V5.00299C22.0011 4.7929 21.9354 4.5879 21.8125 4.41753C21.6896 4.24716 21.5157 4.12022 21.316 4.05499Z" fill="black"/>
</svg>
