<svg width="24" height="24" viewBox="0 0 24 24" fill="none" xmlns="http://www.w3.org/2000/svg">
<path d="M20.978 13.21C21.019 13.0193 21.0034 12.8207 20.9331 12.6388C20.8627 12.4568 20.7407 12.2995 20.582 12.186L6.58198 2.186C6.42444 2.07272 6.23732 2.00776 6.04347 1.99908C5.84963 1.99039 5.65745 2.03835 5.49041 2.13709C5.32337 2.23583 5.1887 2.38108 5.10285 2.55509C5.017 2.72911 4.98369 2.92436 5.00698 3.117L7.00698 20.117C7.03 20.3119 7.10986 20.4957 7.2366 20.6455C7.36335 20.7954 7.53138 20.9046 7.71976 20.9596C7.90814 21.0146 8.10855 21.013 8.29601 20.9549C8.48347 20.8968 8.64969 20.7849 8.77398 20.633L12.386 16.217L15.763 21.677L17.464 20.625L14.107 15.197L20.196 13.979C20.3873 13.9415 20.5635 13.8487 20.7025 13.712C20.8415 13.5753 20.9373 13.4007 20.978 13.21Z" fill="black"/>
</svg>
