<svg width="24" height="24" viewBox="0 0 24 24" fill="none" xmlns="http://www.w3.org/2000/svg">
<path d="M20.249 5.02499L12.352 2.06299L11.649 3.93599L14.484 4.99999H4C3.46957 4.99999 2.96086 5.2107 2.58579 5.58577C2.21071 5.96085 2 6.46956 2 6.99999V19C2 19.5304 2.21071 20.0391 2.58579 20.4142C2.96086 20.7893 3.46957 21 4 21H20C20.5304 21 21.0391 20.7893 21.4142 20.4142C21.7893 20.0391 22 19.5304 22 19V6.99999C22 5.97999 21.234 5.14899 20.249 5.02499ZM10 17H6V15H10V17ZM16.5 18C15.837 18 15.2011 17.7366 14.7322 17.2678C14.2634 16.7989 14 16.163 14 15.5C14 14.8369 14.2634 14.2011 14.7322 13.7322C15.2011 13.2634 15.837 13 16.5 13C17.163 13 17.7989 13.2634 18.2678 13.7322C18.7366 14.2011 19 14.8369 19 15.5C19 16.163 18.7366 16.7989 18.2678 17.2678C17.7989 17.7366 17.163 18 16.5 18ZM20 11H4V6.99999H20V11Z" fill="black"/>
</svg>
