<svg width="24" height="24" viewBox="0 0 24 24" fill="none" xmlns="http://www.w3.org/2000/svg">
<path d="M20 17C20 17.2652 19.8946 17.5196 19.7071 17.7071C19.5196 17.8946 19.2652 18 19 18C18.7348 18 18.4804 17.8946 18.2929 17.7071C18.1054 17.5196 18 17.2652 18 17V5C18 4.73478 17.8946 4.48043 17.7071 4.29289C17.5196 4.10536 17.2652 4 17 4H3C2.73478 4 2.48043 4.10536 2.29289 4.29289C2.10536 4.48043 2 4.73478 2 5V18C2 18.5304 2.21071 19.0391 2.58579 19.4142C2.96086 19.7893 3.46957 20 4 20H19C20.654 20 22 18.654 22 17V7H20V17ZM12 7H15V9H12V7ZM12 11H15V13H12V11ZM5 7H10V13H5V7ZM5 17V15H15V17H5Z" fill="black"/>
</svg>
