<svg width="24" height="24" viewBox="0 0 24 24" fill="none" xmlns="http://www.w3.org/2000/svg">
<path d="M20.895 7.553L18.895 3.553C18.8118 3.38684 18.6841 3.24711 18.526 3.14944C18.3679 3.05177 18.1858 3.00003 18 3H13C12.621 3 12.275 3.214 12.105 3.553L10.382 7H6C5.621 7 5.275 7.214 5.105 7.553L3.105 11.553C3.03548 11.6919 2.99928 11.8451 2.99928 12.0005C2.99928 12.1559 3.03548 12.3091 3.105 12.448L5.105 16.448C5.275 16.786 5.621 17 6 17H10.382L12.106 20.447C12.1888 20.6132 12.3164 20.7531 12.4743 20.8507C12.6322 20.9484 12.8143 21.0001 13 21H18C18.379 21 18.725 20.786 18.895 20.447L20.895 16.447C20.9645 16.3081 21.0007 16.1549 21.0007 15.9995C21.0007 15.8441 20.9645 15.6909 20.895 15.552L19.118 12L20.894 8.447C20.9635 8.30828 20.9998 8.15528 21 8.00012C21.0001 7.84495 20.9642 7.69188 20.895 7.553ZM13.618 5H17.382L18.882 8L17.382 11H13.618L12.118 8L13.618 5ZM5.118 12L6.618 9H10.382L11.882 12L10.382 15H6.618L5.118 12ZM17.382 19H13.618L12.118 16L13.618 13H17.382L18.882 16L17.382 19Z" fill="black"/>
</svg>
