<svg width="24" height="24" viewBox="0 0 24 24" fill="none" xmlns="http://www.w3.org/2000/svg">
<path d="M14 2H6C5.46957 2 4.96086 2.21071 4.58579 2.58579C4.21071 2.96086 4 3.46957 4 4V20C4 20.5304 4.21071 21.0391 4.58579 21.4142C4.96086 21.7893 5.46957 22 6 22H18C18.5304 22 19.0391 21.7893 19.4142 21.4142C19.7893 21.0391 20 20.5304 20 20V8L14 2ZM11.255 16.186C11.255 17.531 10.611 18 9.574 18C9.329 18 9.007 17.958 8.797 17.888L8.916 17.027C9.063 17.076 9.252 17.111 9.462 17.111C9.91 17.111 10.191 16.908 10.191 16.173V13.203H11.255V16.186ZM13.298 17.993C12.759 17.993 12.227 17.852 11.961 17.706L12.178 16.823C12.465 16.97 12.907 17.117 13.362 17.117C13.853 17.117 14.111 16.914 14.111 16.606C14.111 16.311 13.887 16.143 13.32 15.94C12.536 15.668 12.025 15.233 12.025 14.546C12.025 13.74 12.697 13.124 13.811 13.124C14.344 13.124 14.736 13.236 15.016 13.362L14.778 14.223C14.589 14.132 14.253 13.999 13.791 13.999C13.329 13.999 13.104 14.209 13.104 14.454C13.104 14.755 13.371 14.889 13.979 15.119C14.813 15.428 15.205 15.861 15.205 16.527C15.203 17.32 14.595 17.993 13.298 17.993ZM14 9H13V4L18 9H14Z" fill="black"/>
</svg>
