<svg width="24" height="24" viewBox="0 0 24 24" fill="none" xmlns="http://www.w3.org/2000/svg">
<path d="M19 2H5C3.897 2 3 2.897 3 4V16C3 17.103 3.897 18 5 18H8.5L12 22L15.5 18H19C20.103 18 21 17.103 21 16V4C21 2.897 20.103 2 19 2ZM9 12C8.73729 11.9999 8.47717 11.9481 8.23448 11.8475C7.99179 11.7469 7.7713 11.5995 7.58558 11.4137C7.39986 11.2279 7.25256 11.0073 7.15209 10.7646C7.05161 10.5219 6.99993 10.2617 7 9.999C7.00007 9.73629 7.05188 9.47617 7.15247 9.23348C7.25307 8.99079 7.40048 8.7703 7.58629 8.58458C7.7721 8.39886 7.99267 8.25156 8.2354 8.15109C8.47814 8.05061 8.73829 7.99893 9.001 7.999C9.53157 7.99913 10.0403 8.21003 10.4154 8.58529C10.7905 8.96055 11.0011 9.46943 11.001 10C11.0009 10.5306 10.79 11.0393 10.4147 11.4144C10.0395 11.7895 9.53057 12.0001 9 12ZM15 12C14.7373 11.9999 14.4772 11.9481 14.2345 11.8475C13.9918 11.7469 13.7713 11.5995 13.5856 11.4137C13.3999 11.2279 13.2526 11.0073 13.1521 10.7646C13.0516 10.5219 12.9999 10.2617 13 9.999C13.0001 9.73629 13.0519 9.47617 13.1525 9.23348C13.2531 8.99079 13.4005 8.7703 13.5863 8.58458C13.7721 8.39886 13.9927 8.25156 14.2354 8.15109C14.4781 8.05061 14.7383 7.99893 15.001 7.999C15.5316 7.99913 16.0403 8.21003 16.4154 8.58529C16.7905 8.96055 17.0011 9.46943 17.001 10C17.0009 10.5306 16.79 11.0393 16.4147 11.4144C16.0395 11.7895 15.5306 12.0001 15 12Z" fill="black"/>
</svg>
