<svg width="24" height="24" viewBox="0 0 24 24" fill="none" xmlns="http://www.w3.org/2000/svg">
<path d="M16.7071 2.293C16.6144 2.19996 16.5042 2.12617 16.3829 2.07589C16.2615 2.0256 16.1314 1.99981 16.0001 2H8.0001C7.5861 2 7.2151 2.255 7.0661 2.641L2.0661 15.641C1.99664 15.8216 1.98112 16.0184 2.02142 16.2077C2.06172 16.3969 2.1561 16.5704 2.2931 16.707L7.2931 21.707C7.3858 21.8 7.496 21.8738 7.61733 21.9241C7.73867 21.9744 7.86875 22.0002 8.0001 22H16.0001C16.4141 22 16.7851 21.745 16.9341 21.359L21.9341 8.359C22.0036 8.17842 22.0191 7.98155 21.9788 7.79232C21.9385 7.60308 21.8441 7.42962 21.7071 7.293L16.7071 2.293ZM18.5851 7H13.4141L10.4141 4H15.5861L18.5851 7ZM15.3131 20H9.0831L13.6661 9H19.5441L15.3131 20Z" fill="black"/>
</svg>
