<svg width="24" height="24" viewBox="0 0 24 24" fill="none" xmlns="http://www.w3.org/2000/svg">
<path d="M19 14H17V17H14V19H17V22H19V19H22V17H19V14ZM4 19H7V17H5V15H3V18C3 18.2652 3.10536 18.5196 3.29289 18.7071C3.48043 18.8946 3.73478 19 4 19ZM19 4C19 3.73478 18.8946 3.48043 18.7071 3.29289C18.5196 3.10536 18.2652 3 18 3H15V5H17V7H19V4ZM5 5H7V3H4C3.73478 3 3.48043 3.10536 3.29289 3.29289C3.10536 3.48043 3 3.73478 3 4V7H5V5ZM3 9H5V13H3V9ZM17 9H19V12H17V9ZM9 3H13V5H9V3ZM9 17H12V19H9V17Z" fill="black"/>
</svg>
