<svg width="24" height="24" viewBox="0 0 24 24" fill="none" xmlns="http://www.w3.org/2000/svg">
<path d="M5 2H4V4H5V5C5.0019 6.21482 5.31929 7.40831 5.92108 8.4636C6.52288 9.51888 7.38844 10.3998 8.433 11.02C8.788 11.23 9 11.567 9 11.921V12.079C9 12.433 8.788 12.77 8.434 12.979C7.38924 13.5993 6.5235 14.4804 5.92153 15.5358C5.31957 16.5913 5.00203 17.785 5 19V20H4V22H20V20H19V19C18.998 17.785 18.6804 16.5913 18.0785 15.5358C17.4765 14.4804 16.6108 13.5993 15.566 12.979C15.212 12.771 15 12.434 15 12.079V11.921C15 11.567 15.212 11.231 15.566 11.021C16.6108 10.4007 17.4765 9.51964 18.0785 8.46418C18.6804 7.40873 18.998 6.21504 19 5V4H20V2H5ZM17 5C16.9987 5.86735 16.7722 6.7195 16.3428 7.47307C15.9133 8.22664 15.2956 8.8558 14.55 9.299C13.8973 9.67894 13.4053 10.2836 13.166 11H10.834C10.5941 10.2834 10.1019 9.67849 9.449 9.298C8.70363 8.85492 8.08607 8.22589 7.65678 7.47248C7.2275 6.71908 7.00118 5.86712 7 5V4H17V5Z" fill="black"/>
</svg>
