<svg width="24" height="24" viewBox="0 0 24 24" fill="none" xmlns="http://www.w3.org/2000/svg">
<path d="M12 2C6.486 2 2 6.486 2 12C2 17.514 6.486 22 12 22C17.514 22 22 17.514 22 12C22 6.486 17.514 2 12 2ZM12 20C7.589 20 4 16.411 4 12C4 10.832 4.258 9.725 4.709 8.724C4.863 8.814 5.017 8.906 5.165 9C5.561 9.25 5.956 9.5 6.451 9.688C6.945 9.875 7.539 10 8.33 10C9.122 10 9.716 9.875 10.211 9.687C10.706 9.499 11.102 9.25 11.498 9C11.894 8.75 12.29 8.5 12.785 8.312C13.279 8.125 13.873 8 14.665 8C15.457 8 16.051 8.125 16.545 8.313C17.04 8.5 17.436 8.75 17.832 9C18.228 9.25 18.624 9.5 19.119 9.688C19.297 9.755 19.493 9.81 19.7 9.859C19.891 10.541 20 11.257 20 12C20 16.411 16.411 20 12 20Z" fill="black"/>
<path d="M8.5 14C9.32843 14 10 13.3284 10 12.5C10 11.6716 9.32843 11 8.5 11C7.67157 11 7 11.6716 7 12.5C7 13.3284 7.67157 14 8.5 14Z" fill="black"/>
<path d="M15.5 14C16.3284 14 17 13.3284 17 12.5C17 11.6716 16.3284 11 15.5 11C14.6716 11 14 11.6716 14 12.5C14 13.3284 14.6716 14 15.5 14Z" fill="black"/>
</svg>
