<svg width="24" height="24" viewBox="0 0 24 24" fill="none" xmlns="http://www.w3.org/2000/svg">
<path d="M2 9.75999L11 7.30999V9.99999H7C6.46957 9.99999 5.96086 10.2107 5.58579 10.5858C5.21071 10.9608 5 11.4696 5 12V20C5 20.5304 5.21071 21.0391 5.58579 21.4142C5.96086 21.7893 6.46957 22 7 22H17C17.5304 22 18.0391 21.7893 18.4142 21.4142C18.7893 21.0391 19 20.5304 19 20V12C19 11.4696 18.7893 10.9608 18.4142 10.5858C18.0391 10.2107 17.5304 9.99999 17 9.99999H13V6.75999L22 4.30999V2.23999L2 7.68999V9.75999ZM11 12V15H7V12H11ZM17 12V15H13V12H17Z" fill="black"/>
</svg>
