<svg width="24" height="24" viewBox="0 0 24 24" fill="none" xmlns="http://www.w3.org/2000/svg">
<path d="M19.616 6.48L19.63 6.463L15.63 3.223L14.37 4.777L16.437 6.451C15.9242 6.76259 15.5171 7.22125 15.2685 7.76733C15.0199 8.31342 14.9413 8.92167 15.043 9.513C15.193 10.412 15.812 11.189 16.613 11.624C17.508 12.111 18.293 12.066 18.991 11.818L18.976 18C18.9772 18.1656 18.9371 18.3289 18.8593 18.475C18.7816 18.6212 18.6686 18.7457 18.5306 18.8373C18.3926 18.9288 18.2339 18.9845 18.069 18.9993C17.9041 19.0141 17.7381 18.9875 17.586 18.922C17.4669 18.8711 17.3589 18.7973 17.268 18.705C17.1756 18.6124 17.1023 18.5024 17.0523 18.3815C17.0024 18.2605 16.9768 18.1309 16.977 18L17 16C17.001 15.6064 16.924 15.2165 16.7735 14.8528C16.623 14.4891 16.4019 14.1588 16.123 13.881C15.8444 13.6018 15.5135 13.3803 15.1492 13.2291C14.7849 13.0779 14.3944 13.0001 14 13H13V5C13 4.46957 12.7893 3.96086 12.4142 3.58579C12.0391 3.21071 11.5304 3 11 3H4C3.46957 3 2.96086 3.21071 2.58579 3.58579C2.21071 3.96086 2 4.46957 2 5V19C2 19.5304 2.21071 20.0391 2.58579 20.4142C2.96086 20.7893 3.46957 21 4 21H11C11.5304 21 12.0391 20.7893 12.4142 20.4142C12.7893 20.0391 13 19.5304 13 19V15H14C14.136 15 14.267 15.027 14.391 15.078C14.629 15.1822 14.8187 15.3726 14.922 15.611C14.9739 15.7341 15.0004 15.8664 15 16L14.976 18C14.976 18.406 15.055 18.799 15.212 19.168C15.363 19.527 15.58 19.848 15.853 20.119C16.1306 20.3995 16.4613 20.6219 16.8258 20.7732C17.1903 20.9245 17.5813 21.0016 17.976 21C18.382 21 18.774 20.922 19.144 20.764C19.502 20.614 19.824 20.397 20.095 20.123C20.375 19.845 20.597 19.5142 20.7482 19.1498C20.8994 18.7853 20.9768 18.3945 20.976 18L21 9C20.999 8.49762 20.8717 8.00355 20.6299 7.56321C20.3881 7.12287 20.0394 6.75038 19.616 6.48ZM11 8H4V5H11V8ZM18 10C17.7348 10 17.4804 9.89464 17.2929 9.70711C17.1054 9.51957 17 9.26522 17 9C17 8.73478 17.1054 8.48043 17.2929 8.29289C17.4804 8.10536 17.7348 8 18 8C18.2652 8 18.5196 8.10536 18.7071 8.29289C18.8946 8.48043 19 8.73478 19 9C19 9.26522 18.8946 9.51957 18.7071 9.70711C18.5196 9.89464 18.2652 10 18 10Z" fill="black"/>
</svg>
