<svg width="24" height="24" viewBox="0 0 24 24" fill="none" xmlns="http://www.w3.org/2000/svg">
<path d="M11 17.916V20H9.00004V22H15V20H13V17.916C16.162 17.514 18.849 15.256 19.713 12.123C19.977 11.171 20.025 10.093 19.856 8.917L18.99 2.858C18.9559 2.6198 18.8369 2.40191 18.6551 2.24431C18.4733 2.08671 18.2407 1.99997 18 2H6.00004C5.7594 1.99997 5.52682 2.08671 5.34497 2.24431C5.16313 2.40191 5.04421 2.6198 5.01004 2.858L4.14504 8.916C3.97604 10.093 4.02404 11.171 4.28804 12.122C5.15104 15.256 7.83804 17.514 11 17.916ZM17.133 4L17.703 8H6.29604L6.86704 4H17.133Z" fill="black"/>
</svg>
