<svg width="24" height="24" viewBox="0 0 24 24" fill="none" xmlns="http://www.w3.org/2000/svg">
<path d="M12 2C6.486 2 2 6.486 2 12C2 17.514 6.486 22 12 22C17.514 22 22 17.514 22 12C22 6.486 17.514 2 12 2ZM7.393 10.055C7.13222 10.6702 6.99854 11.3318 7 12H5C4.99886 11.0805 5.17948 10.1698 5.53146 9.3203C5.88344 8.4708 6.39985 7.69926 7.051 7.05C7.68864 6.41076 8.44427 5.90134 9.276 5.55L10.055 7.392C9.459 7.644 8.925 8.004 8.465 8.464C8.005 8.924 7.645 9.459 7.393 10.055ZM11.993 14C11.4607 14 10.9502 13.7885 10.5738 13.4122C10.1975 13.0358 9.986 12.5253 9.986 11.993C9.986 11.4607 10.1975 10.9502 10.5738 10.5738C10.9502 10.1975 11.4607 9.986 11.993 9.986C12.5253 9.986 13.0358 10.1975 13.4122 10.5738C13.7885 10.9502 14 11.4607 14 11.993C14 12.5253 13.7885 13.0358 13.4122 13.4122C13.0358 13.7885 12.5253 14 11.993 14Z" fill="black"/>
</svg>
