<svg width="24" height="24" viewBox="0 0 24 24" fill="none" xmlns="http://www.w3.org/2000/svg">
<path d="M21.9501 8.721L21.9251 8.553L21.8991 8.559C21.7214 7.72804 21.312 6.96437 20.7184 6.35635C20.1248 5.74833 19.3711 5.32082 18.5446 5.12328C17.7182 4.92574 16.8527 4.96625 16.0483 5.24011C15.2438 5.51397 14.5334 6.00999 13.9992 6.67079C13.4649 7.33159 13.1287 8.13015 13.0294 8.97408C12.9301 9.818 13.0717 10.6728 13.438 11.4396C13.8042 12.2063 14.3801 12.8537 15.099 13.3068C15.8178 13.76 16.6503 14.0003 17.5001 14C17.7231 14 17.9371 13.966 18.1501 13.935C18.0811 14.167 18.0101 14.403 17.8961 14.615C17.7821 14.923 17.6041 15.19 17.4271 15.459C17.2791 15.75 17.0181 15.947 16.8261 16.196C16.6251 16.438 16.3511 16.599 16.1341 16.8C15.9211 17.01 15.6421 17.115 15.4201 17.263C15.1881 17.396 14.9861 17.543 14.7701 17.613L14.2311 17.835L13.7571 18.032L14.2411 19.971L14.8381 19.827C15.0291 19.779 15.2621 19.723 15.5271 19.656C15.7981 19.606 16.0871 19.469 16.4091 19.344C16.7261 19.201 17.0951 19.106 17.4371 18.877C17.7811 18.659 18.1781 18.477 18.5281 18.185C18.8671 17.884 19.2761 17.623 19.5781 17.241C19.9081 16.883 20.2341 16.507 20.4871 16.079C20.7801 15.671 20.9791 15.223 21.1891 14.78C21.3791 14.337 21.5321 13.884 21.6571 13.444C21.8941 12.562 22.0001 11.724 22.0411 11.007C22.0751 10.289 22.0551 9.692 22.0131 9.26C21.999 9.07959 21.978 8.89979 21.9501 8.721ZM10.9501 8.721L10.9251 8.553L10.8991 8.559C10.7214 7.72804 10.312 6.96437 9.71839 6.35635C9.12477 5.74833 8.37112 5.32082 7.54465 5.12328C6.71818 4.92574 5.85267 4.96625 5.04826 5.24011C4.24385 5.51397 3.53342 6.00999 2.99917 6.67079C2.46492 7.33159 2.12869 8.13015 2.02938 8.97408C1.93006 9.818 2.07173 10.6728 2.43799 11.4396C2.80424 12.2063 3.38012 12.8537 4.09898 13.3068C4.81784 13.76 5.6503 14.0003 6.50005 14C6.72305 14 6.93705 13.966 7.15005 13.935C7.08105 14.167 7.01005 14.403 6.89605 14.615C6.78205 14.923 6.60405 15.19 6.42705 15.459C6.27905 15.75 6.01805 15.947 5.82605 16.196C5.62505 16.438 5.35105 16.599 5.13405 16.8C4.92105 17.01 4.64205 17.115 4.42005 17.263C4.18805 17.396 3.98605 17.543 3.77005 17.613L3.23105 17.835C2.93005 17.958 2.75805 18.03 2.75805 18.03L3.24205 19.969L3.83905 19.825C4.03005 19.777 4.26305 19.721 4.52805 19.654C4.79905 19.604 5.08805 19.467 5.41005 19.342C5.72705 19.199 6.09605 19.104 6.43805 18.875C6.78205 18.657 7.17905 18.475 7.52905 18.183C7.86805 17.882 8.27705 17.621 8.57905 17.239C8.90905 16.881 9.23505 16.505 9.48805 16.077C9.78105 15.669 9.98005 15.221 10.1901 14.778C10.3801 14.335 10.5331 13.882 10.6581 13.442C10.8951 12.56 11.0011 11.722 11.0421 11.005C11.0761 10.287 11.0561 9.69 11.0141 9.258C10.9991 9.0783 10.9778 8.89918 10.9501 8.721Z" fill="black"/>
</svg>
