<svg width="24" height="24" viewBox="0 0 24 24" fill="none" xmlns="http://www.w3.org/2000/svg">
<path d="M20.772 13.155L19.404 9.05098C19.2056 8.45346 18.8238 7.93368 18.3131 7.56548C17.8024 7.19729 17.1886 6.99942 16.559 6.99998H7.441C6.81139 6.99942 6.19761 7.19729 5.68688 7.56548C5.17615 7.93368 4.79445 8.45346 4.596 9.05098L3.228 13.155C2.8643 13.3073 2.55371 13.5637 2.33523 13.8919C2.11676 14.2202 2.00013 14.6057 2 15V18C2 18.738 2.404 19.376 3 19.723V21C3 21.2652 3.10536 21.5195 3.29289 21.7071C3.48043 21.8946 3.73478 22 4 22H5C5.26522 22 5.51957 21.8946 5.70711 21.7071C5.89464 21.5195 6 21.2652 6 21V20H18V21C18 21.2652 18.1054 21.5195 18.2929 21.7071C18.4804 21.8946 18.7348 22 19 22H20C20.2652 22 20.5196 21.8946 20.7071 21.7071C20.8946 21.5195 21 21.2652 21 21V19.723C21.3034 19.549 21.5556 19.2981 21.7311 18.9956C21.9067 18.6931 21.9994 18.3497 22 18V15C22 14.169 21.493 13.458 20.772 13.155ZM7.441 8.99998H16.558C16.768 8.99993 16.9726 9.06597 17.143 9.18873C17.3133 9.3115 17.4407 9.48477 17.507 9.68398L18.613 13H5.387L6.492 9.68398C6.629 9.27498 7.011 8.99998 7.441 8.99998ZM5.5 18C5.30295 17.9999 5.10785 17.961 4.92582 17.8856C4.7438 17.8101 4.57842 17.6995 4.43913 17.5601C4.15783 17.2786 3.99987 16.8969 4 16.499C4.00013 16.101 4.15835 15.7194 4.43984 15.4381C4.72133 15.1568 5.10304 14.9988 5.501 14.999C5.89896 14.9991 6.28056 15.1573 6.56187 15.4388C6.84317 15.7203 7.00113 16.102 7.001 16.5C7.00087 16.8979 6.84265 17.2795 6.56116 17.5608C6.27967 17.8421 5.89796 18.0001 5.5 18ZM18.5 18C18.102 17.9998 17.7204 17.8416 17.4391 17.5601C17.1578 17.2786 16.9999 16.8969 17 16.499C17.0001 16.101 17.1583 15.7194 17.4398 15.4381C17.7213 15.1568 18.103 14.9988 18.501 14.999C18.899 14.9991 19.2806 15.1573 19.5619 15.4388C19.8432 15.7203 20.0011 16.102 20.001 16.5C20.0009 16.8979 19.8427 17.2795 19.5612 17.5608C19.2797 17.8421 18.898 18.0001 18.5 18ZM9 4.37798C9.005 3.28998 7.963 2.32698 7.613 2.03398C7.58118 2.00692 7.54077 1.99207 7.499 1.99207C7.45723 1.99207 7.41682 2.00692 7.385 2.03398C7.033 2.32498 5.995 3.27098 6 4.37698C6 5.27198 6.673 5.99998 7.5 5.99998C8.327 5.99998 9 5.27198 9 4.37798ZM13.5 4.37798C13.505 3.28998 12.463 2.32598 12.113 2.03398C12.0812 2.00692 12.0408 1.99207 11.999 1.99207C11.9572 1.99207 11.9168 2.00692 11.885 2.03398C11.532 2.32498 10.494 3.27198 10.499 4.37798C10.5 5.27198 11.173 5.99998 12 5.99998C12.827 5.99998 13.5 5.27198 13.5 4.37798ZM18 4.37798C18.005 3.28998 16.963 2.32598 16.613 2.03398C16.5812 2.00692 16.5408 1.99207 16.499 1.99207C16.4572 1.99207 16.4168 2.00692 16.385 2.03398C16.033 2.32498 14.995 3.27098 15 4.37698C15 5.27198 15.673 5.99998 16.5 5.99998C17.327 5.99998 18 5.27198 18 4.37798Z" fill="black"/>
</svg>
