<svg width="24" height="24" viewBox="0 0 24 24" fill="none" xmlns="http://www.w3.org/2000/svg">
<path d="M21 11.597V11H22V8H21V6C21 3.794 19.206 2 17 2H7C4.794 2 3 3.794 3 6V8H2V11H3V11.597C2.353 12.327 1.99739 13.2696 2.001 14.245L2.005 18.003C2.006 18.736 2.409 19.372 3 19.719V21C3 21.2652 3.10536 21.5196 3.29289 21.7071C3.48043 21.8946 3.73478 22 4 22H5C5.26522 22 5.51957 21.8946 5.70711 21.7071C5.89464 21.5196 6 21.2652 6 21V20H18V21C18 21.2652 18.1054 21.5196 18.2929 21.7071C18.4804 21.8946 18.7348 22 19 22H20C20.2652 22 20.5196 21.8946 20.7071 21.7071C20.8946 21.5196 21 21.2652 21 21V19.726C21.1533 19.6404 21.2949 19.5352 21.421 19.413C21.798 19.035 22.006 18.532 22.005 17.998L22.001 14.239C22.0031 13.2653 21.6468 12.3249 21 11.597ZM8 4H16V6H8V4ZM6.5 17C6.10204 16.9999 5.72044 16.8417 5.43913 16.5602C5.15783 16.2787 4.99987 15.897 5 15.499C5.00013 15.101 5.15835 14.7194 5.43984 14.4381C5.72133 14.1568 6.10304 13.9989 6.501 13.999C6.89896 13.9991 7.28056 14.1573 7.56187 14.4388C7.84317 14.7203 8.00113 15.102 8.001 15.5C8.00087 15.898 7.84265 16.2796 7.56116 16.5609C7.27967 16.8422 6.89796 17.0001 6.5 17ZM11 12H5V8H11V12ZM17.5 17C17.102 16.9999 16.7204 16.8417 16.4391 16.5602C16.1578 16.2787 15.9999 15.897 16 15.499C16.0001 15.101 16.1583 14.7194 16.4398 14.4381C16.7213 14.1568 17.103 13.9989 17.501 13.999C17.899 13.9991 18.2806 14.1573 18.5619 14.4388C18.8432 14.7203 19.0011 15.102 19.001 15.5C19.0009 15.898 18.8427 16.2796 18.5612 16.5609C18.2797 16.8422 17.898 17.0001 17.5 17ZM19 12H13V8H19V12Z" fill="black"/>
</svg>
