<svg width="24" height="24" viewBox="0 0 24 24" fill="none" xmlns="http://www.w3.org/2000/svg">
<path d="M6.75801 8.758L5.34401 7.344C4.53371 8.155 3.90604 9.12975 3.50301 10.203L5.37601 10.904C5.67876 10.0985 6.14992 9.36687 6.75801 8.758ZM19 12.999C19.0032 11.9481 18.7977 10.9071 18.3953 9.93636C17.9929 8.9656 17.4017 8.08443 16.656 7.344C15.4032 6.08483 13.7633 5.28355 12 5.069V2L7.00001 6L12 10V7.089C13.2288 7.29194 14.3629 7.87575 15.242 8.758C15.8012 9.31357 16.2445 9.9746 16.5462 10.7028C16.848 11.4309 17.0023 12.2118 17 13V13.002C17 13.332 16.967 13.657 16.914 13.979C16.907 14.022 16.903 14.067 16.895 14.11C16.7175 15.0322 16.3279 15.9004 15.757 16.646C15.597 16.855 15.426 17.058 15.241 17.243C15.0151 17.4664 14.7716 17.6714 14.513 17.856C13.8349 18.3525 13.0586 18.6985 12.236 18.871C12.094 18.901 11.951 18.921 11.806 18.94C11.744 18.949 11.684 18.961 11.622 18.967C10.9878 19.032 10.3474 18.9972 9.72401 18.864L9.30001 20.819C10.1323 20.9974 10.9874 21.0433 11.834 20.955C11.903 20.948 11.972 20.934 12.041 20.925C12.246 20.899 12.45 20.869 12.651 20.827L12.704 20.818L12.703 20.813C13.4498 20.653 14.1693 20.3851 14.839 20.018L14.84 20.019L14.868 20C15.2213 19.8028 15.559 19.5788 15.878 19.33C16.148 19.121 16.41 18.9 16.655 18.655C16.903 18.408 17.125 18.142 17.336 17.87C17.357 17.842 17.385 17.817 17.406 17.789L17.4 17.785C17.8589 17.1756 18.227 16.503 18.493 15.788L18.501 15.791C18.53 15.713 18.551 15.633 18.577 15.554C18.614 15.444 18.652 15.333 18.684 15.221C18.724 15.081 18.757 14.94 18.789 14.798C18.811 14.699 18.837 14.603 18.855 14.503C18.887 14.332 18.911 14.159 18.931 13.987C18.941 13.911 18.954 13.837 18.961 13.76C18.984 13.511 18.998 13.26 18.998 13.007C19 13.005 19 13.003 19 12.999ZM6.19701 16.597L4.59701 17.798C5.28512 18.7141 6.161 19.4727 7.16601 20.023L8.12701 18.269C7.37148 17.8561 6.71333 17.286 6.19701 16.597ZM5.00001 13C5.00001 12.855 5.00501 12.713 5.01501 12.571L3.02101 12.428C2.93734 13.5737 3.10209 14.7239 3.50401 15.8L5.37701 15.099C5.12648 14.4276 4.99878 13.7166 5.00001 13Z" fill="black"/>
</svg>
