<svg width="24" height="24" viewBox="0 0 24 24" fill="none" xmlns="http://www.w3.org/2000/svg">
<path d="M20.345 18.931C20.5364 18.8617 20.702 18.7352 20.8191 18.5687C20.9363 18.4021 20.9994 18.2036 21 18V17C21.0002 16.8687 20.9744 16.7386 20.9241 16.6172C20.8738 16.4959 20.8 16.3857 20.707 16.293L19 14.586V10C19 6.783 16.815 4.073 13.855 3.258C13.562 2.52 12.846 2 12 2C11.154 2 10.438 2.52 10.145 3.258C8.82197 3.622 7.68197 4.386 6.79897 5.385L3.70697 2.293L2.29297 3.707L20.293 21.707L21.707 20.293L20.345 18.931ZM12 22C12.6193 22.0008 13.2234 21.8086 13.7285 21.4502C14.2335 21.0917 14.6143 20.5849 14.818 20H9.18197C9.38563 20.5849 9.76645 21.0917 10.2715 21.4502C10.7765 21.8086 11.3807 22.0008 12 22ZM4.99997 10V14.586L3.29297 16.293C3.19993 16.3857 3.12614 16.4959 3.07585 16.6172C3.02557 16.7386 2.99978 16.8687 2.99997 17V18C2.99997 18.2652 3.10533 18.5196 3.29286 18.7071C3.4804 18.8946 3.73475 19 3.99997 19H14.879L5.06797 9.189C5.03697 9.457 4.99997 9.724 4.99997 10Z" fill="black"/>
</svg>
