<svg width="24" height="24" viewBox="0 0 24 24" fill="none" xmlns="http://www.w3.org/2000/svg">
<path d="M10.1201 22C11.5766 21.8751 12.9675 21.3388 14.1308 20.4535C15.294 19.5683 16.1816 18.3705 16.6901 17C17.0845 15.9786 17.2418 14.881 17.1501 13.79C17.1189 13.3146 17.1922 12.8381 17.365 12.3941C17.5378 11.95 17.8058 11.5493 18.1501 11.22L18.7601 10.61C19.3544 10.0168 19.7407 9.2473 19.8615 8.41639C19.9822 7.58548 19.8309 6.73781 19.4301 6.00001L21.7101 3.72001L20.2901 2.29001L18.0001 4.55001C17.2707 4.11277 16.4163 3.93141 15.5722 4.03466C14.7281 4.1379 13.9426 4.51986 13.3401 5.12001L12.5901 5.87001C12.268 6.20989 11.8757 6.47545 11.4405 6.64816C11.0053 6.82087 10.5376 6.89657 10.0701 6.87001C8.93365 6.78894 7.79446 6.98453 6.75012 7.44001C5.41457 7.99741 4.26178 8.91763 3.42228 10.0965C2.58279 11.2753 2.09014 12.6656 2.00012 14.11C1.95519 15.1779 2.13632 16.2432 2.53164 17.2363C2.92696 18.2293 3.52756 19.1276 4.29412 19.8725C5.06067 20.6173 5.9759 21.1919 6.97988 21.5585C7.98386 21.9251 9.05396 22.0756 10.1201 22ZM9.50012 9.25001V10.75C8.50555 10.75 7.55173 11.1451 6.84846 11.8484C6.1452 12.5516 5.75012 13.5054 5.75012 14.5H4.25012C4.25276 13.1084 4.80673 11.7746 5.79072 10.7906C6.77472 9.80662 8.10854 9.25265 9.50012 9.25001Z" fill="black"/>
</svg>
