<svg width="24" height="24" viewBox="0 0 24 24" fill="none" xmlns="http://www.w3.org/2000/svg">
<path d="M19 22V4C19 2.897 18.103 2 17 2H7C5.897 2 5 2.897 5 4V22L12 17.334L19 22ZM8.006 8.056C8.006 7.488 8.23 6.973 8.591 6.6C8.952 6.228 9.451 5.997 10.003 5.997C10.003 5.997 10.999 5.994 12 7.026C13.001 5.994 13.997 5.997 13.997 5.997C14.549 5.997 15.048 6.227 15.409 6.6C15.77 6.973 15.994 7.488 15.994 8.056C15.994 8.624 15.77 9.14 15.409 9.512L12 13.203L8.591 9.512C8.21366 9.12148 8.00376 8.59903 8.006 8.056Z" fill="black"/>
</svg>
