<svg width="24" height="24" viewBox="0 0 24 24" fill="none" xmlns="http://www.w3.org/2000/svg">
<path d="M19.062 4.93801C18.139 4.00821 17.0414 3.26998 15.8322 2.76578C14.623 2.26157 13.3261 2.00133 12.016 2.00001H11.99C10.6757 1.99792 9.37396 2.25651 8.16023 2.76082C6.9465 3.26512 5.84483 4.00513 4.91898 4.93801C1.02098 8.83601 1.02098 15.181 4.91898 19.081C6.81398 20.976 9.32398 22.019 11.99 22.019C14.656 22.019 17.167 20.976 19.061 19.081C22.961 15.182 22.961 8.83801 19.062 4.93801ZM13.5 15C13.8979 15.0001 14.2795 15.1584 14.5609 15.4399C14.8422 15.7213 15.0001 16.1031 15 16.501C14.9999 16.899 14.8416 17.2806 14.5601 17.5619C14.2787 17.8432 13.8969 18.0011 13.499 18.001C13.101 18.0009 12.7194 17.8427 12.4381 17.5612C12.1568 17.2797 11.9988 16.898 11.999 16.5C11.9991 16.1021 12.1573 15.7204 12.4388 15.4391C12.7203 15.1578 13.102 14.9999 13.5 15ZM6.33298 6.35301C7.0735 5.60626 7.95478 5.01379 8.9258 4.6099C9.89682 4.206 10.9383 3.99871 11.99 4.00001L12.016 4.00101C13.668 4.00901 15.258 5.06701 15.566 6.37201C15.932 7.92401 14.468 9.65001 11.548 11.109C6.43498 13.664 6.23598 16.442 6.57298 17.871L6.58098 17.892C6.49898 17.817 6.41198 17.746 6.33198 17.666C3.21398 14.547 3.21398 9.47201 6.33298 6.35301Z" fill="black"/>
<path d="M10.5 9C11.3284 9 12 8.32843 12 7.5C12 6.67157 11.3284 6 10.5 6C9.67157 6 9 6.67157 9 7.5C9 8.32843 9.67157 9 10.5 9Z" fill="black"/>
</svg>
