<svg width="24" height="24" viewBox="0 0 24 24" fill="none" xmlns="http://www.w3.org/2000/svg">
<path d="M18.293 4.293L17.207 5.379L16.121 4.293C16.0282 4.20005 15.918 4.12632 15.7967 4.07601C15.6754 4.0257 15.5453 3.9998 15.414 3.9998C15.2827 3.9998 15.1526 4.0257 15.0313 4.07601C14.91 4.12632 14.7998 4.20005 14.707 4.293L13.458 5.542C12.5122 5.18532 11.5099 5.00173 10.499 5C5.813 5 2 8.813 2 13.5C2 18.187 5.813 22 10.499 22C15.185 22 18.999 18.187 18.999 13.5C18.9984 12.598 18.8529 11.7019 18.568 10.846L19.914 9.5C20.0069 9.40721 20.0807 9.29701 20.131 9.17569C20.1813 9.05438 20.2072 8.92433 20.2072 8.793C20.2072 8.66167 20.1813 8.53162 20.131 8.41031C20.0807 8.28899 20.0069 8.17879 19.914 8.086L18.621 6.793L19.711 5.703C19.94 5.474 20.556 5 21 5H22V3H21C19.6 3 18.416 4.167 18.293 4.293ZM10.499 10C9.564 10 8.686 10.364 8.024 11.025C7.69829 11.3495 7.4401 11.7352 7.26435 12.16C7.08859 12.5848 6.99874 13.0403 7 13.5H5C5 12.032 5.571 10.651 6.609 9.612C7.11855 9.09937 7.72475 8.69293 8.39248 8.41623C9.06021 8.13952 9.77621 7.99805 10.499 8V10Z" fill="black"/>
</svg>
