<svg width="24" height="24" viewBox="0 0 24 24" fill="none" xmlns="http://www.w3.org/2000/svg">
<path d="M18 9C19.6569 9 21 7.65685 21 6C21 4.34315 19.6569 3 18 3C16.3431 3 15 4.34315 15 6C15 7.65685 16.3431 9 18 9Z" fill="black"/>
<path d="M20 18V10.578C19.3698 10.8559 18.6887 10.9997 18 11C16.6739 11 15.4021 10.4732 14.4644 9.53553C13.5268 8.59785 13 7.32608 13 6C13 5.288 13.153 4.613 13.422 4H5.99997C5.82197 4 5.65297 4.031 5.48997 4.076L3.70697 2.293L2.29297 3.707L20.293 21.707L21.707 20.293L19.924 18.51C19.969 18.347 20 18.178 20 18ZM3.99997 18C3.99997 19.103 4.89697 20 5.99997 20H15.879L3.99997 8.121V18Z" fill="black"/>
</svg>
