<svg width="24" height="24" viewBox="0 0 24 24" fill="none" xmlns="http://www.w3.org/2000/svg">
<path d="M18.842 15.296C19.2499 15.3812 19.675 15.3049 20.0279 15.0832C20.3807 14.8614 20.6338 14.5115 20.734 14.107V14.106C20.7848 13.9007 20.7947 13.6875 20.763 13.4784C20.7314 13.2693 20.6588 13.0685 20.5495 12.8875C20.4402 12.7065 20.2962 12.5488 20.1259 12.4235C19.9556 12.2981 19.7623 12.2076 19.557 12.157L14.981 11.024L9.82499 4.20999L7.60099 3.98499L10.532 10.574L6.08299 10.125L3.77099 6.29599L2.39099 6.60599L3.63099 12.126L18.842 15.296ZM2.99999 18H21V20H2.99999V18Z" fill="black"/>
</svg>
