<svg width="24" height="24" viewBox="0 0 24 24" fill="none" xmlns="http://www.w3.org/2000/svg">
<path d="M11.4921 21.771C11.7861 21.928 12.1551 21.928 12.4491 21.77C20.4611 17.466 21.0301 9.05699 21.0231 6.66599C21.0223 6.47382 20.9655 6.28604 20.8597 6.12566C20.7538 5.96527 20.6035 5.83923 20.4271 5.76299L12.3761 2.19799C12.2479 2.14152 12.1095 2.11244 11.9695 2.11261C11.8294 2.11278 11.691 2.1422 11.5631 2.19899L3.57006 5.76499C3.39626 5.841 3.24801 5.96544 3.14304 6.12344C3.03806 6.28144 2.98079 6.46632 2.97806 6.65599C2.94406 9.03499 3.42306 17.462 11.4921 21.771ZM8.29306 9.70699L9.70706 8.29299L12.0001 10.586L14.2931 8.29299L15.7071 9.70699L13.4141 12L15.7071 14.293L14.2931 15.707L12.0001 13.414L9.70706 15.707L8.29306 14.293L10.5861 12L8.29306 9.70699Z" fill="black"/>
</svg>
