<svg width="24" height="24" viewBox="0 0 24 24" fill="none" xmlns="http://www.w3.org/2000/svg">
<path d="M23 7C21.2373 6.90302 19.4886 7.36118 18 8.31C17.64 7.9 17.27 7.49 16.88 7.1L16.59 6.83L16.73 6.71C17.219 6.29021 17.5675 5.73052 17.7284 5.10644C17.8894 4.48236 17.855 3.82393 17.63 3.22C17.3049 2.53818 16.7888 1.96543 16.1444 1.57134C15.5 1.17725 14.755 0.978762 14 1V3C14.3558 2.99505 14.7064 3.08511 15.0158 3.26089C15.3252 3.43668 15.5821 3.69182 15.76 4C15.93 4.4 15.76 4.84 15.29 5.31L15.06 5.52C14.0169 4.65086 12.8718 3.91208 11.65 3.32C9.11996 2.18 7.81996 2.71 7.17996 3.32C6.98494 3.51549 6.82884 3.74625 6.71996 4L6.53996 4.53L5.09996 8.87C6.23996 11.71 8.99996 16.76 15 18.94L20 17.28C20.1686 17.2172 20.3171 17.1101 20.43 16.97L20.64 16.79C22.07 15.35 21.15 12.58 19.23 9.89C20.37 9.22466 21.6827 8.91476 23 9V7ZM19.21 15.37H19.15C18.46 15.74 15.6 14.8 12.36 11.56C12.02 11.22 11.7 10.89 11.41 10.56C11.31 10.45 11.22 10.33 11.12 10.21L10.59 9.57L10.31 9.18C10.17 8.99 10.03 8.8 9.90996 8.62C9.78996 8.44 9.74996 8.36 9.66996 8.23C9.58996 8.1 9.44996 7.89 9.35996 7.72C9.26996 7.55 9.22996 7.48 9.16996 7.35C9.10996 7.22 8.99996 7.07 8.93996 6.93C8.87996 6.79 8.84996 6.7 8.79996 6.59C8.74996 6.48 8.68996 6.32 8.64996 6.19C8.60996 6.06 8.59996 6 8.57996 5.9C8.55996 5.8 8.51996 5.66 8.49996 5.56C8.49515 5.48007 8.49515 5.39993 8.49996 5.32C8.49013 5.23361 8.49013 5.14639 8.49996 5.06L8.60996 4.75C8.77996 4.57 9.51996 4.52 10.84 5.12C11.7221 5.54379 12.5568 6.06001 13.33 6.66C12.9085 6.84603 12.459 6.96092 12 7V9C13.0623 8.93973 14.0931 8.61674 15 8.06L15.49 8.52C15.93 8.95 16.32 9.38 16.68 9.79C16.077 10.8181 15.8375 12.0192 16 13.2L18 12.81C17.9324 12.433 17.9324 12.047 18 11.67C19.29 13.64 19.53 15.06 19.21 15.37ZM4.39996 11L2.16996 17.7C2.009 18.1919 1.96674 18.7149 2.04663 19.2263C2.12652 19.7376 2.32629 20.2228 2.6296 20.6422C2.93292 21.0616 3.33117 21.4032 3.79181 21.6392C4.25245 21.8752 4.76239 21.9988 5.27996 22C5.62019 21.9967 5.95774 21.9393 6.27996 21.83L12.8 19.66C9.12009 17.7807 6.16629 14.7354 4.39996 11Z" fill="black"/>
</svg>
