<svg width="24" height="24" viewBox="0 0 24 24" fill="none" xmlns="http://www.w3.org/2000/svg">
<path d="M12 2C6.486 2 2 6.486 2 12C2 17.514 6.486 22 12 22C17.514 22 22 17.514 22 12C22 6.486 17.514 2 12 2ZM6.435 8.467C6.70387 8.19048 7.0695 8.02899 7.45498 8.0165C7.84047 8.004 8.21578 8.14147 8.502 8.4C8.78378 8.13764 9.15618 7.99454 9.54115 8.00069C9.92611 8.00684 10.2937 8.16177 10.567 8.433C11.164 9.025 11.171 9.954 10.585 10.551L8.535 12.634L6.453 10.584C6.31125 10.4471 6.1982 10.2833 6.12044 10.1022C6.04268 9.92111 6.00177 9.72635 6.00009 9.52927C5.99841 9.3322 6.03601 9.13677 6.11068 8.95438C6.18535 8.772 6.2956 8.60631 6.435 8.467ZM12 18C8 18 7 14 7 14H17C17 14 16 18 12 18ZM17.585 10.551L15.535 12.634L13.453 10.584C13.3113 10.4471 13.1983 10.2833 13.1205 10.1023C13.0427 9.92123 13.0018 9.72651 13 9.52948C12.9982 9.33245 13.0357 9.13703 13.1102 8.95462C13.1847 8.77221 13.2948 8.60645 13.434 8.467C13.7029 8.19019 14.0687 8.02851 14.4545 8.01602C14.8402 8.00352 15.2157 8.14117 15.502 8.4C15.7838 8.13764 16.1562 7.99454 16.5411 8.00069C16.9261 8.00684 17.2937 8.16177 17.567 8.433C18.164 9.024 18.172 9.954 17.585 10.551Z" fill="black"/>
</svg>
