<svg width="24" height="24" viewBox="0 0 24 24" fill="none" xmlns="http://www.w3.org/2000/svg">
<path d="M21 6C21 4.346 19.654 3 18 3C17.3817 3.00175 16.7791 3.19497 16.275 3.5531C15.7709 3.91123 15.3901 4.41669 15.185 5H8.815C8.60985 4.41669 8.22908 3.91123 7.72501 3.5531C7.22095 3.19497 6.61833 3.00175 6 3C4.346 3 3 4.346 3 6C3 7.302 3.839 8.401 5 8.815V15.184C4.41685 15.3897 3.9116 15.7708 3.55354 16.2749C3.19548 16.7791 3.00213 17.3816 3 18C3 19.654 4.346 21 6 21C6.61833 20.9982 7.22095 20.805 7.72501 20.4469C8.22908 20.0888 8.60985 19.5833 8.815 19H15.184C15.3893 19.5832 15.7701 20.0886 16.2741 20.4467C16.7782 20.8048 17.3807 20.9981 17.999 21C19.653 21 20.999 19.654 20.999 18C20.9969 17.3816 20.8035 16.7791 20.4455 16.2749C20.0874 15.7708 19.5822 15.3897 18.999 15.184V8.816C19.5824 8.61059 20.088 8.22964 20.4462 7.72544C20.8045 7.22124 20.9979 6.61852 21 6ZM18 5C18.1981 4.9998 18.3917 5.05837 18.5565 5.16828C18.7213 5.2782 18.8497 5.43452 18.9256 5.61747C19.0015 5.80042 19.0214 6.00177 18.9828 6.19604C18.9442 6.39031 18.8489 6.56876 18.7088 6.70881C18.5688 6.84887 18.3903 6.94422 18.196 6.98281C18.0018 7.02141 17.8004 7.0015 17.6175 6.92561C17.4345 6.84972 17.2782 6.72127 17.1683 6.5565C17.0584 6.39174 16.9998 6.19806 17 6C17 5.449 17.448 5 18 5ZM15.185 17H8.815C8.66633 16.5815 8.4263 16.2014 8.11234 15.8873C7.79839 15.5731 7.41841 15.3329 7 15.184V8.816C7.41841 8.6671 7.79839 8.42686 8.11234 8.11273C8.4263 7.79861 8.66633 7.41849 8.815 7H15.184C15.3329 7.41841 15.5731 7.79839 15.8873 8.11234C16.2014 8.4263 16.5815 8.66633 17 8.815V15.184C16.5816 15.3329 16.2016 15.5731 15.8877 15.8873C15.5737 16.2014 15.3337 16.5815 15.185 17ZM6 5C6.19806 4.9998 6.39174 5.05837 6.5565 5.16828C6.72127 5.2782 6.84972 5.43452 6.92561 5.61747C7.0015 5.80042 7.02141 6.00177 6.98281 6.19604C6.94422 6.39031 6.84887 6.56876 6.70881 6.70881C6.56876 6.84887 6.39031 6.94422 6.19604 6.98281C6.00177 7.02141 5.80042 7.0015 5.61747 6.92561C5.43452 6.84972 5.2782 6.72127 5.16828 6.5565C5.05837 6.39174 4.9998 6.19806 5 6C5 5.449 5.448 5 6 5ZM6 19C5.74252 18.9885 5.49941 18.8781 5.32128 18.6918C5.14315 18.5055 5.04373 18.2577 5.04373 18C5.04373 17.7423 5.14315 17.4945 5.32128 17.3082C5.49941 17.1219 5.74252 17.0115 6 17C6.25748 17.0115 6.50059 17.1219 6.67872 17.3082C6.85685 17.4945 6.95627 17.7423 6.95627 18C6.95627 18.2577 6.85685 18.5055 6.67872 18.6918C6.50059 18.8781 6.25748 18.9885 6 19ZM18 19C17.7425 18.9885 17.4994 18.8781 17.3213 18.6918C17.1431 18.5055 17.0437 18.2577 17.0437 18C17.0437 17.7423 17.1431 17.4945 17.3213 17.3082C17.4994 17.1219 17.7425 17.0115 18 17C18.2575 17.0115 18.5006 17.1219 18.6787 17.3082C18.8569 17.4945 18.9563 17.7423 18.9563 18C18.9563 18.2577 18.8569 18.5055 18.6787 18.6918C18.5006 18.8781 18.2575 18.9885 18 19Z" fill="black"/>
</svg>
