<svg width="24" height="24" viewBox="0 0 24 24" fill="none" xmlns="http://www.w3.org/2000/svg">
<path d="M12 2C6.486 2 2 6.486 2 12C2 17.514 6.486 22 12 22C17.514 22 22 17.514 22 12C22 6.486 17.514 2 12 2ZM7 10.5L7.002 10.478L5.629 9.929L6.371 8.072L11.371 10.072L10.629 11.929L9.598 11.516C9.584 11.53 9.575 11.547 9.561 11.56C9.35147 11.7703 9.08419 11.9137 8.79306 11.972C8.50193 12.0302 8.20006 12.0007 7.92573 11.8871C7.6514 11.7736 7.41696 11.5811 7.25215 11.3342C7.08735 11.0872 6.99958 10.7969 7 10.5ZM8 17C8 17 9 14 12 14C15 14 16 17 16 17H8ZM16.986 10.493C16.986 10.905 16.819 11.278 16.548 11.549C16.4097 11.6883 16.2452 11.7989 16.0639 11.8744C15.8827 11.9498 15.6883 11.9887 15.492 11.9887C15.2957 11.9887 15.1013 11.9498 14.9201 11.8744C14.7388 11.7989 14.5743 11.6883 14.436 11.549C14.425 11.538 14.417 11.525 14.407 11.514L13.37 11.929L12.628 10.072L17.628 8.072L18.37 9.929L16.984 10.483C16.9851 10.4862 16.9858 10.4896 16.986 10.493Z" fill="black"/>
</svg>
