<svg width="24" height="24" viewBox="0 0 24 24" fill="none" xmlns="http://www.w3.org/2000/svg">
<path d="M18.277 8C18.624 8.596 19.262 9 20 9C20.5304 9 21.0391 8.78929 21.4142 8.41421C21.7893 8.03914 22 7.53043 22 7C22 6.46957 21.7893 5.96086 21.4142 5.58579C21.0391 5.21071 20.5304 5 20 5C19.262 5 18.624 5.404 18.277 6H16V4C16 3.73478 15.8946 3.48043 15.7071 3.29289C15.5196 3.10536 15.2652 3 15 3H9C8.73478 3 8.48043 3.10536 8.29289 3.29289C8.10536 3.48043 8 3.73478 8 4V6H5.723C5.376 5.404 4.738 5 4 5C3.46957 5 2.96086 5.21071 2.58579 5.58579C2.21071 5.96086 2 6.46957 2 7C2 7.53043 2.21071 8.03914 2.58579 8.41421C2.96086 8.78929 3.46957 9 4 9C4.738 9 5.376 8.596 5.723 8H8V8.368C5.134 9.839 4.319 12.534 4.092 14H3C2.73478 14 2.48043 14.1054 2.29289 14.2929C2.10536 14.4804 2 14.7348 2 15V19C2 19.2652 2.10536 19.5196 2.29289 19.7071C2.48043 19.8946 2.73478 20 3 20H7C7.26522 20 7.51957 19.8946 7.70711 19.7071C7.89464 19.5196 8 19.2652 8 19V15C8 14.7348 7.89464 14.4804 7.70711 14.2929C7.51957 14.1054 7.26522 14 7 14H6.123C6.32 13.041 6.841 11.594 8.208 10.582C8.29753 10.7094 8.41601 10.8137 8.55369 10.8863C8.69137 10.959 8.84433 10.9979 9 11H15C15.1558 10.9982 15.3089 10.9592 15.4467 10.8863C15.5844 10.8134 15.7028 10.7088 15.792 10.581C17.165 11.594 17.687 13.039 17.881 14H17C16.7348 14 16.4804 14.1054 16.2929 14.2929C16.1054 14.4804 16 14.7348 16 15V19C16 19.2652 16.1054 19.5196 16.2929 19.7071C16.4804 19.8946 16.7348 20 17 20H21C21.2652 20 21.5196 19.8946 21.7071 19.7071C21.8946 19.5196 22 19.2652 22 19V15C22 14.7348 21.8946 14.4804 21.7071 14.2929C21.5196 14.1054 21.2652 14 21 14H19.908C19.681 12.534 18.866 9.839 16 8.368V8H18.277ZM14 9H10V5H14V9Z" fill="black"/>
</svg>
