<svg width="24" height="24" viewBox="0 0 24 24" fill="none" xmlns="http://www.w3.org/2000/svg">
<path d="M15.793 6.793L13 4V11H20L17.207 8.207L21.707 3.707L20.293 2.293L15.793 6.793Z" fill="black"/>
<path d="M16.422 13.443C16.2299 13.2683 15.9774 13.1752 15.7178 13.1832C15.4583 13.1912 15.212 13.2998 15.031 13.486L12.639 15.947C12.063 15.837 10.905 15.476 9.71304 14.287C8.52104 13.094 8.16004 11.933 8.05304 11.361L10.512 8.96699C10.6985 8.78612 10.8072 8.53982 10.8152 8.2802C10.8232 8.02059 10.7299 7.76804 10.555 7.57599L6.86004 3.51299C6.68508 3.32035 6.44192 3.2035 6.18219 3.18725C5.92246 3.17101 5.66664 3.25665 5.46904 3.42599L3.29904 5.28699C3.12586 5.46041 3.02232 5.69133 3.00804 5.93599C2.99304 6.18599 2.70704 12.108 7.29904 16.702C11.305 20.707 16.324 21 17.705 21C17.908 21 18.031 20.994 18.064 20.992C18.3086 20.9785 18.5395 20.8748 18.712 20.701L20.573 18.53C20.7423 18.3324 20.8279 18.0767 20.8119 17.8171C20.7958 17.5574 20.6793 17.3142 20.487 17.139L16.422 13.443Z" fill="black"/>
</svg>
