<svg width="24" height="24" viewBox="0 0 24 24" fill="none" xmlns="http://www.w3.org/2000/svg">
<path d="M14.9999 9.783V4H15.9999V2H7.99995V4H8.99995V9.783L4.73195 19.172C4.59275 19.4766 4.53261 19.8114 4.55708 20.1454C4.58155 20.4795 4.68985 20.8019 4.87195 21.083C5.05242 21.3649 5.30107 21.5967 5.5949 21.757C5.88873 21.9173 6.21824 22.0009 6.55295 22H17.4479C17.7827 22.0009 18.1122 21.9173 18.406 21.757C18.6998 21.5967 18.9485 21.3649 19.1289 21.083C19.4989 20.509 19.5519 19.794 19.2689 19.172L14.9999 9.783ZM10.9099 10.414C10.9699 10.284 10.9999 10.143 10.9999 10V4H12.9999V10C12.9999 10.143 13.0299 10.284 13.0899 10.414L15.1769 15H8.82495L10.9099 10.414Z" fill="black"/>
</svg>
