<svg width="24" height="24" viewBox="0 0 24 24" fill="none" xmlns="http://www.w3.org/2000/svg">
<path d="M21 10.975V8C21 7.46957 20.7893 6.96086 20.4142 6.58579C20.0391 6.21072 19.5304 6 19 6H13V4.688C13.305 4.414 13.5 4.02 13.5 3.578C13.5 3.18018 13.342 2.79865 13.0607 2.51734C12.7794 2.23604 12.3978 2.078 12 2.078C11.6022 2.078 11.2206 2.23604 10.9393 2.51734C10.658 2.79865 10.5 3.18018 10.5 3.578C10.5 4.02 10.695 4.414 11 4.688V6H5C4.46957 6 3.96086 6.21072 3.58579 6.58579C3.21071 6.96086 3 7.46957 3 8V10.998L2.928 11.003C2.67589 11.021 2.43996 11.1338 2.26775 11.3188C2.09554 11.5038 1.99987 11.7473 2 12V14C2 14.2652 2.10536 14.5196 2.29289 14.7071C2.48043 14.8946 2.73478 15 3 15V20C3 20.5304 3.21071 21.0391 3.58579 21.4142C3.96086 21.7893 4.46957 22 5 22H19C19.5304 22 20.0391 21.7893 20.4142 21.4142C20.7893 21.0391 21 20.5304 21 20V15C21.2652 15 21.5196 14.8946 21.7071 14.7071C21.8946 14.5196 22 14.2652 22 14V12.062C22.0116 11.9068 21.9869 11.751 21.928 11.607C21.726 11.119 21.293 11.002 21 10.975ZM7 12C7 10.896 7.672 10 8.5 10C9.328 10 10 10.896 10 12C10 13.104 9.328 14 8.5 14C7.672 14 7 13.104 7 12ZM15.998 18C14.997 17.997 8 18 8 18V16C8 16 15.001 15.998 16.002 16L15.998 18ZM15.5 14C14.672 14 14 13.104 14 12C14 10.896 14.672 10 15.5 10C16.328 10 17 10.896 17 12C17 13.104 16.328 14 15.5 14Z" fill="black"/>
</svg>
