<svg width="24" height="24" viewBox="0 0 24 24" fill="none" xmlns="http://www.w3.org/2000/svg">
<path d="M20 4H4C2.897 4 2 4.897 2 6V18C2 19.103 2.897 20 4 20H20C21.103 20 22 19.103 22 18V6C22 4.897 21.103 4 20 4ZM12.5 16C11.837 16 11.2011 15.7366 10.7322 15.2678C10.2634 14.7989 10 14.163 10 13.5C10 12.837 10.2634 12.2011 10.7322 11.7322C11.2011 11.2634 11.837 11 12.5 11C13.0427 11.0013 13.5698 11.1812 14 11.512C13.396 11.968 13 12.685 13 13.5C13 14.315 13.396 15.032 14 15.488C13.5698 15.8188 13.0427 15.9987 12.5 16ZM16.5 16C15.837 16 15.2011 15.7366 14.7322 15.2678C14.2634 14.7989 14 14.163 14 13.5C14 12.837 14.2634 12.2011 14.7322 11.7322C15.2011 11.2634 15.837 11 16.5 11C17.163 11 17.7989 11.2634 18.2678 11.7322C18.7366 12.2011 19 12.837 19 13.5C19 14.163 18.7366 14.7989 18.2678 15.2678C17.7989 15.7366 17.163 16 16.5 16Z" fill="black"/>
</svg>
