<svg width="24" height="24" viewBox="0 0 24 24" fill="none" xmlns="http://www.w3.org/2000/svg">
<path d="M4.43093 12.822L17.4309 21.822C17.581 21.9258 17.7565 21.9866 17.9386 21.9978C18.1207 22.009 18.3024 21.9701 18.464 21.8855C18.6256 21.8008 18.761 21.6735 18.8554 21.5175C18.9499 21.3614 18.9999 21.1824 18.9999 21V3C19.0001 2.81748 18.9502 2.6384 18.8558 2.48218C18.7614 2.32596 18.6261 2.19856 18.4644 2.11377C18.3028 2.02899 18.121 1.99006 17.9389 2.0012C17.7567 2.01235 17.581 2.07314 17.4309 2.177L4.43093 11.177C4.29849 11.2694 4.19033 11.3925 4.11564 11.5357C4.04095 11.6789 4.00195 11.838 4.00195 11.9995C4.00195 12.161 4.04095 12.3201 4.11564 12.4633C4.19033 12.6065 4.29849 12.7296 4.43093 12.822Z" fill="black"/>
</svg>
