<svg width="24" height="24" viewBox="0 0 24 24" fill="none" xmlns="http://www.w3.org/2000/svg">
<path d="M21.5121 6.11198L17.6221 10.001L14.0871 6.46498L17.9761 2.57598C16.7894 2.08816 15.485 1.96235 14.2271 2.21439C12.9691 2.46643 11.8138 3.08505 10.9068 3.99235C9.99968 4.89965 9.38133 6.05506 9.12958 7.31308C8.87784 8.5711 9.00396 9.87549 9.49205 11.062L3.21605 17.337C3.12311 17.4298 3.04937 17.54 2.99906 17.6613C2.94875 17.7826 2.92285 17.9126 2.92285 18.044C2.92285 18.1753 2.94875 18.3054 2.99906 18.4267C3.04937 18.548 3.12311 18.6582 3.21605 18.751L5.33805 20.873C5.43084 20.9659 5.54104 21.0397 5.66236 21.09C5.78367 21.1403 5.91372 21.1662 6.04505 21.1662C6.17639 21.1662 6.30643 21.1403 6.42775 21.09C6.54906 21.0397 6.65926 20.9659 6.75205 20.873L13.0271 14.597C14.2137 15.0855 15.5183 15.2118 16.7766 14.9602C18.0349 14.7086 19.1906 14.0902 20.0981 13.183C21.005 12.2753 21.6231 11.1196 21.8747 9.86138C22.1263 8.60317 22.0001 7.29864 21.5121 6.11198Z" fill="black"/>
</svg>
