<svg width="24" height="24" viewBox="0 0 24 24" fill="none" xmlns="http://www.w3.org/2000/svg">
<path d="M6 22H19C19.5304 22 20.0391 21.7893 20.4142 21.4142C20.7893 21.0391 21 20.5304 21 20V4C21 3.46957 20.7893 2.96086 20.4142 2.58579C20.0391 2.21071 19.5304 2 19 2H5C4.46957 2 3.96086 2.21071 3.58579 2.58579C3.21071 2.96086 3 3.46957 3 4V20C3 20.5304 3.21071 21.0391 3.58579 21.4142C3.96086 21.7893 4.46957 22 5 22H6ZM12 4.999C13.647 4.999 15 6.35 15 7.999C15 9.647 13.647 11 12 11C10.353 11 9 9.647 9 7.999C9 6.35 10.353 4.999 12 4.999ZM6 17.25C6 15.031 8.705 12.75 12 12.75C15.295 12.75 18 15.031 18 17.25V18H6V17.25Z" fill="black"/>
</svg>
