<svg width="24" height="24" viewBox="0 0 24 24" fill="none" xmlns="http://www.w3.org/2000/svg">
<path d="M4 21H20C20.2652 21 20.5196 20.8946 20.7071 20.7071C20.8946 20.5196 21 20.2652 21 20V4C21 3.73478 20.8946 3.48043 20.7071 3.29289C20.5196 3.10536 20.2652 3 20 3H4C3.73478 3 3.48043 3.10536 3.29289 3.29289C3.10536 3.48043 3 3.73478 3 4V20C3 20.2652 3.10536 20.5196 3.29289 20.7071C3.48043 20.8946 3.73478 21 4 21ZM7.812 8.907C8.06741 8.64846 8.3716 8.44319 8.70693 8.3031C9.04227 8.163 9.40208 8.09086 9.7655 8.09086C10.1289 8.09086 10.4887 8.163 10.8241 8.3031C11.1594 8.44319 11.4636 8.64846 11.719 8.907L11.998 9.186L12.276 8.907C12.5314 8.64846 12.8356 8.44319 13.1709 8.3031C13.5063 8.163 13.8661 8.09086 14.2295 8.09086C14.5929 8.09086 14.9527 8.163 15.2881 8.3031C15.6234 8.44319 15.9276 8.64846 16.183 8.907C16.4417 9.16234 16.647 9.46651 16.7872 9.80185C16.9274 10.1372 16.9996 10.497 16.9996 10.8605C16.9996 11.224 16.9274 11.5838 16.7872 11.9191C16.647 12.2545 16.4417 12.5587 16.183 12.814L11.998 17L7.811 12.814C7.55265 12.5585 7.34756 12.2542 7.20763 11.9188C7.06769 11.5835 6.99569 11.2237 6.99578 10.8603C6.99587 10.4969 7.06806 10.1372 7.20817 9.80186C7.34828 9.46657 7.55352 9.16241 7.812 8.907Z" fill="black"/>
</svg>
