<svg width="24" height="24" viewBox="0 0 24 24" fill="none" xmlns="http://www.w3.org/2000/svg">
<path d="M13 10.551V9.873C13.8582 9.65053 14.6184 9.14959 15.1613 8.44869C15.7042 7.7478 15.9992 6.88657 16 6C16 3.794 14.206 2 12 2C9.79402 2 8.00002 3.794 8.00002 6H10C10 4.897 10.897 4 12 4C13.103 4 14 4.897 14 6C14 7.103 13.103 8 12 8C11.7348 8 11.4805 8.10536 11.2929 8.29289C11.1054 8.48043 11 8.73478 11 9V10.551L2.33502 18.253C2.1841 18.388 2.07769 18.5657 2.02982 18.7624C1.98196 18.9592 1.99491 19.1659 2.06695 19.3551C2.13899 19.5444 2.26674 19.7073 2.43333 19.8225C2.59992 19.9376 2.79752 19.9995 3.00002 20H21C21.2027 19.9995 21.4004 19.9376 21.5671 19.8223C21.7337 19.707 21.8615 19.5439 21.9335 19.3545C22.0054 19.165 22.0182 18.9582 21.9701 18.7614C21.922 18.5645 21.8152 18.3869 21.664 18.252L13 10.551ZM5.63002 18L12 12.338L18.37 18H5.63002Z" fill="black"/>
</svg>
