<svg width="24" height="24" viewBox="0 0 24 24" fill="none" xmlns="http://www.w3.org/2000/svg">
<path d="M20.901 10.566C20.8192 10.3965 20.6913 10.2535 20.532 10.1534C20.3726 10.0533 20.1882 10.0001 20 10H16V3C16 2.73478 15.8947 2.48043 15.7071 2.29289C15.5196 2.10536 15.2652 2 15 2H9.00003C8.73481 2 8.48046 2.10536 8.29292 2.29289C8.10539 2.48043 8.00003 2.73478 8.00003 3V10H4.00003C3.81176 10.0003 3.6274 10.0537 3.46812 10.1541C3.30883 10.2545 3.18108 10.3977 3.09953 10.5674C3.01797 10.7371 2.98592 10.9263 3.00706 11.1134C3.0282 11.3005 3.10167 11.4778 3.21903 11.625L11.219 21.625C11.3127 21.7422 11.4316 21.8367 11.5667 21.9017C11.7019 21.9667 11.85 22.0005 12 22.0005C12.15 22.0005 12.2981 21.9667 12.4333 21.9017C12.5685 21.8367 12.6873 21.7422 12.781 21.625L20.781 11.625C21.021 11.324 21.067 10.913 20.901 10.566Z" fill="black"/>
</svg>
