<svg width="24" height="24" viewBox="0 0 24 24" fill="none" xmlns="http://www.w3.org/2000/svg">
<path d="M12 16.114C8.002 10.163 3.426 9.071 3.22 9.024L2 8.75V10C2 17.29 5.925 22 12 22C17.981 22 22 17.178 22 10V8.75L20.78 9.024C20.574 9.071 15.998 10.163 12 16.114Z" fill="black"/>
<path d="M11.2741 3.767C9.47505 5.665 8.43405 7.542 7.83105 9.062C9.16005 9.846 10.6121 11.005 11.9901 12.747C13.3541 10.987 14.8161 9.822 16.1601 9.038C15.5551 7.523 14.5141 5.655 12.7251 3.767L12.0001 3L11.2741 3.767Z" fill="black"/>
</svg>
