<svg width="24" height="24" viewBox="0 0 24 24" fill="none" xmlns="http://www.w3.org/2000/svg">
<path d="M12 2C6.486 2 2 6.486 2 12C2 17.514 6.486 22 12 22C17.514 22 22 17.514 22 12C22 6.486 17.514 2 12 2ZM5.553 11.105L8.012 9.876L6.445 8.832L7.554 7.168L10.554 9.168C10.6998 9.26517 10.8176 9.39897 10.8954 9.55598C10.9733 9.71299 11.0085 9.88771 10.9976 10.0626C10.9866 10.2375 10.9299 10.4065 10.8331 10.5526C10.7363 10.6987 10.6028 10.8168 10.446 10.895L6.446 12.895L5.553 11.105ZM12 18C8 18 7 14 7 14H17C17 14 16 18 12 18ZM17.553 12.895L13.553 10.895C13.3962 10.8168 13.2627 10.6987 13.1659 10.5526C13.0691 10.4065 13.0124 10.2375 13.0014 10.0626C12.9905 9.88771 13.0257 9.71299 13.1036 9.55598C13.1814 9.39897 13.2992 9.26517 13.445 9.168L16.445 7.168L17.554 8.832L15.988 9.876L18.447 11.105L17.553 12.895Z" fill="black"/>
</svg>
