<svg width="24" height="24" viewBox="0 0 24 24" fill="none" xmlns="http://www.w3.org/2000/svg">
<path d="M4 22H20C20.2652 22 20.5196 21.8946 20.7071 21.7071C20.8946 21.5196 21 21.2652 21 21V5C21 3.346 19.654 2 18 2H6C4.346 2 3 3.346 3 5V21C3 21.2652 3.10536 21.5196 3.29289 21.7071C3.48043 21.8946 3.73478 22 4 22ZM18 3.924C18.1313 3.924 18.2614 3.94987 18.3827 4.00012C18.504 4.05038 18.6142 4.12403 18.7071 4.21689C18.8 4.30975 18.8736 4.41999 18.9239 4.54132C18.9741 4.66264 19 4.79268 19 4.924C19 5.05532 18.9741 5.18536 18.9239 5.30668C18.8736 5.42801 18.8 5.53825 18.7071 5.63111C18.6142 5.72397 18.504 5.79762 18.3827 5.84788C18.2614 5.89813 18.1313 5.924 18 5.924C17.7348 5.924 17.4804 5.81864 17.2929 5.63111C17.1054 5.44357 17 5.18922 17 4.924C17 4.65878 17.1054 4.40443 17.2929 4.21689C17.4804 4.02936 17.7348 3.924 18 3.924ZM15 3.924C15.1313 3.924 15.2614 3.94987 15.3827 4.00012C15.504 4.05038 15.6142 4.12403 15.7071 4.21689C15.8 4.30975 15.8736 4.41999 15.9239 4.54132C15.9741 4.66264 16 4.79268 16 4.924C16 5.05532 15.9741 5.18536 15.9239 5.30668C15.8736 5.42801 15.8 5.53825 15.7071 5.63111C15.6142 5.72397 15.504 5.79762 15.3827 5.84788C15.2614 5.89813 15.1313 5.924 15 5.924C14.7348 5.924 14.4804 5.81864 14.2929 5.63111C14.1054 5.44357 14 5.18922 14 4.924C14 4.65878 14.1054 4.40443 14.2929 4.21689C14.4804 4.02936 14.7348 3.924 15 3.924ZM12 7.041C15.309 7.041 18 9.732 18 13.041C18 16.35 15.309 19.041 12 19.041C8.691 19.041 6 16.35 6 13.041C6 9.732 8.691 7.041 12 7.041Z" fill="black"/>
<path d="M9.32005 12.265C8.90505 12.649 8.27905 13.229 8.27905 14.332C8.27905 15.436 8.90505 16.016 9.32005 16.4C9.67205 16.725 9.72005 16.798 9.72005 17H11.7201C11.7201 15.896 11.0941 15.316 10.6791 14.932C10.3271 14.607 10.2791 14.534 10.2791 14.332C10.2791 14.13 10.3271 14.057 10.6791 13.732C11.0931 13.348 11.7201 12.768 11.7201 11.664C11.7201 10.561 11.0941 9.981 10.6791 9.598C10.3281 9.273 10.2801 9.201 10.2801 9H8.28005C8.28005 10.104 8.90705 10.683 9.32205 11.066C9.67305 11.39 9.72105 11.462 9.72105 11.663C9.72005 11.866 9.67105 11.939 9.32005 12.265ZM13.3201 12.265C12.9061 12.649 12.2801 13.229 12.2801 14.332C12.2801 15.435 12.9061 16.016 13.3201 16.399C13.6711 16.724 13.7191 16.797 13.7191 17H15.7191C15.7191 15.896 15.0931 15.316 14.6791 14.933C14.3281 14.608 14.2801 14.535 14.2801 14.332C14.2801 14.129 14.3291 14.057 14.6791 13.731C15.0931 13.347 15.7191 12.767 15.7191 11.663C15.7191 10.56 15.0931 9.981 14.6791 9.598C14.3291 9.274 14.2801 9.201 14.2801 9H12.2801C12.2801 10.103 12.9061 10.683 13.3211 11.066C13.6711 11.39 13.7191 11.463 13.7191 11.664C13.7201 11.866 13.6711 11.939 13.3201 12.265Z" fill="black"/>
</svg>
