<svg width="24" height="24" viewBox="0 0 24 24" fill="none" xmlns="http://www.w3.org/2000/svg">
<path d="M20.772 13.155L19.404 9.051C19.2056 8.45348 18.8238 7.9337 18.3131 7.56551C17.8024 7.19731 17.1886 6.99944 16.559 7H7.441C6.81139 6.99944 6.19761 7.19731 5.68688 7.56551C5.17615 7.9337 4.79445 8.45348 4.596 9.051L3.228 13.155C2.8643 13.3073 2.55371 13.5637 2.33523 13.892C2.11676 14.2202 2.00013 14.6057 2 15V18C2 18.738 2.404 19.376 3 19.723V21C3 21.2652 3.10536 21.5196 3.29289 21.7071C3.48043 21.8946 3.73478 22 4 22H5C5.26522 22 5.51957 21.8946 5.70711 21.7071C5.89464 21.5196 6 21.2652 6 21V20H18V21C18 21.2652 18.1054 21.5196 18.2929 21.7071C18.4804 21.8946 18.7348 22 19 22H20C20.2652 22 20.5196 21.8946 20.7071 21.7071C20.8946 21.5196 21 21.2652 21 21V19.723C21.3034 19.549 21.5556 19.2981 21.7311 18.9956C21.9067 18.6932 21.9994 18.3497 22 18V15C22 14.169 21.493 13.458 20.772 13.155ZM7.441 9H16.558C16.768 8.99995 16.9726 9.06599 17.143 9.18876C17.3133 9.31153 17.4407 9.48479 17.507 9.684L18.613 13H5.387L6.492 9.684C6.629 9.275 7.011 9 7.441 9ZM5.5 18C5.30295 17.9999 5.10785 17.9611 4.92582 17.8856C4.7438 17.8101 4.57842 17.6995 4.43913 17.5602C4.15783 17.2787 3.99987 16.897 4 16.499C4.00013 16.101 4.15835 15.7194 4.43984 15.4381C4.72133 15.1568 5.10304 14.9989 5.501 14.999C5.89896 14.9991 6.28056 15.1573 6.56187 15.4388C6.84317 15.7203 7.00113 16.102 7.001 16.5C7.00087 16.898 6.84265 17.2796 6.56116 17.5609C6.27967 17.8422 5.89796 18.0001 5.5 18ZM18.5 18C18.102 17.9999 17.7204 17.8417 17.4391 17.5602C17.1578 17.2787 16.9999 16.897 17 16.499C17.0001 16.101 17.1583 15.7194 17.4398 15.4381C17.7213 15.1568 18.103 14.9989 18.501 14.999C18.899 14.9991 19.2806 15.1573 19.5619 15.4388C19.8432 15.7203 20.0011 16.102 20.001 16.5C20.0009 16.898 19.8427 17.2796 19.5612 17.5609C19.2797 17.8422 18.898 18.0001 18.5 18ZM5.277 5C5.624 5.595 6.262 6 7 6C7.738 6 8.376 5.595 8.723 5H15.278C15.624 5.595 16.262 6 17 6C17.738 6 18.376 5.595 18.723 5H17V3H18.723C18.376 2.405 17.738 2 17 2C16.262 2 15.624 2.405 15.277 3H8.723C8.376 2.405 7.738 2 7 2C6.262 2 5.624 2.405 5.277 3H7V5H5.277Z" fill="black"/>
</svg>
