<svg width="24" height="24" viewBox="0 0 24 24" fill="none" xmlns="http://www.w3.org/2000/svg">
<path d="M15.78 15.84C15.78 15.84 18.64 13 19.61 12C22.68 9 21.15 2.82 21.15 2.82C21.15 2.82 15 1.29 12 4.36C9.66 6.64 8.14 8.22 8.14 8.22C8.14 8.22 4.3 7.42 2 9.72L14.25 22C16.55 19.67 15.78 15.84 15.78 15.84ZM14.28 6.84C14.4657 6.65405 14.6863 6.50653 14.9291 6.40588C15.1719 6.30524 15.4322 6.25343 15.695 6.25343C15.9578 6.25343 16.2181 6.30524 16.4609 6.40588C16.7037 6.50653 16.9243 6.65405 17.11 6.84C17.3895 7.1198 17.5797 7.47617 17.6567 7.86407C17.7337 8.25197 17.694 8.65399 17.5425 9.01931C17.3911 9.38463 17.1348 9.69686 16.8059 9.91652C16.4771 10.1362 16.0905 10.2534 15.695 10.2534C15.2995 10.2534 14.9129 10.1362 14.5841 9.91652C14.2552 9.69686 13.9989 9.38463 13.8475 9.01931C13.696 8.65399 13.6563 8.25197 13.7333 7.86407C13.8103 7.47617 14.0005 7.1198 14.28 6.84ZM3 21C4.85107 20.9472 6.62315 20.2384 8 19L5 16C3 17 3 21 3 21Z" fill="black"/>
</svg>
