<svg width="24" height="24" viewBox="0 0 24 24" fill="none" xmlns="http://www.w3.org/2000/svg">
<path d="M2.04711 14.667C2.08072 14.794 2.13922 14.913 2.21922 15.0172C2.29921 15.1214 2.39911 15.2087 2.51311 15.274L4.42211 16.378V18.577C4.42211 18.8422 4.52746 19.0966 4.715 19.2841C4.90254 19.4716 5.15689 19.577 5.42211 19.577H7.62111L8.72511 21.487C8.85809 21.7163 9.0765 21.8835 9.33252 21.9521C9.58854 22.0207 9.8613 21.9851 10.0911 21.853L12.0001 20.75L13.9101 21.854C14.1399 21.9861 14.4127 22.0217 14.6687 21.9531C14.9247 21.8845 15.1431 21.7173 15.2761 21.488L16.3791 19.579H18.5781C18.8433 19.579 19.0977 19.4736 19.2852 19.2861C19.4727 19.0986 19.5781 18.8442 19.5781 18.579V16.38L21.4871 15.276C21.6009 15.2104 21.7007 15.1231 21.7807 15.0189C21.8607 14.9147 21.9194 14.7958 21.9534 14.6689C21.9874 14.542 21.996 14.4097 21.9788 14.2795C21.9616 14.1492 21.9189 14.0237 21.8531 13.91L20.7501 12L21.8541 10.091C21.9867 9.86132 22.0226 9.58838 21.954 9.3322C21.8854 9.07603 21.7178 8.85761 21.4881 8.725L19.5791 7.621V5.422C19.5791 5.15679 19.4737 4.90243 19.2862 4.7149C19.0987 4.52736 18.8443 4.422 18.5791 4.422H16.3801L15.2771 2.513C15.1442 2.28363 14.926 2.11611 14.6701 2.047C14.5433 2.01267 14.4109 2.00384 14.2806 2.021C14.1503 2.03817 14.0247 2.08099 13.9111 2.147L12.0001 3.25L10.0911 2.146C9.97751 2.08004 9.852 2.03715 9.72179 2.01979C9.59158 2.00244 9.45923 2.01096 9.33232 2.04487C9.20541 2.07878 9.08644 2.13742 8.98224 2.2174C8.87804 2.29739 8.79066 2.39717 8.72511 2.511L7.62111 4.421H5.42211C5.15689 4.421 4.90254 4.52636 4.715 4.7139C4.52746 4.90143 4.42211 5.15579 4.42211 5.421V7.62L2.51311 8.725C2.2838 8.85797 2.1166 9.07646 2.04818 9.33254C1.97975 9.58862 2.01569 9.86138 2.14811 10.091L3.25111 12L2.14711 13.909C2.015 14.1386 1.97905 14.411 2.04711 14.667Z" fill="black"/>
</svg>
