<svg width="24" height="24" viewBox="0 0 24 24" fill="none" xmlns="http://www.w3.org/2000/svg">
<path d="M21.743 12.331L12.743 2.331C12.364 1.909 11.636 1.909 11.257 2.331L2.25698 12.331C2.12767 12.4747 2.04277 12.6527 2.01255 12.8436C1.98232 13.0345 2.00807 13.2301 2.08668 13.4067C2.16529 13.5833 2.29339 13.7333 2.45548 13.8386C2.61757 13.9439 2.8067 13.9999 2.99998 14H4.99998V21C4.99998 21.2652 5.10534 21.5196 5.29288 21.7071C5.48041 21.8946 5.73477 22 5.99998 22H18C18.2652 22 18.5196 21.8946 18.7071 21.7071C18.8946 21.5196 19 21.2652 19 21V14H21C21.1936 14.0008 21.3834 13.9453 21.546 13.8401C21.7087 13.735 21.8372 13.5848 21.916 13.4079C21.9947 13.231 22.0203 13.0349 21.9896 12.8437C21.9589 12.6525 21.8732 12.4744 21.743 12.331ZM12 16C11.2043 16 10.4413 15.6839 9.87866 15.1213C9.31605 14.5587 8.99998 13.7956 8.99998 13C8.99998 12.2044 9.31605 11.4413 9.87866 10.8787C10.4413 10.3161 11.2043 10 12 10C12.7956 10 13.5587 10.3161 14.1213 10.8787C14.6839 11.4413 15 12.2044 15 13C15 13.7956 14.6839 14.5587 14.1213 15.1213C13.5587 15.6839 12.7956 16 12 16Z" fill="black"/>
</svg>
