<svg width="24" height="24" viewBox="0 0 24 24" fill="none" xmlns="http://www.w3.org/2000/svg">
<path d="M21.707 20.293L18.307 16.893C19.4029 15.4974 19.999 13.7745 20 12H18C17.999 13.2443 17.6076 14.4569 16.881 15.467L15.432 14.017C15.8005 13.4085 15.9969 12.7114 16 12V6C16 3.783 14.215 1.979 12.021 1.979C11.951 1.979 11.881 1.988 11.812 2.004C10.7852 2.05378 9.8169 2.49636 9.10735 3.24016C8.3978 3.98395 8.00133 4.97205 7.99997 6V6.586L3.70697 2.293L2.29297 3.707L20.293 21.707L21.707 20.293ZM5.99997 12H3.99997C3.99997 16.072 7.05997 19.436 11 19.931V22H13V19.931C13.7739 19.8323 14.529 19.62 15.241 19.301L13.692 17.753C13.1427 17.9159 12.5729 17.9991 12 18C8.69097 18 5.99997 15.309 5.99997 12Z" fill="black"/>
<path d="M8.00708 12.067C8.02507 13.1026 8.44447 14.0908 9.17688 14.8232C9.90928 15.5556 10.8975 15.975 11.9331 15.993L8.00708 12.067Z" fill="black"/>
</svg>
