<svg width="24" height="24" viewBox="0 0 24 24" fill="none" xmlns="http://www.w3.org/2000/svg">
<path d="M18.852 5.14801C18.8137 4.3265 18.4715 3.54851 17.892 2.96501C17.5831 2.65271 17.2155 2.40454 16.8104 2.23478C16.4052 2.06502 15.9705 1.97702 15.5313 1.97584C15.092 1.97466 14.6568 2.06032 14.2508 2.22789C13.8448 2.39547 13.4758 2.64165 13.1653 2.95229C12.8547 3.26293 12.6086 3.6319 12.4411 4.03798C12.2736 4.44406 12.188 4.87924 12.1893 5.31851C12.1906 5.75777 12.2787 6.19245 12.4485 6.59755C12.6184 7.00265 12.8666 7.37018 13.179 7.67901L7.67999 13.179C7.37116 12.8666 7.00363 12.6184 6.59853 12.4486C6.19343 12.2787 5.75875 12.1906 5.31948 12.1893C4.88022 12.1881 4.44504 12.2736 4.03896 12.4411C3.63288 12.6086 3.26391 12.8547 2.95327 13.1653C2.64263 13.4759 2.39644 13.8448 2.22887 14.2508C2.0613 14.6569 1.97564 15.092 1.97682 15.5313C1.978 15.9706 2.066 16.4053 2.23576 16.8104C2.40552 17.2155 2.65368 17.5831 2.96599 17.892C3.57199 18.498 4.35599 18.81 5.14899 18.852C5.19099 19.645 5.50299 20.428 6.10899 21.035C6.41789 21.3473 6.78547 21.5955 7.19061 21.7652C7.59575 21.935 8.03045 22.023 8.46971 22.0242C8.90897 22.0254 9.34414 21.9397 9.75018 21.7721C10.1562 21.6046 10.5251 21.3584 10.8357 21.0477C11.1463 20.7371 11.3924 20.3681 11.5599 19.962C11.7274 19.556 11.8129 19.1208 11.8117 18.6815C11.8104 18.2423 11.7223 17.8076 11.5525 17.4025C11.3826 16.9974 11.1344 16.6298 10.822 16.321L16.321 10.822C16.6298 11.1344 16.9974 11.3826 17.4025 11.5525C17.8076 11.7223 18.2422 11.8104 18.6815 11.8117C19.1208 11.813 19.5559 11.7274 19.962 11.5599C20.3681 11.3924 20.7371 11.1463 21.0477 10.8357C21.3584 10.5252 21.6045 10.1562 21.7721 9.7502C21.9397 9.34416 22.0253 8.909 22.0242 8.46973C22.023 8.03047 21.935 7.59577 21.7652 7.19063C21.5955 6.7855 21.3473 6.41791 21.035 6.10901C20.4519 5.52877 19.6737 5.18622 18.852 5.14801Z" fill="black"/>
</svg>
