<svg width="24" height="24" viewBox="0 0 24 24" fill="none" xmlns="http://www.w3.org/2000/svg">
<path d="M11.4451 21.832C11.6094 21.9416 11.8025 22.0002 12.0001 22.0002C12.1976 22.0002 12.3907 21.9416 12.5551 21.832L21.5551 15.832C21.6684 15.7567 21.7652 15.6591 21.8394 15.5451C21.9137 15.431 21.9638 15.303 21.9867 15.1689C22.0097 15.0348 22.005 14.8974 21.9729 14.7652C21.9408 14.6329 21.882 14.5087 21.8001 14.4L12.8001 2.4C12.4231 1.896 11.5771 1.896 11.2001 2.4L2.20007 14.4C2.11847 14.5088 2.05991 14.6331 2.02797 14.7652C1.99604 14.8974 1.99139 15.0347 2.01432 15.1687C2.03725 15.3028 2.08728 15.4307 2.16134 15.5448C2.23541 15.6588 2.33195 15.7565 2.44507 15.832L11.4451 21.832ZM19.5651 14.754L12.0001 19.798V4.667L19.5651 14.754Z" fill="black"/>
</svg>
