<svg width="24" height="24" viewBox="0 0 24 24" fill="none" xmlns="http://www.w3.org/2000/svg">
<path d="M19.707 4.29303L18.293 5.70703C21.026 8.44003 21.026 13.06 18.293 15.793L19.707 17.207C23.207 13.707 23.207 7.79303 19.707 4.29303ZM15.293 8.70703C15.859 9.27303 16.172 9.99903 16.172 10.75C16.172 11.501 15.859 12.227 15.293 12.793L16.707 14.207C17.651 13.264 18.172 12.035 18.172 10.75C18.172 9.46503 17.651 8.23603 16.707 7.29303L15.293 8.70703ZM6.207 5.70703L4.793 4.29303C1.293 7.79303 1.293 13.707 4.793 17.207L6.207 15.793C3.474 13.06 3.474 8.44003 6.207 5.70703Z" fill="black"/>
<path d="M7.293 7.29303C6.349 8.23603 5.828 9.46503 5.828 10.75C5.828 12.035 6.349 13.264 7.293 14.207L8.707 12.793C8.141 12.227 7.828 11.501 7.828 10.75C7.828 9.99903 8.141 9.27303 8.707 8.70703L7.293 7.29303ZM14 10.5C14 9.9696 13.7893 9.46089 13.4142 9.08582C13.0391 8.71074 12.5304 8.50003 12 8.50003C11.4696 8.50003 10.9609 8.71074 10.5858 9.08582C10.2107 9.46089 10 9.9696 10 10.5C9.99955 10.8301 10.0811 11.1552 10.2373 11.4459C10.3935 11.7367 10.6195 11.9842 10.895 12.166L10.002 22H13.998L13.105 12.165C13.645 11.807 14 11.195 14 10.5Z" fill="black"/>
</svg>
