<svg width="24" height="24" viewBox="0 0 24 24" fill="none" xmlns="http://www.w3.org/2000/svg">
<path d="M12 2C6.486 2 2 6.486 2 12C2 17.514 6.486 22 12 22C17.514 22 22 17.514 22 12C22 6.486 17.514 2 12 2ZM8.5 12C8.30295 11.9999 8.10785 11.9611 7.92582 11.8856C7.7438 11.8101 7.57842 11.6995 7.43913 11.5602C7.29984 11.4208 7.18937 11.2553 7.11403 11.0733C7.03868 10.8912 6.99993 10.696 7 10.499C7.00007 10.302 7.03894 10.1068 7.11441 9.92482C7.18988 9.7428 7.30046 9.57742 7.43984 9.43813C7.57922 9.29884 7.74467 9.18837 7.92675 9.11303C8.10882 9.03768 8.30395 8.99893 8.501 8.999C8.89896 8.99913 9.28056 9.15735 9.56187 9.43884C9.84317 9.72033 10.0011 10.102 10.001 10.5C10.0009 10.898 9.84265 11.2796 9.56116 11.5609C9.27967 11.8422 8.89796 12.0001 8.5 12ZM15.493 11.986C15.2936 11.9911 15.0952 11.9562 14.9095 11.8834C14.7239 11.8106 14.5546 11.7014 14.4118 11.5621C14.269 11.4229 14.1556 11.2565 14.0781 11.0727C14.0007 10.8889 13.9608 10.6914 13.9609 10.492C13.9609 10.2925 14.0009 10.0951 14.0785 9.91138C14.1561 9.72764 14.2697 9.56129 14.4125 9.42214C14.5554 9.283 14.7247 9.17387 14.9105 9.1012C15.0962 9.02852 15.2946 8.99377 15.494 8.999C15.8834 9.00921 16.2534 9.1711 16.5252 9.45018C16.797 9.72926 16.949 10.1034 16.9489 10.493C16.9487 10.8825 16.7965 11.2566 16.5245 11.5355C16.2525 11.8144 15.8824 11.9761 15.493 11.986Z" fill="black"/>
</svg>
