<svg width="24" height="24" viewBox="0 0 24 24" fill="none" xmlns="http://www.w3.org/2000/svg">
<path d="M4 9C5.10457 9 6 8.10457 6 7C6 5.89543 5.10457 5 4 5C2.89543 5 2 5.89543 2 7C2 8.10457 2.89543 9 4 9Z" fill="black"/>
<path d="M9 14C10.1046 14 11 13.1046 11 12C11 10.8954 10.1046 10 9 10C7.89543 10 7 10.8954 7 12C7 13.1046 7.89543 14 9 14Z" fill="black"/>
<path d="M15 9C16.1046 9 17 8.10457 17 7C17 5.89543 16.1046 5 15 5C13.8954 5 13 5.89543 13 7C13 8.10457 13.8954 9 15 9Z" fill="black"/>
<path d="M15 14C16.1046 14 17 13.1046 17 12C17 10.8954 16.1046 10 15 10C13.8954 10 13 10.8954 13 12C13 13.1046 13.8954 14 15 14Z" fill="black"/>
<path d="M15 19C16.1046 19 17 18.1046 17 17C17 15.8954 16.1046 15 15 15C13.8954 15 13 15.8954 13 17C13 18.1046 13.8954 19 15 19Z" fill="black"/>
<path d="M20 9C21.1046 9 22 8.10457 22 7C22 5.89543 21.1046 5 20 5C18.8954 5 18 5.89543 18 7C18 8.10457 18.8954 9 20 9Z" fill="black"/>
<path d="M4 19C5.10457 19 6 18.1046 6 17C6 15.8954 5.10457 15 4 15C2.89543 15 2 15.8954 2 17C2 18.1046 2.89543 19 4 19Z" fill="black"/>
</svg>
