<svg width="24" height="24" viewBox="0 0 24 24" fill="none" xmlns="http://www.w3.org/2000/svg">
<path d="M2.99998 14H4.99998V21C4.99998 21.2652 5.10534 21.5196 5.29288 21.7071C5.48041 21.8946 5.73477 22 5.99998 22H18C18.2652 22 18.5196 21.8946 18.7071 21.7071C18.8946 21.5196 19 21.2652 19 21V14H21C21.1932 14.0002 21.3824 13.9442 21.5445 13.839C21.7065 13.7337 21.8346 13.5836 21.913 13.407C21.9919 13.2305 22.0179 13.0348 21.9877 12.8438C21.9576 12.6527 21.8725 12.4746 21.743 12.331L12.743 2.331C12.364 1.909 11.636 1.909 11.257 2.331L2.25698 12.331C2.12767 12.4747 2.04277 12.6527 2.01255 12.8436C1.98232 13.0345 2.00807 13.2301 2.08668 13.4067C2.16529 13.5833 2.29339 13.7333 2.45548 13.8386C2.61757 13.9439 2.8067 13.9999 2.99998 14ZM8.65298 11.641C9.06921 11.2301 9.63058 10.9996 10.2155 10.9996C10.8004 10.9996 11.3617 11.2301 11.778 11.641L12.002 11.861L12.225 11.641C12.6414 11.23 13.2029 10.9996 13.788 10.9996C14.3731 10.9996 14.9346 11.23 15.351 11.641C15.5576 11.8397 15.7219 12.0781 15.8342 12.3419C15.9464 12.6056 16.0043 12.8893 16.0043 13.176C16.0043 13.4627 15.9464 13.7464 15.8342 14.0101C15.7219 14.2739 15.5576 14.5123 15.351 14.711L12.002 18L8.65298 14.711C8.4464 14.5123 8.28206 14.2739 8.16981 14.0101C8.05755 13.7464 7.99969 13.4627 7.99969 13.176C7.99969 12.8893 8.05755 12.6056 8.16981 12.3419C8.28206 12.0781 8.4464 11.8397 8.65298 11.641Z" fill="black"/>
</svg>
