<svg width="24" height="24" viewBox="0 0 24 24" fill="none" xmlns="http://www.w3.org/2000/svg">
<path d="M11.707 2.293C11.6143 2.19996 11.5041 2.12617 11.3828 2.07589C11.2614 2.0256 11.1313 1.99981 11 2H6C5.86866 1.99981 5.73857 2.0256 5.61724 2.07589C5.4959 2.12617 5.38571 2.19996 5.293 2.293L2.293 5.293C2.19996 5.38571 2.12617 5.4959 2.07589 5.61724C2.0256 5.73857 1.99981 5.86866 2 6V11C2 11.266 2.105 11.52 2.293 11.707L12.293 21.707C12.3857 21.8002 12.4958 21.8741 12.6171 21.9246C12.7385 21.9751 12.8686 22.001 13 22.001C13.1314 22.001 13.2615 21.9751 13.3829 21.9246C13.5042 21.8741 13.6143 21.8002 13.707 21.707L21.707 13.707C21.7999 13.6142 21.8737 13.504 21.924 13.3827C21.9743 13.2614 22.0002 13.1313 22.0002 13C22.0002 12.8687 21.9743 12.7386 21.924 12.6173C21.8737 12.496 21.7999 12.3858 21.707 12.293L11.707 2.293ZM8.353 10C8.13337 10.0055 7.91486 9.96696 7.71033 9.88671C7.50581 9.80646 7.31941 9.68611 7.16211 9.53273C7.00481 9.37935 6.87979 9.19605 6.7944 8.99362C6.70901 8.79118 6.66499 8.57372 6.66492 8.35401C6.66486 8.13431 6.70875 7.91682 6.79401 7.71433C6.87928 7.51185 7.00419 7.32847 7.1614 7.175C7.3186 7.02152 7.50493 6.90105 7.7094 6.82068C7.91388 6.74031 8.13236 6.70165 8.352 6.707C8.78166 6.71746 9.19021 6.89545 9.49044 7.20299C9.79067 7.51052 9.95879 7.92323 9.95892 8.35301C9.95905 8.7828 9.79118 9.19561 9.49114 9.50332C9.19109 9.81104 8.78265 9.98928 8.353 10Z" fill="black"/>
</svg>
