<svg width="24" height="24" viewBox="0 0 24 24" fill="none" xmlns="http://www.w3.org/2000/svg">
<path d="M21 10C20.9817 9.38774 20.8066 8.79041 20.4914 8.26515C20.1763 7.7399 19.7316 7.3043 19.2 7.00001C19.0725 6.12895 18.6354 5.33302 17.9686 4.75814C17.3019 4.18326 16.4503 3.86795 15.57 3.87001C15.2324 3.86943 14.8962 3.91313 14.57 4.00001C13.8817 3.34286 12.9666 2.9762 12.015 2.9762C11.0634 2.9762 10.1483 3.34286 9.46 4.00001C9.13379 3.91313 8.79758 3.86943 8.46 3.87001C7.57623 3.86311 6.71981 4.17624 6.04892 4.75156C5.37802 5.32687 4.93795 6.12552 4.81 7.00001C4.27652 7.30305 3.82987 7.73811 3.51291 8.26345C3.19596 8.78879 3.01934 9.38677 3 10C2.73478 10 2.48043 10.1054 2.29289 10.2929C2.10536 10.4804 2 10.7348 2 11C2.00004 12.7553 2.46213 14.4797 3.33981 15.9999C4.21749 17.52 5.47985 18.7823 7 19.66V21C7 21.2652 7.10536 21.5196 7.29289 21.7071C7.48043 21.8947 7.73478 22 8 22H16C16.2652 22 16.5196 21.8947 16.7071 21.7071C16.8946 21.5196 17 21.2652 17 21V19.66C18.5202 18.7823 19.7825 17.52 20.6602 15.9999C21.5379 14.4797 22 12.7553 22 11C22 10.7348 21.8946 10.4804 21.7071 10.2929C21.5196 10.1054 21.2652 10 21 10ZM5 10C5.0254 9.68407 5.14465 9.38294 5.34243 9.13526C5.54022 8.88759 5.80751 8.70467 6.11 8.61001L6.94 8.35001L6.78 7.50001C6.78261 7.28464 6.82762 7.07189 6.91246 6.87391C6.9973 6.67594 7.1203 6.49661 7.27445 6.34618C7.4286 6.19574 7.61087 6.07715 7.81086 5.99716C8.01084 5.91718 8.22463 5.87737 8.44 5.88001C8.72879 5.87836 9.01366 5.947 9.27 6.08001L10.08 6.53001L10.58 5.76001C10.7364 5.52695 10.9477 5.33596 11.1953 5.20389C11.443 5.07182 11.7193 5.00274 12 5.00274C12.2807 5.00274 12.557 5.07182 12.8047 5.20389C13.0523 5.33596 13.2636 5.52695 13.42 5.76001L13.92 6.53001L14.73 6.08001C14.9863 5.947 15.2712 5.87836 15.56 5.88001C15.9925 5.87457 16.4099 6.0392 16.7222 6.33845C17.0346 6.6377 17.2169 7.04764 17.23 7.48001L17.07 8.33001L17.89 8.61001C18.1925 8.70467 18.4598 8.88759 18.6576 9.13526C18.8554 9.38294 18.9746 9.68407 19 10H5Z" fill="black"/>
</svg>
