<svg width="24" height="24" viewBox="0 0 24 24" fill="none" xmlns="http://www.w3.org/2000/svg">
<path d="M20 4C19.35 3.34991 18.5783 2.83423 17.729 2.48241C16.8797 2.13058 15.9694 1.94949 15.0501 1.94949C14.1307 1.94949 13.2204 2.13058 12.3711 2.48241C11.5218 2.83423 10.7501 3.34991 10.1001 4L2.28005 11.82C2.0938 12.0074 1.98926 12.2608 1.98926 12.525C1.98926 12.7892 2.0938 13.0426 2.28005 13.23L5.82005 16.77L2.28005 20.3L3.70005 21.72L7.23005 18.18L10.7701 21.72C10.9574 21.9062 11.2109 22.0108 11.4751 22.0108C11.7392 22.0108 11.9927 21.9062 12.1801 21.72L20 13.94C20.6561 13.2893 21.1769 12.515 21.5323 11.662C21.8877 10.809 22.0706 9.89408 22.0706 8.97C22.0706 8.04592 21.8877 7.13098 21.5323 6.27796C21.1769 5.42495 20.6561 4.65074 20 4ZM17.3 6.7C16.6805 6.10827 15.8568 5.77809 15.0001 5.77809C14.1433 5.77809 13.3196 6.10827 12.7001 6.7L11.6401 5.64C12.5322 4.75089 13.7405 4.25165 15.0001 4.25165C16.2596 4.25165 17.4679 4.75089 18.3601 5.64L17.3 6.7Z" fill="black"/>
</svg>
