<svg width="24" height="24" viewBox="0 0 24 24" fill="none" xmlns="http://www.w3.org/2000/svg">
<path d="M21.9839 12.236C22.0197 10.884 21.7799 9.5388 21.2791 8.28242C20.7783 7.02603 20.027 5.88473 19.0709 4.92802C18.1142 3.97198 16.9729 3.22069 15.7165 2.71989C14.4601 2.21909 13.115 1.97926 11.7629 2.01502C11.8943 3.48608 11.6632 4.96691 11.0899 6.32802L9.24993 5.54802C9.68488 4.51103 9.86524 3.38498 9.77593 2.26402C7.94041 2.67519 6.25948 3.59941 4.92893 4.92902C3.598 6.26071 2.67335 7.94354 2.26293 9.78102C3.13126 9.8482 4.00454 9.75463 4.83893 9.50502L5.41393 11.421C4.31393 11.751 3.15693 11.864 2.01593 11.765C1.98019 13.1169 2.22003 14.4619 2.72084 15.7181C3.22164 16.9744 3.97292 18.1155 4.92893 19.072C5.88549 20.028 7.02662 20.7792 8.28283 21.28C9.53904 21.7808 10.884 22.0207 12.2359 21.985C12.1346 20.8408 12.2513 19.6877 12.5799 18.587L14.4959 19.162C14.2458 19.9963 14.1522 20.8697 14.2199 21.738C16.0577 21.3276 17.7409 20.403 19.0729 19.072C20.4027 17.7412 21.327 16.0599 21.7379 14.224C20.617 14.1352 19.491 14.3155 18.4539 14.75L17.6739 12.909C19.034 12.3356 20.5138 12.1045 21.9839 12.236ZM9.16993 9.17302C8.52501 9.81814 7.78593 10.3617 6.97793 10.785L6.05093 9.01302C7.08959 8.46923 7.97528 7.67363 8.62693 6.69902L10.2899 7.81202C9.96193 8.30202 9.58493 8.76002 9.16993 9.17302ZM16.2439 16.241C15.7405 16.7431 15.3166 17.3191 14.9869 17.949L13.2149 17.022C13.9136 15.6873 14.9354 14.5487 16.1869 13.71L17.2999 15.373C16.9204 15.6271 16.5667 15.9179 16.2439 16.241Z" fill="black"/>
</svg>
