<svg width="24" height="24" viewBox="0 0 24 24" fill="none" xmlns="http://www.w3.org/2000/svg">
<path d="M16.997 15C15.396 15 14.551 14.324 13.872 13.781C13.305 13.328 12.895 13 11.994 13C11.096 13 10.707 13.311 10.12 13.78C9.441 14.324 8.596 15 6.995 15C5.394 15 4.551 14.324 3.872 13.78C3.285 13.311 2.897 13 2 13V18C2 19.103 2.897 20 4 20H20C21.103 20 22 19.103 22 18V13C21.101 13 20.712 13.311 20.124 13.781C19.444 14.324 18.599 15 16.997 15ZM19 5H13V2H11V5H5C3.346 5 2 6.346 2 8V11C3.6 11 4.443 11.676 5.122 12.22C5.709 12.689 6.097 13 6.995 13C7.894 13 8.282 12.689 8.87 12.219C9.549 11.676 10.394 11 11.994 11C13.596 11 14.441 11.676 15.121 12.219C15.709 12.689 16.098 13 16.997 13C17.897 13 18.308 12.672 18.875 12.219C19.554 11.676 20.399 11 22 11V8C22 6.346 20.654 5 19 5Z" fill="black"/>
</svg>
