<svg width="24" height="24" viewBox="0 0 24 24" fill="none" xmlns="http://www.w3.org/2000/svg">
<path d="M9.38008 21.646C10.2339 21.8796 11.1149 21.9986 12.0001 22L12.1411 21.999C12.6464 21.9927 13.142 21.8588 13.5817 21.6096C14.0214 21.3605 14.391 21.0042 14.6561 20.574C15.1981 19.698 15.2561 18.621 14.8091 17.694L14.6111 17.279C14.1581 16.337 14.5141 15.483 14.9991 14.998C15.4841 14.513 16.3401 14.157 17.2791 14.61H17.2801L17.6931 14.809C18.1472 15.0286 18.6495 15.1297 19.1533 15.103C19.657 15.0762 20.1458 14.9224 20.5741 14.656C21.0046 14.3911 21.3611 14.0215 21.6104 13.5818C21.8597 13.1421 21.9938 12.6464 22.0001 12.141C22.0126 11.209 21.8937 10.2798 21.6471 9.38099C20.6091 5.55399 17.2941 2.62699 13.4011 2.09599C10.2521 1.66899 7.16008 2.69799 4.93008 4.92899C2.70008 7.15999 1.66608 10.247 2.09608 13.4C2.62608 17.294 5.55408 20.608 9.38008 21.646ZM15.5001 5.99999C15.8979 5.99999 16.2794 6.15802 16.5607 6.43933C16.842 6.72063 17.0001 7.10216 17.0001 7.49999C17.0001 7.89781 16.842 8.27934 16.5607 8.56065C16.2794 8.84195 15.8979 8.99999 15.5001 8.99999C15.1023 8.99999 14.7207 8.84195 14.4394 8.56065C14.1581 8.27934 14.0001 7.89781 14.0001 7.49999C14.0001 7.10216 14.1581 6.72063 14.4394 6.43933C14.7207 6.15802 15.1023 5.99999 15.5001 5.99999ZM10.5001 4.99999C10.8979 4.99999 11.2794 5.15802 11.5607 5.43933C11.842 5.72063 12.0001 6.10216 12.0001 6.49999C12.0001 6.89781 11.842 7.27934 11.5607 7.56065C11.2794 7.84195 10.8979 7.99999 10.5001 7.99999C10.1023 7.99999 9.72072 7.84195 9.43942 7.56065C9.15811 7.27934 9.00008 6.89781 9.00008 6.49999C9.00008 6.10216 9.15811 5.72063 9.43942 5.43933C9.72072 5.15802 10.1023 4.99999 10.5001 4.99999ZM9.00008 15.506C9.00008 15.9038 8.84204 16.2853 8.56074 16.5666C8.27943 16.848 7.8979 17.006 7.50008 17.006C7.10225 17.006 6.72072 16.848 6.43942 16.5666C6.15811 16.2853 6.00008 15.9038 6.00008 15.506C6.00008 15.1082 6.15811 14.7266 6.43942 14.4453C6.72072 14.164 7.10225 14.006 7.50008 14.006C7.8979 14.006 8.27943 14.164 8.56074 14.4453C8.84204 14.7266 9.00008 15.1082 9.00008 15.506ZM6.50008 9.00599C6.89804 9.00612 7.27964 9.16433 7.56095 9.44583C7.84225 9.72732 8.00021 10.109 8.00008 10.507C7.99995 10.9049 7.84173 11.2866 7.56024 11.5679C7.27875 11.8492 6.89704 12.0071 6.49908 12.007C6.10112 12.0069 5.71952 11.8486 5.43821 11.5671C5.15691 11.2857 4.99895 10.9039 4.99908 10.506C4.99921 10.108 5.15743 9.72642 5.43892 9.44512C5.72041 9.16382 6.10212 9.00585 6.50008 9.00599Z" fill="black"/>
</svg>
