<svg width="24" height="24" viewBox="0 0 24 24" fill="none" xmlns="http://www.w3.org/2000/svg">
<path d="M3.299 17.596C3.731 18.928 5.044 19.778 6.445 19.778H6.5C6.62853 20.4053 6.96969 20.9691 7.46582 21.3739C7.96196 21.7788 8.58265 21.9999 9.223 22C9.68 22 10.107 21.885 10.485 21.687C10.6428 21.6005 10.774 21.4728 10.8647 21.3174C10.9555 21.162 11.0022 20.9849 11 20.805V3.02703C11.002 2.79793 10.9251 2.57512 10.7821 2.39609C10.6391 2.21706 10.4389 2.09273 10.215 2.04403C9.71331 1.94658 9.19349 2.01723 8.736 2.24503C7.992 2.60103 7.556 3.39603 7.556 4.22303V4.27803C6.99921 4.16439 6.42097 4.22423 5.89925 4.4495C5.37754 4.67476 4.93746 5.0546 4.63837 5.53779C4.33928 6.02098 4.19557 6.58427 4.22661 7.15169C4.25766 7.71911 4.46198 8.26336 4.812 8.71103C4.02808 8.83385 3.31388 9.23281 2.79824 9.83591C2.28261 10.439 1.9995 11.2065 2 12C2 13.178 2.611 14.211 3.533 14.812C3.103 15.583 2.962 16.558 3.299 17.596ZM19.188 8.71103C19.538 8.26336 19.7423 7.71911 19.7734 7.15169C19.8044 6.58427 19.6607 6.02098 19.3616 5.53779C19.0625 5.0546 18.6225 4.67476 18.1007 4.4495C17.579 4.22423 17.0008 4.16439 16.444 4.27803V4.22303C16.444 3.39703 16.007 2.60103 15.263 2.24503C14.8059 2.01716 14.2864 1.94651 13.785 2.04403C13.5612 2.09291 13.3611 2.21728 13.2181 2.39627C13.0752 2.57526 12.9982 2.79797 13 3.02703V20.804C13 21.169 13.192 21.516 13.516 21.686C13.894 21.885 14.32 22 14.777 22C15.4175 21.9999 16.0383 21.7786 16.5344 21.3735C17.0306 20.9685 17.3717 20.4045 17.5 19.777H17.556C18.956 19.777 20.27 18.927 20.702 17.595C21.039 16.557 20.898 15.582 20.468 14.811C20.9377 14.5076 21.3239 14.0914 21.5915 13.6004C21.8591 13.1094 21.9995 12.5592 22 12C22.0005 11.2065 21.7174 10.439 21.2018 9.83591C20.6861 9.23281 19.9719 8.83385 19.188 8.71103Z" fill="black"/>
</svg>
