<svg width="24" height="24" viewBox="0 0 24 24" fill="none" xmlns="http://www.w3.org/2000/svg">
<path d="M20.292 6.70802L17.282 3.70802L18.694 2.29102L21.704 5.29102L20.292 6.70802ZM21.707 20.293L19.42 18.005C20.409 16.563 21 14.837 21 13C21 8.12202 16.879 4.00002 12 4.00002C10.162 4.00002 8.43697 4.59002 6.99397 5.58102L5.90997 4.49602L6.69797 3.70602L5.28197 2.29402L4.49597 3.08202L3.70697 2.29302L2.29297 3.70702L20.293 21.707L21.707 20.293ZM17 14H15.414L13.414 12H17V14ZM11 8.00002H13V11.586L11 9.58602V8.00002ZM12 22C13.658 22 15.224 21.515 16.574 20.695L4.30497 8.42602C3.45807 9.80186 3.00655 11.3844 2.99997 13C2.99997 17.878 7.12197 22 12 22Z" fill="black"/>
</svg>
