<svg width="24" height="24" viewBox="0 0 24 24" fill="none" xmlns="http://www.w3.org/2000/svg">
<path d="M15.1649 15.582C19.7519 11.509 23.3059 6.158 21.2219 3.81101C20.5609 3.06701 19.6379 2.72201 18.6469 2.82801C17.8149 2.91901 16.9599 3.33 16.0979 4.02C14.7429 3.318 13.2304 2.97531 11.7051 3.02468C10.1798 3.07405 8.69272 3.51384 7.38592 4.30201C6.37003 4.90348 5.48369 5.70071 4.77833 6.64742C4.07297 7.59414 3.56263 8.6715 3.27692 9.81701C2.83161 11.5815 2.93842 13.4401 3.58292 15.142C2.51792 16.345 1.52892 18.819 2.75992 20.205C3.27692 20.786 4.01692 21.046 4.90692 21.046C7.61392 21.046 11.7149 18.647 15.1649 15.582ZM18.8639 4.81501C19.2219 4.78101 19.4959 4.879 19.7249 5.13801C19.9559 5.399 19.8939 6.084 19.4729 7.067C19.0207 6.37871 18.4766 5.7553 17.8559 5.21401C18.2869 4.95201 18.6319 4.84101 18.8639 4.81501ZM4.63292 17.118C5.07758 17.7629 5.60472 18.3469 6.20092 18.855C5.17592 19.158 4.48692 19.138 4.25592 18.876C4.03892 18.633 4.25792 17.807 4.63292 17.118ZM20.9429 11.249C19.7279 13.046 18.0369 14.92 16.1649 16.582C14.2309 18.301 12.0989 19.79 10.1149 20.784C10.7305 20.9195 11.3586 20.9906 11.9889 20.996C13.6152 20.9943 15.2106 20.5512 16.6049 19.714C18.0534 18.8565 19.2295 17.6064 19.9972 16.1084C20.7649 14.6104 21.0928 12.9256 20.9429 11.249Z" fill="black"/>
</svg>
