<svg width="24" height="24" viewBox="0 0 24 24" fill="none" xmlns="http://www.w3.org/2000/svg">
<path d="M15.16 2.00003C14.9316 1.96585 14.6984 2.01178 14.5 2.13003L2.49998 9.13003C2.45253 9.15765 2.40884 9.19126 2.36998 9.23003L2.26998 9.31003C2.20201 9.38875 2.14484 9.47619 2.09998 9.57003C2.0289 9.70188 1.99438 9.85034 1.99998 10V20C1.99998 20.2652 2.10533 20.5196 2.29287 20.7071C2.48041 20.8947 2.73476 21 2.99998 21H21C21.2652 21 21.5195 20.8947 21.7071 20.7071C21.8946 20.5196 22 20.2652 22 20V10C22.0037 8.06928 21.316 6.201 20.0613 4.73351C18.8066 3.26602 17.0679 2.29633 15.16 2.00003ZM15.16 4.05003C16.3623 4.29621 17.4617 4.90102 18.3132 5.78472C19.1648 6.66841 19.7285 7.78947 19.93 9.00003H6.69998L15.16 4.05003ZM6.49998 18C6.20331 18 5.9133 17.9121 5.66662 17.7472C5.41995 17.5824 5.22769 17.3481 5.11416 17.0741C5.00063 16.8 4.97092 16.4984 5.0288 16.2074C5.08668 15.9164 5.22954 15.6491 5.43932 15.4394C5.6491 15.2296 5.91637 15.0867 6.20734 15.0289C6.49831 14.971 6.79991 15.0007 7.074 15.1142C7.34809 15.2277 7.58236 15.42 7.74718 15.6667C7.912 15.9133 7.99998 16.2034 7.99998 16.5C7.99998 16.8979 7.84194 17.2794 7.56064 17.5607C7.27933 17.842 6.8978 18 6.49998 18ZM11.5 15C11.2033 15 10.9133 14.9121 10.6666 14.7472C10.4199 14.5824 10.2277 14.3481 10.1142 14.0741C10.0006 13.8 9.97092 13.4984 10.0288 13.2074C10.0867 12.9164 10.2295 12.6491 10.4393 12.4394C10.6491 12.2296 10.9164 12.0867 11.2073 12.0289C11.4983 11.971 11.7999 12.0007 12.074 12.1142C12.3481 12.2277 12.5824 12.42 12.7472 12.6667C12.912 12.9133 13 13.2034 13 13.5C13 13.8979 12.8419 14.2794 12.5606 14.5607C12.2793 14.842 11.8978 15 11.5 15ZM17 18C16.6044 18 16.2177 17.8827 15.8888 17.663C15.5599 17.4432 15.3036 17.1308 15.1522 16.7654C15.0008 16.3999 14.9612 15.9978 15.0384 15.6098C15.1156 15.2219 15.3061 14.8655 15.5858 14.5858C15.8655 14.3061 16.2218 14.1156 16.6098 14.0385C16.9978 13.9613 17.3999 14.0009 17.7653 14.1523C18.1308 14.3036 18.4432 14.56 18.6629 14.8889C18.8827 15.2178 19 15.6045 19 16C19 16.5305 18.7893 17.0392 18.4142 17.4142C18.0391 17.7893 17.5304 18 17 18Z" fill="black"/>
</svg>
