<svg width="24" height="24" viewBox="0 0 24 24" fill="none" xmlns="http://www.w3.org/2000/svg">
<path d="M21.2069 11.278L19.1719 9.24302L17.7569 7.82802L12.7219 2.79302C12.6291 2.70007 12.5189 2.62633 12.3976 2.57602C12.2763 2.52571 12.1462 2.49982 12.0149 2.49982C11.8836 2.49982 11.7535 2.52571 11.6322 2.57602C11.5109 2.62633 11.4007 2.70007 11.3079 2.79302L6.1509 7.94902L4.7359 9.36302C4.4567 9.64124 4.23537 9.972 4.08467 10.3362C3.93397 10.7004 3.8569 11.0909 3.8579 11.485C3.8579 12.287 4.1709 13.041 4.7369 13.606L5.4439 14.313L3.3219 16.435C3.04257 16.71 2.82136 17.0383 2.67139 17.4004C2.52142 17.7625 2.44576 18.1511 2.4489 18.543C2.44418 18.9824 2.53709 19.4174 2.72092 19.8165C2.90475 20.2157 3.17491 20.569 3.5119 20.851C4.04048 21.2935 4.70856 21.5348 5.3979 21.532C6.2319 21.532 7.0519 21.191 7.6479 20.595L9.6869 18.556L10.3939 19.262C11.5269 20.395 13.5009 20.396 14.6359 19.263L15.3439 18.556L15.9129 17.987L16.0509 17.849L21.2069 12.692C21.2998 12.5992 21.3736 12.489 21.4239 12.3677C21.4742 12.2464 21.5001 12.1164 21.5001 11.985C21.5001 11.8537 21.4742 11.7236 21.4239 11.6023C21.3736 11.481 21.2998 11.3708 21.2069 11.278ZM13.9299 17.143L13.2219 17.849C13.0318 18.0315 12.7784 18.1334 12.5149 18.1334C12.2514 18.1334 11.998 18.0315 11.8079 17.849L10.3939 16.436C10.3011 16.3431 10.1909 16.2693 10.0696 16.219C9.94828 16.1687 9.81824 16.1428 9.6869 16.1428C9.55557 16.1428 9.42552 16.1687 9.30421 16.219C9.18289 16.2693 9.07269 16.3431 8.9799 16.436L6.2339 19.181C6.01251 19.4039 5.71207 19.5304 5.3979 19.533C5.18118 19.5364 4.9703 19.4627 4.8029 19.325C4.68848 19.23 4.59716 19.1103 4.53583 18.9748C4.4745 18.8393 4.44478 18.6917 4.4489 18.543C4.44763 18.4143 4.47239 18.2866 4.52171 18.1677C4.57103 18.0488 4.64389 17.9411 4.7359 17.851L7.5649 15.022C7.65785 14.9292 7.73159 14.819 7.7819 14.6977C7.83221 14.5764 7.8581 14.4464 7.8581 14.315C7.8581 14.1837 7.83221 14.0536 7.7819 13.9323C7.73159 13.811 7.65785 13.7008 7.5649 13.608L6.1509 12.193C5.9619 12.005 5.8579 11.755 5.8579 11.487C5.8579 11.219 5.9619 10.968 6.1509 10.779L6.8579 10.072L10.3939 13.608L13.9299 17.143Z" fill="black"/>
</svg>
