<svg width="24" height="24" viewBox="0 0 24 24" fill="none" xmlns="http://www.w3.org/2000/svg">
<path d="M21.546 11.646L19 9.10101V5.50001C19 5.3674 18.9473 5.24023 18.8536 5.14646C18.7598 5.05269 18.6326 5.00001 18.5 5.00001H14.899L12.353 2.45401C12.2592 2.36027 12.1321 2.30762 11.9995 2.30762C11.8669 2.30762 11.7398 2.36027 11.646 2.45401L9.10101 5.00001H5.50001C5.3674 5.00001 5.24023 5.05269 5.14646 5.14646C5.05269 5.24023 5.00001 5.3674 5.00001 5.50001V9.10101L2.45401 11.647C2.36027 11.7408 2.30762 11.8679 2.30762 12.0005C2.30762 12.1331 2.36027 12.2602 2.45401 12.354L5.00001 14.899V18.5C5.00001 18.6326 5.05269 18.7598 5.14646 18.8536C5.24023 18.9473 5.3674 19 5.50001 19H9.10101L11.647 21.546C11.7408 21.6397 11.8679 21.6924 12.0005 21.6924C12.1331 21.6924 12.2602 21.6397 12.354 21.546L14.899 19H18.5C18.6326 19 18.7598 18.9473 18.8536 18.8536C18.9473 18.7598 19 18.6326 19 18.5V14.899L21.546 12.353C21.6397 12.2592 21.6924 12.1321 21.6924 11.9995C21.6924 11.8669 21.6397 11.7398 21.546 11.646ZM12 8.00001C13.0609 8.00001 14.0783 8.42144 14.8284 9.17158C15.5786 9.92173 16 10.9391 16 12C16 13.0609 15.5786 14.0783 14.8284 14.8284C14.0783 15.5786 13.0609 16 12 16" fill="black"/>
</svg>
