<svg width="24" height="24" viewBox="0 0 24 24" fill="none" xmlns="http://www.w3.org/2000/svg">
<path d="M14.47 13.77L13.06 12.35L18.72 6.7L17.3 5.28L11.65 10.94L10.23 9.53L15.89 3.87L14.47 2.45L8.11001 8.82C7.54821 9.3825 7.23265 10.145 7.23265 10.94C7.23265 11.735 7.54821 12.4975 8.11001 13.06L8.82001 13.77L2.45001 20.13L3.87001 21.55L10.23 15.18L10.94 15.89C11.5025 16.4518 12.265 16.7674 13.06 16.7674C13.855 16.7674 14.6175 16.4518 15.18 15.89L21.55 9.53L20.13 8.11L14.47 13.77Z" fill="black"/>
</svg>
