<svg width="24" height="24" viewBox="0 0 24 24" fill="none" xmlns="http://www.w3.org/2000/svg">
<path d="M20 13H4C3.46957 13 2.96086 13.2107 2.58579 13.5858C2.21071 13.9609 2 14.4696 2 15V19C2 19.5304 2.21071 20.0391 2.58579 20.4142C2.96086 20.7893 3.46957 21 4 21H20C20.5304 21 21.0391 20.7893 21.4142 20.4142C21.7893 20.0391 22 19.5304 22 19V15C22 14.4696 21.7893 13.9609 21.4142 13.5858C21.0391 13.2107 20.5304 13 20 13ZM16 18H14V16H16V18ZM20 18H18V16H20V18ZM20.775 11H21L19.348 3.566C19.2493 3.12187 19.0021 2.72468 18.6472 2.43998C18.2923 2.15528 17.851 2.00008 17.396 2H6.604C6.14903 2.00008 5.70769 2.15528 5.35281 2.43998C4.99793 2.72468 4.75073 3.12187 4.652 3.566L3 11H20.775Z" fill="black"/>
</svg>
