<svg width="24" height="24" viewBox="0 0 24 24" fill="none" xmlns="http://www.w3.org/2000/svg">
<path d="M21.842 6.218C21.7425 5.98329 21.5985 5.77004 21.418 5.59C21.2325 5.40263 21.0117 5.25398 20.7682 5.15269C20.5248 5.05141 20.2637 4.99951 20 5H8.00002C7.70302 5 7.42202 5.132 7.23102 5.359L2.23102 11.359C1.92202 11.73 1.92202 12.269 2.23102 12.64L7.23102 18.64C7.42202 18.868 7.70302 19 8.00002 19H20C20.2619 19.0012 20.5214 18.9504 20.7634 18.8505C21.0055 18.7506 21.2252 18.6036 21.41 18.418C21.5974 18.2325 21.746 18.0116 21.8473 17.7682C21.9486 17.5248 22.0005 17.2637 22 17V7C22 6.734 21.948 6.475 21.842 6.218ZM17.707 14.293L16.293 15.707L14 13.414L11.707 15.707L10.293 14.293L12.586 12L10.293 9.707L11.707 8.293L14 10.586L16.293 8.293L17.707 9.707L15.414 12L17.707 14.293Z" fill="black"/>
</svg>
