<svg width="24" height="24" viewBox="0 0 24 24" fill="none" xmlns="http://www.w3.org/2000/svg">
<path d="M3.414 13.778L2 15.192L6.949 17.313L9.071 22.263L10.485 20.849L9.778 17.313L13.091 14L16.701 21.704L18.04 20.365L16.85 10.242L19.678 7.413C19.869 7.22851 20.0214 7.00782 20.1262 6.76381C20.231 6.5198 20.2862 6.25736 20.2885 5.99181C20.2908 5.72625 20.2402 5.46289 20.1396 5.21709C20.0391 4.9713 19.8906 4.748 19.7028 4.56021C19.515 4.37243 19.2917 4.22392 19.0459 4.12336C18.8001 4.0228 18.5368 3.97219 18.2712 3.9745C18.0056 3.97681 17.7432 4.03198 17.4992 4.1368C17.2552 4.24162 17.0345 4.39398 16.85 4.585L13.947 7.488L3.824 6.297L2.559 7.563L10.203 11.233L6.95 14.486L3.414 13.778Z" fill="black"/>
</svg>
