<svg width="24" height="24" viewBox="0 0 24 24" fill="none" xmlns="http://www.w3.org/2000/svg">
<path d="M18 6C19.1046 6 20 5.10457 20 4C20 2.89543 19.1046 2 18 2C16.8954 2 16 2.89543 16 4C16 5.10457 16.8954 6 18 6Z" fill="black"/>
<path d="M17.836 12.014L13.491 12.739L16.781 8.62603C16.8676 8.51772 16.9307 8.39259 16.9664 8.25857C17.002 8.12456 17.0094 7.9846 16.9881 7.84758C16.9667 7.71056 16.9171 7.57948 16.8424 7.46267C16.7676 7.34585 16.6694 7.24585 16.554 7.16903L10.554 3.16903C10.3617 3.04056 10.1308 2.9828 9.90062 3.0056C9.67048 3.02839 9.45537 3.13033 9.292 3.29403L5.292 7.29403L6.706 8.70803L10.126 5.28803L12.71 7.01103L10.029 10.363C9.12071 10.0287 8.14423 9.92237 7.18527 10.0535C6.22631 10.1846 5.3142 10.5491 4.529 11.115L5.98 12.566C6.59044 12.1997 7.28811 12.0043 8 12C10.206 12 12 13.794 12 16C12 16.739 11.784 17.425 11.434 18.02L12.885 19.471C13.61 18.4589 13.9999 17.2451 14 16C14 15.555 13.947 15.122 13.855 14.705L17 14.181V20H19V13C19.0003 12.8548 18.9688 12.7112 18.9079 12.5793C18.8469 12.4475 18.7579 12.3305 18.6471 12.2366C18.5362 12.1427 18.4062 12.0742 18.2661 12.0357C18.126 11.9973 17.9792 11.9899 17.836 12.014ZM8 20C5.794 20 4 18.206 4 16C4 15.261 4.216 14.575 4.566 13.98L3.115 12.529C2.38997 13.5412 2.00006 14.755 2 16C2 19.309 4.691 22 8 22C9.294 22 10.49 21.584 11.471 20.885L10.02 19.434C9.40956 19.8003 8.71189 19.9958 8 20Z" fill="black"/>
</svg>
