<svg width="24" height="24" viewBox="0 0 24 24" fill="none" xmlns="http://www.w3.org/2000/svg">
<path d="M12 18C13.6569 18 15 16.6569 15 15C15 13.3431 13.6569 12 12 12C10.3431 12 9 13.3431 9 15C9 16.6569 10.3431 18 12 18Z" fill="black"/>
<path d="M18 2H6C5.46957 2 4.96086 2.21071 4.58579 2.58579C4.21071 2.96086 4 3.46957 4 4V20C4 20.5304 4.21071 21.0391 4.58579 21.4142C4.96086 21.7893 5.46957 22 6 22H18C18.5304 22 19.0391 21.7893 19.4142 21.4142C19.7893 21.0391 20 20.5304 20 20V4C20 3.46957 19.7893 2.96086 19.4142 2.58579C19.0391 2.21071 18.5304 2 18 2ZM12 4C12.3956 4 12.7822 4.1173 13.1111 4.33706C13.44 4.55682 13.6964 4.86918 13.8478 5.23463C13.9991 5.60009 14.0387 6.00222 13.9616 6.39018C13.8844 6.77814 13.6939 7.13451 13.4142 7.41421C13.1345 7.69392 12.7781 7.8844 12.3902 7.96157C12.0022 8.03874 11.6001 7.99913 11.2346 7.84776C10.8692 7.69638 10.5568 7.44004 10.3371 7.11114C10.1173 6.78224 10 6.39556 10 6C10 5.46957 10.2107 4.96086 10.5858 4.58579C10.9609 4.21071 11.4696 4 12 4ZM12 20C11.0111 20 10.0444 19.7068 9.22215 19.1573C8.3999 18.6079 7.75904 17.827 7.3806 16.9134C7.00216 15.9998 6.90315 14.9945 7.09607 14.0245C7.289 13.0546 7.7652 12.1637 8.46447 11.4645C9.16373 10.7652 10.0546 10.289 11.0245 10.0961C11.9945 9.90315 12.9998 10.0022 13.9134 10.3806C14.827 10.759 15.6079 11.3999 16.1573 12.2221C16.7068 13.0444 17 14.0111 17 15C17 16.3261 16.4732 17.5979 15.5355 18.5355C14.5979 19.4732 13.3261 20 12 20Z" fill="black"/>
</svg>
