<svg width="24" height="24" viewBox="0 0 24 24" fill="none" xmlns="http://www.w3.org/2000/svg">
<path d="M16.949 14.121L19.071 12C20.0067 11.0613 20.5322 9.78995 20.5322 8.46453C20.5322 7.13911 20.0067 5.86775 19.071 4.92903C18.1326 3.99284 16.8611 3.46708 15.5355 3.46708C14.2099 3.46708 12.9385 3.99284 12 4.92903L11.293 5.63603L12.707 7.05003L13.414 6.34303C13.9776 5.78202 14.7404 5.46706 15.5355 5.46706C16.3307 5.46706 17.0935 5.78202 17.657 6.34303C18.2185 6.9063 18.5338 7.6692 18.5338 8.46453C18.5338 9.25986 18.2185 10.0228 17.657 10.586L15.535 12.707C15.292 12.9484 15.0057 13.1418 14.691 13.277L13.414 12L14.828 10.586L14.121 9.87903C13.658 9.41315 13.1071 9.04377 12.5003 8.7923C11.8935 8.54082 11.2429 8.41225 10.586 8.41403C10.351 8.41403 10.122 8.44603 9.89503 8.48003L3.70703 2.29303L2.29303 3.70703L20.293 21.707L21.707 20.293L16.171 14.757C16.448 14.573 16.709 14.361 16.949 14.121ZM10.586 17.657C10.0225 18.218 9.2597 18.533 8.46453 18.533C7.66936 18.533 6.90656 18.218 6.34303 17.657C5.78153 17.0938 5.46624 16.3309 5.46624 15.5355C5.46624 14.7402 5.78153 13.9773 6.34303 13.414L7.81903 11.939L6.40503 10.525L4.92903 12C3.99332 12.9387 3.4679 14.2101 3.4679 15.5355C3.4679 16.8609 3.99332 18.1323 4.92903 19.071C5.3929 19.5356 5.944 19.9039 6.55065 20.1548C7.1573 20.4057 7.80754 20.5342 8.46403 20.533C9.12069 20.5344 9.77114 20.4059 10.378 20.155C10.9848 19.9041 11.5361 19.5357 12 19.071L12.707 18.364L11.293 16.95L10.586 17.657Z" fill="black"/>
</svg>
