<svg width="24" height="24" viewBox="0 0 24 24" fill="none" xmlns="http://www.w3.org/2000/svg">
<path d="M19.89 10.105C19.6739 9.59567 19.4097 9.10813 19.101 8.649L17.443 9.768C17.9208 10.4783 18.2561 11.2748 18.43 12.113C18.6073 12.9868 18.6073 13.8872 18.43 14.761C18.3432 15.1831 18.2145 15.5954 18.046 15.992C17.8822 16.3817 17.6802 16.7541 17.443 17.104C16.969 17.803 16.3663 18.4054 15.667 18.879C14.9573 19.3566 14.1615 19.6918 13.324 19.866C12.4507 20.041 11.5513 20.041 10.678 19.866C9.42106 19.6078 8.26766 18.986 7.361 18.078C6.7621 17.4787 6.28408 16.7699 5.953 15.99C5.78595 15.5934 5.65801 15.1815 5.571 14.76C5.30702 13.4586 5.44011 12.1079 5.953 10.883C6.28281 10.1033 6.76062 9.39489 7.36 8.797C7.95912 8.19911 8.66721 7.7215 9.446 7.39C9.841 7.223 10.256 7.094 10.676 7.008C10.783 6.986 10.892 6.976 11 6.959V10L16 6L11 2V4.938C10.7569 4.96491 10.515 5.00195 10.275 5.049C9.17915 5.27356 8.13832 5.71191 7.212 6.339C5.56649 7.44902 4.35753 9.09605 3.79174 10.9986C3.22595 12.9012 3.33845 14.9412 4.11 16.77C4.53954 17.7882 5.16275 18.7134 5.945 19.494C6.72619 20.2737 7.64995 20.896 8.666 21.327C10.2633 22.0028 12.0284 22.1768 13.727 21.826C15.0867 21.545 16.3578 20.9381 17.4311 20.0574C18.5044 19.1767 19.3479 18.0486 19.889 16.77C20.109 16.25 20.278 15.709 20.389 15.162C20.6209 14.0237 20.6209 12.8503 20.389 11.712C20.2751 11.1614 20.108 10.6233 19.89 10.105Z" fill="black"/>
</svg>
