<svg width="24" height="24" viewBox="0 0 24 24" fill="none" xmlns="http://www.w3.org/2000/svg">
<path d="M19.494 9.05C19.0846 8.02387 18.4706 7.09181 17.6894 6.31061C16.9082 5.52941 15.9761 4.9154 14.95 4.506C14.713 3.088 13.485 2 12 2C10.515 2 9.287 3.088 9.05 4.506C8.02375 4.9152 7.09159 5.52913 6.31036 6.31036C5.52913 7.09159 4.9152 8.02375 4.506 9.05C3.088 9.287 2 10.515 2 12C2 13.485 3.088 14.713 4.506 14.95C4.9154 15.9761 5.52941 16.9082 6.31061 17.6894C7.09181 18.4706 8.02387 19.0846 9.05 19.494C9.287 20.912 10.515 22 12 22C13.485 22 14.713 20.912 14.95 19.494C15.9761 19.0846 16.9082 18.4706 17.6894 17.6894C18.4706 16.9082 19.0846 15.9761 19.494 14.95C20.912 14.713 22 13.485 22 12C22 10.515 20.912 9.287 19.494 9.05ZM12 4C12.2652 4 12.5196 4.10536 12.7071 4.29289C12.8946 4.48043 13 4.73478 13 5C13 5.06 12.977 5.11 12.966 5.167C12.9519 5.2635 12.9239 5.35747 12.883 5.446C12.869 5.473 12.849 5.495 12.832 5.521C12.7875 5.59703 12.7338 5.66724 12.672 5.73C12.632 5.767 12.582 5.792 12.536 5.822C12.482 5.858 12.432 5.9 12.371 5.925C12.256 5.972 12.132 6 12 6C11.868 6 11.744 5.972 11.629 5.925C11.568 5.901 11.518 5.859 11.464 5.822C11.418 5.792 11.368 5.767 11.328 5.73C11.2662 5.66724 11.2125 5.59703 11.168 5.521C11.151 5.495 11.131 5.473 11.117 5.446C11.0762 5.35742 11.0483 5.26347 11.034 5.167C11.023 5.11 11 5.06 11 5C11 4.73478 11.1054 4.48043 11.2929 4.29289C11.4804 4.10536 11.7348 4 12 4ZM5 11C5.06 11 5.11 11.023 5.167 11.034C5.266 11.051 5.361 11.075 5.446 11.117C5.473 11.131 5.495 11.151 5.521 11.168C5.596 11.215 5.67 11.265 5.73 11.328C5.767 11.368 5.792 11.418 5.822 11.464C5.858 11.518 5.9 11.568 5.925 11.629C5.972 11.744 6 11.868 6 12C6 12.132 5.972 12.256 5.925 12.371C5.901 12.432 5.859 12.482 5.822 12.536C5.792 12.582 5.767 12.632 5.73 12.672C5.67 12.735 5.596 12.785 5.521 12.832C5.495 12.849 5.473 12.869 5.446 12.883C5.35742 12.9238 5.26347 12.9517 5.167 12.966C5.11 12.977 5.06 13 5 13C4.73478 13 4.48043 12.8946 4.29289 12.7071C4.10536 12.5196 4 12.2652 4 12C4 11.7348 4.10536 11.4804 4.29289 11.2929C4.48043 11.1054 4.73478 11 5 11ZM12 20C11.7348 20 11.4804 19.8946 11.2929 19.7071C11.1054 19.5196 11 19.2652 11 19C11 18.94 11.023 18.89 11.034 18.833C11.051 18.734 11.075 18.639 11.117 18.554C11.131 18.527 11.151 18.505 11.168 18.479C11.215 18.404 11.265 18.33 11.328 18.27C11.368 18.233 11.418 18.208 11.464 18.178C11.518 18.142 11.568 18.1 11.629 18.075C11.744 18.028 11.868 18 12 18C12.132 18 12.256 18.028 12.371 18.075C12.432 18.099 12.482 18.141 12.536 18.178C12.582 18.208 12.632 18.233 12.672 18.27C12.735 18.33 12.785 18.404 12.832 18.479C12.849 18.505 12.869 18.527 12.883 18.554C12.925 18.639 12.949 18.735 12.966 18.833C12.977 18.89 13 18.94 13 19C13 19.2652 12.8946 19.5196 12.7071 19.7071C12.5196 19.8946 12.2652 20 12 20ZM14.583 17.488C14.577 17.477 14.566 17.469 14.561 17.459C14.3139 17.0488 13.9724 16.7036 13.565 16.452C13.511 16.419 13.456 16.392 13.399 16.362C13.2436 16.2791 13.0809 16.2104 12.913 16.157C12.849 16.136 12.785 16.113 12.719 16.096C12.486 16.039 12.248 16 12 16C11.752 16 11.514 16.039 11.282 16.097C11.216 16.114 11.152 16.136 11.087 16.158C10.9195 16.2116 10.7572 16.2802 10.602 16.363C10.546 16.392 10.49 16.42 10.436 16.453C10.0286 16.7046 9.68708 17.0498 9.44 17.46C9.434 17.471 9.423 17.479 9.418 17.489C8.1453 16.8823 7.11971 15.8567 6.513 14.584C6.524 14.578 6.532 14.567 6.542 14.562C6.95218 14.3149 7.29743 13.9734 7.549 13.566C7.582 13.512 7.61 13.456 7.639 13.4C7.722 13.246 7.789 13.084 7.844 12.915C7.865 12.85 7.888 12.786 7.905 12.72C7.961 12.486 8 12.248 8 12C8 11.752 7.961 11.514 7.903 11.282C7.88524 11.2166 7.86489 11.1518 7.842 11.088C7.78856 10.9201 7.71994 10.7574 7.637 10.602C7.607 10.545 7.58 10.49 7.547 10.436C7.29543 10.0286 6.95018 9.68708 6.54 9.44C6.53 9.434 6.522 9.423 6.512 9.417C7.11871 8.1443 8.1443 7.11871 9.417 6.512C9.423 6.522 9.434 6.53 9.439 6.541C9.687 6.952 10.027 7.296 10.435 7.548C10.489 7.581 10.545 7.609 10.601 7.638C10.756 7.721 10.917 7.788 11.087 7.843C11.151 7.864 11.215 7.887 11.281 7.904C11.514 7.961 11.751 8 12 8C12.3104 7.99582 12.6182 7.94249 12.912 7.842C13.082 7.787 13.243 7.72 13.398 7.637C13.454 7.608 13.51 7.58 13.564 7.547C13.972 7.295 14.312 6.951 14.56 6.54C14.566 6.529 14.577 6.521 14.582 6.511C15.8547 7.11771 16.8803 8.1433 17.487 9.416C17.476 9.422 17.468 9.433 17.458 9.438C17.0478 9.68508 16.7026 10.0266 16.451 10.434C16.418 10.488 16.39 10.544 16.361 10.6C16.278 10.755 16.211 10.916 16.156 11.086C16.135 11.15 16.112 11.214 16.095 11.28C16.035 11.5154 16.0031 11.7571 16 12C16.0042 12.3104 16.0575 12.6182 16.158 12.912C16.213 13.082 16.28 13.243 16.363 13.398C16.392 13.454 16.42 13.51 16.453 13.564C16.705 13.972 17.049 14.312 17.46 14.56C17.471 14.566 17.479 14.577 17.489 14.582C16.8826 15.8555 15.8565 16.8816 14.583 17.488ZM19 13C18.94 13 18.89 12.977 18.833 12.966C18.7365 12.9519 18.6425 12.9239 18.554 12.883C18.527 12.869 18.505 12.849 18.479 12.832C18.403 12.7875 18.3328 12.7338 18.27 12.672C18.233 12.632 18.208 12.582 18.178 12.536C18.142 12.482 18.1 12.432 18.075 12.371C18.028 12.256 18 12.132 18 12C18 11.868 18.028 11.744 18.075 11.629C18.099 11.568 18.141 11.518 18.178 11.464C18.208 11.418 18.233 11.368 18.27 11.328C18.33 11.265 18.404 11.215 18.479 11.168C18.505 11.151 18.527 11.131 18.554 11.117C18.639 11.075 18.735 11.051 18.833 11.034C18.89 11.023 18.94 11 19 11C19.2652 11 19.5196 11.1054 19.7071 11.2929C19.8946 11.4804 20 11.7348 20 12C20 12.2652 19.8946 12.5196 19.7071 12.7071C19.5196 12.8946 19.2652 13 19 13Z" fill="black"/>
</svg>
