<svg width="24" height="24" viewBox="0 0 24 24" fill="none" xmlns="http://www.w3.org/2000/svg">
<path d="M18.5 5L17.276 2.553C17.193 2.38692 17.0654 2.24722 16.9075 2.14955C16.7496 2.05188 16.5677 2.0001 16.382 2H7.618C7.43234 2.0001 7.25037 2.05188 7.09247 2.14955C6.93458 2.24722 6.80699 2.38692 6.724 2.553L5.5 5H3V7H21V5H18.5ZM6.734 21.142C6.805 21.634 7.227 22 7.725 22H16.276C16.5166 22 16.7492 21.9133 16.9311 21.7557C17.1129 21.5981 17.2318 21.3802 17.266 21.142L19 9H5L6.734 21.142ZM16 12L15.286 17H8.714L8 12H16Z" fill="black"/>
</svg>
