<svg width="24" height="24" viewBox="0 0 24 24" fill="none" xmlns="http://www.w3.org/2000/svg">
<path d="M21.555 8.168L12.555 2.168C12.3908 2.05857 12.1978 2.00018 12.0005 2.00018C11.8032 2.00018 11.6102 2.05857 11.446 2.168L2.446 8.168C2.30932 8.25937 2.19742 8.38318 2.12029 8.52837C2.04316 8.67356 2.0032 8.8356 2.004 9H2V20C2 20.5304 2.21071 21.0391 2.58579 21.4142C2.96086 21.7893 3.46957 22 4 22H20C20.5304 22 21.0391 21.7893 21.4142 21.4142C21.7893 21.0391 22 20.5304 22 20V9H21.996C21.9967 8.83572 21.9569 8.67381 21.8799 8.52865C21.803 8.3835 21.6914 8.25961 21.555 8.168ZM20 12.7L12 17L4 12.7V10.297L12 14.596L20 10.297V12.7Z" fill="black"/>
</svg>
