<svg width="24" height="24" viewBox="0 0 24 24" fill="none" xmlns="http://www.w3.org/2000/svg">
<path d="M2.63392 17.918C2.70335 18.2196 2.85086 18.4976 3.06166 18.7242C3.27245 18.9508 3.53912 19.118 3.83492 19.209L4.01492 20H3.99992V22H19.9999V20H6.68292C6.69605 19.9076 6.69369 19.8136 6.67592 19.722L6.47992 18.859L16.8369 16.503L17.0329 17.366C17.0851 17.595 17.2261 17.7938 17.4249 17.9189C17.6236 18.044 17.8639 18.085 18.0929 18.033L18.9559 17.836C19.0694 17.8103 19.1766 17.7624 19.2715 17.6952C19.3665 17.628 19.4472 17.5427 19.5092 17.4443C19.5711 17.3458 19.613 17.2361 19.6326 17.1215C19.6521 17.0068 19.6488 16.8894 19.6229 16.776L19.3719 15.673C19.8179 15.257 20.0419 14.627 19.8969 13.99L19.3069 11.4C19.2353 11.088 19.08 10.8014 18.8576 10.5711C18.6352 10.3408 18.3543 10.1755 18.0449 10.093L15.9959 6.715C15.6938 6.21869 15.2434 5.82979 14.7084 5.60318C14.1733 5.37657 13.5806 5.32369 13.0139 5.452L5.14592 7.242C4.57861 7.37051 4.06617 7.67442 3.68132 8.11061C3.29647 8.54679 3.05876 9.09309 3.00192 9.672L2.61492 13.604C2.37219 13.8124 2.19086 14.0831 2.09043 14.3868C1.99 14.6906 1.97427 15.016 2.04492 15.328L2.63392 17.918ZM5.65392 17.23C5.48393 17.2687 5.30796 17.2736 5.13608 17.2444C4.9642 17.2151 4.79977 17.1523 4.65217 17.0594C4.50457 16.9666 4.3767 16.8457 4.27585 16.7034C4.17501 16.5612 4.10316 16.4005 4.06442 16.2305C4.02568 16.0605 4.02081 15.8845 4.05007 15.7127C4.07933 15.5408 4.14216 15.3763 4.23498 15.2287C4.32779 15.0811 4.44876 14.9533 4.59099 14.8524C4.73323 14.7516 4.89393 14.6797 5.06392 14.641C5.40725 14.5628 5.76759 14.6241 6.06568 14.8116C6.36376 14.999 6.57518 15.2972 6.65342 15.6405C6.73166 15.9838 6.67031 16.3442 6.48287 16.6423C6.29543 16.9403 5.99725 17.1518 5.65392 17.23ZM16.8759 14.678C16.703 14.7255 16.5223 14.7375 16.3446 14.7133C16.1669 14.6891 15.996 14.6292 15.8421 14.5371C15.6882 14.445 15.5546 14.3228 15.4493 14.1777C15.3439 14.0326 15.2691 13.8676 15.2292 13.6928C15.1893 13.518 15.1853 13.3369 15.2173 13.1604C15.2493 12.984 15.3167 12.8159 15.4154 12.6662C15.5142 12.5165 15.6422 12.3884 15.7918 12.2895C15.9414 12.1907 16.1095 12.1231 16.2859 12.091C16.6225 12.0297 16.9697 12.1006 17.2552 12.289C17.5408 12.4774 17.7426 12.7687 17.8187 13.1022C17.8948 13.4357 17.8392 13.7857 17.6635 14.0793C17.4879 14.3729 17.2058 14.5873 16.8759 14.678ZM5.58892 9.192L13.4579 7.401C13.6156 7.36537 13.7805 7.38008 13.9294 7.44304C14.0782 7.506 14.2036 7.61405 14.2879 7.752L15.8729 10.365L15.3069 10.494L5.26092 12.781L4.69292 12.91L4.99192 9.868C5.00802 9.70697 5.07432 9.55506 5.18144 9.43376C5.28857 9.31245 5.43111 9.22788 5.58892 9.192ZM18.4049 4L16.9999 2L16.4999 5L18.9999 9L21.9999 10L19.9999 7.461L21.9999 6.528L19.9999 5.595L21.9999 2L18.4049 4Z" fill="black"/>
</svg>
