<svg width="24" height="24" viewBox="0 0 24 24" fill="none" xmlns="http://www.w3.org/2000/svg">
<path d="M12.48 2.99999L7.73004 7.75L3.00004 12.59C2.62754 12.9647 2.41846 13.4716 2.41846 14C2.41846 14.5284 2.62754 15.0353 3.00004 15.41L7.30004 19.71C7.4863 19.8947 7.7377 19.9989 8.00004 20H20V18H13L20.22 10.78C20.406 10.5942 20.5535 10.3737 20.6542 10.1309C20.7548 9.88808 20.8066 9.62783 20.8066 9.365C20.8066 9.10216 20.7548 8.84191 20.6542 8.59911C20.5535 8.35632 20.406 8.13574 20.22 7.95L15.31 2.99999C15.1243 2.81404 14.9037 2.66652 14.6609 2.56588C14.4181 2.46523 14.1579 2.41342 13.895 2.41342C13.6322 2.41342 13.372 2.46523 13.1292 2.56588C12.8864 2.66652 12.6658 2.81404 12.48 2.99999ZM8.41004 18L4.41004 14L9.16004 9.16L9.90004 8.41L14.85 13.36L10.29 17.92L10.22 18H8.41004Z" fill="black"/>
</svg>
