<svg width="24" height="24" viewBox="0 0 24 24" fill="none" xmlns="http://www.w3.org/2000/svg">
<path d="M12 2C6.486 2 2 6.486 2 12C2 17.514 6.486 22 12 22C17.514 22 22 17.514 22 12C22 6.486 17.514 2 12 2ZM19.736 10H16.576C16.0702 8.84907 15.1509 7.92982 14 7.424V4.263C15.38 4.6225 16.6391 5.3437 17.6475 6.35218C18.6558 7.36066 19.3767 8.61991 19.736 10ZM12 15C10.346 15 9 13.654 9 12C9 10.346 10.346 9 12 9C13.654 9 15 10.346 15 12C15 13.654 13.654 15 12 15ZM10 4.263V7.424C8.84907 7.92982 7.92982 8.84907 7.424 10H4.264C4.62326 8.61991 5.34424 7.36066 6.35254 6.35218C7.36085 5.3437 8.61997 4.6225 10 4.263ZM4.264 14H7.424C7.92982 15.1509 8.84907 16.0702 10 16.576V19.737C8.61997 19.3775 7.36085 18.6563 6.35254 17.6478C5.34424 16.6393 4.62326 15.3801 4.264 14ZM14 19.737V16.576C15.1509 16.0702 16.0702 15.1509 16.576 14H19.736C19.3767 15.3801 18.6558 16.6393 17.6475 17.6478C16.6391 18.6563 15.38 19.3775 14 19.737Z" fill="black"/>
</svg>
