<svg width="24" height="24" viewBox="0 0 24 24" fill="none" xmlns="http://www.w3.org/2000/svg">
<path d="M21.224 15.543L20.411 14.079L18.663 15.051L19.475 16.512C19.523 16.597 19.557 16.685 19.579 16.776C19.6157 16.9413 19.6109 17.1131 19.565 17.276C19.5407 17.3585 19.5057 17.4375 19.461 17.511C19.3766 17.6555 19.2573 17.7766 19.114 17.863C18.9589 17.9551 18.7814 18.0025 18.601 18H14V16L9.99999 19L14 22V20H18.601C18.879 20 19.153 19.963 19.412 19.891C19.9123 19.753 20.3673 19.4853 20.731 19.115C20.909 18.936 21.063 18.735 21.187 18.522C21.5816 17.855 21.7021 17.061 21.523 16.307C21.4569 16.0404 21.3564 15.7836 21.224 15.543ZM5.86199 11.039L3.55199 15.659C3.43237 15.8982 3.34463 16.152 3.29099 16.414C3.19328 16.9047 3.21996 17.412 3.3686 17.8897C3.51725 18.3675 3.78313 18.8004 4.14199 19.149C4.31999 19.323 4.51799 19.475 4.73699 19.602C5.19353 19.8628 5.71021 20 6.23599 20H7.99999V18H6.23599C6.06091 18.0005 5.88867 17.9557 5.73599 17.87C5.59016 17.7861 5.46854 17.6659 5.38299 17.521C5.29519 17.3798 5.24398 17.219 5.23399 17.053C5.22917 16.9709 5.23522 16.8885 5.25199 16.808C5.26999 16.721 5.29999 16.635 5.34099 16.552L7.59699 12.04L9.19599 12.963L8.59799 8L3.99999 9.964L5.86199 11.039ZM18.598 12.964L19.196 8L17.558 8.945L14.715 3.828C14.5165 3.46405 14.2436 3.14601 13.914 2.89462C13.5844 2.64323 13.2055 2.46413 12.802 2.369C12.5489 2.31036 12.2897 2.28249 12.03 2.286C11.5012 2.29591 10.9845 2.44528 10.532 2.719C10.049 3.01217 9.65972 3.43716 9.40999 3.944L8.67799 5.408L10.467 6.303L11.199 4.838C11.244 4.748 11.3 4.667 11.365 4.596C11.4842 4.46593 11.6378 4.37231 11.808 4.326C11.9808 4.2772 12.1633 4.27341 12.338 4.315C12.4715 4.34633 12.5967 4.40581 12.7054 4.48945C12.814 4.57309 12.9036 4.67897 12.968 4.8L15.826 9.946L14 11L18.598 12.964Z" fill="black"/>
</svg>
