<svg width="24" height="24" viewBox="0 0 24 24" fill="none" xmlns="http://www.w3.org/2000/svg">
<path d="M20.43 5.76001L12.43 2.20001C12.3011 2.14205 12.1614 2.11209 12.02 2.11209C11.8787 2.11209 11.7389 2.14205 11.61 2.20001L3.61002 5.76001C3.43611 5.83817 3.28817 5.96442 3.18363 6.12387C3.0791 6.28333 3.02233 6.46935 3.02002 6.66001C3.02002 9.03001 3.46002 17.46 11.53 21.77C11.682 21.8578 11.8545 21.904 12.03 21.904C12.2056 21.904 12.378 21.8578 12.53 21.77C20.53 17.47 21.11 9.06001 21.1 6.67001C21.0931 6.46845 21.0255 6.27369 20.9059 6.11129C20.7863 5.94889 20.6204 5.82644 20.43 5.76001ZM16 12.76H8.00002V10.76H16V12.76Z" fill="black"/>
</svg>
