<svg width="24" height="24" viewBox="0 0 24 24" fill="none" xmlns="http://www.w3.org/2000/svg">
<path d="M6 22H18C18.5304 22 19.0391 21.7893 19.4142 21.4142C19.7893 21.0391 20 20.5304 20 20V4C20 3.46957 19.7893 2.96086 19.4142 2.58579C19.0391 2.21071 18.5304 2 18 2H6C5.46957 2 4.96086 2.21071 4.58579 2.58579C4.21071 2.96086 4 3.46957 4 4V20C4 20.5304 4.21071 21.0391 4.58579 21.4142C4.96086 21.7893 5.46957 22 6 22ZM9 19H7V17H9V19ZM9 15H7V13H9V15ZM9 11H7V9H9V11ZM13 19H11V17H13V19ZM13 15H11V13H13V15ZM13 11H11V9H13V11ZM17 19H15V13H17V19ZM17 11H15V9H17V11ZM6 4H18V7H6V4Z" fill="black"/>
</svg>
