<svg width="24" height="24" viewBox="0 0 24 24" fill="none" xmlns="http://www.w3.org/2000/svg">
<path d="M5 8.999C5.00115 10.1004 5.26254 11.1859 5.76285 12.167C6.26317 13.1482 6.98825 13.9973 7.879 14.645L7.88 14.646C8.45342 15.0663 9.08775 15.3965 9.761 15.625L9.812 15.644C10.1911 15.7677 10.5802 15.8584 10.975 15.915C11.3137 15.9692 11.656 15.9976 11.999 16H12C12.35 16 12.69 15.966 13.027 15.916L13.209 15.888C13.545 15.829 13.873 15.749 14.19 15.645L14.232 15.629C17 14.693 19 12.078 19 8.999C19 5.14 15.86 2 12 2C8.14 2 5 5.14 5 8.999ZM12 4C14.756 4 17 6.242 17 8.999H15C14.9989 8.20377 14.6825 7.44142 14.1201 6.8792C13.5577 6.31698 12.7952 6.00079 12 6V4ZM7.521 16.795V22L12 20.5L16.479 22L16.48 16.795C15.119 17.584 13.5737 17.9995 12.0005 17.9995C10.4273 17.9995 8.88204 17.584 7.521 16.795Z" fill="black"/>
</svg>
