<svg width="24" height="24" viewBox="0 0 24 24" fill="none" xmlns="http://www.w3.org/2000/svg">
<path d="M12 2C6.486 2 2 6.486 2 12C2 17.514 6.486 22 12 22C17.514 22 22 17.514 22 12C22 6.486 17.514 2 12 2ZM15.493 8C15.6924 7.99491 15.8908 8.02979 16.0765 8.10259C16.2621 8.17538 16.4314 8.28463 16.5742 8.42387C16.717 8.56311 16.8304 8.72954 16.9079 8.91333C16.9853 9.09712 17.0252 9.29457 17.0251 9.49401C17.0251 9.69346 16.9851 9.89088 16.9075 10.0746C16.8299 10.2584 16.7163 10.4247 16.5735 10.5639C16.4306 10.703 16.2613 10.8121 16.0755 10.8848C15.8898 10.9575 15.6914 10.9922 15.492 10.987C15.1026 10.9768 14.7326 10.8149 14.4608 10.5358C14.189 10.2567 14.037 9.88255 14.0371 9.49301C14.0373 9.10347 14.1895 8.72939 14.4615 8.45049C14.7335 8.17159 15.1036 8.00995 15.493 8ZM8.5 8C8.69705 8.00007 8.89215 8.03894 9.07418 8.11441C9.2562 8.18988 9.42158 8.30046 9.56087 8.43984C9.70016 8.57922 9.81063 8.74467 9.88597 8.92675C9.96132 9.10882 10.0001 9.30395 10 9.501C9.99993 9.69805 9.96106 9.89315 9.88559 10.0752C9.81012 10.2572 9.69954 10.4226 9.56016 10.5619C9.42078 10.7012 9.25533 10.8116 9.07325 10.887C8.89118 10.9623 8.69605 11.0011 8.499 11.001C8.10104 11.0009 7.71944 10.8427 7.43813 10.5612C7.15683 10.2797 6.99887 9.89796 6.999 9.5C6.99913 9.10204 7.15735 8.72044 7.43884 8.43913C7.72033 8.15783 8.10204 7.99987 8.5 8ZM12 18C7 18 6 13 6 13H18C18 13 17 18 12 18Z" fill="black"/>
</svg>
