<svg width="24" height="24" viewBox="0 0 24 24" fill="none" xmlns="http://www.w3.org/2000/svg">
<path d="M13.5071 2.138C13.3278 2.0329 13.1203 1.98624 12.9133 2.00452C12.7063 2.0228 12.5101 2.10511 12.3521 2.24L4.19605 9.197C1.27205 12.121 1.27205 16.879 4.19605 19.803C4.89156 20.4994 5.71782 21.0516 6.62736 21.4278C7.5369 21.8039 8.5118 21.9967 9.49605 21.995C11.4201 21.995 13.3461 21.261 14.8131 19.793L21.7161 12.697C21.853 12.5561 21.9454 12.378 21.9817 12.1849C22.0181 11.9918 21.9967 11.7923 21.9203 11.6113C21.844 11.4302 21.7159 11.2757 21.5523 11.167C21.3886 11.0583 21.1965 11.0002 21.0001 11H17.6991L21.8741 3.486C21.9786 3.29608 22.0187 3.07734 21.9882 2.86269C21.9578 2.64804 21.8585 2.44907 21.7052 2.29571C21.552 2.14235 21.3531 2.04289 21.1385 2.01229C20.9238 1.98168 20.7051 2.02159 20.5151 2.126L13.4051 6.076L13.9811 3.197C14.0217 2.99313 13.9979 2.78166 13.9129 2.59192C13.828 2.40217 13.6862 2.24354 13.5071 2.138ZM14.0001 14.5C14.0001 15.6935 13.5259 16.8381 12.682 17.682C11.8381 18.5259 10.6935 19 9.50005 19C8.30658 19 7.16198 18.5259 6.31807 17.682C5.47416 16.8381 5.00005 15.6935 5.00005 14.5C5.00005 12.93 5.80705 11.551 7.02505 10.746C7.01505 10.83 7.00005 10.913 7.00005 11C7.00005 11.296 7.06577 11.5884 7.19246 11.8559C7.31915 12.1235 7.50365 12.3596 7.73266 12.5472C7.96166 12.7348 8.22945 12.8692 8.51671 12.9407C8.80396 13.0123 9.10352 13.0191 9.39375 12.9609C9.68399 12.9026 9.95767 12.7806 10.1951 12.6037C10.4324 12.4269 10.6276 12.1995 10.7664 11.938C10.9053 11.6766 10.9843 11.3876 10.9979 11.0919C11.0115 10.7961 10.9593 10.5011 10.8451 10.228C12.6691 10.802 14.0001 12.486 14.0001 14.5Z" fill="black"/>
</svg>
