<svg width="24" height="24" viewBox="0 0 24 24" fill="none" xmlns="http://www.w3.org/2000/svg">
<path d="M18.3279 4.25801C16.6425 2.88295 14.5529 2.09791 12.3789 2.02301C12.5902 3.27006 12.536 4.54766 12.2198 5.77232C11.9036 6.99698 11.3326 8.14113 10.5439 9.13001L11.9999 10.586L18.3279 4.25801ZM7.70095 9.11501L4.25795 5.67201C3.15234 7.02688 2.42382 8.6495 2.14595 10.376C3.10856 10.5665 4.10044 10.5527 5.05737 10.3355C6.0143 10.1182 6.91494 9.70245 7.70095 9.11501ZM19.7419 5.67201L13.4139 12L14.8699 13.456C15.8589 12.6676 17.0031 12.0966 18.2277 11.7804C19.4523 11.4642 20.7299 11.4099 21.9769 11.621C21.902 9.44706 21.117 7.3575 19.7419 5.67201ZM21.8539 13.624C20.8913 13.4335 19.8995 13.4473 18.9425 13.6646C17.9856 13.8818 17.085 14.2976 16.2989 14.885L19.7419 18.328C20.8481 16.9735 21.5767 15.3507 21.8539 13.624ZM9.11495 7.70101C9.70239 6.915 10.1182 6.01436 10.3354 5.05743C10.5526 4.1005 10.5664 3.10862 10.3759 2.14601C8.6493 2.42343 7.02657 3.152 5.67195 4.25801L9.11495 7.70101ZM13.6239 21.854C15.3504 21.5765 16.973 20.8483 18.3279 19.743L14.8849 16.3C14.2974 17.0858 13.8816 17.9862 13.6643 18.943C13.4471 19.8998 13.4333 20.8916 13.6239 21.854ZM11.9999 13.414L5.67195 19.742C7.35744 21.1171 9.447 21.9021 11.6209 21.977C11.4097 20.73 11.4639 19.4524 11.7801 18.2277C12.0963 17.003 12.6673 15.8589 13.4559 14.87L11.9999 13.414ZM4.25795 18.328L10.5859 12L9.12995 10.544C8.14098 11.3324 6.99682 11.9034 5.77219 12.2196C4.54755 12.5358 3.27 12.5901 2.02295 12.379C2.09785 14.553 2.88288 16.6425 4.25795 18.328Z" fill="black"/>
</svg>
