<svg width="24" height="24" viewBox="0 0 24 24" fill="none" xmlns="http://www.w3.org/2000/svg">
<path d="M6.787 7.00003H17.213C17.105 6.84203 17.012 6.66903 16.895 6.51903L19.708 3.70703L18.294 2.29303L15.448 5.13903C15.2171 4.97219 14.9756 4.82054 14.725 4.68503C13.8867 4.23667 12.9507 4.00209 12 4.00209C11.0493 4.00209 10.1133 4.23667 9.275 4.68503C9.025 4.81703 8.787 4.97203 8.553 5.13803L5.707 2.29303L4.293 3.70703L7.106 6.51903C6.988 6.67003 6.896 6.84203 6.787 7.00003ZM5.756 9.00003H2V11H4.307C4.242 11.495 4.2 11.997 4.2 12.5C4.2 13.007 4.242 13.513 4.307 14.011H2V16.011H4.753C4.766 16.05 4.774 16.091 4.787 16.129C4.975 16.684 5.208 17.222 5.482 17.729C5.526 17.81 5.577 17.884 5.623 17.963L3.293 20.293L4.707 21.707L6.817 19.596C7.40541 20.2535 8.10554 20.8016 8.885 21.215C9.364 21.468 9.867 21.664 10.381 21.795C10.585 21.847 10.792 21.88 10.999 21.913V16H12.999V21.914C13.2069 21.8851 13.4131 21.8457 13.617 21.796C14.1368 21.6623 14.6389 21.4676 15.113 21.216C15.578 20.97 16.027 20.666 16.446 20.312C16.704 20.094 16.946 19.85 17.18 19.596L19.291 21.707L20.705 20.293L18.375 17.963C18.422 17.883 18.473 17.808 18.517 17.727C18.79 17.222 19.024 16.684 19.211 16.128C19.224 16.089 19.232 16.049 19.245 16.01H22V14.01H19.692C19.757 13.511 19.799 13.006 19.799 12.499C19.799 11.996 19.757 11.494 19.693 10.999H22V9.00003H5.756Z" fill="black"/>
</svg>
