<svg width="24" height="24" viewBox="0 0 24 24" fill="none" xmlns="http://www.w3.org/2000/svg">
<path d="M20 14.185V11.816C20.5832 11.6103 21.0884 11.2292 21.4465 10.7251C21.8045 10.2209 21.9979 9.61836 22 9C22 7.346 20.654 6 19 6C18.607 5.9998 18.2179 6.07707 17.8548 6.22738C17.4917 6.37769 17.1618 6.5981 16.884 6.876L12.969 5.31C12.979 5.207 13 5.106 13 5C13 3.346 11.654 2 10 2C8.346 2 7 3.346 7 5C7 5.762 7.295 6.451 7.765 6.981L6.091 9.212C5.74387 9.07347 5.37375 9.00155 5 9C3.346 9 2 10.346 2 12C2 13.654 3.346 15 5 15C5.159 15 5.313 14.977 5.465 14.953L7.4 17.532C7.152 17.968 7 18.464 7 19C7 20.654 8.346 22 10 22C10.6455 21.9977 11.2731 21.7869 11.789 21.3989C12.305 21.0109 12.6817 20.4666 12.863 19.847L16.825 19.055C17.1038 19.3527 17.4406 19.5901 17.8147 19.7526C18.1888 19.9151 18.5922 19.9993 19 20C20.654 20 22 18.654 22 17C21.998 16.3817 21.8046 15.7793 21.4465 15.2752C21.0884 14.7712 20.5832 14.3904 20 14.185ZM19 8C19.1981 7.9998 19.3917 8.05837 19.5565 8.16828C19.7213 8.2782 19.8497 8.43452 19.9256 8.61747C20.0015 8.80042 20.0214 9.00177 19.9828 9.19604C19.9442 9.39031 19.8489 9.56876 19.7088 9.70881C19.5688 9.84887 19.3903 9.94422 19.196 9.98281C19.0018 10.0214 18.8004 10.0015 18.6175 9.92561C18.4345 9.84972 18.2782 9.72127 18.1683 9.5565C18.0584 9.39173 17.9998 9.19806 18 9C18 8.449 18.448 8 19 8ZM10 4C10.1981 3.9998 10.3917 4.05837 10.5565 4.16828C10.7213 4.2782 10.8497 4.43452 10.9256 4.61747C11.0015 4.80042 11.0214 5.00177 10.9828 5.19604C10.9442 5.39031 10.8489 5.56876 10.7088 5.70881C10.5688 5.84887 10.3903 5.94422 10.196 5.98281C10.0018 6.02141 9.80042 6.0015 9.61747 5.92561C9.43452 5.84972 9.2782 5.72127 9.16828 5.5565C9.05837 5.39174 8.9998 5.19806 9 5C9 4.449 9.448 4 10 4ZM4 12C3.9998 11.8019 4.05837 11.6083 4.16828 11.4435C4.2782 11.2787 4.43452 11.1503 4.61747 11.0744C4.80042 10.9985 5.00177 10.9786 5.19604 11.0172C5.39031 11.0558 5.56876 11.1511 5.70881 11.2912C5.84887 11.4312 5.94422 11.6097 5.98281 11.804C6.02141 11.9982 6.0015 12.1996 5.92561 12.3825C5.84972 12.5655 5.72127 12.7218 5.5565 12.8317C5.39174 12.9416 5.19806 13.0002 5 13C4.448 13 4 12.551 4 12ZM10 20C9.73478 20 9.48043 19.8946 9.29289 19.7071C9.10536 19.5196 9 19.2652 9 19C9 18.7348 9.10536 18.4804 9.29289 18.2929C9.48043 18.1054 9.73478 18 10 18C10.2652 18 10.5196 18.1054 10.7071 18.2929C10.8946 18.4804 11 18.7348 11 19C11 19.2652 10.8946 19.5196 10.7071 19.7071C10.5196 19.8946 10.2652 20 10 20ZM12.761 17.828C12.5304 17.2864 12.1458 16.8244 11.655 16.4994C11.1642 16.1744 10.5887 16.0008 10 16C9.614 16 9.248 16.079 8.909 16.213L7.235 13.982C7.705 13.451 8 12.762 8 12C8 11.464 7.848 10.968 7.601 10.533L9.536 7.953C9.688 7.977 9.841 8 10 8C10.393 8.0002 10.7821 7.92293 11.1452 7.77262C11.5083 7.62231 11.8382 7.4019 12.116 7.124L16.031 8.69C16.021 8.793 16 8.894 16 9C16 10.302 16.839 11.401 18 11.815V14.184C17.4169 14.3895 16.9117 14.7704 16.5536 15.2744C16.1956 15.7784 16.0022 16.3808 16 16.999C16 17.06 16.015 17.116 16.018 17.176L12.761 17.828ZM19 18C18.7348 18 18.4804 17.8946 18.2929 17.7071C18.1054 17.5196 18 17.2652 18 17C18 16.7348 18.1054 16.4804 18.2929 16.2929C18.4804 16.1054 18.7348 16 19 16C19.2652 16 19.5196 16.1054 19.7071 16.2929C19.8946 16.4804 20 16.7348 20 17C20 17.2652 19.8946 17.5196 19.7071 17.7071C19.5196 17.8946 19.2652 18 19 18Z" fill="black"/>
</svg>
