<svg width="24" height="24" viewBox="0 0 24 24" fill="none" xmlns="http://www.w3.org/2000/svg">
<path d="M21 11H20.83C19.777 11 18.872 10.331 18.473 9.356L18.452 9.307C18.044 8.33 18.203 7.21 18.952 6.461L19.071 6.342C19.1638 6.24916 19.2375 6.13893 19.2877 6.01763C19.338 5.89632 19.3638 5.7663 19.3638 5.635C19.3638 5.5037 19.338 5.37368 19.2877 5.25237C19.2375 5.13107 19.1638 5.02084 19.071 4.928C18.9782 4.83516 18.8679 4.76151 18.7466 4.71126C18.6253 4.66101 18.4953 4.63515 18.364 4.63515C18.2327 4.63515 18.1027 4.66101 17.9814 4.71126C17.8601 4.76151 17.7498 4.83516 17.657 4.928L17.538 5.047C16.789 5.796 15.669 5.955 14.692 5.547L14.643 5.526C13.669 5.128 13 4.218 13 3.165V3.084C13 2.447 12.553 2 12 2C11.447 2 11 2.447 11 3V3.036C11 4.132 10.34 5.12 9.327 5.539L9.321 5.542C8.8258 5.74697 8.28095 5.80051 7.75532 5.69585C7.2297 5.59119 6.74691 5.33303 6.368 4.954L6.343 4.929C6.25016 4.83616 6.13993 4.76251 6.01863 4.71226C5.89732 4.66201 5.7673 4.63615 5.636 4.63615C5.5047 4.63615 5.37468 4.66201 5.25337 4.71226C5.13207 4.76251 5.02184 4.83616 4.929 4.929C4.83616 5.02184 4.76251 5.13207 4.71226 5.25337C4.66201 5.37468 4.63615 5.5047 4.63615 5.636C4.63615 5.7673 4.66201 5.89732 4.71226 6.01863C4.76251 6.13993 4.83616 6.25016 4.929 6.343L4.965 6.379C5.34068 6.755 5.59654 7.23387 5.7003 7.75516C5.80406 8.27646 5.75107 8.8168 5.548 9.308L5.521 9.372C5.32134 9.85375 4.98337 10.2655 4.5498 10.5553C4.11622 10.845 3.60649 10.9998 3.085 11C2.448 11 2 11.447 2 12C2 12.553 2.447 13 3 13H3.068C3.59457 12.9999 4.10934 13.156 4.54709 13.4487C4.98484 13.7413 5.32587 14.1574 5.527 14.644L5.548 14.693C5.75107 15.1842 5.80406 15.7245 5.7003 16.2458C5.59654 16.7671 5.34068 17.246 4.965 17.622L4.929 17.658C4.74149 17.8455 4.63615 18.0998 4.63615 18.365C4.63615 18.6302 4.74149 18.8845 4.929 19.072C5.11651 19.2595 5.37082 19.3648 5.636 19.3648C5.90118 19.3648 6.15549 19.2595 6.343 19.072L6.379 19.036C6.75493 18.6602 7.2338 18.4043 7.75512 18.3005C8.27644 18.1967 8.81682 18.2498 9.308 18.453L9.451 18.513C9.90964 18.7024 10.3017 19.0237 10.5775 19.4362C10.8533 19.8487 11.0003 20.3338 11 20.83V20.915C11 21.553 11.447 22 12 22C12.553 22 13 21.552 13 21V20.83C13 19.815 13.611 18.9 14.55 18.512L14.802 18.408C15.2608 18.2177 15.7657 18.168 16.2528 18.265C16.7399 18.362 17.1872 18.6015 17.538 18.953L17.657 19.072C17.7498 19.1648 17.8601 19.2385 17.9814 19.2887C18.1027 19.339 18.2327 19.3648 18.364 19.3648C18.4953 19.3648 18.6253 19.339 18.7466 19.2887C18.8679 19.2385 18.9782 19.1648 19.071 19.072C19.1638 18.9792 19.2375 18.8689 19.2877 18.7476C19.338 18.6263 19.3638 18.4963 19.3638 18.365C19.3638 18.2337 19.338 18.1037 19.2877 17.9824C19.2375 17.8611 19.1638 17.7508 19.071 17.658L18.952 17.539C18.203 16.79 18.044 15.67 18.452 14.693L18.473 14.644C18.872 13.669 19.782 13 20.835 13H20.915C21.553 13 22 12.553 22 12C22 11.447 21.553 11 21 11ZM8 13C7.73478 13 7.48043 12.8946 7.29289 12.7071C7.10536 12.5196 7 12.2652 7 12C7 11.7348 7.10536 11.4804 7.29289 11.2929C7.48043 11.1054 7.73478 11 8 11C8.26522 11 8.51957 11.1054 8.70711 11.2929C8.89464 11.4804 9 11.7348 9 12C9 12.2652 8.89464 12.5196 8.70711 12.7071C8.51957 12.8946 8.26522 13 8 13ZM13 16.5C12.7348 16.5 12.4804 16.3946 12.2929 16.2071C12.1054 16.0196 12 15.7652 12 15.5C12 15.2348 12.1054 14.9804 12.2929 14.7929C12.4804 14.6054 12.7348 14.5 13 14.5C13.2652 14.5 13.5196 14.6054 13.7071 14.7929C13.8946 14.9804 14 15.2348 14 15.5C14 15.7652 13.8946 16.0196 13.7071 16.2071C13.5196 16.3946 13.2652 16.5 13 16.5ZM14 12C13.7373 11.9999 13.4772 11.9481 13.2345 11.8475C12.9918 11.7469 12.7713 11.5995 12.5856 11.4137C12.3999 11.2279 12.2526 11.0073 12.1521 10.7646C12.0516 10.5219 11.9999 10.2617 12 9.999C12.0001 9.73629 12.0519 9.47617 12.1525 9.23348C12.2531 8.99079 12.4005 8.7703 12.5863 8.58458C12.7721 8.39886 12.9927 8.25156 13.2354 8.15109C13.4781 8.05061 13.7383 7.99893 14.001 7.999C14.5316 7.99913 15.0403 8.21003 15.4154 8.58529C15.7905 8.96055 16.0011 9.46943 16.001 10C16.0009 10.5306 15.79 11.0393 15.4147 11.4144C15.0395 11.7895 14.5306 12.0001 14 12Z" fill="black"/>
</svg>
