<svg width="24" height="24" viewBox="0 0 24 24" fill="none" xmlns="http://www.w3.org/2000/svg">
<path d="M19 22H20V20H19V19C18.9981 17.7852 18.6807 16.5917 18.0789 15.5364C17.4771 14.4811 16.6116 13.6002 15.567 12.98C15.212 12.77 15 12.433 15 12.079V11.921C15 11.567 15.212 11.23 15.566 11.021C16.6108 10.4007 17.4765 9.51964 18.0785 8.46418C18.6804 7.40873 18.998 6.21504 19 5V4H20V2H4V4H5V5C5.00203 6.21504 5.31957 7.40873 5.92153 8.46418C6.5235 9.51964 7.38924 10.4007 8.434 11.021C8.788 11.23 9 11.566 9 11.921V12.079C9 12.433 8.788 12.77 8.434 12.979C7.38924 13.5993 6.5235 14.4804 5.92153 15.5358C5.31957 16.5913 5.00203 17.785 5 19V20H4V22H19ZM17 4V5C16.9985 6.08225 16.6462 7.13485 15.996 8H8.004C7.35378 7.13485 7.00151 6.08225 7 5V4H17ZM9.45 14.702C10.421 14.128 11 13.148 11 12.079V12H13V12.079C13 13.147 13.579 14.128 14.551 14.702C15.4495 15.2367 16.157 16.0407 16.573 17H7.427C7.84313 16.0405 8.55096 15.2364 9.45 14.702Z" fill="black"/>
</svg>
