<svg width="24" height="24" viewBox="0 0 24 24" fill="none" xmlns="http://www.w3.org/2000/svg">
<path d="M14 2H6C5.46957 2 4.96086 2.21071 4.58579 2.58579C4.21071 2.96086 4 3.46957 4 4V20C4 20.5304 4.21071 21.0391 4.58579 21.4142C4.96086 21.7893 5.46957 22 6 22H18C18.5304 22 19.0391 21.7893 19.4142 21.4142C19.7893 21.0391 20 20.5304 20 20V8L14 2ZM9.446 17.412C9.721 17.412 10.027 17.351 10.208 17.28L10.346 17.993C10.178 18.077 9.8 18.167 9.309 18.167C7.912 18.167 7.192 17.298 7.192 16.146C7.191 14.768 8.175 14 9.398 14C9.872 14 10.231 14.096 10.393 14.18L10.207 14.906C9.96346 14.8057 9.70236 14.7551 9.439 14.757C8.713 14.757 8.149 15.195 8.149 16.094C8.15 16.902 8.631 17.412 9.446 17.412ZM11.937 18.167C11.476 18.167 11.02 18.048 10.792 17.922L10.978 17.166C11.224 17.292 11.602 17.418 11.992 17.418C12.412 17.418 12.634 17.244 12.634 16.98C12.634 16.728 12.442 16.584 11.956 16.41C11.284 16.176 10.847 15.805 10.847 15.217C10.847 14.528 11.422 14 12.376 14C12.831 14 13.167 14.096 13.407 14.203L13.203 14.941C12.9394 14.8133 12.65 14.7476 12.357 14.749C11.961 14.749 11.77 14.93 11.77 15.139C11.77 15.397 11.998 15.511 12.519 15.709C13.233 15.973 13.569 16.345 13.569 16.914C13.568 17.592 13.046 18.167 11.937 18.167ZM15.177 18.167C14.716 18.167 14.26 18.048 14.032 17.922L14.218 17.166C14.464 17.292 14.842 17.418 15.232 17.418C15.652 17.418 15.874 17.244 15.874 16.98C15.874 16.728 15.682 16.584 15.196 16.41C14.524 16.176 14.087 15.805 14.087 15.217C14.087 14.528 14.662 14 15.616 14C16.071 14 16.407 14.096 16.647 14.203L16.443 14.941C16.1794 14.8133 15.89 14.7476 15.597 14.749C15.201 14.749 15.01 14.93 15.01 15.139C15.01 15.397 15.238 15.511 15.759 15.709C16.473 15.973 16.809 16.345 16.809 16.914C16.809 17.592 16.286 18.167 15.177 18.167ZM14 9H13V4L18 9H14Z" fill="black"/>
</svg>
