<svg width="24" height="24" viewBox="0 0 24 24" fill="none" xmlns="http://www.w3.org/2000/svg">
<path d="M19 4H17V2H15V4H9V2H7V4H5C3.897 4 3 4.897 3 6V20C3 21.103 3.897 22 5 22H19C20.103 22 21 21.103 21 20V6C21 4.897 20.103 4 19 4ZM15.352 15.711L12.002 19L8.653 15.711C8.44645 15.5124 8.28213 15.274 8.16989 15.0104C8.05764 14.7467 7.99979 14.4631 7.99979 14.1765C7.99979 13.8899 8.05764 13.6063 8.16989 13.3426C8.28213 13.079 8.44645 12.8406 8.653 12.642C9.06923 12.2311 9.63059 12.0006 10.2155 12.0006C10.8004 12.0006 11.3618 12.2311 11.778 12.642L12.002 12.861L12.226 12.642C12.6424 12.231 13.2039 12.0006 13.789 12.0006C14.3741 12.0006 14.9356 12.231 15.352 12.642C15.5586 12.8406 15.7229 13.079 15.8351 13.3426C15.9474 13.6063 16.0052 13.8899 16.0052 14.1765C16.0052 14.4631 15.9474 14.7467 15.8351 15.0104C15.7229 15.274 15.5586 15.5124 15.352 15.711ZM19 9H5V7H19V9Z" fill="black"/>
</svg>
