<svg width="24" height="24" viewBox="0 0 24 24" fill="none" xmlns="http://www.w3.org/2000/svg">
<path d="M3.553 18.895L7.553 20.895C7.69182 20.9643 7.84485 21.0004 8 21.0004C8.15515 21.0004 8.30818 20.9643 8.447 20.895L12 19.118L15.553 20.894C15.6915 20.9643 15.8446 21.001 15.9999 21.0012C16.1552 21.0013 16.3084 20.965 16.447 20.895L20.447 18.895C20.786 18.725 21 18.379 21 18V13C21 12.621 20.786 12.275 20.447 12.105L17 10.382V6.00001C17 5.62101 16.786 5.27501 16.447 5.10501L12.447 3.10501C12.3081 3.03549 12.1549 2.9993 11.9995 2.9993C11.8441 2.9993 11.6909 3.03549 11.552 3.10501L7.552 5.10501C7.214 5.27501 7 5.62101 7 6.00001V10.382L3.553 12.106C3.38677 12.1888 3.24695 12.3164 3.14925 12.4743C3.05156 12.6322 2.99987 12.8143 3 13V18C3 18.379 3.214 18.725 3.553 18.895ZM8 12.118L10.264 13.25L7.351 14.707L5.087 13.575L8 12.118ZM12 9.61801L15 8.11801V10.382L12 11.882V9.61801ZM18.264 13.25L15.382 14.691L13.118 13.559L16 12.118L18.264 13.25ZM8 18.882L7.938 18.851V16.65L11 15.118V17.382L8 18.882ZM16 18.882V16.618L19 15.118V17.382L16 18.882ZM12 5.11801L14.264 6.25001L11.382 7.69101L9.118 6.55901L12 5.11801Z" fill="black"/>
</svg>
