<svg width="24" height="24" viewBox="0 0 24 24" fill="none" xmlns="http://www.w3.org/2000/svg">
<path d="M20.995 6.90001C20.9784 6.73196 20.9194 6.57087 20.8235 6.43183C20.7277 6.29279 20.5981 6.18034 20.447 6.10501L12.447 2.10501C12.3081 2.03549 12.1549 1.9993 11.9995 1.9993C11.8442 1.9993 11.6909 2.03549 11.552 2.10501L3.552 6.10501C3.40128 6.18077 3.27212 6.29335 3.17649 6.43233C3.08087 6.5713 3.02189 6.73217 3.005 6.90001C2.994 7.00701 2.044 17.667 11.594 21.914C11.7216 21.9716 11.86 22.0014 12 22.0014C12.14 22.0014 12.2784 21.9716 12.406 21.914C21.956 17.667 21.006 7.00801 20.995 6.90001ZM12 19.897V12H5.51C5.12172 10.5783 4.93854 9.1085 4.966 7.63501L12 4.11801V12H18.46C17.701 14.74 15.962 17.979 12 19.897Z" fill="black"/>
</svg>
