<svg width="24" height="24" viewBox="0 0 24 24" fill="none" xmlns="http://www.w3.org/2000/svg">
<path d="M13.003 3H15.003V5H13.003V3ZM16 3H18V5H16V3ZM16 6H18V8H16V6ZM19 3H21V5H19V3ZM19 6H21V8H19V6ZM19 9H21V11H19V9ZM4.01196 12V21C4.01196 21.2652 4.11732 21.5196 4.30486 21.7071C4.49239 21.8946 4.74675 22 5.01196 22H13C13.2652 22 13.5195 21.8946 13.7071 21.7071C13.8946 21.5196 14 21.2652 14 21V12C14 10.9391 13.5785 9.92172 12.8284 9.17157C12.0782 8.42143 11.0608 8 9.99996 8H8.01196C6.9511 8 5.93368 8.42143 5.18354 9.17157C4.43339 9.92172 4.01196 10.9391 4.01196 12ZM7.00296 2H11.003V6H7.00296V2Z" fill="black"/>
</svg>
