<svg width="24" height="24" viewBox="0 0 24 24" fill="none" xmlns="http://www.w3.org/2000/svg">
<path d="M20.342 8.447L21.447 7.894C21.5782 7.82877 21.6935 7.73545 21.7845 7.62066C21.8756 7.50587 21.9403 7.37243 21.974 7.22982C22.0077 7.08721 22.0096 6.93893 21.9795 6.79551C21.9494 6.65209 21.8881 6.51706 21.8 6.4L18.8 2.4C18.7069 2.2758 18.5861 2.175 18.4472 2.10557C18.3084 2.03614 18.1552 2 18 2H6C5.84475 2 5.69164 2.03614 5.55279 2.10557C5.41393 2.175 5.29315 2.2758 5.2 2.4L2.2 6.4C2.11217 6.51712 2.05112 6.65209 2.02117 6.79539C1.99122 6.93869 1.9931 7.08681 2.02667 7.22931C2.06024 7.3718 2.12469 7.50518 2.21546 7.62004C2.30624 7.73489 2.42112 7.82841 2.552 7.894L3.657 8.447L2.526 10.709C2.18145 11.4038 2.00147 12.1685 2 12.944V13.535C2.00398 14.7556 2.37838 15.9462 3.0737 16.9493C3.76901 17.9525 4.75248 18.7209 5.894 19.153L9.325 20.439C10.0649 20.7151 10.7365 21.1476 11.294 21.707C11.3866 21.8 11.4967 21.8739 11.618 21.9242C11.7392 21.9746 11.8692 22.0005 12.0005 22.0005C12.1318 22.0005 12.2618 21.9746 12.383 21.9242C12.5043 21.8739 12.6144 21.8 12.707 21.707C13.2645 21.1479 13.9361 20.7157 14.676 20.44L18.108 19.153C19.249 18.7203 20.2319 17.9517 20.9268 16.9486C21.6217 15.9456 21.9959 14.7553 22 13.535V12.944C22 12.173 21.817 11.399 21.473 10.708L20.342 8.447ZM20 13.535C19.9972 14.3486 19.7476 15.1423 19.284 15.811C18.8205 16.4797 18.1649 16.9919 17.404 17.28L13.973 18.567C13.2632 18.8322 12.5976 19.2034 11.999 19.668C11.4003 19.2032 10.7348 18.8317 10.025 18.566L6.596 17.28C5.83506 16.9919 5.17949 16.4797 4.71595 15.811C4.25242 15.1423 4.00276 14.3486 4 13.535V12.944C4 12.481 4.109 12.016 4.316 11.602L5.447 9.341C5.68358 8.86629 5.72222 8.31712 5.55444 7.81395C5.38665 7.31079 5.02615 6.89472 4.552 6.657L4.519 6.642L6.5 4H17.5L19.481 6.642L19.447 6.659C18.973 6.89691 18.6127 7.313 18.445 7.81608C18.2772 8.31917 18.3157 8.86824 18.552 9.343L19.683 11.603C19.891 12.017 20 12.481 20 12.944V13.535Z" fill="black"/>
</svg>
