<svg width="24" height="24" viewBox="0 0 24 24" fill="none" xmlns="http://www.w3.org/2000/svg">
<path d="M9.76002 2.021C9.54072 2.01271 9.32483 2.07716 9.14596 2.2043C8.96709 2.33145 8.83527 2.51416 8.77102 2.72401L3.57902 19.166C3.52381 19.3406 3.51758 19.5269 3.56102 19.7048C3.60446 19.8827 3.6959 20.0452 3.82536 20.1747C3.95483 20.3041 4.11735 20.3956 4.29521 20.439C4.47308 20.4824 4.65945 20.4762 4.83402 20.421L21.276 15.229C21.4859 15.1652 21.6686 15.0336 21.7957 14.8548C21.9227 14.676 21.9868 14.4602 21.978 14.241C21.6 7.66601 16.334 2.4 9.76002 2.021ZM10 16C9.73731 15.9999 9.47719 15.9481 9.2345 15.8475C8.99181 15.7469 8.77132 15.5995 8.5856 15.4137C8.39988 15.2279 8.25258 15.0073 8.15211 14.7646C8.05163 14.5219 7.99995 14.2617 8.00002 13.999C8.00009 13.7363 8.0519 13.4762 8.15249 13.2335C8.25309 12.9908 8.4005 12.7703 8.58631 12.5846C8.77212 12.3989 8.99269 12.2516 9.23542 12.1511C9.47816 12.0506 9.73831 11.9989 10.001 11.999C10.5316 11.9991 11.0404 12.21 11.4154 12.5853C11.7905 12.9606 12.0012 13.4694 12.001 14C12.0009 14.5306 11.79 15.0394 11.4147 15.4144C11.0395 15.7895 10.5306 16.0001 10 16ZM16 14C15.7373 13.9999 15.4772 13.9481 15.2345 13.8475C14.9918 13.7469 14.7713 13.5995 14.5856 13.4137C14.3999 13.2279 14.2526 13.0073 14.1521 12.7646C14.0516 12.5219 14 12.2617 14 11.999C14.0001 11.7363 14.0519 11.4762 14.1525 11.2335C14.2531 10.9908 14.4005 10.7703 14.5863 10.5846C14.7721 10.3989 14.9927 10.2516 15.2354 10.1511C15.4782 10.0506 15.7383 9.99894 16.001 9.999C16.5316 9.99914 17.0404 10.21 17.4154 10.5853C17.7905 10.9606 18.0012 11.4694 18.001 12C18.0009 12.5306 17.79 13.0394 17.4147 13.4144C17.0395 13.7895 16.5306 14.0001 16 14Z" fill="black"/>
</svg>
