<svg width="24" height="24" viewBox="0 0 24 24" fill="none" xmlns="http://www.w3.org/2000/svg">
<path d="M21.666 12.277C21.7328 12.058 21.7899 11.8361 21.837 11.612C21.84 11.595 21.841 11.579 21.845 11.562C21.865 11.464 21.874 11.363 21.89 11.264C21.915 11.107 21.945 10.951 21.96 10.793C22.079 9.61436 21.9341 8.424 21.5357 7.30834C21.1374 6.19268 20.4956 5.17973 19.657 4.343C18.9148 3.59921 18.033 3.00935 17.0622 2.60727C16.0914 2.20519 15.0508 1.99882 14 2.00001V10H6.517L5.659 8.00001H2V10H4.341L6.169 14.266C5.52813 14.5301 4.97999 14.9783 4.5939 15.554C4.20781 16.1296 4.00113 16.8069 4 17.5C4 19.43 5.57 21 7.5 21C9.259 21 10.704 19.691 10.949 18H13.051C13.296 19.691 14.741 21 16.5 21C18.43 21 20 19.43 20 17.5C20 16.87 19.819 16.287 19.527 15.775C19.569 15.734 19.616 15.698 19.658 15.656C20.018 15.295 20.346 14.897 20.635 14.472C20.923 14.042 21.171 13.586 21.371 13.113C21.387 13.076 21.397 13.037 21.412 13L21.428 12.958C21.516 12.738 21.596 12.517 21.663 12.29L21.666 12.277ZM7.5 19C6.673 19 6 18.327 6 17.5C6 16.673 6.673 16 7.5 16C8.327 16 9 16.673 9 17.5C9 18.327 8.327 19 7.5 19ZM16.5 19C15.673 19 15 18.327 15 17.5C15 16.673 15.673 16 16.5 16C17.327 16 18 16.673 18 17.5C18 18.327 17.327 19 16.5 19Z" fill="black"/>
</svg>
