<svg width="24" height="24" viewBox="0 0 24 24" fill="none" xmlns="http://www.w3.org/2000/svg">
<path d="M3.66989 16.26L4.20989 16.79L3.58989 17.4C3.84081 17.7911 4.12165 18.1623 4.42989 18.51L18.5099 4.42001C18.161 4.12048 17.7936 3.84326 17.4099 3.59001L16.7899 4.20001L16.2599 3.67001L16.7399 3.19001C14.8461 2.17158 12.6744 1.79073 10.547 2.10396C8.41966 2.41718 6.44993 3.40779 4.93 4.92884C3.41007 6.44989 2.42091 8.42036 2.10926 10.548C1.79761 12.6756 2.18006 14.8469 3.19989 16.74L3.66989 16.26ZM14.8599 5.07001L15.3899 5.60001L13.9999 7.00001L13.4699 6.47001L14.8599 5.07001ZM12.0699 7.87001L12.5899 8.40001L11.1999 9.80001L10.6699 9.27001L12.0699 7.87001ZM9.26989 10.67L9.79989 11.2L8.39989 12.59L7.86989 12.06L9.26989 10.67ZM6.46989 13.46L6.99989 14L5.59989 15.4L5.06989 14.87L6.46989 13.46ZM6.58989 20.41L7.20989 19.8L7.73989 20.33L7.25989 20.81C9.15372 21.8284 11.3254 22.2093 13.4527 21.8961C15.5801 21.5828 17.5498 20.5922 19.0698 19.0712C20.5897 17.5501 21.5789 15.5797 21.8905 13.4521C22.2022 11.3245 21.8197 9.15309 20.7999 7.26001L20.3299 7.74001L19.7899 7.21001L20.4099 6.60001C20.159 6.20888 19.8781 5.83777 19.5699 5.49001L5.48989 19.58C5.83873 19.8795 6.20613 20.1568 6.58989 20.41ZM18.3999 8.61001L18.9299 9.14001L17.5299 10.54L16.9999 10L18.3999 8.61001ZM15.5999 11.41L16.1299 11.94L14.7299 13.33L14.1999 12.8L15.5999 11.41ZM12.7999 14.2L13.3299 14.73L11.9399 16.13L11.3999 15.6L12.7999 14.2ZM9.99989 17L10.5299 17.53L9.12989 18.93L8.59989 18.4L9.99989 17Z" fill="black"/>
</svg>
