<svg width="24" height="24" viewBox="0 0 24 24" fill="none" xmlns="http://www.w3.org/2000/svg">
<path d="M17.284 3.70702L18.696 2.29102L21.706 5.29102L20.293 6.70802L17.284 3.70702ZM6.69804 3.70702L3.70804 6.70602L2.29004 5.29402L5.28004 2.29402L6.69804 3.70702ZM12 4.00002C7.12204 4.00002 3.00004 8.12102 3.00004 13C3.00004 17.879 7.12204 22 12 22C16.879 22 21 17.879 21 13C21 8.12102 16.879 4.00002 12 4.00002ZM16 17H8.13104L12.131 11H8.00004V9.00002H15.868L14.833 10.554L14.832 10.555L11.869 15H16V17Z" fill="black"/>
</svg>
