<svg width="24" height="24" viewBox="0 0 24 24" fill="none" xmlns="http://www.w3.org/2000/svg">
<path d="M21.45 8.74C21.3626 8.45215 21.3345 8.14961 21.3671 7.85058C21.3998 7.55155 21.4926 7.26222 21.64 7C22.0181 6.23336 22.1034 5.35509 21.88 4.53C21.7149 3.94634 21.4031 3.4147 20.9742 2.98581C20.5453 2.55691 20.0136 2.24506 19.43 2.08C18.6126 1.87895 17.7502 1.97832 17 2.36C16.7431 2.502 16.4606 2.59188 16.1689 2.62449C15.8772 2.65709 15.5819 2.63178 15.3 2.55C13.1837 1.82467 10.8862 1.82467 8.76997 2.55C7.32527 3.02989 6.01116 3.83746 4.93039 4.90955C3.84962 5.98165 3.03149 7.28921 2.53997 8.73C1.81464 10.8462 1.81464 13.1438 2.53997 15.26C2.6288 15.5472 2.65864 15.8494 2.62771 16.1484C2.59677 16.4474 2.5057 16.7371 2.35997 17C1.98187 17.7666 1.89654 18.6449 2.11997 19.47C2.28503 20.0537 2.59688 20.5853 3.02578 21.0142C3.45467 21.4431 3.98631 21.7549 4.56997 21.92C5.38734 22.1211 6.24975 22.0217 6.99997 21.64C7.25688 21.498 7.5393 21.4081 7.83103 21.3755C8.12276 21.3429 8.41805 21.3682 8.69997 21.45C9.76046 21.8206 10.8766 22.0066 12 22C13.1119 21.9972 14.2161 21.8148 15.27 21.46C16.7083 20.9738 18.0152 20.1624 19.0888 19.0888C20.1624 18.0152 20.9738 16.7084 21.46 15.27C22.1821 13.1527 22.1785 10.8551 21.45 8.74ZM12 7C10.6739 7 9.40212 7.52679 8.46444 8.46447C7.52676 9.40215 6.99997 10.6739 6.99997 12H4.99997C4.99997 10.1435 5.73747 8.36301 7.05022 7.05025C8.36298 5.7375 10.1435 5 12 5V7Z" fill="black"/>
</svg>
