<svg width="24" height="24" viewBox="0 0 24 24" fill="none" xmlns="http://www.w3.org/2000/svg">
<path d="M2.99998 14H4.99998V21C4.99998 21.2652 5.10534 21.5196 5.29288 21.7071C5.48041 21.8946 5.73477 22 5.99998 22H18C18.2652 22 18.5196 21.8946 18.7071 21.7071C18.8946 21.5196 19 21.2652 19 21V14H21C21.1932 14.0002 21.3824 13.9442 21.5445 13.839C21.7065 13.7337 21.8346 13.5836 21.913 13.407C21.9919 13.2305 22.0179 13.0348 21.9877 12.8438C21.9576 12.6527 21.8725 12.4746 21.743 12.331L12.743 2.331C12.364 1.909 11.636 1.909 11.257 2.331L2.25698 12.331C2.12767 12.4747 2.04277 12.6527 2.01255 12.8436C1.98232 13.0345 2.00807 13.2301 2.08668 13.4067C2.16529 13.5833 2.29339 13.7333 2.45548 13.8386C2.61757 13.9439 2.8067 13.9999 2.99998 14ZM8.94898 13.684C8.97998 13.779 9.76198 16 12 16C14.269 16 15.042 13.713 15.05 13.689L16.95 14.31C16.901 14.461 15.703 18 12 18C8.29698 18 7.09898 14.461 7.04998 14.311L8.94898 13.684Z" fill="black"/>
</svg>
