<svg width="24" height="24" viewBox="0 0 24 24" fill="none" xmlns="http://www.w3.org/2000/svg">
<path d="M6 12H4C4 16.072 7.061 19.436 11 19.931V22H13V19.931C16.939 19.436 20 16.073 20 12H18C18 15.309 15.309 18 12 18C8.691 18 6 15.309 6 12Z" fill="black"/>
<path d="M8 12C8 14.206 9.794 16 12 16C14.206 16 16 14.206 16 12H14V10H16V8H14V6H16C16 3.783 14.215 1.979 12.021 1.979C11.9506 1.97943 11.8805 1.98781 11.812 2.004C10.7853 2.05378 9.81693 2.49636 9.10738 3.24016C8.39783 3.98395 8.00136 4.97205 8 6H12V8H8V10H12V12H8Z" fill="black"/>
</svg>
