<svg width="24" height="24" viewBox="0 0 24 24" fill="none" xmlns="http://www.w3.org/2000/svg">
<path d="M12 2C6.579 2 2 6.579 2 12C2 17.421 6.579 22 12 22C17.421 22 22 17.421 22 12C22 6.579 17.421 2 12 2ZM14.113 15H9.986L8.263 11.906L10.202 9H13.938L15.809 12.062L14.113 15ZM4 12C4 11.047 4.186 10.13 4.508 9.273L7.696 15H4.61C4.2094 14.0505 4.00202 13.0306 4 12ZM16.283 9H19.389C19.7904 9.94934 19.9981 10.9693 20 12C20 12.844 19.857 13.66 19.603 14.432L16.283 9ZM18.188 7H11.535L13.44 4.143C15.326 4.502 17.002 5.546 18.188 7ZM11.093 4.059L9.132 7H9V7.197L7.17 9.942L5.65 7.214C6.95 5.511 8.899 4.319 11.093 4.059ZM5.812 17H12.959L11.25 19.961C9.084 19.748 7.141 18.63 5.812 17ZM13.64 19.82L16.997 14.005L18.541 16.531C17.387 18.173 15.64 19.385 13.64 19.82Z" fill="black"/>
</svg>
