<svg width="24" height="24" viewBox="0 0 24 24" fill="none" xmlns="http://www.w3.org/2000/svg">
<path d="M12 2C6.486 2 2 6.486 2 12C2 17.514 6.486 22 12 22C17.514 22 22 17.514 22 12C22 6.486 17.514 2 12 2ZM8 12.414L6.707 13.707L5.293 12.293L6.586 11L5.293 9.707L6.707 8.293L8 9.586L9.293 8.293L10.707 9.707L9.414 11L10.707 12.293L9.293 13.707L8 12.414ZM14 18H10V16H14V18ZM18.707 12.293L17.293 13.707L16 12.414L14.707 13.707L13.293 12.293L14.586 11L13.293 9.707L14.707 8.293L16 9.586L17.293 8.293L18.707 9.707L17.414 11L18.707 12.293Z" fill="black"/>
</svg>
