<svg width="24" height="24" viewBox="0 0 24 24" fill="none" xmlns="http://www.w3.org/2000/svg">
<path d="M10 22V18C10 17.4696 10.2107 16.9609 10.5858 16.5858C10.9609 16.2107 11.4696 16 12 16C12.5304 16 13.0391 16.2107 13.4142 16.5858C13.7893 16.9609 14 17.4696 14 18V22H18V12C18 11.8274 17.9553 11.6578 17.8703 11.5077C17.7853 11.3575 17.6629 11.2319 17.515 11.143L13 8.434V6H15V4H13V2H11V4H9V6H11V8.434L6.485 11.143C6.33709 11.2319 6.21469 11.3575 6.1297 11.5077C6.04472 11.6578 6.00003 11.8274 6 12V22H10ZM3 22H5V13.882L2.553 15.106C2.38677 15.1888 2.24695 15.3164 2.14925 15.4743C2.05156 15.6322 1.99987 15.8143 2 16V21C2 21.2652 2.10536 21.5196 2.29289 21.7071C2.48043 21.8946 2.73478 22 3 22ZM21.447 15.105L19 13.882V22H21C21.2652 22 21.5196 21.8946 21.7071 21.7071C21.8946 21.5196 22 21.2652 22 21V16C22 15.621 21.786 15.275 21.447 15.105Z" fill="black"/>
</svg>
