<svg width="24" height="24" viewBox="0 0 24 24" fill="none" xmlns="http://www.w3.org/2000/svg">
<path d="M5.559 8.855C5.725 10.038 6.348 12.062 8.646 12.934C11 13.829 11 14.534 11 15V15.163C9.56 15.597 8.5 16.92 8.5 18.5C8.5 20.43 10.07 22 12 22C13.93 22 15.5 20.43 15.5 18.5C15.5 16.92 14.44 15.597 13 15.163V15C13 14.534 13 13.829 15.354 12.935C17.652 12.063 18.275 10.039 18.441 8.856C19.912 8.441 21 7.102 21 5.5C21 3.57 19.43 2 17.5 2C15.57 2 14 3.57 14 5.5C14 7.052 15.022 8.355 16.424 8.813C16.278 9.548 15.859 10.604 14.646 11.065C13.454 11.517 12.593 12.018 12 12.601C11.407 12.018 10.547 11.517 9.354 11.065C8.141 10.604 7.721 9.548 7.576 8.813C8.978 8.355 10 7.052 10 5.5C10 3.57 8.43 2 6.5 2C4.57 2 3 3.57 3 5.5C3 7.102 4.088 8.441 5.559 8.855ZM17.5 4C18.327 4 19 4.673 19 5.5C19 6.327 18.327 7 17.5 7C16.673 7 16 6.327 16 5.5C16 4.673 16.673 4 17.5 4ZM13.5 18.5C13.5 19.327 12.827 20 12 20C11.173 20 10.5 19.327 10.5 18.5C10.5 17.673 11.173 17 12 17C12.827 17 13.5 17.673 13.5 18.5ZM6.5 4C7.327 4 8 4.673 8 5.5C8 6.327 7.327 7 6.5 7C5.673 7 5 6.327 5 5.5C5 4.673 5.673 4 6.5 4Z" fill="black"/>
</svg>
