<svg width="24" height="24" viewBox="0 0 24 24" fill="none" xmlns="http://www.w3.org/2000/svg">
<path d="M19.924 10.383C19.9997 10.2003 20.0195 9.99913 19.9809 9.80511C19.9422 9.61108 19.8469 9.43287 19.707 9.29303L14.707 4.29303L13.293 5.70703L16.586 9.00003H3.99999V11H19C19.1978 11.0001 19.3911 10.9415 19.5556 10.8317C19.72 10.7218 19.8482 10.5657 19.924 10.383ZM4.07599 13.617C4.00029 13.7998 3.9805 14.0009 4.01912 14.195C4.05775 14.389 4.15306 14.5672 4.29299 14.707L9.29299 19.707L10.707 18.293L7.41399 15H20V13H4.99999C4.8022 12.9998 4.6088 13.0584 4.44431 13.1682C4.27981 13.2781 4.15163 13.4343 4.07599 13.617Z" fill="black"/>
</svg>
