<svg width="24" height="24" viewBox="0 0 24 24" fill="none" xmlns="http://www.w3.org/2000/svg">
<path d="M8.43407 20.566C9.76907 20.566 11.0251 20.046 11.9691 19.102L19.1031 11.969C20.0389 11.0301 20.5644 9.75844 20.5642 8.43278C20.564 7.10711 20.0382 5.83561 19.1021 4.89698C18.6386 4.43152 18.0875 4.06256 17.4806 3.81144C16.8736 3.56032 16.2229 3.43203 15.5661 3.43398C14.2311 3.43398 12.9761 3.95398 12.0321 4.89798L4.89807 12.031C3.96241 12.9699 3.43696 14.2413 3.43677 15.5668C3.43658 16.8923 3.96168 18.1638 4.89707 19.103C5.3607 19.5685 5.91201 19.9374 6.51911 20.1886C7.12622 20.4397 7.77708 20.568 8.43407 20.566ZM13.4451 6.31198C13.7229 6.03275 14.0532 5.81138 14.4171 5.66067C14.781 5.50997 15.1712 5.43292 15.5651 5.43398C16.3671 5.43398 17.1211 5.74598 17.6871 6.31198C18.2489 6.87499 18.5646 7.63786 18.5648 8.43328C18.565 9.22869 18.2497 9.99171 17.6881 10.555L14.7951 13.447L10.5531 9.20298L13.4451 6.31198Z" fill="black"/>
</svg>
