<svg width="24" height="24" viewBox="0 0 24 24" fill="none" xmlns="http://www.w3.org/2000/svg">
<path d="M16.97 4.75701C16.9178 4.54684 16.7987 4.35932 16.6307 4.22269C16.4627 4.08607 16.2548 4.00774 16.0384 3.9995C15.822 3.99127 15.6088 4.05357 15.4309 4.17703C15.253 4.30049 15.12 4.47842 15.052 4.68401L11.866 14.238L8.914 7.59401C8.83363 7.41482 8.70237 7.2632 8.53654 7.15799C8.37071 7.05279 8.17762 6.99863 7.98127 7.00225C7.78491 7.00587 7.59395 7.06712 7.43212 7.17837C7.27028 7.28962 7.14471 7.44598 7.071 7.62801L5.323 12H2V14H5.323C6.146 14 6.875 13.506 7.179 12.743L8.048 10.571L11.085 17.406C11.247 17.769 11.606 18 12 18L12.048 17.999C12.2495 17.9894 12.4433 17.9191 12.604 17.7971C12.7646 17.6752 12.8846 17.5075 12.948 17.316L15.862 8.57401L16.841 12.485C16.9484 12.9181 17.1978 13.3027 17.5495 13.5774C17.9012 13.852 18.3348 14.0008 18.781 14H22V12H18.78L16.97 4.75701Z" fill="black"/>
</svg>
