<svg width="24" height="24" viewBox="0 0 24 24" fill="none" xmlns="http://www.w3.org/2000/svg">
<path d="M5 2H7V5H5V2ZM9 2H11V5H9V2ZM13 2H15V5H13V2ZM19 9H17V8C17 7.73478 16.8946 7.48043 16.7071 7.29289C16.5196 7.10536 16.2652 7 16 7H4C3.73478 7 3.48043 7.10536 3.29289 7.29289C3.10536 7.48043 3 7.73478 3 8V18C3 18.7956 3.31607 19.5587 3.87868 20.1213C4.44129 20.6839 5.20435 21 6 21H14C14.7956 21 15.5587 20.6839 16.1213 20.1213C16.6839 19.5587 17 18.7956 17 18H19C20.103 18 21 17.103 21 16V11C21 9.897 20.103 9 19 9ZM17 16V11H19L19.002 16H17Z" fill="black"/>
</svg>
