<svg width="24" height="24" viewBox="0 0 24 24" fill="none" xmlns="http://www.w3.org/2000/svg">
<path d="M11.488 21.754C11.782 21.911 12.151 21.91 12.445 21.753C20.457 17.449 21.026 9.03998 21.019 6.64898C21.0183 6.45681 20.9615 6.26904 20.8556 6.10865C20.7498 5.94826 20.5994 5.82223 20.423 5.74598L12.373 2.17998C12.2449 2.12351 12.1064 2.09443 11.9664 2.09461C11.8264 2.09478 11.688 2.1242 11.56 2.18098L3.56603 5.74698C3.39222 5.82327 3.24402 5.94791 3.13906 6.10606C3.0341 6.26421 2.97681 6.4492 2.97403 6.63898C2.94003 9.01798 3.41903 17.445 11.488 21.754ZM8.67403 10.293L10.967 12.586L15.26 8.29298L16.674 9.70698L10.967 15.414L7.26003 11.707L8.67403 10.293Z" fill="black"/>
</svg>
