<svg width="24" height="24" viewBox="0 0 24 24" fill="none" xmlns="http://www.w3.org/2000/svg">
<path d="M12 2C6.486 2 2 6.486 2 12C2 17.514 6.486 22 12 22C17.514 22 22 17.514 22 12C22 6.486 17.514 2 12 2ZM8.5 9C8.69705 9.00007 8.89215 9.03894 9.07418 9.11441C9.2562 9.18988 9.42158 9.30046 9.56087 9.43984C9.70016 9.57922 9.81063 9.74467 9.88597 9.92675C9.96132 10.1088 10.0001 10.304 10 10.501C9.99993 10.698 9.96106 10.8932 9.88559 11.0752C9.81012 11.2572 9.69954 11.4226 9.56016 11.5619C9.42078 11.7012 9.25533 11.8116 9.07325 11.887C8.89118 11.9623 8.69605 12.0011 8.499 12.001C8.10104 12.0009 7.71944 11.8427 7.43813 11.5612C7.15683 11.2797 6.99887 10.898 6.999 10.5C6.99913 10.102 7.15735 9.72044 7.43884 9.43913C7.72033 9.15783 8.10204 8.99987 8.5 9ZM16.241 16.244C15.4118 17.0745 14.3567 17.6427 13.207 17.878C12.0184 18.1197 10.7845 17.9981 9.666 17.529C8.59265 17.0757 7.67458 16.3196 7.024 15.353L8.682 14.236C8.825 14.447 8.989 14.646 9.17 14.826C9.53459 15.1925 9.96694 15.4845 10.443 15.686C10.686 15.788 10.938 15.867 11.192 15.918C11.7254 16.025 12.2746 16.025 12.808 15.918C13.061 15.866 13.313 15.787 13.558 15.685C13.792 15.585 14.022 15.461 14.237 15.317C14.445 15.175 14.644 15.011 14.828 14.828C15.011 14.646 15.175 14.447 15.317 14.236L16.975 15.353C16.761 15.673 16.514 15.973 16.241 16.244ZM13 12C13 12 13.5 10 15.5 10C17.499 10 18 12 18 12H13Z" fill="black"/>
</svg>
