<svg width="24" height="24" viewBox="0 0 24 24" fill="none" xmlns="http://www.w3.org/2000/svg">
<path d="M15.5351 2.808C15.1596 2.43379 14.6511 2.22366 14.1211 2.22366C13.591 2.22366 13.0825 2.43379 12.7071 2.808L2.80806 12.707C2.43336 13.0822 2.2229 13.5908 2.2229 14.121C2.2229 14.6512 2.43336 15.1598 2.80806 15.535L8.46506 21.192C8.85506 21.582 9.36706 21.777 9.87906 21.777C10.3911 21.777 10.9031 21.582 11.2931 21.192L21.1921 11.293C21.9721 10.514 21.9721 9.244 21.1921 8.465L15.5351 2.808ZM8.70706 16.707C8.61421 16.7998 8.50399 16.8735 8.38269 16.9237C8.26138 16.974 8.13136 16.9998 8.00006 16.9998C7.86876 16.9998 7.73874 16.974 7.61743 16.9237C7.49613 16.8735 7.3859 16.7998 7.29306 16.707C7.20022 16.6142 7.12657 16.5039 7.07632 16.3826C7.02607 16.2613 7.00021 16.1313 7.00021 16C7.00021 15.8687 7.02607 15.7387 7.07632 15.6174C7.12657 15.4961 7.20022 15.3858 7.29306 15.293C7.48057 15.1055 7.73488 15.0001 8.00006 15.0001C8.26524 15.0001 8.51955 15.1055 8.70706 15.293C8.89457 15.4805 8.99991 15.7348 8.99991 16C8.99991 16.2652 8.89457 16.5195 8.70706 16.707ZM15.7071 21.707L14.2931 20.293L20.2931 14.293L21.7071 15.708L15.7071 21.707ZM8.29306 2.293L9.70706 3.707L3.70706 9.707L2.29306 8.292L8.29306 2.293Z" fill="black"/>
</svg>
