<svg width="24" height="24" viewBox="0 0 24 24" fill="none" xmlns="http://www.w3.org/2000/svg">
<path d="M21 4H2V6H4.3L7.821 15.683C7.96168 16.0685 8.21731 16.4015 8.55335 16.6371C8.88939 16.8726 9.28964 16.9993 9.7 17H18V15H9.7L8.972 13H18C18.4 13 18.762 12.762 18.919 12.394L21.919 5.394C21.9847 5.24194 22.0116 5.0759 21.9971 4.91087C21.9827 4.74584 21.9273 4.587 21.8362 4.44869C21.745 4.31038 21.6208 4.19694 21.4748 4.11861C21.3288 4.04028 21.1657 3.99952 21 4Z" fill="black"/>
<path d="M10.5 21C11.3284 21 12 20.3284 12 19.5C12 18.6716 11.3284 18 10.5 18C9.67157 18 9 18.6716 9 19.5C9 20.3284 9.67157 21 10.5 21Z" fill="black"/>
<path d="M16.5 21C17.3284 21 18 20.3284 18 19.5C18 18.6716 17.3284 18 16.5 18C15.6716 18 15 18.6716 15 19.5C15 20.3284 15.6716 21 16.5 21Z" fill="black"/>
</svg>
