<svg width="24" height="24" viewBox="0 0 24 24" fill="none" xmlns="http://www.w3.org/2000/svg">
<path d="M18 8.00099H16V7.99999H15V4.99899C15.0033 4.60694 14.9276 4.21824 14.7775 3.85607C14.6273 3.4939 14.4057 3.16568 14.126 2.89099C13.8189 2.57485 13.4447 2.33174 13.031 2.1796C12.6173 2.02746 12.1748 1.97018 11.736 2.01199C10.202 2.14399 9 3.50799 9 5.11699V7.99999H6C4.897 7.99999 4 8.89699 4 9.99999V21C4 21.2652 4.10536 21.5196 4.29289 21.7071C4.48043 21.8946 4.73478 22 5 22H19C19.2652 22 19.5196 21.8946 19.7071 21.7071C19.8946 21.5196 20 21.2652 20 21V10.001C20 8.89799 19.103 8.00099 18 8.00099ZM6 12V9.99999H11V5.11699C11 4.54699 11.407 4.04699 12.002 3.99999C12.268 3.99999 12.514 4.10299 12.714 4.30699C12.8058 4.39715 12.8784 4.50491 12.9276 4.62382C12.9767 4.74273 13.0013 4.87033 13 4.99899V9.99999H13.995L14 10.001H18V12H6Z" fill="black"/>
</svg>
