<svg width="24" height="24" viewBox="0 0 24 24" fill="none" xmlns="http://www.w3.org/2000/svg">
<path d="M12 2C6.486 2 2 6.486 2 12C2 17.514 6.486 22 12 22C17.514 22 22 17.514 22 12C22 6.486 17.514 2 12 2ZM16.186 12.74L12 16.926L7.814 12.74C7.55534 12.4847 7.34996 12.1805 7.20979 11.8451C7.06962 11.5098 6.99744 11.15 6.99744 10.7865C6.99744 10.423 7.06962 10.0632 7.20979 9.72785C7.34996 9.39251 7.55534 9.08834 7.814 8.833C8.06932 8.57449 8.37343 8.36924 8.70868 8.22916C9.04393 8.08908 9.40366 8.01694 9.767 8.01694C10.1303 8.01694 10.4901 8.08908 10.8253 8.22916C11.1606 8.36924 11.4647 8.57449 11.72 8.833L12 9.112L12.279 8.833C12.5343 8.57449 12.8384 8.36924 13.1737 8.22916C13.5089 8.08908 13.8687 8.01694 14.232 8.01694C14.5953 8.01694 14.9551 8.08908 15.2903 8.22916C15.6256 8.36924 15.9297 8.57449 16.185 8.833C16.4437 9.08828 16.6492 9.39239 16.7894 9.7277C16.9297 10.063 17.002 10.4228 17.0021 10.7863C17.0022 11.1498 16.9301 11.5096 16.79 11.845C16.6499 12.1804 16.4446 12.4846 16.186 12.74Z" fill="black"/>
</svg>
