<svg width="24" height="24" viewBox="0 0 24 24" fill="none" xmlns="http://www.w3.org/2000/svg">
<path d="M21.084 2.914C19.906 1.735 17.85 1.735 16.672 2.914L8.293 11.293C8.20005 11.3858 8.12632 11.496 8.07601 11.6173C8.0257 11.7386 7.9998 11.8687 7.9998 12C7.9998 12.1313 8.0257 12.2614 8.07601 12.3827C8.12632 12.504 8.20005 12.6142 8.293 12.707L11.293 15.707C11.3857 15.8002 11.4958 15.8741 11.6171 15.9246C11.7385 15.9751 11.8686 16.001 12 16.001C12.1314 16.001 12.2615 15.9751 12.3829 15.9246C12.5042 15.8741 12.6143 15.8002 12.707 15.707L21.086 7.328C21.6706 6.74217 21.9988 5.94823 21.9984 5.12059C21.998 4.29295 21.6691 3.49931 21.084 2.914ZM19.672 5.914L12 13.586L10.414 12L18.086 4.328C18.2996 4.12377 18.5839 4.00996 18.8794 4.01033C19.1749 4.0107 19.4589 4.12523 19.672 4.33C19.8813 4.54044 19.9988 4.82518 19.9988 5.122C19.9988 5.41882 19.8813 5.70357 19.672 5.914ZM8 15C6.735 14.366 4.5 15 4.5 17C4.5 18.197 5 19 3 20C3 20 6.25 22.25 8.5 20C9.774 18.726 9.994 16 8 15Z" fill="black"/>
</svg>
