<svg width="24" height="24" viewBox="0 0 24 24" fill="none" xmlns="http://www.w3.org/2000/svg">
<path d="M21.598 11.064C21.4776 10.9732 21.3384 10.9105 21.1905 10.8808C21.0427 10.851 20.8901 10.8548 20.744 10.892C20.5016 10.9597 20.2516 10.996 20 11C18.346 11 17 9.65399 16.997 8.06199C17.002 8.02799 17.013 7.92799 17.014 7.89399C17.0205 7.73766 16.9902 7.58198 16.9254 7.43952C16.8607 7.29706 16.7634 7.17182 16.6413 7.07391C16.5193 6.976 16.3759 6.90815 16.2228 6.87586C16.0697 6.84356 15.9112 6.84772 15.76 6.88799C15.5125 6.95772 15.257 6.99536 15 6.99999C13.346 6.99999 12 5.65399 12 3.99999C12 3.78299 12.031 3.55599 12.099 3.28399C12.1374 3.12873 12.1381 2.96651 12.101 2.81093C12.0638 2.65535 11.9898 2.51096 11.8853 2.38987C11.7808 2.26879 11.6487 2.17455 11.5002 2.11506C11.3518 2.05557 11.1912 2.03257 11.032 2.04799C8.55542 2.27881 6.25498 3.42826 4.58341 5.27009C2.91184 7.11193 1.99022 9.51274 1.99995 12C1.99995 17.514 6.48595 22 12 22C17.514 22 22 17.514 22 12C22 11.951 21.997 11.903 21.993 11.84C21.9896 11.6893 21.9523 11.5413 21.884 11.4069C21.8156 11.2726 21.7178 11.1554 21.598 11.064ZM8.49995 5.99999C8.89778 5.99999 9.27931 6.15803 9.56061 6.43933C9.84192 6.72064 9.99995 7.10217 9.99995 7.49999C9.99995 7.89782 9.84192 8.27935 9.56061 8.56065C9.27931 8.84196 8.89778 8.99999 8.49995 8.99999C8.10213 8.99999 7.7206 8.84196 7.43929 8.56065C7.15799 8.27935 6.99995 7.89782 6.99995 7.49999C6.99995 7.10217 7.15799 6.72064 7.43929 6.43933C7.7206 6.15803 8.10213 5.99999 8.49995 5.99999ZM6.49995 14C6.30297 14 6.10792 13.9612 5.92593 13.8858C5.74394 13.8104 5.57858 13.6999 5.43929 13.5607C5.30001 13.4214 5.18952 13.256 5.11413 13.074C5.03875 12.892 4.99995 12.697 4.99995 12.5C4.99995 12.303 5.03875 12.108 5.11413 11.926C5.18952 11.744 5.30001 11.5786 5.43929 11.4393C5.57858 11.3 5.74394 11.1896 5.92593 11.1142C6.10792 11.0388 6.30297 11 6.49995 11C6.89778 11 7.27931 11.158 7.56061 11.4393C7.84192 11.7206 7.99995 12.1022 7.99995 12.5C7.99995 12.8978 7.84192 13.2793 7.56061 13.5607C7.27931 13.842 6.89778 14 6.49995 14ZM9.49995 18C9.10213 18 8.7206 17.842 8.43929 17.5607C8.15799 17.2793 7.99995 16.8978 7.99995 16.5C7.99995 16.1022 8.15799 15.7206 8.43929 15.4393C8.7206 15.158 9.10213 15 9.49995 15C9.89778 15 10.2793 15.158 10.5606 15.4393C10.8419 15.7206 11 16.1022 11 16.5C11 16.8978 10.8419 17.2793 10.5606 17.5607C10.2793 17.842 9.89778 18 9.49995 18ZM12 11.5C12 11.1022 12.158 10.7206 12.4393 10.4393C12.7206 10.158 13.1021 9.99999 13.5 9.99999C13.8978 9.99999 14.2793 10.158 14.5606 10.4393C14.8419 10.7206 15 11.1022 15 11.5C15 11.8978 14.8419 12.2793 14.5606 12.5607C14.2793 12.842 13.8978 13 13.5 13C13.1021 13 12.7206 12.842 12.4393 12.5607C12.158 12.2793 12 11.8978 12 11.5ZM15.5 18C15.1021 18 14.7206 17.842 14.4393 17.5607C14.158 17.2793 14 16.8978 14 16.5C14 16.1022 14.158 15.7206 14.4393 15.4393C14.7206 15.158 15.1021 15 15.5 15C15.8978 15 16.2793 15.158 16.5606 15.4393C16.8419 15.7206 17 16.1022 17 16.5C17 16.8978 16.8419 17.2793 16.5606 17.5607C16.2793 17.842 15.8978 18 15.5 18Z" fill="black"/>
</svg>
