<svg width="24" height="24" viewBox="0 0 24 24" fill="none" xmlns="http://www.w3.org/2000/svg">
<path d="M12.74 2.32C12.6462 2.21688 12.532 2.13449 12.4046 2.07811C12.2771 2.02173 12.1393 1.99261 12 1.99261C11.8606 1.99261 11.7228 2.02173 11.5954 2.07811C11.4679 2.13449 11.3537 2.21688 11.26 2.32L2.25997 12.32C2.12726 12.4631 2.03932 12.6419 2.00698 12.8343C1.97465 13.0268 1.99934 13.2245 2.07801 13.4031C2.15668 13.5817 2.28589 13.7334 2.44972 13.8395C2.61354 13.9455 2.80482 14.0013 2.99997 14H4.99997V21C4.99997 21.2652 5.10533 21.5196 5.29287 21.7071C5.4804 21.8946 5.73476 22 5.99997 22H18C18.2652 22 18.5195 21.8946 18.7071 21.7071C18.8946 21.5196 19 21.2652 19 21V14H21C21.2652 14 21.5195 13.8946 21.7071 13.7071C21.8946 13.5196 22 13.2652 22 13C22.0018 12.7487 21.909 12.5059 21.74 12.32L12.74 2.32Z" fill="black"/>
</svg>
