<svg width="24" height="24" viewBox="0 0 24 24" fill="none" xmlns="http://www.w3.org/2000/svg">
<path d="M21.4841 7.125L12.4621 2.125C12.3138 2.04333 12.1473 2.00049 11.9781 2.00049C11.8088 2.00049 11.6423 2.04333 11.4941 2.125L2.51607 7.085C2.3601 7.17136 2.23006 7.29785 2.13941 7.45137C2.04876 7.60488 2.0008 7.77984 2.00049 7.95812C2.00018 8.1364 2.04754 8.31152 2.13767 8.46534C2.22779 8.61917 2.3574 8.7461 2.51307 8.833L11.5351 13.873C11.6836 13.9565 11.8511 14.0004 12.0214 14.0005C12.1918 14.0007 12.3594 13.9571 12.5081 13.874L21.4861 8.874C21.642 8.78727 21.7719 8.66038 21.8623 8.5065C21.9527 8.35262 22.0002 8.17737 22 7.99891C21.9998 7.82046 21.9519 7.64531 21.8612 7.49164C21.7704 7.33797 21.6402 7.21138 21.4841 7.125Z" fill="black"/>
<path d="M11.9999 15.856L3.48492 11.126L2.51392 12.874L11.5139 17.874C11.6624 17.9565 11.8295 17.9998 11.9994 17.9998C12.1693 17.9998 12.3364 17.9565 12.4849 17.874L21.4849 12.874L20.5139 11.126L11.9999 15.856Z" fill="black"/>
<path d="M11.9999 19.856L3.48492 15.126L2.51392 16.874L11.5139 21.874C11.6624 21.9565 11.8295 21.9998 11.9994 21.9998C12.1693 21.9998 12.3364 21.9565 12.4849 21.874L21.4849 16.874L20.5139 15.126L11.9999 19.856Z" fill="black"/>
</svg>
