<svg width="24" height="24" viewBox="0 0 24 24" fill="none" xmlns="http://www.w3.org/2000/svg">
<path d="M4.40997 16.192L5.58997 17.807L9.99997 14.584V21C9.99998 21.1796 10.0484 21.3559 10.14 21.5104C10.2317 21.6648 10.3633 21.7917 10.5209 21.8778C10.6786 21.9638 10.8565 22.0058 11.036 21.9994C11.2155 21.9929 11.3899 21.9382 11.541 21.841L18.541 17.341C18.6778 17.2534 18.7913 17.1336 18.8714 16.9922C18.9515 16.8508 18.9959 16.6919 19.0007 16.5295C19.0055 16.367 18.9707 16.2058 18.8991 16.0599C18.8275 15.9139 18.7214 15.7877 18.59 15.692L13.537 12L18.59 8.30802C18.721 8.21199 18.8267 8.08554 18.898 7.93958C18.9692 7.79362 19.004 7.63251 18.9991 7.47014C18.9943 7.30778 18.9501 7.14902 18.8703 7.00754C18.7905 6.86606 18.6775 6.74611 18.541 6.65802L11.541 2.15802C11.3898 2.06084 11.2152 2.00613 11.0355 1.99962C10.8559 1.99311 10.6778 2.03504 10.52 2.12102C10.2 2.29702 9.99997 2.63402 9.99997 3.00002V9.41602L5.58997 6.19202L4.40997 7.80802L9.99997 11.893V12.108L4.40997 16.192ZM12 4.83202L16.232 7.55302L12 10.646V4.83202ZM12 13.354L16.232 16.447L12 19.168V13.354Z" fill="black"/>
</svg>
