<svg width="24" height="24" viewBox="0 0 24 24" fill="none" xmlns="http://www.w3.org/2000/svg">
<path d="M19.071 4.929C18.1434 3.99908 17.0412 3.26161 15.8278 2.75896C14.6143 2.25631 13.3135 1.99838 12 2C10.6863 1.99652 9.38489 2.25359 8.17116 2.75635C6.95743 3.25911 5.85546 3.99757 4.929 4.929C3.04 6.818 2 9.33 2 12C2 14.67 3.04 17.182 4.929 19.071C6.818 20.96 9.33 22 12 22C14.67 22 17.182 20.96 19.071 19.071C20.0024 18.1445 20.7409 17.0426 21.2437 15.8288C21.7464 14.6151 22.0035 13.3137 22 12C22.0016 10.6866 21.7437 9.38572 21.241 8.17225C20.7384 6.95878 20.0009 5.85659 19.071 4.929ZM17.657 17.657C16.146 19.168 14.137 20 12 20C9.863 20 7.854 19.168 6.343 17.657C4.832 16.146 4 14.137 4 12C4 9.863 4.832 7.854 6.343 6.343C7.08418 5.59783 7.9658 5.00706 8.93682 4.60489C9.90784 4.20271 10.949 3.99712 12 4V12H20C20.0029 13.051 19.7973 14.0922 19.3951 15.0632C18.9929 16.0342 18.4022 16.9158 17.657 17.657Z" fill="black"/>
</svg>
