<svg width="24" height="24" viewBox="0 0 24 24" fill="none" xmlns="http://www.w3.org/2000/svg">
<path d="M21.7071 11.294L12.7291 2.294C12.5416 2.1062 12.2873 2.0005 12.022 2.00012C11.7566 1.99975 11.502 2.10473 11.3141 2.292L2.29306 11.292C2.19993 11.3849 2.12604 11.4952 2.07563 11.6167C2.02522 11.7382 1.99927 11.8685 1.99927 12C1.99927 12.1315 2.02522 12.2618 2.07563 12.3833C2.12604 12.5048 2.19993 12.6151 2.29306 12.708L11.3141 21.708C11.7041 22.097 12.3401 22.096 12.7291 21.706L21.7071 12.706C21.7998 12.6133 21.8734 12.5033 21.9236 12.3821C21.9738 12.261 21.9997 12.1311 21.9997 12C21.9997 11.8689 21.9738 11.739 21.9236 11.6179C21.8734 11.4967 21.7998 11.3867 21.7071 11.294ZM15.0001 16H13.0001V12H10.0001V14L7.00006 11L10.0001 8V10H15.0001V16Z" fill="black"/>
</svg>
