<svg width="24" height="24" viewBox="0 0 24 24" fill="none" xmlns="http://www.w3.org/2000/svg">
<path d="M11.646 3.86799L3.86797 11.646C2.74455 12.7721 2.11365 14.2978 2.11365 15.8885C2.11365 17.4792 2.74455 19.0049 3.86797 20.131C4.4248 20.6882 5.08615 21.1299 5.8141 21.4309C6.54204 21.7319 7.32225 21.8862 8.10997 21.885C8.89786 21.8863 9.67826 21.7321 10.4064 21.4311C11.1345 21.1301 11.796 20.6883 12.353 20.131L20.131 12.353C21.2544 11.2269 21.8853 9.70115 21.8853 8.11049C21.8853 6.51983 21.2544 4.9941 20.131 3.86799C19.0047 2.74481 17.4791 2.11407 15.8885 2.11407C14.2979 2.11407 12.7722 2.74481 11.646 3.86799ZM8.99997 13C8.73476 13 8.4804 12.8946 8.29287 12.7071C8.10533 12.5196 7.99997 12.2652 7.99997 12C7.99997 11.7348 8.10533 11.4804 8.29287 11.2929C8.4804 11.1053 8.73476 11 8.99997 11C9.26519 11 9.51954 11.1053 9.70708 11.2929C9.89462 11.4804 9.99997 11.7348 9.99997 12C9.99997 12.2652 9.89462 12.5196 9.70708 12.7071C9.51954 12.8946 9.26519 13 8.99997 13ZM12 16C11.7348 16 11.4804 15.8946 11.2929 15.7071C11.1053 15.5196 11 15.2652 11 15C11 14.7348 11.1053 14.4804 11.2929 14.2929C11.4804 14.1053 11.7348 14 12 14C12.2652 14 12.5195 14.1053 12.7071 14.2929C12.8946 14.4804 13 14.7348 13 15C13 15.2652 12.8946 15.5196 12.7071 15.7071C12.5195 15.8946 12.2652 16 12 16ZM12 9.99999C11.7348 9.99999 11.4804 9.89463 11.2929 9.70709C11.1053 9.51956 11 9.2652 11 8.99999C11 8.73477 11.1053 8.48042 11.2929 8.29288C11.4804 8.10534 11.7348 7.99999 12 7.99999C12.2652 7.99999 12.5195 8.10534 12.7071 8.29288C12.8946 8.48042 13 8.73477 13 8.99999C13 9.2652 12.8946 9.51956 12.7071 9.70709C12.5195 9.89463 12.2652 9.99999 12 9.99999ZM15 13C14.7348 13 14.4804 12.8946 14.2929 12.7071C14.1053 12.5196 14 12.2652 14 12C14 11.7348 14.1053 11.4804 14.2929 11.2929C14.4804 11.1053 14.7348 11 15 11C15.2652 11 15.5195 11.1053 15.7071 11.2929C15.8946 11.4804 16 11.7348 16 12C16 12.2652 15.8946 12.5196 15.7071 12.7071C15.5195 12.8946 15.2652 13 15 13Z" fill="black"/>
</svg>
