<svg width="24" height="24" viewBox="0 0 24 24" fill="none" xmlns="http://www.w3.org/2000/svg">
<path d="M12 2C6.486 2 2 6.486 2 12C2 17.514 6.486 22 12 22C17.514 22 22 17.514 22 12C22 6.486 17.514 2 12 2ZM12 16C9.794 16 8 14.206 8 12C8 9.794 9.794 8 12 8C14.206 8 16 9.794 16 12C16 14.206 14.206 16 12 16Z" fill="black"/>
<path d="M11.9981 14C13.1038 14 14.0001 13.1037 14.0001 11.998C14.0001 10.8923 13.1038 9.996 11.9981 9.996C10.8924 9.996 9.99609 10.8923 9.99609 11.998C9.99609 13.1037 10.8924 14 11.9981 14Z" fill="black"/>
</svg>
