<svg width="24" height="24" viewBox="0 0 24 24" fill="none" xmlns="http://www.w3.org/2000/svg">
<path d="M7.78203 14.576C7.59603 14.576 7.47003 14.594 7.40503 14.612V15.805C7.48203 15.823 7.57903 15.828 7.71103 15.828C8.19603 15.828 8.49603 15.582 8.49603 15.169C8.49603 14.798 8.23803 14.576 7.78203 14.576Z" fill="black"/>
<path d="M14 2H6C5.46957 2 4.96086 2.21071 4.58579 2.58579C4.21071 2.96086 4 3.46957 4 4V20C4 20.5304 4.21071 21.0391 4.58579 21.4142C4.96086 21.7893 5.46957 22 6 22H18C18.5304 22 19.0391 21.7893 19.4142 21.4142C19.7893 21.0391 20 20.5304 20 20V8L14 2ZM9.03 16.105C8.717 16.398 8.256 16.531 7.717 16.531C7.597 16.531 7.488 16.524 7.405 16.512V17.957H6.499V13.97C6.90768 13.9084 7.32075 13.8806 7.734 13.887C8.297 13.887 8.7 13.994 8.969 14.21C9.227 14.414 9.401 14.75 9.401 15.146C9.401 15.542 9.27 15.877 9.03 16.105ZM13.332 17.958H12.372L11.509 16.398C11.269 15.966 11.005 15.445 10.808 14.971L10.789 14.977C10.813 15.511 10.825 16.081 10.825 16.74V17.958H9.985V13.916H11.052L11.892 15.397C12.132 15.823 12.371 16.327 12.551 16.782H12.57C12.5119 16.2223 12.4858 15.6597 12.492 15.097V13.915H13.332V17.958ZM17.501 17.772C17.0655 17.9161 16.6106 17.993 16.152 18C15.415 18 14.881 17.814 14.508 17.454C14.137 17.106 13.933 16.579 13.939 15.985C13.945 14.641 14.922 13.874 16.248 13.874C16.769 13.874 17.172 13.977 17.369 14.072L17.178 14.803C16.956 14.707 16.68 14.629 16.237 14.629C15.475 14.629 14.899 15.061 14.899 15.937C14.899 16.77 15.421 17.262 16.17 17.262C16.38 17.262 16.548 17.238 16.62 17.201V16.355H15.996V15.642H17.501V17.772ZM14 9H13V4L18 9H14Z" fill="black"/>
</svg>
