<svg width="24" height="24" viewBox="0 0 24 24" fill="none" xmlns="http://www.w3.org/2000/svg">
<path d="M11.5871 6.999H7.70205C7.29151 6.99888 6.89086 7.1251 6.55453 7.36054C6.21819 7.59597 5.96246 7.92921 5.82205 8.315L2.06205 18.657C1.92905 19.022 2.02005 19.431 2.29405 19.706L2.58705 19.999L9.00905 13.577C9.00805 13.551 9.00105 13.525 9.00105 13.499C9.00105 13.2023 9.08903 12.9123 9.25385 12.6656C9.41867 12.419 9.65294 12.2267 9.92703 12.1132C10.2011 11.9997 10.5027 11.9699 10.7937 12.0278C11.0847 12.0857 11.3519 12.2286 11.5617 12.4383C11.7715 12.6481 11.9144 12.9154 11.9722 13.2064C12.0301 13.4973 12.0004 13.7989 11.8869 14.073C11.7733 14.3471 11.5811 14.5814 11.3344 14.7462C11.0877 14.911 10.7977 14.999 10.5011 14.999C10.4751 14.999 10.4491 14.992 10.4231 14.991L4.00105 21.413L4.29405 21.706C4.42851 21.8408 4.59874 21.9343 4.78463 21.9754C4.97052 22.0165 5.1643 22.0035 5.34305 21.938L15.6851 18.177C16.0708 18.0366 16.4041 17.7809 16.6395 17.4445C16.875 17.1082 17.0012 16.7076 17.0011 16.297V12.412L19.0001 10.414L13.5861 5L11.5871 6.999ZM19.9401 9.061L14.9401 4.061L17.0601 1.94L22.0601 6.94L19.9401 9.061Z" fill="black"/>
</svg>
