<svg width="24" height="24" viewBox="0 0 24 24" fill="none" xmlns="http://www.w3.org/2000/svg">
<path d="M21 10H7V7.11302C7 6.11602 7.678 5.19002 8.661 5.02802C8.94813 4.97917 9.24245 4.99352 9.52347 5.07007C9.80448 5.14662 10.0654 5.28354 10.2881 5.47127C10.5108 5.65901 10.6898 5.89305 10.8128 6.15708C10.9357 6.42111 10.9996 6.70877 11 7.00003H13C12.9995 6.44132 12.8821 5.88891 12.6553 5.37833C12.4284 4.86774 12.0972 4.41029 11.683 4.03541C11.2687 3.66052 10.7806 3.37651 10.25 3.20163C9.71933 3.02676 9.15797 2.96489 8.602 3.02002C6.523 3.22202 5 5.08902 5 7.17802V10H3C2.73478 10 2.48043 10.1054 2.29289 10.2929C2.10536 10.4805 2 10.7348 2 11V13C2 15.606 3.674 17.823 6 18.65V22H8V19H16V22H18V18.65C20.326 17.823 22 15.606 22 13V11C22 10.7348 21.8946 10.4805 21.7071 10.2929C21.5196 10.1054 21.2652 10 21 10Z" fill="black"/>
</svg>
