<svg width="24" height="24" viewBox="0 0 24 24" fill="none" xmlns="http://www.w3.org/2000/svg">
<path d="M11 21.001H13C13 14.935 8.065 10 2 10V12C6.962 12 11 16.038 11 21.001Z" fill="black"/>
<path d="M7 21.001H9C9 17.141 5.86 14 2 14V16C4.757 16 7 18.243 7 21.001Z" fill="black"/>
<path d="M3.5 21C4.32843 21 5 20.3284 5 19.5C5 18.6716 4.32843 18 3.5 18C2.67157 18 2 18.6716 2 19.5C2 20.3284 2.67157 21 3.5 21Z" fill="black"/>
<path d="M20 4H4C2.897 4 2 4.897 2 6V8.052C2.68 8.077 3.349 8.146 4 8.269V6H20V19H14.731C14.854 19.651 14.922 20.32 14.948 21H20C21.103 21 22 20.103 22 19V6C22 4.897 21.103 4 20 4Z" fill="black"/>
</svg>
