<svg width="24" height="24" viewBox="0 0 24 24" fill="none" xmlns="http://www.w3.org/2000/svg">
<path d="M13 8H11V13H16V11H13V8Z" fill="black"/>
<path d="M19.999 12C19.999 9.047 18.387 6.47 16 5.084V3C16 2.73478 15.8946 2.48043 15.7071 2.29289C15.5195 2.10536 15.2652 2 15 2H8.99998C8.73476 2 8.48041 2.10536 8.29287 2.29289C8.10533 2.48043 7.99998 2.73478 7.99998 3V5.083C5.61298 6.469 4.00098 9.047 4.00098 12C4.00218 13.4299 4.38645 14.8333 5.11382 16.0644C5.84119 17.2954 6.8851 18.3091 8.13698 19H7.99998V21.041C7.99998 21.3062 8.10533 21.5606 8.29287 21.7481C8.48041 21.9356 8.73476 22.041 8.99998 22.041H15C15.2652 22.041 15.5195 21.9356 15.7071 21.7481C15.8946 21.5606 16 21.3062 16 21.041V19H15.861C17.1134 18.3096 18.1579 17.2961 18.8857 16.065C19.6135 14.8338 19.9979 13.4301 19.999 12ZM11.999 17.999C10.4086 17.9971 8.88391 17.3645 7.75944 16.2398C6.63497 15.1152 6.00256 13.5904 6.00098 12C6.00256 10.4096 6.63497 8.88483 7.75944 7.76017C8.88391 6.63552 10.4086 6.00285 11.999 6.001C15.309 6.001 17.999 8.692 17.999 12C17.9974 13.5907 17.3647 15.1158 16.2398 16.2405C15.1149 17.3652 13.5897 17.9977 11.999 17.999Z" fill="black"/>
</svg>
