<svg width="24" height="24" viewBox="0 0 24 24" fill="none" xmlns="http://www.w3.org/2000/svg">
<path d="M4 20H15.879L12.796 16.917C12.5335 16.9669 12.2672 16.9947 12 17C9.29 17 7 14.71 7 12C7 11.729 7.039 11.465 7.083 11.204L2.144 6.265C2.054 6.493 2 6.74 2 7V18C2 19.103 2.897 20 4 20ZM20 5H17.414L14.707 2.293C14.6143 2.19996 14.5041 2.12617 14.3828 2.07589C14.2614 2.0256 14.1313 1.99981 14 2H10C9.86866 1.99981 9.73857 2.0256 9.61724 2.07589C9.4959 2.12617 9.38571 2.19996 9.293 2.293L6.586 5H6.414L3.707 2.293L2.293 3.707L20.293 21.707L21.707 20.293L21.081 19.667C21.3619 19.4887 21.5933 19.2425 21.754 18.9512C21.9146 18.6598 21.9992 18.3327 22 18V7C22 5.897 21.103 5 20 5ZM14.688 13.274C14.8893 12.8792 14.9961 12.4431 15 12C15 10.374 13.626 9 12 9C11.544 9 11.116 9.12 10.726 9.312L9.266 7.852C10.0716 7.30098 11.024 7.0042 12 7C14.71 7 17 9.29 17 12C16.9958 12.976 16.699 13.9284 16.148 14.734L14.688 13.274Z" fill="black"/>
</svg>
