<svg width="24" height="24" viewBox="0 0 24 24" fill="none" xmlns="http://www.w3.org/2000/svg">
<path d="M7.99902 22H15.999C17.102 22 17.999 21.103 17.999 20V4C17.999 2.897 17.102 2 15.999 2H7.99902C6.89602 2 5.99902 2.897 5.99902 4V20C5.99902 21.103 6.89602 22 7.99902 22ZM2.99902 7H4.99902V5H2.99902V5.5H1.99902V6.5H2.99902V7ZM20.999 5H18.999V7H20.999V6.5H21.999V5.5H20.999V5ZM2.99902 11H4.99902V9H2.99902V9.5H1.99902V10.5H2.99902V11ZM20.999 9H18.999V11H20.999V10.5H21.999V9.5H20.999V9ZM2.99902 15H4.99902V13H2.99902V13.5H1.99902V14.5H2.99902V15ZM20.999 13H18.999V15H20.999V14.5H21.999V13.5H20.999V13ZM2.99902 19H4.99902V17H2.99902V17.5H1.99902V18.5H2.99902V19ZM20.999 17H18.999V19H20.999V18.5H21.999V17.5H20.999V17Z" fill="black"/>
</svg>
