<svg width="24" height="24" viewBox="0 0 24 24" fill="none" xmlns="http://www.w3.org/2000/svg">
<path d="M21.8679 11.504L17.8679 4.504C17.7805 4.35095 17.6542 4.22372 17.5017 4.13521C17.3493 4.0467 17.1762 4.00006 16.9999 4H2.99992C2.8248 4.00006 2.65277 4.0461 2.50103 4.13352C2.3493 4.22094 2.22318 4.34667 2.13529 4.49814C2.04741 4.64961 2.00084 4.8215 2.00025 4.99662C1.99966 5.17174 2.04506 5.34394 2.13192 5.496L5.84892 12L2.13192 18.504C2.04506 18.6561 1.99966 18.8283 2.00025 19.0034C2.00084 19.1785 2.04741 19.3504 2.13529 19.5019C2.22318 19.6533 2.3493 19.7791 2.50103 19.8665C2.65277 19.9539 2.8248 19.9999 2.99992 20H16.9999C17.1762 19.9999 17.3493 19.9533 17.5017 19.8648C17.6542 19.7763 17.7805 19.6491 17.8679 19.496L21.8679 12.496C21.9544 12.345 21.9999 12.174 21.9999 12C21.9999 11.826 21.9544 11.655 21.8679 11.504Z" fill="black"/>
</svg>
