<svg width="24" height="24" viewBox="0 0 24 24" fill="none" xmlns="http://www.w3.org/2000/svg">
<path d="M12 22C17.131 22 21 20.065 21 17.5V7C21 6.949 20.976 6.903 20.967 6.854C20.983 6.737 21 6.62 21 6.5C21 3.935 17.131 2 12 2C6.869 2 3 3.935 3 6.5V17.5C3 20.065 6.869 22 12 22ZM12 4C16.273 4 19 5.48 19 6.5C18.9979 6.55346 18.9895 6.60649 18.975 6.658C18.971 6.668 18.963 6.676 18.96 6.685C18.686 7.533 16.67 8.665 13.464 8.938L13.414 8.941C12.965 8.979 12.494 9 12 9C7.727 9 5 7.52 5 6.5C5 5.48 7.727 4 12 4Z" fill="black"/>
</svg>
