<svg width="24" height="24" viewBox="0 0 24 24" fill="none" xmlns="http://www.w3.org/2000/svg">
<path d="M22 15L19 11L16 15H17.906C17.47 17.469 15.468 19.471 13 19.906V13H15V11H13V9.336C14.543 8.877 15.714 7.413 15.714 5.715C15.714 3.666 14.048 2 12 2C9.952 2 8.286 3.666 8.286 5.715C8.286 7.413 9.457 8.877 11 9.336V11H9V13H11V19.906C8.531 19.471 6.529 17.469 6.094 15H8L5 11L2 15H4.073C4.584 18.885 8.002 22 12 22C15.998 22 19.416 18.885 19.927 15H22ZM10.286 5.715C10.286 4.77 11.055 4 12 4C12.945 4 13.714 4.77 13.714 5.715C13.714 6.666 12.913 7.5 12 7.5C11.087 7.5 10.286 6.666 10.286 5.715Z" fill="black"/>
</svg>
