<svg width="24" height="24" viewBox="0 0 24 24" fill="none" xmlns="http://www.w3.org/2000/svg">
<path d="M20.496 6.10601L12.523 2.10601C12.3843 2.03595 12.2311 1.99928 12.0757 1.99893C11.9204 1.99859 11.767 2.03457 11.628 2.10401L3.60101 6.10401C3.30401 6.25401 3.09901 6.54101 3.05701 6.87101C3.04401 6.96801 1.91201 16.612 11.598 21.879C11.7469 21.9602 11.9141 22.002 12.0837 22.0004C12.2533 21.9989 12.4197 21.954 12.567 21.87C21.874 16.611 21.081 7.29701 21.043 6.90301C21.0266 6.73475 20.9679 6.5734 20.8722 6.43402C20.7765 6.29464 20.6471 6.18179 20.496 6.10601Z" fill="black"/>
</svg>
