<svg width="24" height="24" viewBox="0 0 24 24" fill="none" xmlns="http://www.w3.org/2000/svg">
<path d="M14 2H6C5.46957 2 4.96086 2.21071 4.58579 2.58579C4.21071 2.96086 4 3.46957 4 4V20C4 20.5304 4.21071 21.0391 4.58579 21.4142C4.96086 21.7893 5.46957 22 6 22H18C18.5304 22 19.0391 21.7893 19.4142 21.4142C19.7893 21.0391 20 20.5304 20 20V8L14 2ZM9.239 16.446C9.239 17.598 8.688 18 7.801 18C7.591 18 7.315 17.964 7.136 17.903L7.237 17.166C7.364 17.208 7.526 17.238 7.706 17.238C8.09 17.238 8.329 17.064 8.329 16.434V13.891H9.24L9.239 16.446ZM12.533 16.081C12.22 16.374 11.76 16.507 11.22 16.507C11.1 16.507 10.992 16.5 10.908 16.488V17.933H10.002V13.945C10.411 13.8834 10.8244 13.8557 11.238 13.862C11.801 13.862 12.203 13.969 12.472 14.185C12.731 14.389 12.905 14.725 12.905 15.121C12.905 15.517 12.772 15.853 12.533 16.081ZM16.864 17.748C16.584 17.844 16.049 17.976 15.515 17.976C14.778 17.976 14.244 17.79 13.872 17.43C13.501 17.082 13.297 16.555 13.302 15.961C13.309 14.617 14.285 13.85 15.611 13.85C16.132 13.85 16.535 13.953 16.732 14.048L16.541 14.779C16.319 14.683 16.044 14.605 15.6 14.605C14.839 14.605 14.262 15.037 14.262 15.913C14.262 16.746 14.785 17.238 15.533 17.238C15.744 17.238 15.911 17.214 15.984 17.177V16.331H15.36V15.618H16.864V17.748ZM14 9H13V4L18 9H14Z" fill="black"/>
<path d="M11.285 14.552C11.099 14.552 10.973 14.57 10.908 14.588V15.781C10.985 15.799 11.082 15.804 11.215 15.804C11.699 15.804 11.999 15.558 11.999 15.145C11.999 14.773 11.742 14.552 11.285 14.552Z" fill="black"/>
</svg>
