<svg width="24" height="24" viewBox="0 0 24 24" fill="none" xmlns="http://www.w3.org/2000/svg">
<path d="M12 2C6.486 2 2 6.486 2 12C2 17.514 6.486 22 12 22C17.514 22 22 17.514 22 12C22 6.486 17.514 2 12 2ZM16.095 16.244C15.2658 17.0745 14.2107 17.6427 13.061 17.878C12.2645 18.0402 11.4435 18.0402 10.647 17.878C9.87824 17.7223 9.1481 17.4153 8.499 16.975C7.86064 16.5421 7.31052 15.9916 6.878 15.353L8.536 14.236C8.679 14.447 8.843 14.646 9.024 14.826C9.38859 15.1925 9.82094 15.4845 10.297 15.686C10.54 15.788 10.792 15.867 11.046 15.918C11.5794 16.025 12.1286 16.025 12.662 15.918C12.915 15.866 13.167 15.787 13.412 15.685C13.646 15.585 13.876 15.461 14.091 15.317C14.299 15.175 14.498 15.011 14.682 14.828C14.865 14.646 15.029 14.447 15.171 14.236L16.829 15.353C16.614 15.673 16.367 15.973 16.095 16.244ZM19 10C19 10.5304 18.7893 11.0391 18.4142 11.4142C18.0391 11.7893 17.5304 12 17 12H15C14.4696 12 13.9609 11.7893 13.5858 11.4142C13.2107 11.0391 13 10.5304 13 10H11C11 10.5304 10.7893 11.0391 10.4142 11.4142C10.0391 11.7893 9.53043 12 9 12H7C6.46957 12 5.96086 11.7893 5.58579 11.4142C5.21071 11.0391 5 10.5304 5 10V8H19V10Z" fill="black"/>
</svg>
