<svg width="24" height="24" viewBox="0 0 24 24" fill="none" xmlns="http://www.w3.org/2000/svg">
<path d="M18 8C18 7.091 17.387 6.33 16.555 6.088L15.245 2.645C15.173 2.45549 15.0452 2.29233 14.8784 2.17714C14.7116 2.06195 14.5137 2.00018 14.311 2H8.689C8.48629 2.00018 8.28842 2.06195 8.12162 2.17714C7.95482 2.29233 7.82696 2.45549 7.755 2.645L6.445 6.088C6.02961 6.2073 5.66417 6.4582 5.4036 6.80299C5.14302 7.14778 5.0014 7.56782 5 8V16C5 16.909 5.613 17.67 6.445 17.912L7.755 21.355C7.82696 21.5445 7.95482 21.7077 8.12162 21.8229C8.28842 21.938 8.48629 21.9998 8.689 22H14.31C14.725 22 15.097 21.743 15.245 21.355L16.555 17.912C16.9704 17.7927 17.3358 17.5418 17.5964 17.197C17.857 16.8522 17.9986 16.4322 18 16V14H19V10H18V8ZM16.002 16H7V8H16L16.002 16Z" fill="black"/>
</svg>
