<svg width="24" height="24" viewBox="0 0 24 24" fill="none" xmlns="http://www.w3.org/2000/svg">
<path d="M7 22C7.65684 22.0018 8.30751 21.8732 8.9143 21.6218C9.5211 21.3703 10.072 21.0009 10.535 20.535L19.728 11.342L20.435 12.05L21.849 10.636L13.364 2.15002L11.95 3.56402L12.658 4.27102L3.465 13.464C2.521 14.408 2 15.664 2 17C2 18.336 2.521 19.592 3.465 20.535C3.92803 21.0009 4.4789 21.3703 5.0857 21.6218C5.69249 21.8732 6.34316 22.0018 7 22ZM18.314 9.92802L15.242 13H6.758L14.072 5.68602L18.314 9.92802Z" fill="black"/>
</svg>
