<svg width="24" height="24" viewBox="0 0 24 24" fill="none" xmlns="http://www.w3.org/2000/svg">
<path d="M8 12.052C9.995 12.052 11.5 10.547 11.5 8.552C11.5 6.557 9.995 5.052 8 5.052C6.005 5.052 4.5 6.557 4.5 8.552C4.5 10.547 6.005 12.052 8 12.052ZM9 13H7C4.243 13 2 15.243 2 18V19H14V18C14 15.243 11.757 13 9 13ZM20.293 8.293L18 10.586L15.707 8.293L14.293 9.707L16.585 11.999L14.292 14.292L15.706 15.706L17.999 13.413L20.293 15.707L21.707 14.293L19.414 12L21.707 9.707L20.293 8.293Z" fill="black"/>
</svg>
