<svg width="24" height="24" viewBox="0 0 24 24" fill="none" xmlns="http://www.w3.org/2000/svg">
<path d="M16.8131 4.419C16.7209 4.28935 16.5989 4.18367 16.4575 4.11077C16.316 4.03788 16.1592 3.9999 16.0001 4H3.0001C2.81646 4.00017 2.63642 4.05089 2.47971 4.14662C2.323 4.24235 2.19567 4.37938 2.11169 4.54269C2.02771 4.706 1.99033 4.88928 2.00363 5.07243C2.01693 5.25558 2.0804 5.43154 2.1871 5.581L6.7711 12L2.1861 18.419C2.07936 18.5685 2.01587 18.7446 2.00261 18.9278C1.98935 19.1111 2.02682 19.2944 2.11092 19.4578C2.19502 19.6211 2.32249 19.7581 2.47935 19.8538C2.6362 19.9494 2.81638 20 3.0001 20H16.0001C16.1592 20.0001 16.316 19.9621 16.4575 19.8892C16.5989 19.8163 16.7209 19.7106 16.8131 19.581L21.8131 12.581C21.9346 12.4116 21.9999 12.2084 21.9999 12C21.9999 11.7916 21.9346 11.5884 21.8131 11.419L16.8131 4.419Z" fill="black"/>
</svg>
