<svg width="24" height="24" viewBox="0 0 24 24" fill="none" xmlns="http://www.w3.org/2000/svg">
<path d="M12 2C6.486 2 2 6.486 2 12C2 17.514 6.486 22 12 22C17.514 22 22 17.514 22 12C22 6.486 17.514 2 12 2ZM6.5 12C6.30295 11.9999 6.10785 11.9611 5.92582 11.8856C5.7438 11.8101 5.57842 11.6995 5.43913 11.5602C5.29984 11.4208 5.18937 11.2553 5.11403 11.0733C5.03868 10.8912 4.99993 10.696 5 10.499C5.00007 10.302 5.03894 10.1068 5.11441 9.92482C5.18988 9.7428 5.30046 9.57742 5.43984 9.43813C5.57922 9.29884 5.74467 9.18837 5.92675 9.11303C6.10882 9.03768 6.30395 8.99893 6.501 8.999C6.89896 8.99913 7.28056 9.15735 7.56187 9.43884C7.84317 9.72033 8.00113 10.102 8.001 10.5C8.00087 10.898 7.84265 11.2796 7.56116 11.5609C7.27967 11.8422 6.89796 12.0001 6.5 12ZM9 6.5C9.00013 6.10204 9.15835 5.72044 9.43984 5.43913C9.72133 5.15783 10.103 4.99987 10.501 5C10.899 5.00013 11.2806 5.15835 11.5619 5.43984C11.8432 5.72133 12.0011 6.10304 12.001 6.501C12.0009 6.89896 11.8427 7.28056 11.5612 7.56187C11.2797 7.84317 10.898 8.00113 10.5 8.001C10.102 8.00087 9.72044 7.84265 9.43913 7.56116C9.15783 7.27967 8.99987 6.89796 9 6.5ZM11.5 13C11.303 12.9999 11.1078 12.9611 10.9258 12.8856C10.7438 12.8101 10.5784 12.6995 10.4391 12.5602C10.1578 12.2787 9.99987 11.897 10 11.499C10.0001 11.302 10.0389 11.1068 10.1144 10.9248C10.1899 10.7428 10.3005 10.5774 10.4398 10.4381C10.7213 10.1568 11.103 9.99887 11.501 9.999C11.899 9.99913 12.2806 10.1573 12.5619 10.4388C12.8432 10.7203 13.0011 11.102 13.001 11.5C13.0009 11.898 12.8427 12.2796 12.5612 12.5609C12.2797 12.8422 11.898 13.0001 11.5 13Z" fill="black"/>
</svg>
