<svg width="24" height="24" viewBox="0 0 24 24" fill="none" xmlns="http://www.w3.org/2000/svg">
<path d="M20 8H16V4C16 3.46957 15.7893 2.96086 15.4142 2.58579C15.0391 2.21071 14.5304 2 14 2H10C9.46957 2 8.96086 2.21071 8.58579 2.58579C8.21071 2.96086 8 3.46957 8 4V8H4C3.46957 8 2.96086 8.21071 2.58579 8.58579C2.21071 8.96086 2 9.46957 2 10V14C2 14.5304 2.21071 15.0391 2.58579 15.4142C2.96086 15.7893 3.46957 16 4 16H8V20C8 20.5304 8.21071 21.0391 8.58579 21.4142C8.96086 21.7893 9.46957 22 10 22H14C14.5304 22 15.0391 21.7893 15.4142 21.4142C15.7893 21.0391 16 20.5304 16 20V16H20C20.5304 16 21.0391 15.7893 21.4142 15.4142C21.7893 15.0391 22 14.5304 22 14V10C22 9.46957 21.7893 8.96086 21.4142 8.58579C21.0391 8.21071 20.5304 8 20 8ZM7 14L4 12L7 10V14ZM12 20L10 17H14L12 20ZM12 14C11.7373 13.9999 11.4772 13.9481 11.2345 13.8475C10.9918 13.7469 10.7713 13.5995 10.5856 13.4137C10.3999 13.2279 10.2526 13.0073 10.1521 12.7646C10.0516 12.5219 9.99993 12.2617 10 11.999C10.0001 11.7363 10.0519 11.4762 10.1525 11.2335C10.2531 10.9908 10.4005 10.7703 10.5863 10.5846C10.7721 10.3989 10.9927 10.2516 11.2354 10.1511C11.4781 10.0506 11.7383 9.99893 12.001 9.999C12.5316 9.99913 13.0403 10.21 13.4154 10.5853C13.7905 10.9605 14.0011 11.4694 14.001 12C14.0009 12.5306 13.79 13.0393 13.4147 13.4144C13.0395 13.7895 12.5306 14.0001 12 14ZM10 7L12 4L14 7H10ZM17 14V10L20 12L17 14Z" fill="black"/>
</svg>
