<svg width="24" height="24" viewBox="0 0 24 24" fill="none" xmlns="http://www.w3.org/2000/svg">
<path d="M19.447 5.345C19.2463 4.66459 18.8299 4.06788 18.2604 3.64489C17.6909 3.22189 16.9994 2.99555 16.29 3C15.4679 3.00074 14.6758 3.30897 14.0694 3.86411C13.463 4.41925 13.0861 5.18114 13.013 6H10.988C10.9139 5.18028 10.5358 4.41793 9.9281 3.86279C9.32042 3.30766 8.52707 2.9999 7.704 3C6.99558 2.99653 6.30521 3.22335 5.73689 3.64629C5.16857 4.06924 4.75308 4.66541 4.553 5.345L2.042 13.713C2.01449 13.8062 2.00035 13.9028 2 14V15C2.00159 16.3258 2.52902 17.5968 3.46657 18.5341C4.40413 19.4715 5.67523 19.9987 7.001 20C7.97268 19.9983 8.92285 19.7138 9.73547 19.181C10.5481 18.6483 11.188 17.8904 11.577 17H12.423C12.812 17.8904 13.4519 18.6483 14.2645 19.181C15.0771 19.7138 16.0273 19.9983 16.999 20C18.3249 19.9987 19.5962 19.4714 20.5338 18.5338C21.4714 17.5962 21.9987 16.3249 22 14.999V14C22 13.902 21.985 13.806 21.958 13.713L19.447 5.345ZM7.001 18C6.20558 17.9989 5.44303 17.6826 4.88049 17.1202C4.31796 16.5579 4.00132 15.7954 4 15C4 14.924 4.017 14.853 4.022 14.778C4.07671 14.0248 4.41394 13.3201 4.96616 12.8049C5.51838 12.2898 6.24482 12.0023 7 12C7.79565 12 8.55871 12.3161 9.12132 12.8787C9.68393 13.4413 10 14.2044 10 15V15.009C9.99657 15.8026 9.67925 16.5626 9.11734 17.123C8.55543 17.6834 7.7946 17.9987 7.001 18ZM16.999 18C16.2054 17.9987 15.4446 17.6834 14.8827 17.123C14.3208 16.5626 14.0034 15.8026 14 15.009V15C13.9999 14.606 14.0775 14.2159 14.2282 13.8519C14.3789 13.4879 14.5998 13.1572 14.8783 12.8785C15.4408 12.3158 16.2039 11.9996 16.9995 11.9995C17.7951 11.9994 18.5583 12.3153 19.121 12.8778C19.6837 13.4403 19.9999 14.2034 20 14.999C19.9989 15.7946 19.6824 16.5573 19.1199 17.1199C18.5573 17.6824 17.7946 17.9989 16.999 18Z" fill="black"/>
</svg>
