<svg width="24" height="24" viewBox="0 0 24 24" fill="none" xmlns="http://www.w3.org/2000/svg">
<path d="M19 3H5C3.897 3 3 3.897 3 5V19C3 20.103 3.897 21 5 21H19C20.103 21 21 20.103 21 19V5C21 3.897 20.103 3 19 3ZM8 17.5C7.80295 17.4999 7.60785 17.4611 7.42582 17.3856C7.2438 17.3101 7.07842 17.1995 6.93913 17.0602C6.79984 16.9208 6.68937 16.7553 6.61403 16.5733C6.53868 16.3912 6.49993 16.196 6.5 15.999C6.50007 15.802 6.53894 15.6068 6.61441 15.4248C6.68988 15.2428 6.80046 15.0774 6.93984 14.9381C7.07922 14.7988 7.24467 14.6884 7.42675 14.613C7.60882 14.5377 7.80395 14.4989 8.001 14.499C8.39896 14.4991 8.78056 14.6573 9.06187 14.9388C9.34317 15.2203 9.50113 15.602 9.501 16C9.50087 16.398 9.34265 16.7796 9.06116 17.0609C8.77967 17.3422 8.39796 17.5001 8 17.5ZM8 9.5C7.60204 9.49987 7.22044 9.34165 6.93913 9.06016C6.65783 8.77867 6.49987 8.39696 6.5 7.999C6.50013 7.60104 6.65835 7.21944 6.93984 6.93813C7.22133 6.65683 7.60304 6.49887 8.001 6.499C8.19805 6.49907 8.39315 6.53794 8.57518 6.61341C8.7572 6.68888 8.92258 6.79946 9.06187 6.93884C9.20116 7.07822 9.31163 7.24367 9.38697 7.42575C9.46232 7.60782 9.50107 7.80295 9.501 8C9.50093 8.19705 9.46206 8.39215 9.38659 8.57418C9.31112 8.7562 9.20054 8.92158 9.06116 9.06087C8.92178 9.20016 8.75633 9.31063 8.57425 9.38597C8.39218 9.46132 8.19705 9.50007 8 9.5ZM16 17.5C15.803 17.4999 15.6078 17.4611 15.4258 17.3856C15.2438 17.3101 15.0784 17.1995 14.9391 17.0602C14.7998 16.9208 14.6894 16.7553 14.614 16.5733C14.5387 16.3912 14.4999 16.196 14.5 15.999C14.5001 15.802 14.5389 15.6068 14.6144 15.4248C14.6899 15.2428 14.8005 15.0774 14.9398 14.9381C15.0792 14.7988 15.2447 14.6884 15.4267 14.613C15.6088 14.5377 15.804 14.4989 16.001 14.499C16.399 14.4991 16.7806 14.6573 17.0619 14.9388C17.3432 15.2203 17.5011 15.602 17.501 16C17.5009 16.398 17.3427 16.7796 17.0612 17.0609C16.7797 17.3422 16.398 17.5001 16 17.5ZM16 9.5C15.803 9.49993 15.6078 9.46106 15.4258 9.38559C15.2438 9.31012 15.0784 9.19954 14.9391 9.06016C14.7998 8.92078 14.6894 8.75533 14.614 8.57325C14.5387 8.39118 14.4999 8.19605 14.5 7.999C14.5001 7.80195 14.5389 7.60685 14.6144 7.42482C14.6899 7.2428 14.8005 7.07742 14.9398 6.93813C15.0792 6.79884 15.2447 6.68837 15.4267 6.61303C15.6088 6.53768 15.804 6.49893 16.001 6.499C16.399 6.49913 16.7806 6.65735 17.0619 6.93884C17.3432 7.22033 17.5011 7.60204 17.501 8C17.5009 8.39796 17.3427 8.77956 17.0612 9.06087C16.7797 9.34217 16.398 9.50013 16 9.5Z" fill="black"/>
</svg>
