<svg width="24" height="24" viewBox="0 0 24 24" fill="none" xmlns="http://www.w3.org/2000/svg">
<path d="M12 2C6.486 2 2 6.486 2 12C2 17.514 6.486 22 12 22C17.514 22 22 17.514 22 12C22 6.486 17.514 2 12 2ZM15.493 9C15.6924 8.99491 15.8908 9.02979 16.0765 9.10259C16.2621 9.17538 16.4314 9.28463 16.5742 9.42387C16.717 9.56311 16.8304 9.72954 16.9079 9.91333C16.9853 10.0971 17.0252 10.2946 17.0251 10.494C17.0251 10.6935 16.9851 10.8909 16.9075 11.0746C16.8299 11.2584 16.7163 11.4247 16.5735 11.5639C16.4306 11.703 16.2613 11.8121 16.0755 11.8848C15.8898 11.9575 15.6914 11.9922 15.492 11.987C15.1026 11.9768 14.7326 11.8149 14.4608 11.5358C14.189 11.2567 14.037 10.8826 14.0371 10.493C14.0373 10.1035 14.1895 9.72939 14.4615 9.45049C14.7335 9.17159 15.1036 9.00995 15.493 9ZM8.5 9C8.69705 9.00007 8.89215 9.03894 9.07418 9.11441C9.2562 9.18988 9.42158 9.30046 9.56087 9.43984C9.70016 9.57922 9.81063 9.74467 9.88597 9.92675C9.96132 10.1088 10.0001 10.304 10 10.501C9.99993 10.698 9.96106 10.8932 9.88559 11.0752C9.81012 11.2572 9.69954 11.4226 9.56016 11.5619C9.42078 11.7012 9.25533 11.8116 9.07325 11.887C8.89118 11.9623 8.69605 12.0011 8.499 12.001C8.10104 12.0009 7.71944 11.8427 7.43813 11.5612C7.15683 11.2797 6.99887 10.898 6.999 10.5C6.99913 10.102 7.15735 9.72044 7.43884 9.43913C7.72033 9.15783 8.10204 8.99987 8.5 9ZM12 18C8 18 7 14 7 14H17C17 14 16 18 12 18Z" fill="black"/>
</svg>
