<svg width="24" height="24" viewBox="0 0 24 24" fill="none" xmlns="http://www.w3.org/2000/svg">
<path d="M8 3H5C4.73478 3 4.48043 3.10536 4.29289 3.29289C4.10536 3.48043 4 3.73478 4 4V7H9V4C9 3.73478 8.89464 3.48043 8.70711 3.29289C8.51957 3.10536 8.26522 3 8 3ZM15 4V7H20V4C20 3.73478 19.8946 3.48043 19.7071 3.29289C19.5196 3.10536 19.2652 3 19 3H16C15.7348 3 15.4804 3.10536 15.2929 3.29289C15.1054 3.48043 15 3.73478 15 4ZM15 14C15 14.7956 14.6839 15.5587 14.1213 16.1213C13.5587 16.6839 12.7956 17 12 17C11.2044 17 10.4413 16.6839 9.87868 16.1213C9.31607 15.5587 9 14.7956 9 14V9H4V14C4 16.1217 4.84285 18.1566 6.34315 19.6569C7.84344 21.1571 9.87827 22 12 22C14.1217 22 16.1566 21.1571 17.6569 19.6569C19.1571 18.1566 20 16.1217 20 14V9H15V14Z" fill="black"/>
</svg>
