<svg width="282" height="67" viewBox="0 0 282 67" fill="none" xmlns="http://www.w3.org/2000/svg">
<path d="M26.22 66.8839C23.7667 66.8839 21.1907 66.6999 18.492 66.3319C15.8547 66.0253 13.34 65.5346 10.948 64.8599C8.55603 64.1853 6.40936 63.3879 4.50803 62.4679C2.85203 61.6706 1.68669 60.6279 1.01203 59.3399C0.337361 57.9906 0.0920275 56.5799 0.276028 55.1079C0.460028 53.6359 0.981361 52.3479 1.84003 51.2439C2.69869 50.0786 3.83336 49.3119 5.24403 48.9439C6.65469 48.5146 8.24936 48.6986 10.028 49.4959C12.3587 50.5999 14.996 51.4586 17.94 52.0719C20.884 52.6853 23.644 52.9919 26.22 52.9919C30.268 52.9919 33.0894 52.4706 34.684 51.4279C36.34 50.3239 37.168 48.9746 37.168 47.3799C37.168 45.9693 36.5854 44.8346 35.42 43.9759C34.316 43.1173 32.3227 42.3813 29.44 41.7679L18.676 39.4679C12.788 38.2413 8.40269 36.0946 5.52003 33.0279C2.63736 29.9613 1.19603 26.0053 1.19603 21.1599C1.19603 17.9706 1.84003 15.0879 3.12803 12.5119C4.47736 9.87461 6.34803 7.63594 8.74003 5.79594C11.1934 3.95594 14.076 2.54528 17.388 1.56394C20.7614 0.521278 24.5027 -5.36442e-05 28.612 -5.36442e-05C31.8014 -5.36442e-05 35.0214 0.367945 38.272 1.10394C41.584 1.77861 44.436 2.82128 46.828 4.23195C48.2387 4.96794 49.2507 5.97994 49.864 7.26795C50.4774 8.55594 50.7227 9.90528 50.6 11.3159C50.4774 12.6653 49.9867 13.8613 49.128 14.9039C48.3307 15.9466 47.2267 16.6519 45.816 17.0199C44.4667 17.3266 42.8414 17.0813 40.94 16.2839C39.1614 15.4866 37.1374 14.9039 34.868 14.5359C32.66 14.1066 30.5134 13.8919 28.428 13.8919C26.1587 13.8919 24.2267 14.1679 22.632 14.7199C21.0374 15.2106 19.8107 15.9466 18.952 16.9279C18.1547 17.9093 17.756 19.0439 17.756 20.3319C17.756 21.6199 18.2774 22.7239 19.32 23.6439C20.424 24.5026 22.4174 25.2386 25.3 25.8519L35.972 28.1519C41.9214 29.4399 46.368 31.5559 49.312 34.4999C52.256 37.4439 53.728 41.2773 53.728 45.9999C53.728 49.1893 53.084 52.0719 51.796 54.6479C50.508 57.2239 48.668 59.4319 46.276 61.2719C43.884 63.0506 41.0014 64.4306 37.628 65.4119C34.2547 66.3933 30.452 66.8839 26.22 66.8839ZM93.3218 66.8839C86.7591 66.8839 80.9938 65.5039 76.0258 62.7439C71.0578 59.9226 67.1938 55.9973 64.4338 50.9679C61.7351 45.9386 60.3858 40.0813 60.3858 33.3959C60.3858 28.3666 61.1525 23.7973 62.6858 19.6879C64.2805 15.5786 66.5191 12.0519 69.4018 9.10794C72.3458 6.16395 75.8418 3.92528 79.8898 2.39194C83.9378 0.797279 88.4151 -5.36442e-05 93.3218 -5.36442e-05C99.8845 -5.36442e-05 105.619 1.37995 110.526 4.13995C115.494 6.89995 119.358 10.7946 122.118 15.8239C124.878 20.7919 126.258 26.6493 126.258 33.3959C126.258 38.4253 125.46 42.9946 123.866 47.1039C122.332 51.2133 120.094 54.7706 117.15 57.7759C114.267 60.7199 110.802 62.9893 106.754 64.5839C102.706 66.1173 98.2285 66.8839 93.3218 66.8839ZM93.3218 52.7159C96.5725 52.7159 99.3325 51.9493 101.602 50.4159C103.871 48.8826 105.619 46.6746 106.846 43.7919C108.072 40.9093 108.686 37.4439 108.686 33.3959C108.686 27.3239 107.336 22.6013 104.638 19.2279C101.939 15.8546 98.1671 14.1679 93.3218 14.1679C90.1325 14.1679 87.3725 14.9346 85.0418 16.4679C82.7725 17.9399 81.0245 20.1173 79.7978 22.9999C78.5711 25.8213 77.9578 29.2866 77.9578 33.3959C77.9578 39.4679 79.3071 44.2213 82.0058 47.6559C84.7045 51.0293 88.4765 52.7159 93.3218 52.7159ZM144.809 65.8719C142.11 65.8719 139.994 65.1359 138.461 63.6639C136.989 62.1306 136.253 60.0146 136.253 57.3159V9.47594C136.253 6.71594 136.989 4.59994 138.461 3.12794C139.933 1.65595 142.018 0.919945 144.717 0.919945C147.477 0.919945 149.562 1.65595 150.973 3.12794C152.445 4.59994 153.181 6.71594 153.181 9.47594V51.7959H175.629C177.959 51.7959 179.738 52.4093 180.965 53.6359C182.253 54.8013 182.897 56.5186 182.897 58.7879C182.897 61.0573 182.253 62.8053 180.965 64.0319C179.738 65.2586 177.959 65.8719 175.629 65.8719H144.809ZM198.533 66.6999C195.834 66.6999 193.749 65.9639 192.277 64.4919C190.805 62.9586 190.069 60.8119 190.069 58.0519V8.83195C190.069 6.01061 190.805 3.86395 192.277 2.39194C193.749 0.919944 195.834 0.183944 198.533 0.183944C201.293 0.183944 203.378 0.919944 204.789 2.39194C206.261 3.86395 206.997 6.01061 206.997 8.83195V58.0519C206.997 60.8119 206.292 62.9586 204.881 64.4919C203.47 65.9639 201.354 66.6999 198.533 66.6999ZM227.561 65.8719C224.679 65.8719 222.471 65.1359 220.937 63.6639C219.465 62.1306 218.729 59.9533 218.729 57.1319V9.75195C218.729 6.93061 219.465 4.78395 220.937 3.31195C222.471 1.77861 224.679 1.01194 227.561 1.01194H245.593C256.879 1.01194 265.588 3.83328 271.721 9.47594C277.916 15.1186 281.013 23.0919 281.013 33.3959C281.013 38.5479 280.216 43.1479 278.621 47.1959C277.027 51.1826 274.727 54.5866 271.721 57.4079C268.716 60.1679 265.005 62.2839 260.589 63.7559C256.235 65.1666 251.236 65.8719 245.593 65.8719H227.561ZM235.657 52.1639H244.489C247.74 52.1639 250.531 51.7653 252.861 50.9679C255.253 50.1706 257.216 49.0053 258.749 47.4719C260.344 45.9386 261.509 44.0066 262.245 41.6759C263.043 39.3453 263.441 36.5853 263.441 33.3959C263.441 27.0173 261.877 22.3253 258.749 19.3199C255.621 16.2533 250.868 14.7199 244.489 14.7199H235.657V52.1639Z" fill="black"/>
</svg>
