<svg width="24" height="24" viewBox="0 0 24 24" fill="none" xmlns="http://www.w3.org/2000/svg">
<path d="M2 12H4C3.99762 10.9487 4.20284 9.90729 4.60388 8.93549C5.00492 7.9637 5.59389 7.08064 6.337 6.337C7.0648 5.60679 7.92832 5.02589 8.879 4.627C10.8385 3.81293 13.0388 3.79822 15.009 4.586C15.0283 5.23347 15.2993 5.8479 15.7644 6.29868C16.2296 6.74947 16.8522 7.00107 17.5 7C18.886 7 20 5.886 20 4.5C20 3.114 18.886 2 17.5 2C16.811 2 16.188 2.276 15.737 2.725C13.306 1.752 10.514 1.767 8.102 2.784C6.91314 3.2837 5.83301 4.01023 4.922 4.923C4.00882 5.8335 3.28193 6.91331 2.782 8.102C2.2632 9.33594 1.99729 10.6614 2 12ZM19.373 15.122C18.972 16.074 18.396 16.93 17.663 17.663C16.93 18.396 16.074 18.972 15.121 19.373C13.1615 20.1871 10.9612 20.2018 8.991 19.414C8.97173 18.7665 8.70072 18.1521 8.23555 17.7013C7.77039 17.2505 7.14775 16.9989 6.5 17C5.114 17 4 18.114 4 19.5C4 20.886 5.114 22 6.5 22C7.189 22 7.812 21.724 8.263 21.275C9.4505 21.7546 10.7193 22.0007 12 22C13.9665 22.0038 15.8904 21.4267 17.5301 20.3411C19.1699 19.2555 20.4525 17.7098 21.217 15.898C21.7365 14.6642 22.0028 13.3387 22 12H20C20.0025 13.0722 19.7893 14.1339 19.373 15.122Z" fill="black"/>
<path d="M12 7.46198C9.498 7.46198 7.462 9.49798 7.462 12C7.462 14.502 9.498 16.538 12 16.538C14.502 16.538 16.538 14.502 16.538 12C16.538 9.49798 14.502 7.46198 12 7.46198ZM12 14.538C10.601 14.538 9.462 13.399 9.462 12C9.462 10.601 10.601 9.46198 12 9.46198C13.399 9.46198 14.538 10.601 14.538 12C14.538 13.399 13.399 14.538 12 14.538Z" fill="black"/>
</svg>
