<svg width="24" height="24" viewBox="0 0 24 24" fill="none" xmlns="http://www.w3.org/2000/svg">
<path d="M3.10202 20.898C3.80002 21.597 4.79802 21.966 5.98902 21.966C7.73102 21.966 9.84402 21.188 12.001 19.839C14.157 21.189 16.271 21.966 18.013 21.966C19.203 21.966 20.201 21.597 20.9 20.898C22.169 19.629 22.311 17.485 21.301 14.859C20.943 13.927 20.447 12.964 19.844 12C20.4198 11.0957 20.9077 10.1383 21.301 9.141C22.311 6.515 22.168 4.37 20.9 3.102C20.202 2.403 19.204 2.034 18.013 2.034C16.271 2.034 14.158 2.812 12.001 4.161C9.84502 2.811 7.73102 2.034 5.98902 2.034C4.79902 2.034 3.80102 2.403 3.10202 3.102C1.83302 4.371 1.69002 6.515 2.70002 9.141C3.05902 10.073 3.55402 11.036 4.15702 12C3.5812 12.9043 3.09331 13.8617 2.70002 14.859C1.69002 17.485 1.83302 19.629 3.10202 20.898ZM19.433 15.577C20.122 17.367 20.141 18.828 19.485 19.484C19.165 19.804 18.67 19.966 18.012 19.966C16.845 19.966 15.366 19.463 13.804 18.586C15.5954 17.2013 17.2027 15.5936 18.587 13.802C18.923 14.403 19.21 14.998 19.433 15.577ZM12 17.417C10.956 16.6706 9.97478 15.8402 9.06602 14.934C8.15536 14.0246 7.31933 13.0434 6.56602 12C8.07164 9.91162 9.90694 8.08207 12 6.583C13.044 7.3294 14.0253 8.15983 14.934 9.066C15.8447 9.97538 16.6807 10.9565 17.434 12C15.9284 14.0884 14.0931 15.9179 12 17.417ZM18.012 4.034C18.669 4.034 19.164 4.196 19.485 4.516C20.141 5.172 20.123 6.633 19.433 8.423C19.21 9.002 18.923 9.597 18.587 10.198C17.204 8.40516 15.5966 6.79735 13.804 5.414C15.366 4.538 16.845 4.034 18.012 4.034ZM4.56702 8.423C3.87802 6.633 3.85902 5.172 4.51502 4.516C4.83502 4.196 5.33002 4.034 5.98802 4.034C7.15502 4.034 8.63402 4.537 10.196 5.414C8.40347 6.79735 6.79599 8.40516 5.41302 10.198C5.08957 9.62699 4.80687 9.03385 4.56702 8.423ZM4.56702 15.577C4.79002 14.998 5.07702 14.403 5.41302 13.802C6.79599 15.5948 8.40347 17.2026 10.196 18.586C8.63302 19.463 7.15502 19.966 5.98802 19.966C5.33102 19.966 4.83602 19.804 4.51502 19.484C3.85902 18.828 3.87802 17.367 4.56702 15.577Z" fill="black"/>
<path d="M12 14.574C13.4216 14.574 14.574 13.4216 14.574 12C14.574 10.5784 13.4216 9.42603 12 9.42603C10.5784 9.42603 9.42603 10.5784 9.42603 12C9.42603 13.4216 10.5784 14.574 12 14.574Z" fill="black"/>
</svg>
