<svg width="24" height="24" viewBox="0 0 24 24" fill="none" xmlns="http://www.w3.org/2000/svg">
<path d="M12 4C7.121 4 3 8.121 3 13C3 17.879 7.121 22 12 22C16.879 22 21 17.879 21 13C21 8.121 16.879 4 12 4ZM12 20C8.206 20 5 16.794 5 13C5 9.206 8.206 6 12 6C15.794 6 19 9.206 19 13C19 16.794 15.794 20 12 20Z" fill="black"/>
<path d="M13 8.00002H11V12H7.00003V14H11V18H13V14H17V12H13V8.00002ZM20.292 6.70802L17.282 3.70802L18.694 2.29102L21.704 5.29102L20.292 6.70802ZM5.28203 2.29402L6.70003 3.70602L3.71003 6.70602L2.29303 5.29302L5.28203 2.29402Z" fill="black"/>
</svg>
