<svg width="24" height="24" viewBox="0 0 24 24" fill="none" xmlns="http://www.w3.org/2000/svg">
<path d="M12 2C6.486 2 2 6.486 2 12C2 17.514 6.486 22 12 22C17.514 22 22 17.514 22 12C22 6.486 17.514 2 12 2ZM12 20C7.589 20 4 16.411 4 12C4 7.589 7.589 4 12 4C16.411 4 20 7.589 20 12C20 16.411 16.411 20 12 20Z" fill="black"/>
<path d="M12 14C9 14 8 17 8 17H16C16 17 15 14 12 14ZM9.561 11.561C9.575 11.547 9.584 11.531 9.598 11.517L10.629 11.93L11.371 10.073L6.371 8.07298L5.629 9.92898L7.002 10.478L7 10.5C6.99938 10.797 7.087 11.0874 7.25173 11.3346C7.41647 11.5817 7.65089 11.7743 7.92526 11.8879C8.19963 12.0016 8.50158 12.0312 8.79281 11.973C9.08403 11.9148 9.3514 11.7714 9.561 11.561ZM12.629 10.071L13.371 11.928L14.408 11.513C14.419 11.524 14.427 11.537 14.437 11.548C14.5753 11.6873 14.7398 11.7979 14.9211 11.8733C15.1023 11.9488 15.2967 11.9876 15.493 11.9876C15.6893 11.9876 15.8837 11.9488 16.0649 11.8733C16.2462 11.7979 16.4107 11.6873 16.549 11.548C16.82 11.277 16.987 10.904 16.987 10.492L16.986 10.482L18.372 9.92798L17.63 8.07098L12.629 10.071Z" fill="black"/>
</svg>
