<svg width="24" height="24" viewBox="0 0 24 24" fill="none" xmlns="http://www.w3.org/2000/svg">
<path d="M12 4.00002C7.12101 4.00002 3.00001 8.12102 3.00001 13C3.00001 17.879 7.12101 22 12 22C16.879 22 21 17.879 21 13C21 8.12102 16.879 4.00002 12 4.00002ZM12 20C8.20601 20 5.00001 16.794 5.00001 13C5.00001 9.20602 8.20601 6.00002 12 6.00002C15.794 6.00002 19 9.20602 19 13C19 16.794 15.794 20 12 20ZM20.292 6.70802L17.282 3.70802L18.694 2.29102L21.704 5.29102L20.292 6.70802ZM6.69801 3.70702L3.70801 6.70602L2.29001 5.29402L5.28001 2.29402L6.69801 3.70702Z" fill="black"/>
<path d="M14.832 10.555C14.9325 10.4044 14.9902 10.2293 14.999 10.0485C15.0078 9.86769 14.9673 9.68786 14.8819 9.52823C14.7965 9.3686 14.6693 9.23516 14.514 9.14213C14.3587 9.04909 14.181 8.99997 14 9H9V11H12.132L9.168 15.445C9.06752 15.5956 9.00981 15.7707 9.00103 15.9515C8.99224 16.1323 9.03271 16.3121 9.11812 16.4718C9.20353 16.6314 9.33068 16.7648 9.48599 16.8579C9.6413 16.9509 9.81895 17 10 17H15V15H11.868L14.832 10.555Z" fill="black"/>
</svg>
