<svg width="24" height="24" viewBox="0 0 24 24" fill="none" xmlns="http://www.w3.org/2000/svg">
<path d="M12 22C16.879 22 21 17.879 21 13C21 8.12102 16.879 4.00002 12 4.00002C7.12103 4.00002 3.00003 8.12102 3.00003 13C3.00003 17.879 7.12103 22 12 22ZM12 6.00002C15.794 6.00002 19 9.20602 19 13C19 16.794 15.794 20 12 20C8.20603 20 5.00003 16.794 5.00003 13C5.00003 9.20602 8.20603 6.00002 12 6.00002ZM17.284 3.70702L18.696 2.29102L21.706 5.29102L20.293 6.70802L17.284 3.70702ZM5.28203 2.29402L6.70003 3.70602L3.71003 6.70602L2.29303 5.29302L5.28203 2.29402Z" fill="black"/>
<path d="M11 9H13V14H11V9ZM11 15H13V17H11V15Z" fill="black"/>
</svg>
