<svg width="24" height="24" viewBox="0 0 24 24" fill="none" xmlns="http://www.w3.org/2000/svg">
<path d="M20.292 6.70802L17.282 3.70802L18.694 2.29102L21.704 5.29102L20.292 6.70802ZM21.707 20.293L19.42 18.006C20.409 16.563 21 14.838 21 13C21 8.12102 16.879 4.00002 12 4.00002C10.162 4.00002 8.43703 4.59102 6.99403 5.58002L5.91003 4.49602L6.69803 3.70602L5.28203 2.29402L4.49603 3.08202L3.70703 2.29302L2.29303 3.70702L20.293 21.707L21.707 20.293ZM12 6.00002C15.794 6.00002 19 9.20602 19 13C19 14.292 18.613 15.507 17.973 16.559L15.414 14H17V12H13.414L13 11.586V8.00002H11V9.58602L8.44103 7.02702C9.49303 6.38702 10.708 6.00002 12 6.00002ZM4.30503 8.42602C3.45803 9.80182 3.00651 11.3844 3.00003 13C3.00003 17.879 7.12103 22 12 22C13.6156 21.9935 15.1982 21.542 16.574 20.695L15.113 19.234C14.1512 19.7338 13.0839 19.9964 12 20C8.20603 20 5.00003 16.794 5.00003 13C5.00003 11.889 5.28103 10.831 5.76603 9.88702L4.30503 8.42602Z" fill="black"/>
</svg>
