<svg width="24" height="24" viewBox="0 0 24 24" fill="none" xmlns="http://www.w3.org/2000/svg">
<path d="M11.99 2.00001C10.6756 1.99776 9.3739 2.25627 8.16015 2.76059C6.94639 3.2649 5.84475 4.005 4.919 4.93801C1.021 8.83601 1.021 15.181 4.919 19.081C6.814 20.976 9.324 22.019 11.99 22.019C14.656 22.019 17.167 20.976 19.061 19.081C22.96 15.182 22.96 8.83701 19.061 4.93801C18.1353 4.005 17.0336 3.2649 15.8198 2.76059C14.6061 2.25627 13.3044 1.99776 11.99 2.00001ZM17.647 17.667C16.5986 18.7189 15.2768 19.4564 13.831 19.796L13.83 19.759C13.8283 18.9864 13.9711 18.2202 14.251 17.5L12.388 16.771C11.987 17.8023 11.7993 18.9041 11.836 20.01C9.76654 19.9745 7.79243 19.1337 6.333 17.666C4.87083 16.2039 4.03456 14.2305 4.001 12.163C4.081 12.165 4.161 12.168 4.241 12.168C5.26316 12.1708 6.27674 11.9815 7.229 11.61L6.499 9.74801C5.77161 10.0285 4.99756 10.1684 4.218 10.16C4.55385 8.7179 5.28646 7.39851 6.333 6.35101C7.41948 5.25944 8.7992 4.50636 10.305 4.18301C10.2954 4.84836 10.1748 5.50743 9.948 6.13301L11.829 6.81401C12.1456 5.94858 12.3087 5.03453 12.311 4.11301C12.311 4.08001 12.307 4.04801 12.306 4.01501C14.319 4.09401 16.206 4.91101 17.648 6.35101C19.0713 7.7755 19.9018 9.68654 19.972 11.699C19.0221 11.688 18.078 11.8482 17.185 12.172L17.869 14.052C18.4893 13.8244 19.1434 13.7023 19.804 13.691C19.485 15.1972 18.7357 16.5784 17.647 17.667Z" fill="black"/>
<path d="M14.112 14.13C13.7682 14.4732 13.4581 14.8486 13.186 15.251L14.842 16.371C15.042 16.075 15.272 15.797 15.525 15.545C15.8801 15.1904 16.2754 14.8786 16.703 14.616L15.654 12.913C15.0942 13.257 14.5767 13.6655 14.112 14.13ZM8.456 8.474C8.20227 8.7264 7.92539 8.9544 7.629 9.155L8.748 10.813C9.15031 10.5403 9.52598 10.2303 9.87 9.887C10.3339 9.42175 10.7423 8.9043 11.087 8.345L9.384 7.297C9.12095 7.7237 8.80955 8.11865 8.456 8.474Z" fill="black"/>
</svg>
