<svg width="24" height="24" viewBox="0 0 24 24" fill="none" xmlns="http://www.w3.org/2000/svg">
<path d="M21.707 11.293L19.707 9.29302L19 8.58602V6.00002C19 5.7348 18.8946 5.48045 18.7071 5.29291C18.5196 5.10538 18.2652 5.00002 18 5.00002H15.414L14.707 4.29302L12.707 2.29302C12.6142 2.20007 12.504 2.12633 12.3827 2.07602C12.2614 2.02571 12.1313 1.99982 12 1.99982C11.8687 1.99982 11.7386 2.02571 11.6173 2.07602C11.496 2.12633 11.3858 2.20007 11.293 2.29302L9.293 4.29302L8.586 5.00002H6C5.73479 5.00002 5.48043 5.10538 5.2929 5.29291C5.10536 5.48045 5 5.7348 5 6.00002V8.58602L4.293 9.29302L2.293 11.293C2.20006 11.3858 2.12632 11.496 2.07601 11.6173C2.0257 11.7386 1.9998 11.8687 1.9998 12C1.9998 12.1314 2.0257 12.2614 2.07601 12.3827C2.12632 12.504 2.20006 12.6142 2.293 12.707L4.293 14.707L5 15.414V18C5 18.2652 5.10536 18.5196 5.2929 18.7071C5.48043 18.8947 5.73479 19 6 19H8.586L9.293 19.707L11.293 21.707C11.3857 21.8002 11.4958 21.8742 11.6172 21.9246C11.7385 21.9751 11.8686 22.0011 12 22.0011C12.1314 22.0011 12.2615 21.9751 12.3829 21.9246C12.5042 21.8742 12.6143 21.8002 12.707 21.707L14.707 19.707L15.414 19H18C18.2652 19 18.5196 18.8947 18.7071 18.7071C18.8946 18.5196 19 18.2652 19 18V15.414L19.707 14.707L21.707 12.707C21.7999 12.6142 21.8737 12.504 21.924 12.3827C21.9743 12.2614 22.0002 12.1314 22.0002 12C22.0002 11.8687 21.9743 11.7386 21.924 11.6173C21.8737 11.496 21.7999 11.3858 21.707 11.293ZM17.293 14.293L17 14.586V17H14.586L14.293 17.293L13.293 18.293L12 19.586L10.707 18.293L9.707 17.293L9.414 17H7V14.586L6.707 14.293L5.707 13.293L4.414 12L5.707 10.707L6.707 9.70702L7 9.41402V7.00002H9.414L9.707 6.70702L10.707 5.70702L12 4.41402L13.293 5.70702L14.293 6.70702L14.586 7.00002H17V9.41402L17.293 9.70702L18.293 10.707L19.586 12L18.293 13.293L17.293 14.293Z" fill="black"/>
<path d="M12 8V16C14.206 16 16 14.206 16 12C16 9.794 14.206 8 12 8Z" fill="black"/>
</svg>
