<svg width="24" height="24" viewBox="0 0 24 24" fill="none" xmlns="http://www.w3.org/2000/svg">
<path d="M11 19.91L10 22H14L13 19.91C17 19.26 20 14.63 20 10C20 7.87827 19.1571 5.84344 17.6569 4.34315C16.1566 2.84285 14.1217 2 12 2C9.87827 2 7.84344 2.84285 6.34315 4.34315C4.84285 5.84344 4 7.87827 4 10C4 14.63 7.08 19.26 11 19.91ZM12 4.25V5.75C10.8736 5.75264 9.79417 6.20126 8.99771 6.99771C8.20126 7.79417 7.75264 8.87364 7.75 10H6.25C6.25264 8.47582 6.85929 7.01482 7.93706 5.93706C9.01482 4.85929 10.4758 4.25264 12 4.25Z" fill="black"/>
</svg>
