<svg width="24" height="24" viewBox="0 0 24 24" fill="none" xmlns="http://www.w3.org/2000/svg">
<path d="M19.293 8.293L17.224 10.362C16.6026 9.65856 15.8463 9.08695 15 8.681V4H16V2H8V4H9V8.681C7.80476 9.24927 6.79481 10.1443 6.08695 11.2625C5.37909 12.3808 5.00224 13.6765 5 15C5 18.859 8.141 22 12 22C15.859 22 19 18.859 19 15C18.999 13.9862 18.7765 12.9848 18.348 12.066L20.707 9.707L19.293 8.293ZM10.334 10.291L11 10.056V4H13V10.056L13.666 10.291C14.4762 10.5804 15.1981 11.0738 15.7622 11.7234C16.3262 12.3731 16.7132 13.1572 16.886 14H7.114C7.28676 13.1572 7.67383 12.3731 8.23784 11.7234C8.80186 11.0738 9.5238 10.5804 10.334 10.291ZM12 20C10.848 19.9985 9.73184 19.5998 8.83961 18.8711C7.94737 18.1424 7.33368 17.1284 7.102 16H16.899C16.6669 17.1284 16.053 18.1424 15.1606 18.871C14.2683 19.5996 13.152 19.9983 12 20Z" fill="black"/>
</svg>
