<svg width="24" height="24" viewBox="0 0 24 24" fill="none" xmlns="http://www.w3.org/2000/svg">
<path d="M12 22C12.6193 22.0008 13.2235 21.8086 13.7285 21.4502C14.2336 21.0917 14.6144 20.5849 14.818 20H9.18203C9.38569 20.5849 9.76651 21.0917 10.2715 21.4502C10.7766 21.8086 11.3807 22.0008 12 22ZM21 18V16C21.0002 15.8687 20.9744 15.7386 20.9241 15.6172C20.8739 15.4959 20.8001 15.3857 20.707 15.293L19 13.586V10C19 6.783 16.815 4.073 13.855 3.258C13.562 2.52 12.846 2 12 2C11.154 2 10.438 2.52 10.145 3.258C8.82203 3.622 7.68203 4.386 6.79903 5.385L3.70703 2.293L2.29303 3.707L20.293 21.707L21.707 20.293L20.345 18.931C20.5365 18.8617 20.702 18.7352 20.8192 18.5687C20.9363 18.4021 20.9995 18.2036 21 18ZM12 5C14.757 5 17 7.243 17 10V14C17 14.266 17.105 14.52 17.293 14.707L19 16.414V17H18.414L8.20703 6.793C9.12003 5.705 10.471 5 12 5ZM6.70703 14.707C6.80007 14.6143 6.87386 14.5041 6.92415 14.3828C6.97443 14.2614 7.00022 14.1313 7.00003 14V11.121L5.06803 9.189C5.03703 9.457 5.00003 9.724 5.00003 10V13.586L3.29303 15.293C3.19999 15.3857 3.1262 15.4959 3.07591 15.6172C3.02563 15.7386 2.99984 15.8687 3.00003 16V18C3.00003 18.2652 3.10539 18.5196 3.29292 18.7071C3.48046 18.8946 3.73481 19 4.00003 19H14.879L12.879 17H5.00003V16.414L6.70703 14.707Z" fill="black"/>
</svg>
