<svg width="24" height="24" viewBox="0 0 24 24" fill="none" xmlns="http://www.w3.org/2000/svg">
<path d="M21 9.00003H19.58L15.868 2.50403L14.132 3.49603L17.277 9.00003H6.723L9.869 3.49603L8.132 2.50403L4.42 9.00003H3C2.8463 9.0002 2.6947 9.03576 2.55696 9.10396C2.41921 9.17216 2.29902 9.27116 2.2057 9.3933C2.11239 9.51543 2.04845 9.65741 2.01885 9.80824C1.98924 9.95907 1.99477 10.1147 2.035 10.263L4.834 20.527C4.95036 20.9498 5.20211 21.3228 5.5507 21.5889C5.89929 21.8549 6.32549 21.9993 6.764 22H17.237C18.135 22 18.929 21.395 19.167 20.525L21.966 10.262C22.0067 10.1136 22.0126 9.95783 21.9831 9.8068C21.9536 9.65577 21.8896 9.51361 21.796 9.39141C21.7025 9.26922 21.582 9.17031 21.4439 9.10242C21.3058 9.03452 21.1539 8.99948 21 9.00003ZM17.236 20H6.764L4.31 11H19.69L17.236 20Z" fill="black"/>
<path d="M9 13H11V18H9V13ZM13 13H15V18H13V13Z" fill="black"/>
</svg>
