<svg width="24" height="24" viewBox="0 0 24 24" fill="none" xmlns="http://www.w3.org/2000/svg">
<path d="M12 6C8.691 6 6 8.691 6 12C6 15.309 8.691 18 12 18C15.309 18 18 15.309 18 12C18 8.691 15.309 6 12 6ZM12 16C9.794 16 8 14.206 8 12C8 9.794 9.794 8 12 8C14.206 8 16 9.794 16 12C16 14.206 14.206 16 12 16Z" fill="black"/>
<path d="M12 2C6.579 2 2 6.579 2 12C2 17.421 6.579 22 12 22C17.421 22 22 17.421 22 12C22 6.579 17.421 2 12 2ZM12 20C7.663 20 4 16.337 4 12C4 7.663 7.663 4 12 4C16.337 4 20 7.663 20 12C20 16.337 16.337 20 12 20Z" fill="black"/>
<path d="M12 10C10.919 10 10 10.919 10 12C10 13.081 10.919 14 12 14C13.081 14 14 13.081 14 12C14 10.919 13.081 10 12 10Z" fill="black"/>
</svg>
