<svg width="24" height="24" viewBox="0 0 24 24" fill="none" xmlns="http://www.w3.org/2000/svg">
<path d="M13.707 2.29302C13.6142 2.20007 13.504 2.12633 13.3827 2.07602C13.2614 2.02571 13.1313 1.99982 13 1.99982C12.8687 1.99982 12.7386 2.02571 12.6173 2.07602C12.496 2.12633 12.3858 2.20007 12.293 2.29302L6.45299 8.13302C6.43799 8.13202 6.42399 8.12402 6.40899 8.12402C6.27765 8.12388 6.14758 8.1497 6.02625 8.19998C5.90493 8.25026 5.79473 8.32402 5.70199 8.41702L4.28799 9.83102C4.00879 10.1092 3.78745 10.44 3.63676 10.8042C3.48606 11.1684 3.40899 11.5589 3.40999 11.953C3.40999 12.755 3.72299 13.509 4.28899 14.074L4.99599 14.781L2.87399 16.903C2.59413 17.1778 2.3725 17.5062 2.22234 17.8686C2.07218 18.2309 1.99656 18.6198 1.99999 19.012C1.99527 19.4514 2.08817 19.8864 2.272 20.2855C2.45583 20.6847 2.726 21.038 3.06299 21.32C3.58199 21.759 4.25099 22 4.94799 22C5.78199 22 6.60199 21.659 7.19799 21.063L9.23799 19.024L9.94499 19.73C11.079 20.863 13.054 20.864 14.187 19.731L15.602 18.317C15.695 18.2243 15.7687 18.1141 15.819 17.9928C15.8693 17.8714 15.8951 17.7414 15.895 17.61C15.895 17.584 15.882 17.56 15.88 17.534L21.707 11.707C21.7999 11.6142 21.8737 11.504 21.924 11.3827C21.9743 11.2614 22.0002 11.1314 22.0002 11C22.0002 10.8687 21.9743 10.7386 21.924 10.6173C21.8737 10.496 21.7999 10.3858 21.707 10.293L13.707 2.29302ZM12.772 18.317C12.5815 18.4989 12.3282 18.6003 12.0648 18.6001C11.8014 18.6 11.5482 18.4982 11.358 18.316L9.94399 16.903C9.8512 16.8101 9.741 16.7363 9.61968 16.686C9.49837 16.6357 9.36832 16.6098 9.23699 16.6098C9.10566 16.6098 8.97561 16.6357 8.8543 16.686C8.73298 16.7363 8.62278 16.8101 8.52999 16.903L5.78399 19.648C5.56272 19.8711 5.2622 19.9977 4.94799 20C4.73155 20.0035 4.52095 19.9298 4.35399 19.792C4.2394 19.6972 4.14795 19.5774 4.08661 19.4419C4.02526 19.3064 3.99564 19.1587 3.99999 19.01C3.99894 18.8813 4.02381 18.7537 4.07312 18.6348C4.12243 18.5159 4.19516 18.4082 4.28699 18.318L7.11599 15.489C7.20893 15.3962 7.28267 15.286 7.33298 15.1647C7.38329 15.0434 7.40919 14.9134 7.40919 14.782C7.40919 14.6507 7.38329 14.5206 7.33298 14.3993C7.28267 14.278 7.20893 14.1678 7.11599 14.075L5.70099 12.66C5.60798 12.5675 5.53427 12.4575 5.48414 12.3363C5.43401 12.2151 5.40847 12.0852 5.40899 11.954C5.40899 11.686 5.51299 11.435 5.70199 11.246L6.40899 10.539L13.48 17.611L12.772 18.317ZM14.661 15.925L8.07499 9.33902L13 4.41402L19.586 11L14.661 15.925Z" fill="black"/>
</svg>
