<svg width="24" height="24" viewBox="0 0 24 24" fill="none" xmlns="http://www.w3.org/2000/svg">
<path d="M8.111 21.889C8.89911 21.8911 9.6798 21.7368 10.4079 21.4353C11.136 21.1337 11.7972 20.6907 12.353 20.132L20.131 12.354C21.2544 11.2279 21.8853 9.70218 21.8853 8.11152C21.8853 6.52086 21.2544 4.99513 20.131 3.86902C19.5749 3.31033 18.9136 2.8674 18.1854 2.56583C17.4571 2.26425 16.6763 2.11001 15.888 2.11202C15.0999 2.10998 14.3192 2.2642 13.5911 2.56579C12.863 2.86737 12.2019 3.31032 11.646 3.86902L3.868 11.647C2.74458 12.7731 2.11368 14.2989 2.11368 15.8895C2.11368 17.4802 2.74458 19.0059 3.868 20.132C4.42407 20.6907 5.08536 21.1336 5.81364 21.4352C6.54192 21.7368 7.32275 21.891 8.111 21.889ZM5.282 13.061L13.06 5.28302C13.4306 4.91067 13.8714 4.61547 14.3568 4.41448C14.8422 4.21349 15.3626 4.11069 15.888 4.11202C16.957 4.11202 17.961 4.52802 18.717 5.28302C19.4657 6.03395 19.8862 7.0511 19.8862 8.11152C19.8862 9.17194 19.4657 10.1891 18.717 10.94L10.939 18.718C10.5684 19.0904 10.1276 19.3856 9.6422 19.5866C9.1568 19.7876 8.63637 19.8904 8.111 19.889C7.58547 19.8904 7.06487 19.7877 6.5793 19.5867C6.09372 19.3857 5.65279 19.0904 5.282 18.718C4.53377 17.9668 4.11366 16.9498 4.11366 15.8895C4.11366 14.8293 4.53377 13.8122 5.282 13.061Z" fill="black"/>
<path d="M9 13C9.55228 13 10 12.5523 10 12C10 11.4477 9.55228 11 9 11C8.44772 11 8 11.4477 8 12C8 12.5523 8.44772 13 9 13Z" fill="black"/>
<path d="M15 13C15.5523 13 16 12.5523 16 12C16 11.4477 15.5523 11 15 11C14.4477 11 14 11.4477 14 12C14 12.5523 14.4477 13 15 13Z" fill="black"/>
<path d="M12 16C12.5523 16 13 15.5523 13 15C13 14.4477 12.5523 14 12 14C11.4477 14 11 14.4477 11 15C11 15.5523 11.4477 16 12 16Z" fill="black"/>
<path d="M12 10C12.5523 10 13 9.55228 13 9C13 8.44772 12.5523 8 12 8C11.4477 8 11 8.44772 11 9C11 9.55228 11.4477 10 12 10Z" fill="black"/>
</svg>
