<svg width="24" height="24" viewBox="0 0 24 24" fill="none" xmlns="http://www.w3.org/2000/svg">
<path d="M21 3.00098C19.6 3.00098 18.416 4.16798 18.293 4.29398L17.207 5.37998L16.116 4.29198C16.0232 4.19925 15.913 4.12571 15.7917 4.07558C15.6705 4.02544 15.5405 3.99968 15.4093 3.99978C15.2781 3.99987 15.1482 4.02581 15.027 4.07612C14.9058 4.12643 14.7957 4.20012 14.703 4.29298L13.46 5.53698C12.514 5.18031 11.511 4.99836 10.5 4.99998C5.813 4.99998 2 8.81298 2 13.5C2 18.187 5.813 22 10.5 22C15.187 22 19 18.187 19 13.5C19 12.591 18.856 11.7 18.572 10.842L19.917 9.49698C20.1042 9.30902 20.2091 9.05452 20.209 8.78927C20.2088 8.52402 20.1034 8.26967 19.916 8.08198L18.623 6.79198L19.711 5.70398C19.94 5.47498 20.556 5.00098 21 5.00098H22V3.00098H21ZM16.489 10.979C16.828 11.783 17 12.631 17 13.5C17 17.084 14.084 20 10.5 20C6.916 20 4 17.084 4 13.5C4 9.91598 6.916 6.99998 10.5 6.99998C11.46 6.99998 12.39 7.20998 13.262 7.62398C13.643 7.80498 14.099 7.72698 14.398 7.42798L15.412 6.41398L17.796 8.79098L16.704 9.88298C16.563 10.0234 16.4671 10.2028 16.4288 10.3981C16.3905 10.5934 16.4115 10.7957 16.489 10.979Z" fill="black"/>
<path d="M5.99999 13.5C5.99834 14.0912 6.11398 14.6769 6.34022 15.2231C6.56645 15.7693 6.89879 16.2651 7.31799 16.682L8.73199 15.268C8.25999 14.795 7.99999 14.168 7.99999 13.5C7.99999 12.832 8.25999 12.205 8.73199 11.732C8.96365 11.4992 9.2392 11.3146 9.54267 11.1889C9.84615 11.0633 10.1715 10.9991 10.5 11V9.00002C9.90879 8.99831 9.32312 9.11393 8.77692 9.34017C8.23071 9.56641 7.73483 9.89878 7.31799 10.318C6.89879 10.7349 6.56645 11.2308 6.34022 11.777C6.11398 12.3232 5.99834 12.9088 5.99999 13.5Z" fill="black"/>
</svg>
