<svg width="24" height="24" viewBox="0 0 24 24" fill="none" xmlns="http://www.w3.org/2000/svg">
<path d="M3 8V19C3 21.201 4.794 22 6 22H21V20H6.012C5.55 19.988 5 19.806 5 19C5 18.194 5.55 18.012 6.012 18H21V4C21 2.897 20.103 2 19 2H6C4.794 2 3 2.799 3 5V8ZM6 4H19V16H5V5C5 4.194 5.55 4.012 6 4Z" fill="black"/>
<path d="M11.997 14L15.347 10.711C15.5536 10.5123 15.7179 10.274 15.8301 10.0104C15.9424 9.74668 16.0002 9.46306 16.0002 9.17649C16.0002 8.88991 15.9424 8.60629 15.8301 8.34261C15.7179 8.07894 15.5536 7.84063 15.347 7.64199C14.9306 7.23099 14.3691 7.00055 13.784 7.00055C13.1989 7.00055 12.6374 7.23099 12.221 7.64199L11.997 7.85999L11.773 7.64099C11.3568 7.23005 10.7954 6.99963 10.2105 6.99963C9.62559 6.99963 9.06423 7.23005 8.648 7.64099C8.44145 7.83963 8.27713 8.07794 8.16489 8.34161C8.05264 8.60529 7.99479 8.88891 7.99479 9.17549C7.99479 9.46206 8.05264 9.74568 8.16489 10.0094C8.27713 10.273 8.44145 10.5113 8.648 10.71L11.997 14Z" fill="black"/>
</svg>
