<svg width="24" height="24" viewBox="0 0 24 24" fill="none" xmlns="http://www.w3.org/2000/svg">
<path d="M20 22V4C20 2.897 19.103 2 18 2H6C4.897 2 4 2.897 4 4V22L12 17.428L20 22ZM6 10V4H18V18.553L12 15.125L6 18.553V10Z" fill="black"/>
<path d="M15.409 9.51201C15.77 9.14001 15.994 8.62401 15.994 8.05601C15.994 7.48801 15.771 6.97301 15.409 6.60001C15.2263 6.40973 15.0071 6.25826 14.7644 6.15465C14.5218 6.05105 14.2608 5.99743 13.997 5.99701C13.997 5.99701 13.001 5.99401 12 7.02601C10.999 5.99401 10.003 5.99701 10.003 5.99701C9.45101 5.99701 8.95201 6.22701 8.59101 6.60001C8.22901 6.97301 8.00601 7.48701 8.00601 8.05601C8.00601 8.62501 8.22901 9.14001 8.59101 9.51201L12 13.203L15.409 9.51201Z" fill="black"/>
</svg>
