<svg width="24" height="24" viewBox="0 0 24 24" fill="none" xmlns="http://www.w3.org/2000/svg">
<path d="M16.895 6.51903L19.708 3.70703L18.294 2.29303L15.448 5.13903C15.2171 4.97219 14.9756 4.82054 14.725 4.68503C13.8867 4.23667 12.9507 4.00209 12 4.00209C11.0493 4.00209 10.1133 4.23667 9.275 4.68503C9.025 4.81703 8.787 4.97203 8.553 5.13803L5.707 2.29303L4.293 3.70703L7.106 6.51903C6.52036 7.26467 6.06402 8.10332 5.756 9.00003H2V11H4.307C4.242 11.495 4.2 11.997 4.2 12.5C4.2 13.007 4.242 13.513 4.307 14.011H2V16.011H4.753C4.766 16.05 4.774 16.091 4.787 16.129C4.975 16.684 5.208 17.222 5.482 17.729C5.526 17.81 5.577 17.884 5.623 17.963L3.293 20.293L4.707 21.707L6.817 19.596C7.40541 20.2535 8.10554 20.8016 8.885 21.215C9.364 21.468 9.867 21.664 10.381 21.795C11.4427 22.0677 12.5561 22.068 13.618 21.796C14.1378 21.6623 14.6399 21.4676 15.114 21.216C15.579 20.97 16.028 20.666 16.447 20.312C16.705 20.094 16.947 19.85 17.181 19.596L19.292 21.707L20.706 20.293L18.376 17.963C18.423 17.883 18.474 17.808 18.518 17.727C18.791 17.222 19.025 16.684 19.212 16.128C19.225 16.089 19.233 16.049 19.246 16.01H22V14.01H19.692C19.757 13.511 19.799 13.006 19.799 12.499C19.799 11.996 19.757 11.494 19.693 10.999H22V9.00003H18.244C17.9359 8.10355 17.48 7.26496 16.895 6.51903ZM8.681 7.74803C9.126 7.19003 9.641 6.75503 10.209 6.45403C10.7592 6.15741 11.3744 6.00212 11.9995 6.00212C12.6246 6.00212 13.2398 6.15741 13.79 6.45403C14.3839 6.77551 14.9048 7.21643 15.32 7.74903C15.619 8.12203 15.86 8.54903 16.073 9.00003H7.927C8.141 8.54903 8.381 8.12103 8.681 7.74803ZM17.8 12.5C17.8 13.022 17.758 13.544 17.674 14.053C17.595 14.543 17.475 15.026 17.319 15.489C17.1695 15.9334 16.9825 16.3643 16.76 16.777C16.5486 17.1678 16.3033 17.5392 16.027 17.887C15.76 18.22 15.467 18.523 15.158 18.785C14.848 19.046 14.519 19.269 14.179 19.449C13.839 19.629 13.484 19.766 13.122 19.859C13.082 19.869 13.04 19.873 13 19.882V14H11V19.881C10.96 19.872 10.918 19.868 10.878 19.858C10.517 19.765 10.161 19.628 9.821 19.448C9.481 19.268 9.152 19.045 8.843 18.784C8.52426 18.5133 8.23256 18.2122 7.972 17.885C7.69564 17.5383 7.45099 17.1675 7.241 16.777C7.01839 16.3639 6.83105 15.9327 6.681 15.488C6.52334 15.0192 6.40428 14.5383 6.325 14.05C6.16065 13.0402 6.15862 12.0105 6.319 11H17.68C17.759 11.491 17.8 11.995 17.8 12.5Z" fill="black"/>
</svg>
