<svg width="24" height="24" viewBox="0 0 24 24" fill="none" xmlns="http://www.w3.org/2000/svg">
<path d="M20 6H18V4C18 3.73478 17.8946 3.48043 17.7071 3.29289C17.5196 3.10536 17.2652 3 17 3H3C2.73478 3 2.48043 3.10536 2.29289 3.29289C2.10536 3.48043 2 3.73478 2 4V19C2 20.654 3.346 22 5 22H15C16.654 22 18 20.654 18 19V18H20C21.103 18 22 17.103 22 16V8C22 6.897 21.103 6 20 6ZM16 19C16 19.551 15.552 20 15 20H5C4.448 20 4 19.551 4 19V5H16V19ZM20 16H18V8H20V16Z" fill="black"/>
<path d="M6 7H8V17H6V7ZM12 7H14V17H12V7Z" fill="black"/>
</svg>
