<svg width="24" height="24" viewBox="0 0 24 24" fill="none" xmlns="http://www.w3.org/2000/svg">
<path d="M19.864 8.465C20.0047 7.97116 20.0352 7.45243 19.9534 6.94551C19.8715 6.43858 19.6792 5.95583 19.3902 5.53141C19.1011 5.10699 18.7223 4.75127 18.2806 4.48941C17.8389 4.22754 17.3451 4.06593 16.834 4.016C16.6289 3.42762 16.246 2.91753 15.7383 2.55635C15.2306 2.19516 14.6231 2.00074 14 2C13.2596 2.00251 12.5466 2.28057 12 2.78C11.4534 2.28057 10.7404 2.00251 10 2C8.699 2 7.59 2.831 7.175 4.015C6.66303 4.06368 6.16805 4.22442 5.72517 4.48583C5.28228 4.74723 4.90235 5.1029 4.61232 5.52759C4.32229 5.95228 4.12927 6.43559 4.04695 6.94324C3.96463 7.45088 3.99503 7.97042 4.136 8.465C3.49403 8.80655 2.9565 9.31552 2.58043 9.93789C2.20437 10.5603 2.0038 11.2728 2 12C2 13.075 2.428 14.086 3.172 14.832C3.05816 15.2109 3.00022 15.6044 3 16C3 17.957 4.412 19.59 6.306 19.934C6.58405 20.5485 7.03303 21.0701 7.59938 21.4364C8.16572 21.8027 8.82551 21.9984 9.5 22C10.479 22 11.364 21.593 12 20.941C12.3246 21.2759 12.7132 21.5421 13.1426 21.724C13.572 21.906 14.0336 21.9998 14.5 22C15.1733 21.9988 15.832 21.8039 16.3976 21.4386C16.9632 21.0734 17.4119 20.5532 17.69 19.94C18.248 19.8416 18.7787 19.626 19.2472 19.3074C19.7157 18.9888 20.1113 18.5745 20.4078 18.0918C20.7044 17.609 20.8952 17.0689 20.9676 16.507C21.04 15.945 20.9925 15.3742 20.828 14.832C21.1998 14.4601 21.4947 14.0185 21.6958 13.5326C21.8969 13.0467 22.0002 12.5259 22 12C21.9962 11.2728 21.7956 10.5603 21.4196 9.93789C21.0435 9.31552 20.506 8.80655 19.864 8.465ZM9.5 20C8.789 20 8.17 19.496 8.03 18.802L7.818 18H7C5.897 18 5 17.103 5 16C5 15.648 5.085 15.318 5.253 15.019L5.709 14.203L4.925 13.693C4.64178 13.5104 4.40877 13.2598 4.24721 12.9641C4.08564 12.6684 4.00065 12.337 4 12C4 11.023 4.723 10.176 5.682 10.028L7.375 9.768L6.316 8.422C6.12741 8.17887 6.01804 7.88369 6.00268 7.57637C5.98732 7.26906 6.06672 6.96444 6.23013 6.70372C6.39355 6.44301 6.63309 6.23877 6.91637 6.11863C7.19964 5.99849 7.51298 5.96825 7.814 6.032L9 6.207V5C9 4.73478 9.10536 4.48043 9.29289 4.29289C9.48043 4.10536 9.73478 4 10 4C10.2652 4 10.5196 4.10536 10.7071 4.29289C10.8946 4.48043 11 4.73478 11 5V18.5C11 19.327 10.327 20 9.5 20ZM19.075 13.692L18.291 14.202L18.747 15.018C18.915 15.318 19 15.648 19 16C19 17.103 18.103 18 16.95 18H16.132L15.97 18.802C15.9001 19.1403 15.7157 19.4441 15.448 19.6623C15.1802 19.8805 14.8454 19.9998 14.5 20C13.673 20 13 19.327 13 18.5V5C13 4.448 13.448 4 14 4C14.552 4 15 4.448 15 5.05V6.257L16.186 6.032C16.487 5.96825 16.8004 5.99849 17.0836 6.11863C17.3669 6.23877 17.6065 6.44301 17.7699 6.70372C17.9333 6.96444 18.0127 7.26906 17.9973 7.57637C17.982 7.88369 17.8726 8.17887 17.684 8.422L16.625 9.769L18.318 10.029C18.7865 10.1049 19.2128 10.3447 19.5209 10.7057C19.8289 11.0667 19.9988 11.5254 20 12C20 12.683 19.654 13.315 19.075 13.692Z" fill="black"/>
</svg>
