<svg width="24" height="24" viewBox="0 0 24 24" fill="none" xmlns="http://www.w3.org/2000/svg">
<path d="M12 11.222L14.667 13L13.777 9.889L16 8L13.333 7.667L12 5L10.667 7.667L8 8L10.223 9.889L9.333 13L12 11.222Z" fill="black"/>
<path d="M19 21.723V4C19 3.46957 18.7893 2.96086 18.4142 2.58579C18.0391 2.21071 17.5304 2 17 2H7C6.46957 2 5.96086 2.21071 5.58579 2.58579C5.21071 2.96086 5 3.46957 5 4V21.723L12 17.152L19 21.723ZM8 8L10.667 7.667L12 5L13.333 7.667L16 8L13.777 9.889L14.667 13L12 11.222L9.333 13L10.223 9.889L8 8Z" fill="black"/>
</svg>
