<svg width="24" height="24" viewBox="0 0 24 24" fill="none" xmlns="http://www.w3.org/2000/svg">
<path d="M19.707 9.29302L19 8.58602V6.00002C19 5.7348 18.8946 5.48045 18.7071 5.29291C18.5196 5.10538 18.2652 5.00002 18 5.00002H15.414L14.707 4.29302L12.707 2.29302C12.6142 2.20007 12.504 2.12633 12.3827 2.07602C12.2614 2.02571 12.1313 1.99982 12 1.99982C11.8687 1.99982 11.7386 2.02571 11.6173 2.07602C11.496 2.12633 11.3858 2.20007 11.293 2.29302L9.29299 4.29302L8.58599 5.00002H5.99999C5.73477 5.00002 5.48042 5.10538 5.29288 5.29291C5.10534 5.48045 4.99999 5.7348 4.99999 6.00002V8.58602L4.29299 9.29302L2.29299 11.293C2.20004 11.3858 2.1263 11.496 2.07599 11.6173C2.02568 11.7386 1.99979 11.8687 1.99979 12C1.99979 12.1314 2.02568 12.2614 2.07599 12.3827C2.1263 12.504 2.20004 12.6142 2.29299 12.707L4.29299 14.707L4.99999 15.414V18C4.99999 18.2652 5.10534 18.5196 5.29288 18.7071C5.48042 18.8947 5.73477 19 5.99999 19H8.58599L9.29299 19.707L11.293 21.707C11.3856 21.8002 11.4958 21.8742 11.6171 21.9246C11.7385 21.9751 11.8686 22.0011 12 22.0011C12.1314 22.0011 12.2615 21.9751 12.3828 21.9246C12.5042 21.8742 12.6143 21.8002 12.707 21.707L14.707 19.707L15.414 19H18C18.2652 19 18.5196 18.8947 18.7071 18.7071C18.8946 18.5196 19 18.2652 19 18V15.414L19.707 14.707L21.707 12.707C21.7999 12.6142 21.8737 12.504 21.924 12.3827C21.9743 12.2614 22.0002 12.1314 22.0002 12C22.0002 11.8687 21.9743 11.7386 21.924 11.6173C21.8737 11.496 21.7999 11.3858 21.707 11.293L19.707 9.29302ZM17.293 14.293L17 14.586V17H14.586L14.293 17.293L13.293 18.293L12 19.586L10.707 18.293L9.70699 17.293L9.41399 17H6.99999V14.586L6.70699 14.293L5.70699 13.293L4.41399 12L5.70699 10.707L6.70699 9.70702L6.99999 9.41402V7.00002H9.41399L9.70699 6.70702L10.707 5.70702L12 4.41402L13.293 5.70702L14.293 6.70702L14.586 7.00002H17V9.41402L17.293 9.70702L18.293 10.707L19.586 12L18.293 13.293L17.293 14.293Z" fill="black"/>
<path d="M12 8C9.794 8 8 9.794 8 12C8 14.206 9.794 16 12 16C14.206 16 16 14.206 16 12C16 9.794 14.206 8 12 8Z" fill="black"/>
</svg>
