<svg width="24" height="24" viewBox="0 0 24 24" fill="none" xmlns="http://www.w3.org/2000/svg">
<path d="M17.1679 8H13L13.806 3.165C13.8299 3.02165 13.8224 2.87479 13.7838 2.73466C13.7452 2.59453 13.6766 2.46448 13.5826 2.35359C13.4887 2.24269 13.3717 2.15361 13.2398 2.09254C13.1079 2.03148 12.9643 1.9999 12.819 2H7.66695C7.43039 2.00007 7.20151 2.084 7.02099 2.23688C6.84047 2.38976 6.71998 2.60168 6.68095 2.835L5.01395 12.835C4.98998 12.9783 4.99752 13.125 5.03602 13.2651C5.07453 13.4052 5.14309 13.5352 5.23693 13.646C5.33077 13.7569 5.44765 13.846 5.57942 13.9071C5.71119 13.9683 5.85469 14 5.99995 14H9.99995V22L18.01 9.541C18.1072 9.38987 18.1619 9.21535 18.1683 9.03577C18.1747 8.85619 18.1326 8.6782 18.0465 8.52051C17.9603 8.36282 17.8333 8.23126 17.6787 8.13967C17.5241 8.04807 17.3476 7.99983 17.1679 8Z" fill="black"/>
</svg>
