<svg width="24" height="24" viewBox="0 0 24 24" fill="none" xmlns="http://www.w3.org/2000/svg">
<path d="M4.92901 19.071C6.82401 20.966 9.33401 22.009 12 22.009C14.666 22.009 17.177 20.966 19.071 19.071C22.97 15.172 22.97 8.82799 19.071 4.92799C17.177 3.03399 14.665 1.98999 12 1.98999C9.33501 1.98999 6.82301 3.03399 4.92901 4.92899C1.03001 8.82699 1.03001 15.172 4.92901 19.071ZM12.309 4.00599C13.9791 4.06611 15.5873 4.65351 16.903 5.68399L12 10.586L10.54 9.12599C11.701 7.64699 12.332 5.81799 12.309 4.00599ZM9.11001 7.69599L7.09801 5.68399C8.04257 4.9436 9.14289 4.42729 10.316 4.17399C10.301 5.40999 9.87101 6.65099 9.11001 7.69599ZM7.68601 9.09999C6.66735 9.79592 5.46068 10.1647 4.22701 10.157C4.48685 9.04446 4.98422 8.00128 5.68501 7.09899L7.68601 9.09999ZM4.01101 12.146C4.08801 12.148 4.16501 12.16 4.24201 12.16C6.0017 12.1656 7.71476 11.5945 9.11901 10.534L10.586 12L5.68501 16.901C4.62737 15.5388 4.04 13.8703 4.01101 12.146ZM16.305 14.891C17.347 14.133 18.585 13.703 19.813 13.685C19.5628 14.8564 19.0511 15.9562 18.316 16.902L16.305 14.891ZM16.902 18.316C16.0003 19.0209 14.9568 19.5223 13.843 19.786C13.8317 18.5478 14.2007 17.3359 14.9 16.314L16.902 18.316ZM11.858 20.002C10.1296 19.9745 8.45755 19.3824 7.09701 18.316L12 13.414L13.463 14.877C12.36 16.321 11.804 18.143 11.858 20.002ZM19.982 11.692C18.175 11.674 16.349 12.302 14.874 13.46L13.414 12L18.315 7.09899C19.338 8.41763 19.9211 10.0242 19.982 11.692Z" fill="black"/>
</svg>
