<svg width="24" height="24" viewBox="0 0 24 24" fill="none" xmlns="http://www.w3.org/2000/svg">
<path d="M19.049 4.95102C18.8727 4.2699 18.5178 3.64817 18.021 3.15002C16.511 1.64002 13.875 1.64002 12.365 3.15002C11.7392 3.7778 11.3391 4.59529 11.2273 5.47463C11.1155 6.35398 11.2982 7.24559 11.747 8.01002L8.03301 11.724C6.52801 10.834 4.44201 11.075 3.17301 12.342C2.4238 13.0927 2.00302 14.1099 2.00302 15.1705C2.00302 16.2311 2.4238 17.2483 3.17301 17.999C3.67068 18.496 4.29212 18.8509 4.97301 19.027C5.15101 19.708 5.50301 20.329 6.00101 20.827C6.37115 21.2002 6.81177 21.496 7.29726 21.6974C7.78275 21.8988 8.30342 22.0016 8.82901 22C9.35448 22.0014 9.87499 21.8985 10.3604 21.6973C10.8459 21.4962 11.2866 21.2007 11.657 20.828C12.2827 20.2004 12.6827 19.383 12.7944 18.5038C12.906 17.6246 12.723 16.7331 12.274 15.969L15.988 12.255C17.495 13.146 19.581 12.905 20.849 11.636C21.5982 10.8855 22.0189 9.86843 22.0189 8.80802C22.0189 7.7476 21.5982 6.73052 20.849 5.98002C20.3516 5.48254 19.7301 5.12725 19.049 4.95102ZM19.436 10.222C18.68 10.977 17.363 10.978 16.607 10.222L15.9 9.51502L9.53701 15.879L10.244 16.586C10.6182 16.9615 10.8283 17.4699 10.8283 18C10.8283 18.5301 10.6182 19.0386 10.244 19.414C9.48701 20.171 8.17001 20.169 7.41501 19.414C7.06685 19.0646 6.863 18.5969 6.84401 18.104L6.79701 17.204L5.89701 17.157C5.40431 17.1372 4.93693 16.9334 4.58701 16.586C4.2125 16.2105 4.00218 15.7018 4.00218 15.1715C4.00218 14.6412 4.2125 14.1325 4.58701 13.757C4.96401 13.38 5.46601 13.172 6.00001 13.172C6.53401 13.172 7.03601 13.38 7.41401 13.757L8.12101 14.464L14.485 8.10102L13.778 7.39402C13.4035 7.01853 13.1932 6.50985 13.1932 5.97952C13.1932 5.44919 13.4035 4.9405 13.778 4.56502C14.534 3.81102 15.85 3.81102 16.606 4.56502C16.949 4.90802 17.152 5.37402 17.178 5.87702L17.226 6.77402L18.123 6.82202C18.626 6.84802 19.092 7.05102 19.435 7.39402C19.812 7.77202 20.02 8.27402 20.02 8.80802C20.02 9.34202 19.813 9.84402 19.436 10.222Z" fill="black"/>
</svg>
