<svg width="24" height="24" viewBox="0 0 24 24" fill="none" xmlns="http://www.w3.org/2000/svg">
<path d="M21.004 7.975V6C21.004 3.794 19.21 2 17.004 2H7.004C4.798 2 3.004 3.794 3.004 6V7.998L2.928 8.002C2.6758 8.02021 2.43986 8.13328 2.26768 8.31845C2.09549 8.50362 1.99985 8.74714 2 9V11C2 11.2652 2.10536 11.5196 2.29289 11.7071C2.48043 11.8946 2.73478 12 3 12H3.004V18C3.004 18.735 3.407 19.372 4 19.72V21C4 21.2652 4.10536 21.5196 4.29289 21.7071C4.48043 21.8946 4.73478 22 5 22H6C6.26522 22 6.51957 21.8946 6.70711 21.7071C6.89464 21.5196 7 21.2652 7 21V20H17V21C17 21.2652 17.1054 21.5196 17.2929 21.7071C17.4804 21.8946 17.7348 22 18 22H19C19.2652 22 19.5196 21.8946 19.7071 21.7071C19.8946 21.5196 20 21.2652 20 21V19.724C20.304 19.5501 20.5569 19.2992 20.7331 18.9966C20.9094 18.6939 21.0028 18.3502 21.004 18V12C21.2692 12 21.5236 11.8946 21.7111 11.7071C21.8986 11.5196 22.004 11.2652 22.004 11V9.062C22.0155 8.90681 21.9909 8.75106 21.932 8.607C21.729 8.12 21.297 8.003 21.004 7.975ZM19.006 18H5.004V13H19.005L19.006 18ZM11.004 7V11H5.004V7H11.004ZM19.004 7V11H13.004V7H19.004ZM7.004 4H17.004C17.74 4 18.379 4.405 18.726 5H5.282C5.629 4.405 6.268 4 7.004 4Z" fill="black"/>
<path d="M7.5 17C8.32843 17 9 16.3284 9 15.5C9 14.6716 8.32843 14 7.5 14C6.67157 14 6 14.6716 6 15.5C6 16.3284 6.67157 17 7.5 17Z" fill="black"/>
<path d="M16.5 17C17.3284 17 18 16.3284 18 15.5C18 14.6716 17.3284 14 16.5 14C15.6716 14 15 14.6716 15 15.5C15 16.3284 15.6716 17 16.5 17Z" fill="black"/>
</svg>
