<svg width="24" height="24" viewBox="0 0 24 24" fill="none" xmlns="http://www.w3.org/2000/svg">
<path d="M3.76001 21C5.07264 21.295 6.41466 21.4393 7.76001 21.43C11.4275 21.5601 14.9974 20.2335 17.69 17.74C23 12.37 21.06 4.10998 21 3.75998C20.9588 3.5741 20.8654 3.40383 20.7308 3.2692C20.5962 3.13457 20.4259 3.04117 20.24 2.99999C18.9271 2.70688 17.5853 2.56264 16.24 2.56998C14.4171 2.50044 12.5985 2.79246 10.8891 3.42921C9.17964 4.06597 7.61317 5.03485 6.28001 6.27999C0.940009 11.63 2.94001 19.89 3.00001 20.24C3.0412 20.4259 3.13459 20.5961 3.26922 20.7308C3.40385 20.8654 3.57412 20.9588 3.76001 21ZM7.70001 7.69999C10.0099 5.58655 13.0618 4.4722 16.19 4.59998C17.1953 4.59734 18.199 4.68098 19.19 4.84998C19.5 6.71999 20.1 12.52 16.33 16.29C14.0039 18.4173 10.9293 19.5356 7.78001 19.4C6.79799 19.4006 5.81772 19.317 4.85001 19.15C4.53001 17.27 3.93001 11.48 7.70001 7.69999Z" fill="black"/>
<path d="M7.29001 15.29L8.71001 16.71L10.5 14.92L12.29 16.71L13.71 15.29L11.91 13.5L13.5 11.91L15.29 13.71L16.71 12.29L14.91 10.5L16.71 8.70998L15.29 7.28998L13.5 9.08998L11.71 7.28998L10.29 8.70998L12.09 10.5L10.5 12.09L8.71001 10.29L7.29001 11.71L9.09001 13.5L7.29001 15.29Z" fill="black"/>
</svg>
