<svg width="24" height="24" viewBox="0 0 24 24" fill="none" xmlns="http://www.w3.org/2000/svg">
<path d="M7.64001 21.71C9.76029 21.6615 11.7745 20.7731 13.24 19.24L19.24 13.24C22.11 10.37 22.55 6.13003 20.24 3.79003C17.93 1.45003 13.66 1.88003 10.79 4.79003L4.79001 10.79C1.92001 13.66 1.48001 17.9 3.79001 20.24C4.30365 20.726 4.90806 21.106 5.56868 21.3583C6.2293 21.6105 6.93316 21.73 7.64001 21.71ZM5.64001 12.71L8.42001 15.5L9.84001 14.08L7.05001 11.29L8.46001 9.88003L11.29 12.71L12.71 11.29L9.88001 8.46003L11.29 7.05003L14.12 9.88003L15.54 8.46003L12.75 5.68003C14.75 4.07003 17.4 3.81003 18.75 5.21003C20.1 6.61003 19.84 9.77003 17.75 11.83L11.75 17.83C9.69001 19.88 6.66001 20.33 5.13001 18.83C3.60001 17.33 4.07001 14.76 5.68001 12.75L5.64001 12.71Z" fill="black"/>
</svg>
