<svg width="24" height="24" viewBox="0 0 24 24" fill="none" xmlns="http://www.w3.org/2000/svg">
<path d="M21.598 11.064C21.4776 10.9732 21.3384 10.9105 21.1906 10.8808C21.0428 10.851 20.8901 10.8548 20.744 10.892C20.5016 10.9597 20.2516 10.996 20 11C18.346 11 17 9.65399 16.997 8.06299C17.002 8.02899 17.013 7.92699 17.014 7.89299C17.0205 7.73666 16.9902 7.58098 16.9255 7.43852C16.8607 7.29606 16.7634 7.17082 16.6414 7.07291C16.5193 6.975 16.376 6.90715 16.2229 6.87486C16.0698 6.84256 15.9112 6.84672 15.76 6.88699C15.5126 6.95748 15.2572 6.99547 15 6.99999C13.346 6.99999 12 5.65399 12 3.99999C12 3.78299 12.031 3.55599 12.099 3.28399C12.1375 3.12873 12.1382 2.96651 12.101 2.81093C12.0638 2.65535 11.9899 2.51096 11.8854 2.38987C11.7808 2.26879 11.6488 2.17455 11.5003 2.11506C11.3518 2.05557 11.1912 2.03257 11.032 2.04799C8.55546 2.27881 6.25502 3.42826 4.58345 5.27009C2.91188 7.11193 1.99027 9.51274 2 12C2 17.514 6.486 22 12 22C17.514 22 22 17.514 22 12C22 11.951 21.997 11.903 21.993 11.84C21.9896 11.6893 21.9524 11.5413 21.884 11.4069C21.8156 11.2726 21.7179 11.1554 21.598 11.064ZM12 20C7.589 20 4 16.411 4 12C3.99286 10.2233 4.5802 8.49522 5.66855 7.09084C6.7569 5.68646 8.28371 4.68646 10.006 4.24999C10.0716 5.53073 10.6262 6.73745 11.5554 7.62127C12.4846 8.50509 13.7176 8.9986 15 8.99999L15.101 8.99899C15.3305 10.1172 15.9352 11.1235 16.8149 11.851C17.6946 12.5785 18.7965 12.9835 19.938 12.999C19.444 16.941 16.073 20 12 20Z" fill="black"/>
<path d="M12.5 13C13.3284 13 14 12.3284 14 11.5C14 10.6716 13.3284 10 12.5 10C11.6716 10 11 10.6716 11 11.5C11 12.3284 11.6716 13 12.5 13Z" fill="black"/>
<path d="M8.5 10C9.32843 10 10 9.32843 10 8.5C10 7.67157 9.32843 7 8.5 7C7.67157 7 7 7.67157 7 8.5C7 9.32843 7.67157 10 8.5 10Z" fill="black"/>
<path d="M7.5 14C8.32843 14 9 13.3284 9 12.5C9 11.6716 8.32843 11 7.5 11C6.67157 11 6 11.6716 6 12.5C6 13.3284 6.67157 14 7.5 14Z" fill="black"/>
<path d="M15.5 17C16.3284 17 17 16.3284 17 15.5C17 14.6716 16.3284 14 15.5 14C14.6716 14 14 14.6716 14 15.5C14 16.3284 14.6716 17 15.5 17Z" fill="black"/>
<path d="M10.5 18C11.3284 18 12 17.3284 12 16.5C12 15.6716 11.3284 15 10.5 15C9.67157 15 9 15.6716 9 16.5C9 17.3284 9.67157 18 10.5 18Z" fill="black"/>
</svg>
