<svg width="24" height="24" viewBox="0 0 24 24" fill="none" xmlns="http://www.w3.org/2000/svg">
<path d="M20.916 9.56402C20.9688 9.44394 20.9975 9.31462 21.0003 9.18347C21.0031 9.05231 20.98 8.92189 20.9323 8.79966C20.8847 8.67743 20.8134 8.5658 20.7226 8.47114C20.6318 8.37648 20.5232 8.30066 20.403 8.24802L7.328 2.49202C6.333 2.05402 5.108 2.54302 4.683 3.53402L2.473 8.68802C2.26509 9.17554 2.25909 9.72564 2.45632 10.2176C2.65354 10.7095 3.03789 11.1031 3.525 11.312L9.563 13.9L8.323 17H4V14H2V22H4V19H8.323C9.146 19 9.875 18.506 10.179 17.742L11.401 14.688L16.606 16.918C16.8484 17.022 17.1221 17.0261 17.3674 16.9292C17.6128 16.8324 17.81 16.6425 17.916 16.401L18.228 15.691L19.929 16.371L21.929 11.371L20.393 10.758L20.916 9.56402ZM16.482 14.69L4.313 9.47502L6.521 4.32302L18.683 9.67702L16.482 14.69Z" fill="black"/>
</svg>
