<svg width="24" height="24" viewBox="0 0 24 24" fill="none" xmlns="http://www.w3.org/2000/svg">
<path d="M21 5H3C2.73478 5 2.48043 5.10536 2.29289 5.29289C2.10536 5.48043 2 5.73478 2 6V10H2.893C3.889 10 4.813 10.681 4.973 11.664C5.02174 11.951 5.00726 12.2453 4.93056 12.5261C4.85387 12.807 4.71681 13.0677 4.52894 13.2902C4.34108 13.5126 4.10694 13.6913 3.84287 13.8139C3.57879 13.9365 3.29115 14 3 14H2V18C2 18.2652 2.10536 18.5196 2.29289 18.7071C2.48043 18.8946 2.73478 19 3 19H21C21.2652 19 21.5196 18.8946 21.7071 18.7071C21.8946 18.5196 22 18.2652 22 18V14H21C20.7089 14 20.4212 13.9365 20.1571 13.8139C19.8931 13.6913 19.6589 13.5126 19.4711 13.2902C19.2832 13.0677 19.1461 12.807 19.0694 12.5261C18.9927 12.2453 18.9783 11.951 19.027 11.664C19.187 10.681 20.111 10 21.107 10H22V6C22 5.73478 21.8946 5.48043 21.7071 5.29289C21.5196 5.10536 21.2652 5 21 5ZM11 17H9V15H11V17ZM11 13H9V11H11V13ZM11 9H9V7H11V9Z" fill="black"/>
</svg>
