<svg width="24" height="24" viewBox="0 0 24 24" fill="none" xmlns="http://www.w3.org/2000/svg">
<path d="M6 18C7.43822 17.7865 8.75171 17.0629 9.70082 15.9615C10.6499 14.86 11.1714 13.454 11.17 12C11.1772 10.1748 11.8393 8.41289 13.0359 7.03466C14.2324 5.65642 15.8839 4.75345 17.69 4.48999L20.28 4.11999C20.21 4.03999 20.15 3.95999 20.07 3.87999C16.81 0.61999 10.55 1.59999 6.07 6.05999C2.28 9.89999 1 15 2.76 18.46L6 18Z" fill="black"/>
<path d="M12.73 12C12.7235 13.8248 12.0631 15.5869 10.8687 16.9665C9.67438 18.3462 8.02508 19.2521 6.22001 19.52L3.76001 19.87L3.91001 20.04C7.17001 23.3 13.43 22.33 17.91 17.87C21.68 14.11 23 9 21.25 5.59L17.91 6.07C16.481 6.27759 15.1733 6.98947 14.2233 8.07701C13.2733 9.16455 12.7437 10.556 12.73 12Z" fill="black"/>
</svg>
