<svg width="24" height="24" viewBox="0 0 24 24" fill="none" xmlns="http://www.w3.org/2000/svg">
<path d="M17.895 3.553C17.8118 3.38684 17.6841 3.24711 17.526 3.14944C17.3679 3.05177 17.1858 3.00003 17 3H6.99998C6.62098 3 6.27498 3.214 6.10498 3.553L2.10498 11.553C2.03546 11.6919 1.99927 11.8451 1.99927 12.0005C1.99927 12.1559 2.03546 12.3091 2.10498 12.448L6.10498 20.448C6.27498 20.786 6.62098 21 6.99998 21H17C17.379 21 17.725 20.786 17.895 20.447L21.895 12.447C21.9645 12.3081 22.0007 12.1549 22.0007 11.9995C22.0007 11.8441 21.9645 11.6909 21.895 11.552L17.895 3.553ZM19.382 11H11.618L8.61798 5H16.382L19.382 11ZM4.11798 12L6.99998 6.236L9.88198 12L6.99998 17.764L4.11798 12ZM16.382 19H8.61798L11.618 13H19.382L16.382 19Z" fill="black"/>
</svg>
