<svg width="24" height="24" viewBox="0 0 24 24" fill="none" xmlns="http://www.w3.org/2000/svg">
<path d="M12 22C17.131 22 21 20.065 21 17.5V7H20.947C20.98 6.836 21 6.67 21 6.5C21 3.935 17.131 2 12 2C7.209 2 3.52 3.688 3.053 6H3V17.5C3 20.065 6.869 22 12 22ZM12 20C7.727 20 5 18.52 5 17.5V9.394C6.623 10.387 9.111 11 12 11C14.889 11 17.377 10.387 19 9.394V17.5C19 18.52 16.273 20 12 20ZM12 4C16.273 4 19 5.48 19 6.5C19 7.52 16.273 9 12 9C7.727 9 5 7.52 5 6.5C5 5.48 7.727 4 12 4Z" fill="black"/>
</svg>
