<svg width="24" height="24" viewBox="0 0 24 24" fill="none" xmlns="http://www.w3.org/2000/svg">
<path d="M8.01401 12.135C8.08801 14.197 9.80301 15.912 11.865 15.986L8.01401 12.135Z" fill="black"/>
<path d="M4 20H15.879L13.879 18H4V8.121L2.144 6.265C2.04958 6.49858 2.0007 6.74806 2 7V18C2 19.103 2.897 20 4 20ZM20 5H17.414L14.707 2.293C14.6143 2.19996 14.5041 2.12617 14.3828 2.07589C14.2614 2.0256 14.1313 1.99981 14 2H10C9.86866 1.99987 9.7386 2.02568 9.61727 2.07596C9.49594 2.12624 9.38574 2.2 9.293 2.293L6.586 5H6.414L3.707 2.293L2.293 3.707L20.293 21.707L21.707 20.293L21.081 19.667C21.3619 19.4887 21.5933 19.2425 21.754 18.9512C21.9146 18.6598 21.9992 18.3327 22 18V7C22 5.897 21.103 5 20 5ZM13.919 12.505L11.495 10.08C11.658 10.034 11.826 10 12 10C13.065 10 14 10.935 14 12C14 12.174 13.967 12.342 13.919 12.505ZM15.421 14.006C15.7936 13.4028 15.9939 12.709 16 12C16 9.832 14.168 8 12 8C11.271 8 10.588 8.22 9.993 8.579L7.914 6.5L10.414 4H13.586L16.293 6.707C16.3857 6.80004 16.4959 6.87383 16.6172 6.92412C16.7386 6.9744 16.8687 7.00019 17 7L20 6.999V18H19.414L15.421 14.006Z" fill="black"/>
</svg>
