<svg width="24" height="24" viewBox="0 0 24 24" fill="none" xmlns="http://www.w3.org/2000/svg">
<path d="M19.07 4.93001C17.184 3.10843 14.658 2.10049 12.036 2.12327C9.41403 2.14606 6.90591 3.19775 5.05183 5.05183C3.19775 6.90591 2.14606 9.41403 2.12327 12.036C2.10049 14.658 3.10843 17.184 4.93001 19.07C6.81603 20.8916 9.34206 21.8995 11.964 21.8768C14.586 21.854 17.0941 20.8023 18.9482 18.9482C20.8023 17.0941 21.854 14.586 21.8768 11.964C21.8995 9.34206 20.8916 6.81603 19.07 4.93001ZM6.34001 6.34001C7.4667 5.21286 8.90437 4.44791 10.4687 4.14324C12.033 3.83857 13.6527 4.00807 15.12 4.63001L14.83 4.93001L15.54 5.64001L16.06 5.11001C16.3499 5.28495 16.6303 5.47522 16.9 5.68001L5.68001 16.9C5.47522 16.6303 5.28495 16.3499 5.11001 16.06L5.64001 15.54L4.93001 14.83L4.64001 15.12C4.01683 13.6536 3.84571 12.0345 4.14858 10.4703C4.45146 8.90602 5.21453 7.46782 6.34001 6.34001ZM17.66 17.66C16.5333 18.7872 15.0957 19.5521 13.5313 19.8568C11.967 20.1615 10.3474 19.992 8.88001 19.37L9.17001 19.07L8.46001 18.36L7.94001 18.89C7.65008 18.7151 7.36969 18.5248 7.10001 18.32L18.32 7.10001C18.5248 7.36969 18.7151 7.65008 18.89 7.94001L18.36 8.46001L19.07 9.17001L19.36 8.88001C19.9832 10.3464 20.1543 11.9655 19.8514 13.5297C19.5486 15.094 18.7855 16.5322 17.66 17.66ZM11.29 15.54L12 16.24L10.59 17.66L9.88001 17L11.29 15.54ZM14.12 12.71L14.83 13.41L13.41 14.83L12.71 14.12L14.12 12.71ZM17 9.88001L17.71 10.59L16.24 12L15.54 11.29L17 9.88001ZM12.71 8.46001L12 7.76001L13.41 6.34001L14.12 7.05001L12.71 8.46001ZM9.88001 11.29L9.17001 10.59L10.59 9.17001L11.29 9.88001L9.88001 11.29ZM7.05001 14.12L6.34001 13.41L7.76001 12L8.46001 12.71L7.05001 14.12Z" fill="black"/>
</svg>
