<svg width="24" height="24" viewBox="0 0 24 24" fill="none" xmlns="http://www.w3.org/2000/svg">
<path d="M18.125 2H5.875C5.37788 2.00053 4.90128 2.19824 4.54976 2.54976C4.19824 2.90128 4.00053 3.37788 4 3.875V16.125C4 17.159 4.841 18 5.875 18H11V20H7V22H17V20H13V18H18.125C18.6221 17.9995 19.0987 17.8018 19.4502 17.4502C19.8018 17.0987 19.9995 16.6221 20 16.125V3.875C19.9995 3.37788 19.8018 2.90128 19.4502 2.54976C19.0987 2.19824 18.6221 2.00053 18.125 2ZM18 16H6V4H18V16Z" fill="black"/>
<path d="M12 14C14.206 14 16 12.206 16 10C16 7.794 14.206 6 12 6C9.794 6 8 7.794 8 10C8 12.206 9.794 14 12 14ZM12 8C13.103 8 14 8.897 14 10C14 11.103 13.103 12 12 12C10.897 12 10 11.103 10 10C10 8.897 10.897 8 12 8Z" fill="black"/>
</svg>
