<svg width="24" height="24" viewBox="0 0 24 24" fill="none" xmlns="http://www.w3.org/2000/svg">
<path d="M16.707 2.293C16.6143 2.19996 16.5041 2.12617 16.3827 2.07589C16.2614 2.0256 16.1313 1.99981 16 2H7.99998C7.58598 2 7.21498 2.255 7.06598 2.641L2.06598 15.641C1.99652 15.8216 1.981 16.0184 2.0213 16.2077C2.06159 16.3969 2.15598 16.5704 2.29298 16.707L7.29298 21.707C7.38568 21.8 7.49587 21.8738 7.61721 21.9241C7.73855 21.9744 7.86863 22.0002 7.99998 22H16C16.414 22 16.785 21.745 16.934 21.359L21.934 8.359C22.0034 8.17842 22.0189 7.98155 21.9787 7.79232C21.9384 7.60308 21.844 7.42962 21.707 7.293L16.707 2.293ZM18.585 7H13.414L10.414 4H15.586L18.585 7ZM8.38098 4.795L11.819 8.233L7.35698 18.943L4.16698 15.752L8.38098 4.795ZM15.313 20H9.08298L13.666 9H19.544L15.313 20Z" fill="black"/>
</svg>
