<svg width="24" height="24" viewBox="0 0 24 24" fill="none" xmlns="http://www.w3.org/2000/svg">
<path d="M15.5 16C16.8807 16 18 14.8807 18 13.5C18 12.1193 16.8807 11 15.5 11C14.1193 11 13 12.1193 13 13.5C13 14.8807 14.1193 16 15.5 16Z" fill="black"/>
<path d="M12 13.5C12 12.685 12.396 11.968 13 11.512C12.5698 11.1812 12.0427 11.0013 11.5 11C10.837 11 10.2011 11.2634 9.73223 11.7322C9.26339 12.2011 9 12.837 9 13.5C9 14.163 9.26339 14.7989 9.73223 15.2678C10.2011 15.7366 10.837 16 11.5 16C12.0427 15.9987 12.5698 15.8188 13 15.488C12.6903 15.2571 12.4387 14.9572 12.2651 14.6121C12.0916 14.2671 12.0008 13.8863 12 13.5Z" fill="black"/>
<path d="M20 4H4C2.897 4 2 4.897 2 6V18C2 19.103 2.897 20 4 20H20C21.103 20 22 19.103 22 18V6C22 4.897 21.103 4 20 4ZM4 18V6H20L20.002 18H4Z" fill="black"/>
</svg>
