<svg width="24" height="24" viewBox="0 0 24 24" fill="none" xmlns="http://www.w3.org/2000/svg">
<path d="M12 8C13.1046 8 14 7.10457 14 6C14 4.89543 13.1046 4 12 4C10.8954 4 10 4.89543 10 6C10 7.10457 10.8954 8 12 8Z" fill="black"/>
<path d="M14 9H10C9.84477 9 9.69165 9.03614 9.5528 9.10557C9.41394 9.175 9.29316 9.2758 9.20001 9.4L6.20001 13.4L7.80001 14.6L9.00001 13V20H11V16H13V20H15V13L16.2 14.6L17.8 13.4L14.8 9.4C14.7069 9.2758 14.5861 9.175 14.4472 9.10557C14.3084 9.03614 14.1553 9 14 9Z" fill="black"/>
</svg>
