<svg width="24" height="24" viewBox="0 0 24 24" fill="none" xmlns="http://www.w3.org/2000/svg">
<path d="M12 2C10.0222 2 8.08879 2.58649 6.4443 3.6853C4.79981 4.78412 3.51809 6.3459 2.76121 8.17317C2.00433 10.0004 1.8063 12.0111 2.19215 13.9509C2.578 15.8907 3.53041 17.6725 4.92894 19.0711C6.32746 20.4696 8.10929 21.422 10.0491 21.8079C11.9889 22.1937 13.9996 21.9957 15.8268 21.2388C17.6541 20.4819 19.2159 19.2002 20.3147 17.5557C21.4135 15.9112 22 13.9778 22 12C22 10.6868 21.7413 9.38642 21.2388 8.17317C20.7363 6.95991 19.9997 5.85752 19.0711 4.92893C18.1425 4.00035 17.0401 3.26375 15.8268 2.7612C14.6136 2.25866 13.3132 2 12 2ZM12 15C11.4067 15 10.8266 14.8241 10.3333 14.4944C9.83995 14.1648 9.45543 13.6962 9.22837 13.1481C9.0013 12.5999 8.94189 11.9967 9.05765 11.4147C9.1734 10.8328 9.45913 10.2982 9.87868 9.87868C10.2982 9.45912 10.8328 9.1734 11.4147 9.05764C11.9967 8.94189 12.5999 9.0013 13.1481 9.22836C13.6962 9.45542 14.1648 9.83994 14.4944 10.3333C14.8241 10.8266 15 11.4067 15 12C15 12.7956 14.6839 13.5587 14.1213 14.1213C13.5587 14.6839 12.7957 15 12 15ZM14.75 7.83C14.2186 7.47727 13.6246 7.22948 13 7.1V4.1C14.4224 4.27804 15.7701 4.83784 16.9 5.72L14.75 7.83ZM11 7.1C10.3754 7.22948 9.78144 7.47727 9.25 7.83L7.1 5.69C8.22993 4.80784 9.5776 4.24804 11 4.07V7.1ZM7.83 9.25C7.47728 9.78143 7.22949 10.3754 7.1 11H4.1C4.26927 9.58057 4.8186 8.23317 5.69 7.1L7.83 9.25ZM7.1 13C7.22949 13.6246 7.47728 14.2186 7.83 14.75L5.69 16.9C4.80785 15.7701 4.24805 14.4224 4.07 13H7.1ZM9.25 16.17C9.78144 16.5227 10.3754 16.7705 11 16.9V19.9C9.5776 19.722 8.22993 19.1622 7.1 18.28L9.25 16.17ZM13 16.9C13.6246 16.7705 14.2186 16.5227 14.75 16.17L16.9 18.31C15.7701 19.1922 14.4224 19.752 13 19.93V16.9ZM16.17 14.75C16.5227 14.2186 16.7705 13.6246 16.9 13H19.9C19.722 14.4224 19.1622 15.7701 18.28 16.9L16.17 14.75ZM16.9 11C16.7705 10.3754 16.5227 9.78143 16.17 9.25L18.31 7.1C19.1922 8.22993 19.752 9.5776 19.93 11H16.9Z" fill="black"/>
</svg>
