<svg width="24" height="24" viewBox="0 0 24 24" fill="none" xmlns="http://www.w3.org/2000/svg">
<path d="M12.707 2.29299C12.6142 2.20004 12.504 2.1263 12.3827 2.07599C12.2613 2.02568 12.1313 1.99979 12 1.99979C11.8686 1.99979 11.7386 2.02568 11.6173 2.07599C11.496 2.1263 11.3858 2.20004 11.293 2.29299L2.29297 11.293C2.15316 11.4328 2.05795 11.611 2.01939 11.805C1.98082 11.9989 2.00062 12.1999 2.07629 12.3826C2.15196 12.5653 2.2801 12.7215 2.44451 12.8314C2.60892 12.9413 2.80222 12.9999 2.99997 13H3.99997V20C3.99997 21.103 4.89697 22 5.99997 22H18C19.103 22 20 21.103 20 20V13H21C21.1979 13.0004 21.3916 12.942 21.5563 12.8322C21.721 12.7224 21.8494 12.5662 21.9251 12.3833C22.0009 12.2004 22.0206 11.9991 21.9818 11.805C21.9429 11.6109 21.8473 11.4327 21.707 11.293L12.707 2.29299ZM18.001 20H5.99997V10.414L12 4.41399L18 10.414V15L18.001 20Z" fill="black"/>
<path d="M13 10H11V13H8V15H11V18H13V15H16V13H13V10Z" fill="black"/>
</svg>
