<svg width="24" height="24" viewBox="0 0 24 24" fill="none" xmlns="http://www.w3.org/2000/svg">
<path d="M8.99902 20.133C9.656 20.1347 10.3068 20.0061 10.9137 19.7546C11.5207 19.5032 12.0717 19.1338 12.535 18.668L19.669 11.535C20.6051 10.5962 21.1307 9.32454 21.1306 7.99879C21.1304 6.67305 20.6044 5.4015 19.668 4.463C18.723 3.52 17.467 3 16.132 3C14.797 3 13.541 3.52 12.598 4.464L5.46402 11.598C4.52825 12.5369 4.00281 13.8084 4.00281 15.134C4.00281 16.4596 4.52825 17.7311 5.46402 18.67C5.92738 19.1353 6.47836 19.5042 7.08511 19.7553C7.69186 20.0064 8.34236 20.1348 8.99902 20.133ZM14.012 5.878C14.2898 5.59877 14.6202 5.3774 14.9841 5.22669C15.348 5.07598 15.7382 4.99893 16.132 5C16.934 5 17.688 5.313 18.254 5.878C18.8159 6.44101 19.1315 7.20388 19.1317 7.99929C19.1319 8.79471 18.8166 9.55773 18.255 10.121L15.362 13.013L11.12 8.77L14.012 5.878ZM6.87802 13.012L9.70602 10.184L13.948 14.427L11.121 17.254C9.98802 18.387 8.01102 18.386 6.87802 17.255C6.31652 16.6917 6.00123 15.9288 6.00123 15.1335C6.00123 14.3382 6.31652 13.5753 6.87802 13.012Z" fill="black"/>
</svg>
