<svg width="24" height="24" viewBox="0 0 24 24" fill="none" xmlns="http://www.w3.org/2000/svg">
<path d="M20.995 6.89998C20.9784 6.73193 20.9194 6.57084 20.8235 6.4318C20.7277 6.29276 20.5981 6.18031 20.447 6.10498L12.447 2.10498C12.3081 2.03546 12.1549 1.99927 11.9995 1.99927C11.8442 1.99927 11.6909 2.03546 11.552 2.10498L3.552 6.10498C3.40128 6.18074 3.27212 6.29332 3.17649 6.4323C3.08087 6.57127 3.02189 6.73214 3.005 6.89998C2.994 7.00698 2.044 17.667 11.594 21.914C11.7216 21.9716 11.86 22.0014 12 22.0014C12.14 22.0014 12.2784 21.9716 12.406 21.914C21.956 17.667 21.006 7.00798 20.995 6.89998ZM12 19.897C5.231 16.625 4.911 9.64198 4.966 7.63498L12 4.11798L19.029 7.63298C19.066 9.62198 18.701 16.651 12 19.897Z" fill="black"/>
<path d="M11 12.586L8.70703 10.293L7.29303 11.707L11 15.414L16.707 9.70703L15.293 8.29303L11 12.586Z" fill="black"/>
</svg>
