<svg width="24" height="24" viewBox="0 0 24 24" fill="none" xmlns="http://www.w3.org/2000/svg">
<path d="M12 2H11V11H2V12C2.00042 13.9775 2.58714 15.9105 3.68598 17.5546C4.78483 19.1987 6.34646 20.4801 8.17345 21.2368C10.0005 21.9935 12.0108 22.1915 13.9503 21.8058C15.8898 21.4202 17.6715 20.4681 19.07 19.07C20.4681 17.6715 21.4202 15.8898 21.8058 13.9503C22.1915 12.0108 21.9935 10.0005 21.2368 8.17345C20.4801 6.34646 19.1987 4.78483 17.5546 3.68598C15.9105 2.58714 13.9775 2.00042 12 2ZM17.66 17.66C16.6015 18.7203 15.2665 19.4621 13.8071 19.8009C12.3477 20.1396 10.8224 20.0617 9.40509 19.5761C7.98775 19.0904 6.73527 18.2165 5.79028 17.0539C4.84529 15.8913 4.24577 14.4867 4.06 13H13V4.06C14.4867 4.24577 15.8913 4.84529 17.0539 5.79028C18.2165 6.73527 19.0904 7.98775 19.5761 9.40509C20.0617 10.8224 20.1396 12.3477 19.8009 13.8071C19.4621 15.2665 18.7203 16.6015 17.66 17.66Z" fill="black"/>
</svg>
