<svg width="24" height="24" viewBox="0 0 24 24" fill="none" xmlns="http://www.w3.org/2000/svg">
<path d="M21.447 14.105L18 12.382V12C18 11.8274 17.9553 11.6578 17.8703 11.5077C17.7853 11.3575 17.6629 11.2319 17.515 11.143L13 8.434V6H15V4H13V2H11V4H9V6H11V8.434L6.485 11.143C6.33709 11.2319 6.21469 11.3575 6.1297 11.5077C6.04472 11.6578 6.00003 11.8274 6 12V12.382L2.553 14.106C2.38677 14.1888 2.24695 14.3164 2.14925 14.4743C2.05156 14.6322 1.99987 14.8143 2 15V21C2 21.2652 2.10536 21.5196 2.29289 21.7071C2.48043 21.8946 2.73478 22 3 22H21C21.2652 22 21.5196 21.8946 21.7071 21.7071C21.8946 21.5196 22 21.2652 22 21V15C22 14.621 21.786 14.275 21.447 14.105ZM4 15.618L6 14.618V20H4V15.618ZM12 15C11.4696 15 10.9609 15.2107 10.5858 15.5858C10.2107 15.9609 10 16.4696 10 17V20H8V12.566L12 10.166L16 12.566V20H14V17C14 16.4696 13.7893 15.9609 13.4142 15.5858C13.0391 15.2107 12.5304 15 12 15ZM20 20H18V14.618L20 15.618V20Z" fill="black"/>
</svg>
