<svg width="24" height="24" viewBox="0 0 24 24" fill="none" xmlns="http://www.w3.org/2000/svg">
<path d="M11 15.414V20H13V15.414C13 14.888 12.786 14.372 12.414 14L10.414 12L13 9.41399L15 11.414C15.372 11.786 15.888 12 16.414 12H20V9.99999H16.414L12.707 6.29299C12.6142 6.20004 12.504 6.1263 12.3827 6.07599C12.2614 6.02568 12.1313 5.99979 12 5.99979C11.8687 5.99979 11.7386 6.02568 11.6173 6.07599C11.496 6.1263 11.3858 6.20004 11.293 6.29299L8 9.58599C7.622 9.96399 7.414 10.466 7.414 11C7.414 11.534 7.622 12.036 8 12.414L11 15.414Z" fill="black"/>
<path d="M16 7C17.1046 7 18 6.10457 18 5C18 3.89543 17.1046 3 16 3C14.8954 3 14 3.89543 14 5C14 6.10457 14.8954 7 16 7Z" fill="black"/>
<path d="M18 14C15.794 14 14 15.794 14 18C14 20.206 15.794 22 18 22C20.206 22 22 20.206 22 18C22 15.794 20.206 14 18 14ZM18 20C16.897 20 16 19.103 16 18C16 16.897 16.897 16 18 16C19.103 16 20 16.897 20 18C20 19.103 19.103 20 18 20ZM6 22C8.206 22 10 20.206 10 18C10 15.794 8.206 14 6 14C3.794 14 2 15.794 2 18C2 20.206 3.794 22 6 22ZM6 16C7.103 16 8 16.897 8 18C8 19.103 7.103 20 6 20C4.897 20 4 19.103 4 18C4 16.897 4.897 16 6 16Z" fill="black"/>
</svg>
