<svg width="24" height="24" viewBox="0 0 24 24" fill="none" xmlns="http://www.w3.org/2000/svg">
<path d="M2.06001 14.68C2.12892 14.9325 2.29407 15.1479 2.52001 15.28L4.43001 16.39V18.59C4.43001 18.8552 4.53537 19.1096 4.7229 19.2971C4.91044 19.4847 5.16479 19.59 5.43001 19.59H7.63001L8.74001 21.5C8.82726 21.6512 8.95255 21.7768 9.10342 21.8645C9.2543 21.9523 9.4255 21.999 9.60001 22C9.77949 22 9.95565 21.9516 10.11 21.86L12.01 20.76L13.92 21.86C14.0335 21.9265 14.1591 21.97 14.2895 21.9879C14.4198 22.0058 14.5525 21.9978 14.6797 21.9644C14.807 21.931 14.9264 21.8727 15.0312 21.793C15.1359 21.7133 15.2238 21.6138 15.29 21.5L16.39 19.59H18.59C18.8552 19.59 19.1096 19.4847 19.2971 19.2971C19.4847 19.1096 19.59 18.8552 19.59 18.59V16.39L21.5 15.28C21.7287 15.1481 21.896 14.9311 21.9653 14.6763C22.0346 14.4215 22.0004 14.1496 21.87 13.92L20.76 12L21.87 10.09C22.0004 9.8604 22.0346 9.58854 21.9653 9.33375C21.896 9.07897 21.7287 8.86193 21.5 8.73002L19.59 7.63002V5.43002C19.59 5.1648 19.4847 4.91045 19.2971 4.72291C19.1096 4.53537 18.8552 4.43002 18.59 4.43002H16.39L15.29 2.52002C15.1556 2.29199 14.9362 2.12657 14.68 2.06002C14.553 2.02588 14.4205 2.01714 14.29 2.0343C14.1596 2.05146 14.0339 2.09418 13.92 2.16002L12 3.26002L10.1 2.16002C9.8716 2.0288 9.60064 1.99301 9.346 2.06042C9.09135 2.12783 8.87359 2.29298 8.74001 2.52002L7.63001 4.43002H5.43001C5.16479 4.43002 4.91044 4.53537 4.7229 4.72291C4.53537 4.91045 4.43001 5.1648 4.43001 5.43002V7.63002L2.53001 8.73002C2.41542 8.79535 2.31489 8.8827 2.23421 8.98705C2.15352 9.09139 2.09428 9.21067 2.05989 9.33801C2.0255 9.46535 2.01664 9.59824 2.03382 9.72902C2.051 9.8598 2.09389 9.98588 2.16001 10.1L3.26001 12L2.16001 13.91C2.09284 14.0252 2.0494 14.1527 2.03222 14.2849C2.01505 14.4171 2.0245 14.5515 2.06001 14.68ZM5.28001 11.51L4.39001 10L5.94001 9.10002C6.08929 9.01151 6.21296 8.88568 6.29887 8.73489C6.38479 8.58411 6.42998 8.41356 6.43001 8.24002V6.43002H8.21001C8.38622 6.43072 8.55948 6.38484 8.71226 6.29704C8.86504 6.20923 8.9919 6.08262 9.08001 5.93002L10 4.39002L11.54 5.28002C11.692 5.36778 11.8645 5.41399 12.04 5.41399C12.2155 5.41399 12.388 5.36778 12.54 5.28002L14.09 4.39002L15 5.93002C15.0881 6.08262 15.215 6.20923 15.3678 6.29704C15.5205 6.38484 15.6938 6.43072 15.87 6.43002H17.64V8.21002C17.6411 8.38453 17.6878 8.55573 17.7755 8.7066C17.8632 8.85747 17.9889 8.98276 18.14 9.07002L19.68 9.97002L18.79 11.51C18.7022 11.662 18.656 11.8345 18.656 12.01C18.656 12.1856 18.7022 12.358 18.79 12.51L19.68 14.05L18.14 14.95C17.9889 15.0373 17.8632 15.1626 17.7755 15.3134C17.6878 15.4643 17.6411 15.6355 17.64 15.81V17.59H15.81C15.6355 17.5911 15.4643 17.6378 15.3134 17.7255C15.1626 17.8132 15.0373 17.9389 14.95 18.09L14.06 19.63L12.51 18.74C12.358 18.6522 12.1855 18.606 12.01 18.606C11.8345 18.606 11.662 18.6522 11.51 18.74L10 19.63L9.11001 18.09C9.0219 17.9374 8.89504 17.8108 8.74226 17.723C8.58949 17.6352 8.41622 17.5893 8.24001 17.59H6.43001V15.81C6.42159 15.645 6.37244 15.4847 6.28693 15.3434C6.20142 15.202 6.08223 15.0841 5.94001 15L4.39001 14.1L5.28001 12.56C5.37735 12.4022 5.42891 12.2204 5.42891 12.035C5.42891 11.8496 5.37735 11.6678 5.28001 11.51Z" fill="black"/>
</svg>
