<svg width="24" height="24" viewBox="0 0 24 24" fill="none" xmlns="http://www.w3.org/2000/svg">
<path d="M15.16 2.00003C14.9316 1.96585 14.6984 2.01178 14.5 2.13003L2.49998 9.13003C2.45253 9.15765 2.40884 9.19126 2.36998 9.23003L2.26998 9.31003C2.20201 9.38875 2.14484 9.47619 2.09998 9.57003C2.0289 9.70188 1.99438 9.85034 1.99998 10V20C1.99998 20.2652 2.10533 20.5196 2.29287 20.7071C2.48041 20.8947 2.73476 21 2.99998 21H21C21.2652 21 21.5195 20.8947 21.7071 20.7071C21.8946 20.5196 22 20.2652 22 20V10C22.0037 8.06928 21.316 6.201 20.0613 4.73351C18.8066 3.26602 17.0679 2.29633 15.16 2.00003ZM15.16 4.05003C16.3623 4.29621 17.4617 4.90102 18.3132 5.78472C19.1648 6.66841 19.7285 7.78947 19.93 9.00003H6.69998L15.16 4.05003ZM20 19H3.99998V11H20V19Z" fill="black"/>
<path d="M6.5 18C7.32843 18 8 17.3284 8 16.5C8 15.6716 7.32843 15 6.5 15C5.67157 15 5 15.6716 5 16.5C5 17.3284 5.67157 18 6.5 18Z" fill="black"/>
<path d="M11.5 15C12.3284 15 13 14.3284 13 13.5C13 12.6716 12.3284 12 11.5 12C10.6716 12 10 12.6716 10 13.5C10 14.3284 10.6716 15 11.5 15Z" fill="black"/>
<path d="M17 18C18.1046 18 19 17.1046 19 16C19 14.8954 18.1046 14 17 14C15.8954 14 15 14.8954 15 16C15 17.1046 15.8954 18 17 18Z" fill="black"/>
</svg>
