<svg width="24" height="24" viewBox="0 0 24 24" fill="none" xmlns="http://www.w3.org/2000/svg">
<path d="M14.683 14.828C14.3175 15.1923 13.8857 15.4835 13.411 15.686C12.5563 16.0468 11.6028 16.0995 10.7135 15.835C9.82429 15.5705 9.05456 15.0053 8.536 14.236L6.878 15.355C7.31044 15.9931 7.86059 16.543 8.499 16.975C9.14865 17.4143 9.87859 17.7212 10.647 17.878C11.836 18.1201 13.0704 17.9981 14.189 17.528C14.9009 17.2259 15.5483 16.79 16.096 16.244C16.368 15.973 16.616 15.673 16.83 15.355L15.172 14.236C15.0277 14.448 14.864 14.6462 14.683 14.828Z" fill="black"/>
<path d="M12 2C6.486 2 2 6.486 2 12C2 17.514 6.486 22 12 22C17.514 22 22 17.514 22 12C22 6.486 17.514 2 12 2ZM12 4C14.953 4 17.531 5.613 18.918 8H5.082C6.469 5.613 9.047 4 12 4ZM12 20C7.589 20 4 16.411 4 12C4 11.309 4.098 10.641 4.264 10H5V11C5 11.5304 5.21071 12.0391 5.58579 12.4142C5.96086 12.7893 6.46957 13 7 13H9C9.53043 13 10.0391 12.7893 10.4142 12.4142C10.7893 12.0391 11 11.5304 11 11H13C13 11.5304 13.2107 12.0391 13.5858 12.4142C13.9609 12.7893 14.4696 13 15 13H17C17.5304 13 18.0391 12.7893 18.4142 12.4142C18.7893 12.0391 19 11.5304 19 11V10H19.736C19.902 10.641 20 11.309 20 12C20 16.411 16.411 20 12 20Z" fill="black"/>
</svg>
