<svg width="24" height="24" viewBox="0 0 24 24" fill="none" xmlns="http://www.w3.org/2000/svg">
<path d="M19 3H5C3.897 3 3 3.897 3 5V19C3 20.103 3.897 21 5 21H19C20.103 21 21 20.103 21 19V5C21 3.897 20.103 3 19 3ZM5 19V5H19L19.002 19H5Z" fill="black"/>
<path d="M8 9.5C8.82843 9.5 9.5 8.82843 9.5 8C9.5 7.17157 8.82843 6.5 8 6.5C7.17157 6.5 6.5 7.17157 6.5 8C6.5 8.82843 7.17157 9.5 8 9.5Z" fill="black"/>
<path d="M16 17.5C16.8284 17.5 17.5 16.8284 17.5 16C17.5 15.1716 16.8284 14.5 16 14.5C15.1716 14.5 14.5 15.1716 14.5 16C14.5 16.8284 15.1716 17.5 16 17.5Z" fill="black"/>
<path d="M8 17.5C8.82843 17.5 9.5 16.8284 9.5 16C9.5 15.1716 8.82843 14.5 8 14.5C7.17157 14.5 6.5 15.1716 6.5 16C6.5 16.8284 7.17157 17.5 8 17.5Z" fill="black"/>
<path d="M16 9.5C16.8284 9.5 17.5 8.82843 17.5 8C17.5 7.17157 16.8284 6.5 16 6.5C15.1716 6.5 14.5 7.17157 14.5 8C14.5 8.82843 15.1716 9.5 16 9.5Z" fill="black"/>
</svg>
