<svg width="24" height="24" viewBox="0 0 24 24" fill="none" xmlns="http://www.w3.org/2000/svg">
<path d="M2.29506 12.707L11.2731 21.707C11.6621 22.097 12.2981 22.098 12.6871 21.709L21.7081 12.709C21.8012 12.6161 21.8751 12.5058 21.9255 12.3843C21.9759 12.2628 22.0018 12.1325 22.0018 12.001C22.0018 11.8695 21.9759 11.7392 21.9255 11.6177C21.8751 11.4962 21.8012 11.3859 21.7081 11.293L12.6871 2.293C12.5941 2.20018 12.4838 2.1266 12.3624 2.07646C12.2411 2.02632 12.111 2.00061 11.9796 2.00079C11.8483 2.00098 11.7183 2.02706 11.5971 2.07754C11.4758 2.12803 11.3657 2.20192 11.2731 2.295L2.29506 11.295C2.20229 11.3877 2.1287 11.4977 2.07849 11.6189C2.02828 11.74 2.00244 11.8699 2.00244 12.001C2.00244 12.1321 2.02828 12.262 2.07849 12.3831C2.1287 12.5043 2.20229 12.6143 2.29506 12.707ZM9.00206 10.001H14.0021V8.001L17.0021 11.001L14.0021 14.001V12.001H11.0021V16.001H9.00206V10.001Z" fill="black"/>
</svg>
