<svg width="24" height="24" viewBox="0 0 24 24" fill="none" xmlns="http://www.w3.org/2000/svg">
<path d="M21 6H19L17.73 4.73C17.2707 4.27023 16.6498 4.00825 16 4H13.5C13.3599 3.4388 13.0394 2.93913 12.5878 2.57779C12.1361 2.21646 11.5783 2.01346 11 2V8.36C11.0514 9.36993 11.4506 10.331 12.13 11.08C13.2486 12.1553 14.7116 12.8 16.26 12.9L19.71 11.52C20.1148 11.3575 20.4793 11.1087 20.7781 10.7909C21.0768 10.4731 21.3027 10.094 21.44 9.68L22 8.15C22.0152 8.04722 22.0152 7.94278 22 7.84V7C22 6.73478 21.8946 6.48043 21.7071 6.29289C21.5196 6.10536 21.2652 6 21 6ZM16 8C15.8022 8 15.6089 7.94135 15.4444 7.83147C15.28 7.72159 15.1518 7.56541 15.0761 7.38268C15.0004 7.19996 14.9806 6.99889 15.0192 6.80491C15.0578 6.61093 15.153 6.43275 15.2929 6.29289C15.4327 6.15304 15.6109 6.0578 15.8049 6.01921C15.9989 5.98063 16.2 6.00043 16.3827 6.07612C16.5654 6.15181 16.7216 6.27998 16.8315 6.44443C16.9414 6.60888 17 6.80222 17 7C17 7.26522 16.8946 7.51957 16.7071 7.70711C16.5196 7.89464 16.2652 8 16 8Z" fill="black"/>
<path d="M11.38 11.74C10.6824 10.976 10.2266 10.0226 10.07 9H6C5.73278 9.01768 5.46487 8.97806 5.21421 8.88381C4.96354 8.78955 4.7359 8.64283 4.54654 8.45346C4.35717 8.2641 4.21045 8.03646 4.11619 7.78579C4.02194 7.53513 3.98232 7.26722 4 7C4 6.73478 3.89464 6.48043 3.70711 6.29289C3.51957 6.10536 3.26522 6 3 6C2.73478 6 2.48043 6.10536 2.29289 6.29289C2.10536 6.48043 2 6.73478 2 7C2.01005 7.69397 2.17399 8.37706 2.48 9C2.81735 9.65412 3.34811 10.1884 4 10.53V22H7V17H13V22H16V13.87C14.2555 13.7326 12.6174 12.9773 11.38 11.74Z" fill="black"/>
</svg>
