<svg width="24" height="24" viewBox="0 0 24 24" fill="none" xmlns="http://www.w3.org/2000/svg">
<path d="M20.832 4.555C20.9325 4.4044 20.9902 4.22935 20.999 4.04852C21.0078 3.86769 20.9673 3.68786 20.8819 3.52823C20.7965 3.36861 20.6693 3.23516 20.514 3.14213C20.3587 3.0491 20.181 2.99997 20 3H4C3.81912 3.00009 3.64164 3.04925 3.48649 3.14223C3.33133 3.23521 3.2043 3.36853 3.11892 3.528C3.03354 3.68747 2.99302 3.86711 3.00166 4.04778C3.0103 4.22846 3.06779 4.40341 3.168 4.554L11 16.303V20H8V22H16V20H13V16.303L20.832 4.555ZM12 14.197L8.535 9H15.465L12 14.197ZM18.132 5L16.799 7H7.201L5.868 5H18.132Z" fill="black"/>
</svg>
