<svg width="24" height="24" viewBox="0 0 24 24" fill="none" xmlns="http://www.w3.org/2000/svg">
<path d="M10.385 21.788C10.5046 21.8816 10.6439 21.9466 10.7924 21.9782C10.941 22.0097 11.0947 22.0069 11.242 21.97L19.242 19.97C19.4585 19.9162 19.6508 19.7914 19.7882 19.6156C19.9255 19.4398 20.0001 19.2231 20 19V4.99999C19.9999 4.77693 19.9253 4.56029 19.788 4.38453C19.6506 4.20877 19.4584 4.08397 19.242 4.02999L11.242 2.02999C11.0947 1.99384 10.941 1.99158 10.7927 2.02339C10.6444 2.05519 10.5052 2.12024 10.3856 2.21361C10.2661 2.30699 10.1692 2.42628 10.1024 2.56249C10.0356 2.6987 10.0006 2.84829 10 2.99999V3.99999H6C5.73478 3.99999 5.48043 4.10535 5.29289 4.29289C5.10536 4.48042 5 4.73478 5 4.99999V19C5 19.2652 5.10536 19.5196 5.29289 19.7071C5.48043 19.8946 5.73478 20 6 20H10V21C10 21.308 10.142 21.599 10.385 21.788ZM12 4.28099L18 5.78099V18.219L12 19.719V4.28099ZM7 18V5.99999H10V18H7Z" fill="black"/>
<path d="M14.242 13.159C14.688 13.047 15 12.647 15 12.188V11.811C14.9999 11.5458 14.8944 11.2915 14.7068 11.104C14.5191 10.9166 14.2647 10.8114 13.9995 10.8115C13.7343 10.8116 13.48 10.9171 13.2925 11.1047C13.1051 11.2924 12.9999 11.5468 13 11.812V12.189C13 12.3409 13.0347 12.4908 13.1013 12.6273C13.1679 12.7638 13.2648 12.8833 13.3845 12.9768C13.5042 13.0703 13.6436 13.1353 13.7922 13.1669C13.9408 13.1985 14.0946 13.1958 14.242 13.159Z" fill="black"/>
</svg>
