<svg width="24" height="24" viewBox="0 0 24 24" fill="none" xmlns="http://www.w3.org/2000/svg">
<path d="M12 22C16.636 22 20 18.532 20 13.754C20 7.52201 12.882 2.40001 12.579 2.18501C12.4101 2.06518 12.2082 2.00073 12.0012 2.00055C11.7941 2.00037 11.5921 2.06447 11.423 2.18401C11.12 2.39701 4 7.50301 4 13.75C4 18.53 7.364 22 12 22ZM11.999 4.26001C13.604 5.55001 18 9.47401 18 13.754C18 17.432 15.532 20 12 20C8.468 20 6 17.43 6 13.75C6 9.46001 10.394 5.54701 11.999 4.26001Z" fill="black"/>
</svg>
