<svg width="24" height="24" viewBox="0 0 24 24" fill="none" xmlns="http://www.w3.org/2000/svg">
<path d="M12 2C6.486 2 2 6.486 2 12C2 17.514 6.486 22 12 22C17.514 22 22 17.514 22 12C22 6.486 17.514 2 12 2ZM12 20C7.589 20 4 16.411 4 12C4 7.589 7.589 4 12 4C16.411 4 20 7.589 20 12C20 16.411 16.411 20 12 20Z" fill="black"/>
<path d="M10.707 12.293L9.414 11L10.707 9.707L9.293 8.293L8 9.586L6.707 8.293L5.293 9.707L6.586 11L5.293 12.293L6.707 13.707L8 12.414L9.293 13.707L10.707 12.293ZM17.293 8.293L16 9.586L14.707 8.293L13.293 9.707L14.586 11L13.293 12.293L14.707 13.707L16 12.414L17.293 13.707L18.707 12.293L17.414 11L18.707 9.707L17.293 8.293ZM10 16H14V18H10V16Z" fill="black"/>
</svg>
