<svg width="24" height="24" viewBox="0 0 24 24" fill="none" xmlns="http://www.w3.org/2000/svg">
<path d="M12 2C6.486 2 2 6.486 2 12C2 17.514 6.486 22 12 22C17.514 22 22 17.514 22 12C22 6.486 17.514 2 12 2ZM19.931 11H16.899C16.7012 10.0403 16.2264 9.15964 15.5335 8.46686C14.8405 7.77408 13.9597 7.29957 13 7.102V4.069C14.7598 4.29335 16.3953 5.09574 17.6498 6.3502C18.9043 7.60466 19.7066 9.24017 19.931 11ZM12 9C13.654 9 15 10.346 15 12C15 13.654 13.654 15 12 15C10.346 15 9 13.654 9 12C9 10.346 10.346 9 12 9ZM12 20C7.589 20 4 16.411 4 12C4 7.928 7.061 4.564 11 4.069V7.101C9.87158 7.33306 8.85764 7.947 8.12903 8.83936C7.40042 9.73173 7.00168 10.848 7 12C7 14.757 9.243 17 12 17C13.152 16.9985 14.2682 16.5998 15.1604 15.8711C16.0526 15.1424 16.6663 14.1284 16.898 13H19.93C19.436 16.939 16.072 20 12 20Z" fill="black"/>
</svg>
