<svg width="24" height="24" viewBox="0 0 24 24" fill="none" xmlns="http://www.w3.org/2000/svg">
<path d="M15.794 11.09C16.126 10.827 16.442 10.548 16.741 10.25L16.877 10.108C17.16 9.815 17.429 9.51 17.678 9.189L17.74 9.114C17.995 8.779 18.226 8.426 18.442 8.065L18.57 7.845C18.775 7.481 18.965 7.108 19.129 6.722C19.149 6.675 19.164 6.627 19.184 6.58C19.331 6.219 19.458 5.849 19.567 5.471C19.588 5.401 19.611 5.331 19.63 5.26C19.737 4.858 19.819 4.447 19.881 4.031C19.894 3.944 19.902 3.856 19.913 3.768C19.964 3.336 20 2.899 20 2.457V2H18V2.457C18 2.641 17.969 2.818 17.958 3H6.022C6.012 2.819 6 2.64 6 2.457V2H4V2.457C4 7.333 7.269 11.675 11.952 13.026L11.98 13.035C14.861 13.858 17.036 16.181 17.749 19H6.251L7.05 17H14.657C14.1063 16.2052 13.4055 15.5258 12.594 15H8.594C9.039 14.576 9.55 14.226 10.085 13.91C9.35449 13.6543 8.65641 13.314 8.005 12.896C5.55 14.812 4 17.779 4 21.015V23H6V21.015L6.001 21H17.999L18 21.015V23H20V21.015C20 17.185 17.841 13.712 14.557 11.945C14.9282 11.7231 15.2862 11.4797 15.629 11.216C15.684 11.174 15.739 11.134 15.794 11.09ZM14.604 9.486C13.9013 10.0499 13.1175 10.5043 12.279 10.834C12.187 10.87 12.094 10.902 12.001 10.936C10.8224 10.5188 9.74419 9.85932 8.836 9H15.128C14.957 9.161 14.796 9.333 14.611 9.48L14.604 9.486ZM17.619 5C17.614 5.016 17.612 5.033 17.607 5.049L17.563 5.2C17.4233 5.6295 17.2519 6.04799 17.05 6.452C16.954 6.642 16.837 6.817 16.729 7H7.249C6.87923 6.37082 6.58678 5.69929 6.378 5H17.619Z" fill="black"/>
</svg>
