<svg width="24" height="24" viewBox="0 0 24 24" fill="none" xmlns="http://www.w3.org/2000/svg">
<path d="M12 2C10.0222 2 8.08879 2.58649 6.4443 3.6853C4.79981 4.78412 3.51809 6.3459 2.76121 8.17317C2.00433 10.0004 1.8063 12.0111 2.19215 13.9509C2.578 15.8907 3.53041 17.6725 4.92894 19.0711C6.32746 20.4696 8.10929 21.422 10.0491 21.8079C11.9889 22.1937 13.9996 21.9957 15.8268 21.2388C17.6541 20.4819 19.2159 19.2002 20.3147 17.5557C21.4135 15.9112 22 13.9778 22 12C22 10.6868 21.7413 9.38642 21.2388 8.17317C20.7363 6.95991 19.9997 5.85752 19.0711 4.92893C18.1425 4.00035 17.0401 3.26375 15.8268 2.7612C14.6136 2.25866 13.3132 2 12 2ZM12 20C10.4178 20 8.87104 19.5308 7.55544 18.6518C6.23985 17.7727 5.21447 16.5233 4.60897 15.0615C4.00347 13.5997 3.84504 11.9911 4.15372 10.4393C4.4624 8.88743 5.22433 7.46197 6.34315 6.34315C7.46197 5.22433 8.88743 4.4624 10.4393 4.15372C11.9911 3.84504 13.5997 4.00346 15.0615 4.60896C16.5233 5.21447 17.7727 6.23984 18.6518 7.55544C19.5308 8.87103 20 10.4177 20 12C20 14.1217 19.1572 16.1566 17.6569 17.6569C16.1566 19.1571 14.1217 20 12 20Z" fill="black"/>
<path d="M12 8C11.2089 8 10.4355 8.2346 9.77772 8.67412C9.11993 9.11365 8.60723 9.73836 8.30448 10.4693C8.00173 11.2002 7.92252 12.0044 8.07686 12.7804C8.2312 13.5563 8.61216 14.269 9.17157 14.8284C9.73098 15.3878 10.4437 15.7688 11.2196 15.9231C11.9956 16.0775 12.7998 15.9983 13.5307 15.6955C14.2616 15.3928 14.8864 14.8801 15.3259 14.2223C15.7654 13.5645 16 12.7911 16 12C16 10.9391 15.5786 9.92172 14.8284 9.17157C14.0783 8.42143 13.0609 8 12 8ZM12 14C11.6044 14 11.2178 13.8827 10.8889 13.6629C10.56 13.4432 10.3036 13.1308 10.1522 12.7654C10.0009 12.3999 9.96126 11.9978 10.0384 11.6098C10.1156 11.2219 10.3061 10.8655 10.5858 10.5858C10.8655 10.3061 11.2219 10.1156 11.6098 10.0384C11.9978 9.96126 12.3999 10.0009 12.7654 10.1522C13.1308 10.3036 13.4432 10.56 13.6629 10.8889C13.8827 11.2178 14 11.6044 14 12C14 12.5304 13.7893 13.0391 13.4142 13.4142C13.0391 13.7893 12.5304 14 12 14Z" fill="black"/>
</svg>
