<svg width="24" height="24" viewBox="0 0 24 24" fill="none" xmlns="http://www.w3.org/2000/svg">
<path d="M17.813 3.838C17.6282 3.57906 17.3842 3.36796 17.1014 3.22221C16.8186 3.07647 16.5051 3.00029 16.187 3H7.81299C7.16899 3 6.56099 3.313 6.14599 3.899L2.14599 10.48C2.03422 10.6636 1.98466 10.8784 2.00465 11.0924C2.02465 11.3064 2.11315 11.5083 2.25699 11.668L11.257 21.668C11.3503 21.7729 11.4647 21.8568 11.5927 21.9143C11.7207 21.9718 11.8594 22.0016 11.9998 22.0017C12.1401 22.0018 12.2789 21.9722 12.407 21.9149C12.5351 21.8575 12.6496 21.7737 12.743 21.669L21.743 11.669C21.8871 11.5094 21.9758 11.3075 21.9958 11.0934C22.0158 10.8793 21.9661 10.6645 21.854 10.481L17.813 3.838ZM12 19.505L5.24499 12H18.754L12 19.505ZM4.77699 10L7.81299 5L16.145 4.938L19.222 10H4.77699Z" fill="black"/>
</svg>
