<svg width="24" height="24" viewBox="0 0 24 24" fill="none" xmlns="http://www.w3.org/2000/svg">
<path d="M19 3H5C3.897 3 3 3.897 3 5V19C3 20.103 3.897 21 5 21H19C20.103 21 21 20.103 21 19V5C21 3.897 20.103 3 19 3ZM5 19V5H19L19.002 19H5Z" fill="black"/>
<path d="M9.5 13.5C10.3284 13.5 11 12.8284 11 12C11 11.1716 10.3284 10.5 9.5 10.5C8.67157 10.5 8 11.1716 8 12C8 12.8284 8.67157 13.5 9.5 13.5Z" fill="black"/>
<path d="M14.5 13.5C15.3284 13.5 16 12.8284 16 12C16 11.1716 15.3284 10.5 14.5 10.5C13.6716 10.5 13 11.1716 13 12C13 12.8284 13.6716 13.5 14.5 13.5Z" fill="black"/>
</svg>
