<svg width="24" height="24" viewBox="0 0 24 24" fill="none" xmlns="http://www.w3.org/2000/svg">
<path d="M21.781 13.875L19.781 11.375C19.6873 11.2579 19.5684 11.1634 19.4332 11.0985C19.298 11.0336 19.15 10.9999 19 11H13V9H19C20.103 9 21 8.103 21 7V4C21 2.897 20.103 2 19 2H5C4.85004 1.99994 4.70198 2.03362 4.56678 2.09853C4.43159 2.16344 4.31273 2.25793 4.219 2.375L2.219 4.875C2.07717 5.05244 1.99991 5.27284 1.99991 5.5C1.99991 5.72716 2.07717 5.94756 2.219 6.125L4.219 8.625C4.31273 8.74207 4.43159 8.83656 4.56678 8.90147C4.70198 8.96638 4.85004 9.00006 5 9H11V11H5C3.897 11 3 11.897 3 13V16C3 17.103 3.897 18 5 18H11V22H13V18H19C19.15 18.0001 19.298 17.9664 19.4332 17.9015C19.5684 17.8366 19.6873 17.7421 19.781 17.625L21.781 15.125C21.9228 14.9476 22.0001 14.7272 22.0001 14.5C22.0001 14.2728 21.9228 14.0524 21.781 13.875ZM4.281 5.5L5.48 4H19L19.002 7H5.48L4.281 5.5ZM18.52 16H5V13H18.52L19.72 14.5L18.52 16Z" fill="black"/>
</svg>
