<svg width="24" height="24" viewBox="0 0 24 24" fill="none" xmlns="http://www.w3.org/2000/svg">
<path d="M19 10V7C19 5.897 18.103 5 17 5H14C14 3.346 12.654 2 11 2C9.346 2 8 3.346 8 5H5C3.897 5 3 5.897 3 7V10.881L3.659 11.12C4.461 11.41 5 12.166 5 13C5 13.834 4.461 14.59 3.659 14.88L3 15.119V19C3 20.103 3.897 21 5 21H8.881L9.12 20.341C9.41 19.539 10.166 19 11 19C11.834 19 12.59 19.539 12.88 20.341L13.119 21H17C18.103 21 19 20.103 19 19V16C20.654 16 22 14.654 22 13C22 11.346 20.654 10 19 10ZM19 14H17L16.997 19H14.452C13.741 17.78 12.43 17 11 17C9.57 17 8.259 17.78 7.548 19H5V16.452C6.22 15.741 7 14.43 7 13C7 11.57 6.22 10.259 5 9.548V7H10V5C10 4.73478 10.1054 4.48043 10.2929 4.29289C10.4804 4.10536 10.7348 4 11 4C11.2652 4 11.5196 4.10536 11.7071 4.29289C11.8946 4.48043 12 4.73478 12 5V7H17V12H19C19.2652 12 19.5196 12.1054 19.7071 12.2929C19.8946 12.4804 20 12.7348 20 13C20 13.2652 19.8946 13.5196 19.7071 13.7071C19.5196 13.8946 19.2652 14 19 14Z" fill="black"/>
</svg>
