<svg width="24" height="24" viewBox="0 0 24 24" fill="none" xmlns="http://www.w3.org/2000/svg">
<path d="M11.001 10H13.001V15H11.001V10ZM11 16H13V18H11V16Z" fill="black"/>
<path d="M13.768 4.2C13.42 3.545 12.742 3.138 12 3.138C11.258 3.138 10.58 3.545 10.232 4.201L2.89401 18.064C2.73118 18.3684 2.65052 18.7101 2.65999 19.0552C2.66946 19.4003 2.76873 19.737 2.94801 20.032C3.12471 20.3284 3.37565 20.5736 3.67606 20.7433C3.97647 20.9131 4.31596 21.0015 4.66101 21H19.339C20.047 21 20.688 20.638 21.053 20.032C21.232 19.7369 21.3311 19.4002 21.3406 19.0551C21.35 18.7101 21.2696 18.3685 21.107 18.064L13.768 4.2ZM4.66101 19L12 5.137L19.344 19H4.66101Z" fill="black"/>
</svg>
