<svg width="24" height="24" viewBox="0 0 24 24" fill="none" xmlns="http://www.w3.org/2000/svg">
<path d="M2.58602 15.408L6.88502 19.707C6.97773 19.8001 7.08792 19.8738 7.20926 19.9241C7.33059 19.9744 7.46068 20.0002 7.59202 20H19.593V18H12.635L19.857 10.778C20.637 9.99901 20.637 8.72901 19.857 7.95001L14.906 3.00001C14.5306 2.6258 14.0221 2.41568 13.492 2.41568C12.9619 2.41568 12.4535 2.6258 12.078 3.00001L7.32802 7.74901L2.57402 12.592C2.20601 12.969 2.00101 13.4756 2.00325 14.0025C2.0055 14.5293 2.21481 15.0342 2.58602 15.408ZM13.492 4.41401L18.442 9.36401L15.856 11.95L10.906 7.00001L13.492 4.41401ZM8.74902 9.15601L9.49202 8.41401L14.442 13.364L9.88502 17.921C9.86069 17.9462 9.83766 17.9725 9.81602 18H8.00602L4.00102 13.993L8.74902 9.15601Z" fill="black"/>
</svg>
