<svg width="24" height="24" viewBox="0 0 24 24" fill="none" xmlns="http://www.w3.org/2000/svg">
<path d="M21.555 8.168L12.555 2.168C12.3908 2.05857 12.1978 2.00018 12.0005 2.00018C11.8032 2.00018 11.6102 2.05857 11.446 2.168L2.446 8.168C2.3089 8.25923 2.19645 8.38292 2.11865 8.52806C2.04084 8.6732 2.00009 8.83532 2 9V20C2 21.103 2.897 22 4 22H20C21.103 22 22 21.103 22 20V9C22 8.666 21.833 8.354 21.555 8.168ZM12 4.202L19.197 9L12 13.798L4.803 9L12 4.202ZM4 20V10.869L11.445 15.832C11.6093 15.9416 11.8025 16.0001 12 16.0001C12.1975 16.0001 12.3907 15.9416 12.555 15.832L20 10.869L19.997 20H4Z" fill="black"/>
</svg>
