<svg width="24" height="24" viewBox="0 0 24 24" fill="none" xmlns="http://www.w3.org/2000/svg">
<path d="M14.481 14.015C14.243 14.015 14.088 14.036 13.998 14.057V17.146C14.089 17.167 14.235 17.167 14.369 17.167C15.335 17.174 15.966 16.642 15.966 15.514C15.973 14.533 15.398 14.015 14.481 14.015Z" fill="black"/>
<path d="M14 2H6C5.46957 2 4.96086 2.21071 4.58579 2.58579C4.21071 2.96086 4 3.46957 4 4V20C4 20.5304 4.21071 21.0391 4.58579 21.4142C4.96086 21.7893 5.46957 22 6 22H18C18.5304 22 19.0391 21.7893 19.4142 21.4142C19.7893 21.0391 20 20.5304 20 20V8L14 2ZM11.066 17.951L10.996 16.144C10.9702 15.4976 10.9562 14.8509 10.954 14.204H10.933C10.7803 14.8195 10.6052 15.4292 10.408 16.032L9.834 17.874H9L8.496 16.046C8.32699 15.4384 8.18419 14.8239 8.068 14.204H8.055C8.027 14.842 8.006 15.57 7.971 16.158L7.887 17.951H6.899L7.2 13.23H8.622L9.084 14.806C9.231 15.352 9.379 15.941 9.483 16.494H9.504C9.64091 15.9261 9.79027 15.3613 9.952 14.8L10.456 13.231H11.85L12.11 17.952L11.066 17.951ZM16.316 17.391C15.818 17.804 15.063 18 14.138 18C13.7329 18.0032 13.328 17.9798 12.926 17.93V13.294C13.4038 13.2245 13.8862 13.1914 14.369 13.195C15.265 13.195 15.847 13.356 16.302 13.7C16.792 14.064 17.101 14.645 17.101 15.478C17.101 16.382 16.771 17.006 16.316 17.391ZM14 9H13V4L18 9H14Z" fill="black"/>
</svg>
