<svg width="24" height="24" viewBox="0 0 24 24" fill="none" xmlns="http://www.w3.org/2000/svg">
<path d="M5.96199 17.674C6.99999 19.331 6.99999 20.567 6.99999 22H8.99999C8.99999 20.479 8.99999 18.756 7.65699 16.611L5.96199 17.674ZM16.504 3.387C13.977 1.91 7.54999 0.926002 4.28099 4.305C0.91299 7.786 2.03199 13.377 4.28199 15.697C4.39999 15.819 4.52599 15.926 4.65099 16.03C4.72299 16.091 4.79699 16.146 4.85599 16.214L6.34999 14.884C6.22006 14.7436 6.08001 14.6129 5.93099 14.493C5.85899 14.433 5.78499 14.374 5.71699 14.305C4.05699 12.594 3.21099 8.288 5.71799 5.697C8.24299 3.086 13.786 4.118 15.495 5.116C18.186 6.685 19.592 9.424 19.604 9.449L21.393 8.554C21.328 8.419 19.725 5.265 16.504 3.387Z" fill="black"/>
<path d="M9.34 12.822C8.31 11.562 7.553 10.505 7.948 9.316C8.211 8.531 8.761 7.991 9.585 7.712C10.809 7.302 12.505 7.552 13.625 8.313L14.748 6.659C13.1 5.539 10.766 5.202 8.944 5.818C7.536 6.294 6.509 7.313 6.052 8.684C5.276 11.012 6.851 12.938 7.792 14.089C7.941 14.272 8.082 14.443 8.201 14.601C11 18.323 11 20.109 11 22H13C13 19.964 13 17.655 9.799 13.399C9.64961 13.2038 9.49658 13.0115 9.34 12.822ZM15.131 9.478C16.966 11.242 18.165 13.925 19.02 18.179L20.981 17.784C20.042 13.106 18.665 10.099 16.518 8.036L15.131 9.478Z" fill="black"/>
<path d="M11.556 9.16901L10.441 10.829C10.468 10.848 13.152 12.709 14.242 16.553L16.166 16.008C14.867 11.426 11.69 9.25901 11.556 9.16901ZM14.688 18.459C14.898 19.627 15 20.785 15 22H17C17 20.665 16.888 19.392 16.657 18.105L14.688 18.459Z" fill="black"/>
</svg>
