<svg width="24" height="24" viewBox="0 0 24 24" fill="none" xmlns="http://www.w3.org/2000/svg">
<path d="M6 22H18C18.5304 22 19.0391 21.7893 19.4142 21.4142C19.7893 21.0391 20 20.5304 20 20V8L14 2H6C5.46957 2 4.96086 2.21071 4.58579 2.58579C4.21071 2.96086 4 3.46957 4 4V20C4 20.5304 4.21071 21.0391 4.58579 21.4142C4.96086 21.7893 5.46957 22 6 22ZM13 4L18 9H13V4ZM8.5 11C8.69705 11.0001 8.89215 11.0389 9.07418 11.1144C9.2562 11.1899 9.42158 11.3005 9.56087 11.4398C9.70016 11.5792 9.81063 11.7447 9.88597 11.9267C9.96132 12.1088 10.0001 12.304 10 12.501C9.99993 12.698 9.96106 12.8932 9.88559 13.0752C9.81012 13.2572 9.69954 13.4226 9.56016 13.5619C9.42078 13.7012 9.25533 13.8116 9.07325 13.887C8.89118 13.9623 8.69605 14.0011 8.499 14.001C8.10104 14.0009 7.71944 13.8427 7.43813 13.5612C7.15683 13.2797 6.99887 12.898 6.999 12.5C6.99913 12.102 7.15735 11.7204 7.43884 11.4391C7.72033 11.1578 8.10204 10.9999 8.5 11ZM9 16L10.597 17.363L13 13L17 19H7L9 16Z" fill="black"/>
</svg>
