<svg width="24" height="24" viewBox="0 0 24 24" fill="none" xmlns="http://www.w3.org/2000/svg">
<path d="M12 2C6.486 2 2 6.486 2 12C2 17.514 6.486 22 12 22C17.514 22 22 17.514 22 12C22 6.486 17.514 2 12 2ZM12 4C15.213 4 17.982 5.908 19.254 8.648C18.9451 8.50179 18.6461 8.33543 18.359 8.15C17.95 7.892 17.486 7.599 16.899 7.378C16.23 7.123 15.499 7 14.665 7C13.831 7 13.1 7.123 12.431 7.377C11.844 7.6 11.38 7.893 10.959 8.158C10.581 8.395 10.256 8.601 9.856 8.752C9.41 8.921 8.926 9 8.33 9C7.735 9 7.251 8.921 6.806 8.752C6.406 8.601 6.078 8.394 5.7 8.154C5.539 8.053 5.36 7.946 5.18 7.841C6.587 5.542 9.113 4 12 4ZM12 20C7.589 20 4 16.411 4 12C4 11.19 4.123 10.41 4.348 9.673C4.442 9.731 4.533 9.783 4.631 9.846C5.042 10.106 5.507 10.4 6.097 10.622C6.766 10.877 7.496 11 8.33 11C9.163 11 9.894 10.877 10.565 10.623C11.152 10.4 11.616 10.107 12.037 9.842C12.415 9.605 12.74 9.399 13.14 9.247C13.585 9.079 14.069 9 14.665 9C15.261 9 15.745 9.079 16.19 9.248C16.589 9.398 16.915 9.604 17.304 9.85C17.713 10.108 18.177 10.401 18.764 10.623C19.127 10.761 19.512 10.852 19.917 10.914C19.966 11.271 20 11.631 20 12C20 16.411 16.411 20 12 20Z" fill="black"/>
<path d="M8.5 15C9.32843 15 10 14.3284 10 13.5C10 12.6716 9.32843 12 8.5 12C7.67157 12 7 12.6716 7 13.5C7 14.3284 7.67157 15 8.5 15Z" fill="black"/>
<path d="M15.5 15C16.3284 15 17 14.3284 17 13.5C17 12.6716 16.3284 12 15.5 12C14.6716 12 14 12.6716 14 13.5C14 14.3284 14.6716 15 15.5 15Z" fill="black"/>
</svg>
