<svg width="24" height="24" viewBox="0 0 24 24" fill="none" xmlns="http://www.w3.org/2000/svg">
<path d="M12 2C6.486 2 2 6.486 2 12C2 14.521 2.945 16.82 4.49 18.582C5.73 20.102 7.756 21.648 10.929 21.94C11.6405 22.0187 12.3585 22.0187 13.07 21.94C16.244 21.648 18.269 20.101 19.509 18.582C21.1136 16.7648 21.9994 14.4242 22 12C22 6.486 17.514 2 12 2ZM4.709 8.724C4.863 8.814 5.017 8.906 5.165 9C5.561 9.25 5.956 9.5 6.451 9.688C6.945 9.875 7.539 10 8.33 10C9.122 10 9.716 9.875 10.211 9.687C10.706 9.499 11.102 9.25 11.498 9C11.894 8.75 12.29 8.5 12.785 8.312C13.279 8.125 13.873 8 14.665 8C15.457 8 16.051 8.125 16.545 8.313C17.04 8.5 17.436 8.75 17.832 9C18.228 9.25 18.624 9.5 19.119 9.688C19.297 9.755 19.493 9.81 19.7 9.859C19.891 10.541 20 11.257 20 12C20 12.843 19.867 13.654 19.625 14.417C19.364 14.612 18.892 14.891 18.048 15.173C17.279 15.429 16.376 15.631 15.363 15.775C13.1306 16.074 10.8684 16.074 8.636 15.775C7.623 15.631 6.72 15.429 5.951 15.173C5.107 14.891 4.635 14.612 4.374 14.417C3.77805 12.5432 3.8974 10.515 4.709 8.724Z" fill="black"/>
<path d="M8.5 14C9.32843 14 10 13.3284 10 12.5C10 11.6716 9.32843 11 8.5 11C7.67157 11 7 11.6716 7 12.5C7 13.3284 7.67157 14 8.5 14Z" fill="black"/>
<path d="M15.5 14C16.3284 14 17 13.3284 17 12.5C17 11.6716 16.3284 11 15.5 11C14.6716 11 14 11.6716 14 12.5C14 13.3284 14.6716 14 15.5 14Z" fill="black"/>
</svg>
