<svg width="24" height="24" viewBox="0 0 24 24" fill="none" xmlns="http://www.w3.org/2000/svg">
<path d="M12.579 2.393C12.4107 2.2723 12.2086 2.20789 12.0015 2.20897C11.7944 2.21004 11.593 2.27656 11.426 2.399C9.592 3.728 4 8.252 4 14C4 17.247 5.948 20.043 8.734 21.296C8.25735 20.6252 8.00086 19.8229 8 19C7.983 15.779 11.558 12.107 11.71 12C11.7944 11.9395 11.8957 11.907 11.9995 11.907C12.1033 11.907 12.2046 11.9395 12.289 12C12.441 12.107 16 14.974 16 19.002C16 19.856 15.725 20.645 15.267 21.296C18.052 20.043 20 17.248 20 14.005C20 8.144 14.418 3.698 12.579 2.393Z" fill="black"/>
</svg>
