<svg width="24" height="24" viewBox="0 0 24 24" fill="none" xmlns="http://www.w3.org/2000/svg">
<path d="M10.84 21.871L12 22C11.7152 19.7208 10.671 17.6041 9.03581 15.991C7.40064 14.378 5.26982 13.3627 2.987 13.109L2 13L2.021 13.173C2.30003 15.4028 3.3219 17.4736 4.92184 19.0516C6.52179 20.6296 8.60656 21.6228 10.84 21.871ZM21.979 13.173L22 13L21.013 13.109C16.313 13.632 12.586 17.309 12 22L13.16 21.871C15.3934 21.6228 17.4782 20.6296 19.0782 19.0516C20.6781 17.4736 21.7 15.4028 21.979 13.173ZM18.063 5.5C17.7315 4.92582 17.1854 4.50685 16.545 4.33525C15.9046 4.16366 15.2222 4.25349 14.648 4.585C14.586 4.62 14.537 4.666 14.48 4.706C14.485 4.637 14.5 4.57 14.5 4.5C14.5 3.83696 14.2366 3.20107 13.7678 2.73223C13.2989 2.26339 12.663 2 12 2C11.337 2 10.7011 2.26339 10.2322 2.73223C9.76339 3.20107 9.5 3.83696 9.5 4.5C9.5 4.57 9.515 4.637 9.521 4.706C9.464 4.666 9.414 4.62 9.353 4.585C8.7791 4.25871 8.09944 4.17266 7.46234 4.34563C6.82523 4.5186 6.28241 4.93655 5.95231 5.50826C5.62222 6.07998 5.53167 6.75906 5.70041 7.3973C5.86915 8.03553 6.28348 8.58112 6.853 8.915C6.914 8.95 6.979 8.971 7.041 9C6.979 9.029 6.914 9.05 6.853 9.085C6.28348 9.41888 5.86915 9.96447 5.70041 10.6027C5.53167 11.2409 5.62222 11.92 5.95231 12.4917C6.28241 13.0635 6.82523 13.4814 7.46234 13.6544C8.09944 13.8273 8.7791 13.7413 9.353 13.415C9.415 13.38 9.464 13.334 9.521 13.294C9.515 13.363 9.5 13.43 9.5 13.5C9.5 14.163 9.76339 14.7989 10.2322 15.2678C10.7011 15.7366 11.337 16 12 16C12.663 16 13.2989 15.7366 13.7678 15.2678C14.2366 14.7989 14.5 14.163 14.5 13.5C14.5 13.43 14.485 13.363 14.479 13.294C14.536 13.334 14.585 13.38 14.647 13.415C15.2209 13.7413 15.9006 13.8273 16.5377 13.6544C17.1748 13.4814 17.7176 13.0635 18.0477 12.4917C18.3778 11.92 18.4683 11.2409 18.2996 10.6027C18.1309 9.96447 17.7165 9.41888 17.147 9.085C17.086 9.05 17.021 9.029 16.959 9C17.022 8.971 17.086 8.95 17.147 8.915C17.4314 8.75093 17.6807 8.53244 17.8806 8.27202C18.0806 8.0116 18.2273 7.71434 18.3123 7.39722C18.3974 7.08011 18.4191 6.74934 18.3764 6.42381C18.3336 6.09829 18.2271 5.78437 18.063 5.5ZM12 12C11.2044 12 10.4413 11.6839 9.87868 11.1213C9.31607 10.5587 9 9.79565 9 9C9 8.20435 9.31607 7.44129 9.87868 6.87868C10.4413 6.31607 11.2044 6 12 6C12.7956 6 13.5587 6.31607 14.1213 6.87868C14.6839 7.44129 15 8.20435 15 9C15 9.79565 14.6839 10.5587 14.1213 11.1213C13.5587 11.6839 12.7956 12 12 12Z" fill="black"/>
</svg>
