<svg width="24" height="24" viewBox="0 0 24 24" fill="none" xmlns="http://www.w3.org/2000/svg">
<path d="M21.977 13.783L19.977 4.783C19.9273 4.56094 19.8034 4.36243 19.6259 4.22012C19.4483 4.07781 19.2276 4.00018 19 4H16V6H18.198L19.159 10.326C18.6318 10.1127 18.0687 10.0021 17.5 10C15.547 10 13.897 11.258 13.276 13H10.723C10.102 11.258 8.452 10 6.499 10C5.912 10 5.354 10.121 4.84 10.326L5.802 6H8V4H5C4.77252 4.00004 4.55184 4.07764 4.3744 4.21999C4.19697 4.36234 4.07336 4.56094 4.024 4.783L2.024 13.783L2.071 13.794C2.029 14.0271 2.00526 14.2632 2 14.5C2 16.981 4.019 19 6.5 19C8.81 19 10.697 17.244 10.949 15H13.051C13.303 17.244 15.19 19 17.5 19C19.981 19 22 16.981 22 14.5C22 14.258 21.966 14.025 21.929 13.794L21.977 13.783ZM6.5 17C5.122 17 4 15.878 4 14.5C4 13.122 5.122 12 6.5 12C7.878 12 9 13.122 9 14.5C9 15.878 7.878 17 6.5 17ZM17.5 17C16.121 17 15 15.878 15 14.5C15 13.122 16.121 12 17.5 12C18.879 12 20 13.122 20 14.5C20 15.878 18.879 17 17.5 17Z" fill="black"/>
</svg>
