<svg width="24" height="24" viewBox="0 0 24 24" fill="none" xmlns="http://www.w3.org/2000/svg">
<path d="M11 18.791V20H8.99999V22H15V20H13V18.155C14.1455 17.6594 15.1873 16.9524 16.071 16.071C19.969 12.173 19.969 5.82799 16.071 1.92799L14.657 3.34199C17.776 6.46199 17.776 11.537 14.657 14.656C11.538 17.774 6.46199 17.776 3.34299 14.656L1.92899 16.07C2.85702 16.999 3.9594 17.7355 5.17284 18.2373C6.38628 18.7391 7.68689 18.9962 8.99999 18.994C9.67179 18.9938 10.3419 18.9258 11 18.791Z" fill="black"/>
<path d="M3 9C3 12.309 5.691 15 9 15C12.309 15 15 12.309 15 9C15 5.691 12.309 3 9 3C5.691 3 3 5.691 3 9ZM13 9C13 11.206 11.206 13 9 13C6.794 13 5 11.206 5 9C5 6.794 6.794 5 9 5C11.206 5 13 6.794 13 9Z" fill="black"/>
</svg>
