<svg width="24" height="24" viewBox="0 0 24 24" fill="none" xmlns="http://www.w3.org/2000/svg">
<path d="M15 3H4.98401C3.88101 3 2.98401 3.897 2.98401 5V19.016C2.98401 20.119 3.88101 21.016 4.98401 21.016H19C20.103 21.016 21 20.119 21 19.016V5C21 3.897 20.103 3 19 3H15ZM19 8H16V5H19V8ZM4.98401 10H7.98401V14.016H4.98401V10ZM9.98401 10H14V14.016H9.98401V10ZM16 10H19V14.016H16V10ZM14 5V8H9.98401V5H14ZM7.98401 5V8H4.98401V5H7.98401ZM4.98401 16.016H7.98401V19.016H4.98401V16.016ZM9.98401 19.016V16.016H14V19.016H9.98401ZM16 19.016V16.016H19.001V19.016H16Z" fill="black"/>
</svg>
