<svg width="24" height="24" viewBox="0 0 24 24" fill="none" xmlns="http://www.w3.org/2000/svg">
<path d="M20.5 5C20.1022 5 19.7207 5.15804 19.4394 5.43934C19.1581 5.72064 19 6.10218 19 6.5V11H18V4.5C18 4.10218 17.842 3.72064 17.5607 3.43934C17.2794 3.15804 16.8978 3 16.5 3C16.1022 3 15.7207 3.15804 15.4394 3.43934C15.1581 3.72064 15 4.10218 15 4.5V11H14V3.5C14 3.10218 13.842 2.72064 13.5607 2.43934C13.2794 2.15804 12.8978 2 12.5 2C12.1022 2 11.7207 2.15804 11.4394 2.43934C11.1581 2.72064 11 3.10218 11 3.5V11H10V5.5C10 5.10218 9.84198 4.72064 9.56068 4.43934C9.27937 4.15804 8.89784 4 8.50002 4C8.10219 4 7.72066 4.15804 7.43936 4.43934C7.15805 4.72064 7.00002 5.10218 7.00002 5.5V16.31L4.78002 12.71C4.57049 12.3705 4.2347 12.1282 3.8465 12.0363C3.4583 11.9444 3.04949 12.0105 2.71002 12.22C2.37054 12.4295 2.1282 12.7653 2.0363 13.1535C1.94441 13.5417 2.01049 13.9505 2.22002 14.29L5.53002 19.63C5.97796 20.3543 6.60347 20.9521 7.34725 21.3669C8.09102 21.7817 8.92841 21.9996 9.78002 22H17C18.3261 22 19.5979 21.4732 20.5355 20.5355C21.4732 19.5979 22 18.3261 22 17V6.5C22 6.10218 21.842 5.72064 21.5607 5.43934C21.2794 5.15804 20.8978 5 20.5 5Z" fill="black"/>
</svg>
