<svg width="24" height="24" viewBox="0 0 24 24" fill="none" xmlns="http://www.w3.org/2000/svg">
<path d="M12.279 8.833L12 9.112L11.721 8.833C11.4657 8.57449 11.1616 8.36925 10.8263 8.22916C10.4911 8.08908 10.1313 8.01694 9.76801 8.01694C9.40467 8.01694 9.04494 8.08908 8.70969 8.22916C8.37444 8.36925 8.07033 8.57449 7.81501 8.833C7.55635 9.08834 7.35097 9.39251 7.2108 9.72785C7.07062 10.0632 6.99844 10.423 6.99844 10.7865C6.99844 11.15 7.07062 11.5098 7.2108 11.8452C7.35097 12.1805 7.55635 12.4847 7.81501 12.74L12 16.926L16.186 12.74C16.4447 12.4847 16.65 12.1805 16.7902 11.8452C16.9304 11.5098 17.0026 11.15 17.0026 10.7865C17.0026 10.423 16.9304 10.0632 16.7902 9.72785C16.65 9.39251 16.4447 9.08834 16.186 8.833C15.9306 8.57446 15.6264 8.3692 15.2911 8.2291C14.9557 8.089 14.5959 8.01686 14.2325 8.01686C13.8691 8.01686 13.5093 8.089 13.1739 8.2291C12.8386 8.3692 12.5344 8.57446 12.279 8.833Z" fill="black"/>
<path d="M12 2C6.486 2 2 6.486 2 12C2 17.514 6.486 22 12 22C17.514 22 22 17.514 22 12C22 6.486 17.514 2 12 2ZM12 20C7.589 20 4 16.411 4 12C4 7.589 7.589 4 12 4C16.411 4 20 7.589 20 12C20 16.411 16.411 20 12 20Z" fill="black"/>
</svg>
