<svg width="24" height="24" viewBox="0 0 24 24" fill="none" xmlns="http://www.w3.org/2000/svg">
<path d="M21 15C21.0005 14.3922 20.9402 13.7858 20.82 13.19C20.7025 12.6098 20.5248 12.0434 20.29 11.5C20.0673 10.972 19.7891 10.4692 19.46 10C19.1382 9.52142 18.7697 9.07591 18.36 8.67C17.9484 8.24581 17.4924 7.86698 17 7.54C16.5214 7.20905 16.0084 6.93077 15.47 6.71L15 6.52V5C15 4.73478 14.8946 4.48043 14.7071 4.29289C14.5196 4.10536 14.2652 4 14 4H10C9.73478 4 9.48043 4.10536 9.29289 4.29289C9.10536 4.48043 9 4.73478 9 5V6.52L8.5 6.71C7.97198 6.93269 7.46915 7.21092 7 7.54C6.51951 7.85927 6.07375 8.22795 5.67 8.64C5.24581 9.05165 4.86698 9.50759 4.54 10C4.20905 10.4786 3.93077 10.9916 3.71 11.53C3.4782 12.0745 3.30067 12.6406 3.18 13.22C3.06174 13.806 3.00145 14.4022 3 15V18H2V20H22V18H21V15ZM5 15C5.00102 14.5266 5.04791 14.0544 5.14 13.59C5.23104 13.1403 5.36844 12.7013 5.55 12.28C5.72529 11.864 5.93958 11.4656 6.19 11.09C6.69757 10.3423 7.34228 9.69757 8.09 9.19C8.38084 8.9986 8.68494 8.82817 9 8.68V15H11V6H13V15H15V8.68C15.3139 8.83034 15.6179 9.00069 15.91 9.19C16.2693 9.44497 16.6041 9.73288 16.91 10.05C17.2266 10.3535 17.5115 10.6886 17.76 11.05C18.0209 11.4208 18.239 11.82 18.41 12.24C18.5885 12.6625 18.7258 13.1012 18.82 13.55C18.9281 14.0261 18.9884 14.5119 19 15V18H5V15Z" fill="black"/>
</svg>
