<svg width="24" height="24" viewBox="0 0 24 24" fill="none" xmlns="http://www.w3.org/2000/svg">
<path d="M12 2C6.486 2 2 6.486 2 12C2 17.514 6.486 22 12 22C17.514 22 22 17.514 22 12C22 6.486 17.514 2 12 2ZM12 20C7.589 20 4 16.411 4 12C4 7.589 7.589 4 12 4C16.411 4 20 7.589 20 12C20 16.411 16.411 20 12 20Z" fill="black"/>
<path d="M8.5 11C9.32843 11 10 10.3284 10 9.5C10 8.67157 9.32843 8 8.5 8C7.67157 8 7 8.67157 7 9.5C7 10.3284 7.67157 11 8.5 11Z" fill="black"/>
<path d="M15.493 10.986C16.3176 10.986 16.986 10.3176 16.986 9.493C16.986 8.66844 16.3176 8 15.493 8C14.6684 8 14 8.66844 14 9.493C14 10.3176 14.6684 10.986 15.493 10.986Z" fill="black"/>
<path d="M12 18C17 18 18 13 18 13H6C6 13 7 18 12 18Z" fill="black"/>
</svg>
