<svg width="24" height="24" viewBox="0 0 24 24" fill="none" xmlns="http://www.w3.org/2000/svg">
<path d="M9 6C10.1046 6 11 5.10457 11 4C11 2.89543 10.1046 2 9 2C7.89543 2 7 2.89543 7 4C7 5.10457 7.89543 6 9 6Z" fill="black"/>
<path d="M16.98 14.804C16.9347 14.5774 16.8123 14.3735 16.6336 14.2269C16.455 14.0803 16.2311 14.0001 16 14H11.867L11.438 11H16V9H11.153L10.99 7.858C10.9558 7.6198 10.8369 7.40191 10.655 7.24431C10.4732 7.08671 10.2406 6.99997 9.99998 7H8.99998C8.8568 7.00047 8.71539 7.0316 8.58524 7.09128C8.45509 7.15096 8.33922 7.23781 8.24544 7.346C8.15165 7.45419 8.08211 7.5812 8.0415 7.7185C8.00089 7.8558 7.99014 8.0002 8.00998 8.142L8.88698 14.284C8.9571 14.7596 9.19544 15.1943 9.55875 15.5092C9.92206 15.8241 10.3862 15.9982 10.867 16H15.18L16.019 20.196C16.113 20.663 16.523 21 17 21H20V19H17.819L16.98 14.804Z" fill="black"/>
<path d="M12.51 17.5C11.771 18.976 10.26 20 8.5 20C7.30693 19.9987 6.16311 19.5241 5.31948 18.6805C4.47585 17.8369 4.00132 16.6931 4 15.5C4.00168 14.604 4.27064 13.7288 4.77246 12.9865C5.27428 12.2442 5.98615 11.6685 6.817 11.333L6.528 9.308C3.905 10.145 2 12.604 2 15.5C2 19.084 4.916 22 8.5 22C9.6148 21.9984 10.7104 21.7101 11.6816 21.1626C12.6527 20.6151 13.4666 19.827 14.045 18.874L13.771 17.5H12.51Z" fill="black"/>
</svg>
