<svg width="24" height="24" viewBox="0 0 24 24" fill="none" xmlns="http://www.w3.org/2000/svg">
<path d="M12 4.595C10.9104 3.59311 9.48421 3.03705 8.004 3.037C7.22054 3.03782 6.44497 3.19356 5.72193 3.49527C4.9989 3.79698 4.34266 4.2387 3.791 4.795C1.438 7.158 1.439 10.854 3.793 13.207L11.125 20.539C11.295 20.838 11.623 21.031 12 21.031C12.1548 21.0295 12.3071 20.9917 12.4446 20.9207C12.5822 20.8496 12.7012 20.7474 12.792 20.622L20.207 13.207C22.561 10.853 22.561 7.158 20.205 4.791C19.6536 4.23572 18.9979 3.7949 18.2756 3.49389C17.5532 3.19287 16.7785 3.0376 15.996 3.037C14.5158 3.03724 13.0897 3.59328 12 4.595ZM18.791 6.205C20.354 7.776 20.355 10.23 18.793 11.793L12 18.586L5.207 11.793C3.645 10.23 3.646 7.776 5.205 6.209C5.965 5.453 6.959 5.037 8.004 5.037C9.049 5.037 10.039 5.453 10.793 6.207L11.293 6.707C11.3858 6.79995 11.496 6.87369 11.6173 6.924C11.7386 6.97431 11.8687 7.0002 12 7.0002C12.1313 7.0002 12.2614 6.97431 12.3827 6.924C12.504 6.87369 12.6142 6.79995 12.707 6.707L13.207 6.207C14.719 4.698 17.281 4.702 18.791 6.205Z" fill="black"/>
</svg>
