<svg width="24" height="24" viewBox="0 0 24 24" fill="none" xmlns="http://www.w3.org/2000/svg">
<path d="M12 18C16 18 17 14 17 14H7C7 14 8 18 12 18Z" fill="black"/>
<path d="M12 2C6.486 2 2 6.486 2 12C2 17.514 6.486 22 12 22C17.514 22 22 17.514 22 12C22 6.486 17.514 2 12 2ZM12 20C7.589 20 4 16.411 4 12C4 7.589 7.589 4 12 4C16.411 4 20 7.589 20 12C20 16.411 16.411 20 12 20Z" fill="black"/>
<path d="M13 12L15 12.012C15.012 11.55 15.194 11 16 11C16.806 11 16.988 11.55 17 12H19C19 10.794 18.201 9 16 9C13.799 9 13 10.794 13 12ZM8 11C8.806 11 8.988 11.55 9 12H11C11 10.794 10.201 9 8 9C5.799 9 5 10.794 5 12L7 12.012C7.012 11.55 7.194 11 8 11Z" fill="black"/>
</svg>
