<svg width="24" height="24" viewBox="0 0 24 24" fill="none" xmlns="http://www.w3.org/2000/svg">
<path d="M12 18C16 18 17 14 17 14H7C7 14 8 18 12 18Z" fill="black"/>
<path d="M12 22C17.514 22 22 17.514 22 12C22 6.486 17.514 2 12 2C6.486 2 2 6.486 2 12C2 17.514 6.486 22 12 22ZM12 4C16.411 4 20 7.589 20 12C20 16.411 16.411 20 12 20C7.589 20 4 16.411 4 12C4 7.589 7.589 4 12 4Z" fill="black"/>
<path d="M8.53498 12.634L10.585 10.551C10.7244 10.4116 10.8347 10.2458 10.9094 10.0634C10.984 9.88089 11.0216 9.68538 11.02 9.48823C11.0183 9.29107 10.9774 9.09623 10.8996 8.91506C10.8218 8.73388 10.7088 8.57001 10.567 8.433C10.2939 8.16163 9.92629 8.00653 9.54133 8.00019C9.15636 7.99385 8.78389 8.13677 8.50198 8.399C8.21586 8.14013 7.84037 8.00252 7.45474 8.01521C7.0691 8.0279 6.70347 8.18989 6.43498 8.467C5.84898 9.067 5.85598 9.997 6.45398 10.584L8.53498 12.634ZM15.535 12.634L17.585 10.551C17.7244 10.4116 17.8347 10.2458 17.9094 10.0634C17.984 9.88089 18.0216 9.68538 18.02 9.48823C18.0183 9.29107 17.9774 9.09623 17.8996 8.91506C17.8218 8.73388 17.7088 8.57001 17.567 8.433C17.2939 8.16163 16.9263 8.00653 16.5413 8.00019C16.1564 7.99385 15.7839 8.13677 15.502 8.399C15.2159 8.1397 14.8403 8.00174 14.4544 8.01424C14.0686 8.02674 13.7026 8.18873 13.434 8.466C12.848 9.066 12.855 9.996 13.453 10.583L15.535 12.634Z" fill="black"/>
</svg>
