<svg width="24" height="24" viewBox="0 0 24 24" fill="none" xmlns="http://www.w3.org/2000/svg">
<path d="M19.221 10.803L12 10V4C12 3.46957 11.7893 2.96086 11.4142 2.58579C11.0391 2.21071 10.5304 2 9.99997 2C9.46954 2 8.96083 2.21071 8.58576 2.58579C8.21068 2.96086 7.99997 3.46957 7.99997 4V16L4.96897 14.788C4.7159 14.6868 4.44483 14.6384 4.17238 14.6458C3.89994 14.6532 3.63187 14.7161 3.38465 14.8309C3.13742 14.9456 2.91625 15.1096 2.73471 15.3129C2.55318 15.5162 2.4151 15.7544 2.32897 16.013L2.21597 16.353C2.15224 16.5438 2.14764 16.7494 2.20278 16.9428C2.25792 17.1362 2.37023 17.3085 2.52497 17.437L7.72197 21.769C7.90097 21.918 8.12797 22 8.36197 22H19C19.5304 22 20.0391 21.7893 20.4142 21.4142C20.7893 21.0391 21 20.5304 21 20V12.79C20.9998 12.298 20.8182 11.8233 20.49 11.4567C20.1618 11.0901 19.71 10.8574 19.221 10.803Z" fill="black"/>
</svg>
