<svg width="24" height="24" viewBox="0 0 24 24" fill="none" xmlns="http://www.w3.org/2000/svg">
<path d="M16.278 2.231C16.0982 2.08163 15.8718 1.99991 15.638 2H5C4.46957 2 3.96086 2.21071 3.58579 2.58579C3.21071 2.96086 3 3.46957 3 4V11.21C3.00019 11.702 3.18174 12.1767 3.50995 12.5433C3.83816 12.9099 4.28998 13.1426 4.779 13.197L12 14V20C12 20.5304 12.2107 21.0391 12.5858 21.4142C12.9609 21.7893 13.4696 22 14 22C14.5304 22 15.0391 21.7893 15.4142 21.4142C15.7893 21.0391 16 20.5304 16 20V8L19.03 9.212C19.2831 9.31319 19.5543 9.3616 19.8268 9.35424C20.0993 9.34688 20.3674 9.28391 20.6147 9.1692C20.8621 9.05449 21.0833 8.89046 21.2649 8.68717C21.4466 8.48387 21.5848 8.24561 21.671 7.987L21.784 7.647C21.8477 7.45622 21.8523 7.25064 21.7972 7.0572C21.742 6.86376 21.6297 6.6915 21.475 6.563L16.278 2.231Z" fill="black"/>
</svg>
