<svg width="24" height="24" viewBox="0 0 24 24" fill="none" xmlns="http://www.w3.org/2000/svg">
<path d="M20 8H8L9.212 4.97C9.31334 4.71688 9.36186 4.44571 9.35457 4.17315C9.34728 3.90059 9.28434 3.6324 9.16962 3.38506C9.05489 3.13772 8.8908 2.91644 8.68743 2.73484C8.48406 2.55323 8.2457 2.41512 7.987 2.329L7.647 2.216C7.45622 2.15227 7.25064 2.14767 7.0572 2.20281C6.86376 2.25795 6.6915 2.37026 6.563 2.525L2.231 7.722C2.08163 7.90182 1.99991 8.12824 2 8.362V19C2 19.5304 2.21071 20.0391 2.58579 20.4142C2.96086 20.7893 3.46957 21 4 21H11.21C11.702 20.9998 12.1767 20.8183 12.5433 20.4901C12.9099 20.1618 13.1426 19.71 13.197 19.221L14 12H20C20.5304 12 21.0391 11.7893 21.4142 11.4142C21.7893 11.0391 22 10.5304 22 10C22 9.46957 21.7893 8.96086 21.4142 8.58579C21.0391 8.21072 20.5304 8 20 8Z" fill="black"/>
</svg>
