<svg width="24" height="24" viewBox="0 0 24 24" fill="none" xmlns="http://www.w3.org/2000/svg">
<path d="M12.71 2.29C12.617 2.19627 12.5064 2.12188 12.3846 2.07111C12.2627 2.02034 12.132 1.9942 12 1.9942C11.868 1.9942 11.7373 2.02034 11.6154 2.07111C11.4936 2.12188 11.383 2.19627 11.29 2.29L2.29 11.29C2.19627 11.383 2.12188 11.4936 2.07111 11.6154C2.02034 11.7373 1.9942 11.868 1.9942 12C1.9942 12.132 2.02034 12.2627 2.07111 12.3846C2.12188 12.5064 2.19627 12.617 2.29 12.71C2.38344 12.8027 2.49426 12.876 2.61609 12.9258C2.73793 12.9755 2.86839 13.0008 3 13H4V20C4 20.5304 4.21071 21.0391 4.58579 21.4142C4.96086 21.7893 5.46957 22 6 22H18C18.5304 22 19.0391 21.7893 19.4142 21.4142C19.7893 21.0391 20 20.5304 20 20V13H21C21.2652 13 21.5196 12.8946 21.7071 12.7071C21.8946 12.5196 22 12.2652 22 12C22.0008 11.8684 21.9755 11.7379 21.9258 11.6161C21.876 11.4943 21.8027 11.3834 21.71 11.29L12.71 2.29ZM6 20V10.41L12 4.41L18 10.41V20H6Z" fill="black"/>
</svg>
