<svg width="24" height="24" viewBox="0 0 24 24" fill="none" xmlns="http://www.w3.org/2000/svg">
<path d="M21.983 13.821L20.132 3.641C20.0483 3.18036 19.8056 2.76372 19.4461 2.4638C19.0866 2.16388 18.6332 1.99973 18.165 2H5.835C5.36647 1.99997 4.9128 2.16444 4.55313 2.46471C4.19346 2.76498 3.95063 3.18199 3.867 3.643L2.017 13.821L2.036 13.824C2.024 13.884 2 13.938 2 14V19C2 20.103 2.897 21 4 21H20C21.103 21 22 20.103 22 19V14C22 13.937 21.976 13.884 21.965 13.824L21.983 13.821ZM5.835 4H18.166L19.803 13H4.198L5.835 4ZM4 19V15H20L20.002 19H4Z" fill="black"/>
<path d="M17 16H19V18H17V16ZM14 16H16V18H14V16Z" fill="black"/>
</svg>
