<svg width="24" height="24" viewBox="0 0 24 24" fill="none" xmlns="http://www.w3.org/2000/svg">
<path d="M20.84 7.4L22.25 6L18 1.75L16.6 3.16L18 4.58L16.6 6L14.47 3.87L13.06 2.45L11.65 3.87L12.35 4.58L3 13.92C2.68312 14.236 2.48136 14.649 2.42697 15.0932C2.37258 15.5374 2.46872 15.9869 2.7 16.37L4 18.56L1.75 20.84L3.16 22.25L5.44 20L7.63 21.31C7.93287 21.4898 8.27783 21.5863 8.63 21.59C8.89895 21.5942 9.16598 21.5441 9.41512 21.4428C9.66427 21.3414 9.8904 21.1908 10.08 21L19.42 11.66L20.13 12.36L21.55 10.95L20.13 9.53L18 7.4L19.42 6L20.84 7.4ZM18 10.23L8.66 19.58L6 18L4.42 15.34L5.28 14.47L8.11 17.3L9.53 15.89L6.7 13.06L8.11 11.65L10.94 14.47L12.35 13.06L9.52 10.23L10.94 8.82L13.77 11.65L15.18 10.23L12.35 7.4L13.77 6L18 10.23Z" fill="black"/>
</svg>
