<svg width="24" height="24" viewBox="0 0 24 24" fill="none" xmlns="http://www.w3.org/2000/svg">
<path d="M21.857 8.485L18.857 3.485C18.7684 3.33689 18.6428 3.21433 18.4926 3.12931C18.3423 3.0443 18.1726 2.99974 18 3H13.414L12.707 2.293C12.6142 2.20005 12.504 2.12632 12.3827 2.07601C12.2614 2.02569 12.1313 1.9998 12 1.9998C11.8687 1.9998 11.7386 2.02569 11.6173 2.07601C11.496 2.12632 11.3858 2.20005 11.293 2.293L10.586 3H6C5.82739 2.99974 5.65767 3.0443 5.50744 3.12931C5.35722 3.21433 5.23164 3.33689 5.143 3.485L2.143 8.485C2.05024 8.64073 2.0015 8.81873 2.002 9H2V19C2 19.2652 2.10536 19.5196 2.29289 19.7071C2.48043 19.8946 2.73478 20 3 20H21C21.2652 20 21.5196 19.8946 21.7071 19.7071C21.8946 19.5196 22 19.2652 22 19V9H21.998C21.998 8.822 21.952 8.644 21.857 8.485ZM20 18H14V14H10V18H4V10H6.414L6.707 9.707L8.707 7.707L12 4.414L16.293 8.707L17.293 9.707L17.586 10H20V18Z" fill="black"/>
<path d="M11.895 12C13.0576 12 14 11.0576 14 9.895C14 8.73244 13.0576 7.79 11.895 7.79C10.7325 7.79 9.79004 8.73244 9.79004 9.895C9.79004 11.0576 10.7325 12 11.895 12Z" fill="black"/>
<path d="M6 12H8V15H6V12ZM16 12H18V15H16V12Z" fill="black"/>
</svg>
