<svg width="24" height="24" viewBox="0 0 24 24" fill="none" xmlns="http://www.w3.org/2000/svg">
<path d="M20 7H17V4C17 2.897 16.103 2 15 2H9C7.897 2 7 2.897 7 4V7H4C2.897 7 2 7.897 2 9V15C2 16.103 2.897 17 4 17H7V20C7 21.103 7.897 22 9 22H15C16.103 22 17 21.103 17 20V17H20C21.103 17 22 16.103 22 15V9C22 7.897 21.103 7 20 7ZM20 15H15V19H15.001V20H9V15H4V9H9V4H15V9H20V15Z" fill="black"/>
<path d="M8 14V10L5 12L8 14ZM16 14L19 12L16 10V14ZM10 8H14L12 5L10 8ZM12 19L14 16H10L12 19Z" fill="black"/>
<path d="M12 14C13.1046 14 14 13.1046 14 12C14 10.8954 13.1046 10 12 10C10.8954 10 10 10.8954 10 12C10 13.1046 10.8954 14 12 14Z" fill="black"/>
</svg>
