<svg width="24" height="24" viewBox="0 0 24 24" fill="none" xmlns="http://www.w3.org/2000/svg">
<path d="M22 8.65C21.9113 7.38549 21.3456 6.20189 20.4173 5.33863C19.4891 4.47536 18.2676 3.99689 17 4H7C5.71776 3.99827 4.48386 4.48921 3.5533 5.37138C2.62275 6.25354 2.06668 7.45949 2 8.74C1.99436 8.82657 1.99436 8.91342 2 9V16.5C1.99735 16.9604 2.08607 17.4167 2.26102 17.8425C2.43597 18.2684 2.69368 18.6553 3.01921 18.9808C3.34475 19.3063 3.73164 19.564 4.15747 19.739C4.58331 19.9139 5.03963 20.0027 5.5 20C6.93 20 7.82 18.94 8.69 17.91C9.01 17.54 9.34 17.15 9.69 16.81C10.1543 16.4699 10.6759 16.2158 11.23 16.06C11.7416 16 12.2584 16 12.77 16.06C13.3241 16.2158 13.8457 16.4699 14.31 16.81C14.66 17.15 14.99 17.54 15.31 17.91C16.18 18.91 17.07 20 18.5 20C18.9604 20.0027 19.4167 19.9139 19.8425 19.739C20.2684 19.564 20.6553 19.3063 20.9808 18.9808C21.3063 18.6553 21.564 18.2684 21.739 17.8425C21.9139 17.4167 22.0027 16.9604 22 16.5V9C22.0054 8.91342 22.0054 8.82658 22 8.74V8.65ZM20 16.5C20 16.8978 19.842 17.2794 19.5607 17.5607C19.2794 17.842 18.8978 18 18.5 18C18 18 17.5 17.36 16.84 16.62C16.5 16.23 16.12 15.77 15.69 15.36C14.9659 14.7767 14.1281 14.3509 13.23 14.11C12.4166 13.9633 11.5834 13.9633 10.77 14.11C9.87194 14.3509 9.03407 14.7767 8.31 15.36C7.88 15.77 7.5 16.23 7.16 16.62C6.54 17.36 6 18 5.5 18C5.10218 18 4.72064 17.842 4.43934 17.5607C4.15804 17.2794 4 16.8978 4 16.5V9C4.00488 8.95012 4.00488 8.89988 4 8.85C4.03852 8.08063 4.37151 7.35556 4.93 6.825C5.48849 6.29443 6.22967 5.99904 7 6H17C17.7494 5.99673 18.4729 6.27408 19.0282 6.77747C19.5834 7.28086 19.9301 7.97383 20 8.72V8.84C19.995 8.89322 19.995 8.94678 20 9V16.5Z" fill="black"/>
<path d="M16 13C16.5523 13 17 12.5523 17 12C17 11.4477 16.5523 11 16 11C15.4477 11 15 11.4477 15 12C15 12.5523 15.4477 13 16 13Z" fill="black"/>
<path d="M18 11C18.5523 11 19 10.5523 19 10C19 9.44772 18.5523 9 18 9C17.4477 9 17 9.44772 17 10C17 10.5523 17.4477 11 18 11Z" fill="black"/>
<path d="M16 9C16.5523 9 17 8.55228 17 8C17 7.44772 16.5523 7 16 7C15.4477 7 15 7.44772 15 8C15 8.55228 15.4477 9 16 9Z" fill="black"/>
<path d="M14 11C14.5523 11 15 10.5523 15 10C15 9.44772 14.5523 9 14 9C13.4477 9 13 9.44772 13 10C13 10.5523 13.4477 11 14 11Z" fill="black"/>
<path d="M8 12C9.10457 12 10 11.1046 10 10C10 8.89543 9.10457 8 8 8C6.89543 8 6 8.89543 6 10C6 11.1046 6.89543 12 8 12Z" fill="black"/>
</svg>
