<svg width="24" height="24" viewBox="0 0 24 24" fill="none" xmlns="http://www.w3.org/2000/svg">
<path d="M12 4.998C10.164 4.998 8.64398 5.387 7.38298 5.969L3.70698 2.293L2.29298 3.707L5.60798 7.023C2.99498 8.975 2.06498 11.641 2.05098 11.683L1.94598 11.999L2.05098 12.315C2.07298 12.382 4.36698 19 12 19C13.835 19 15.354 18.611 16.615 18.029L20.293 21.707L21.707 20.293L18.39 16.976C21.004 15.024 21.935 12.358 21.949 12.316L22.054 12L21.949 11.684C21.927 11.616 19.633 4.998 12 4.998ZM4.07398 12C4.17698 11.764 4.34798 11.414 4.59498 11.011L10.462 16.878C6.24898 16.23 4.52298 13.035 4.07398 12ZM13.321 16.907L5.84098 9.426C6.20502 9.06182 6.60281 8.73301 7.02898 8.444L15.084 16.498C14.5119 16.6943 13.9211 16.8314 13.321 16.907ZM16.969 15.555L15.428 14.014C15.782 13.418 16 12.734 16 11.999C16 11.525 15.901 11.075 15.745 10.65C15.6535 10.7587 15.5395 10.8463 15.4109 10.9067C15.2823 10.9672 15.1421 10.999 15 11C14.7348 11 14.4804 10.8946 14.2929 10.7071C14.1053 10.5196 14 10.2652 14 10C14 9.561 14.288 9.198 14.682 9.064C13.9532 8.38515 12.9959 8.00501 12 7.999C11.265 7.999 10.581 8.217 9.98498 8.571L8.91498 7.501C9.90754 7.16033 10.9506 6.99026 12 6.998C17.351 6.998 19.425 10.845 19.926 11.998C19.2848 13.4322 18.2619 14.6627 16.969 15.555Z" fill="black"/>
</svg>
