<svg width="24" height="24" viewBox="0 0 24 24" fill="none" xmlns="http://www.w3.org/2000/svg">
<path d="M2.51299 12.833L11.535 17.873C11.6835 17.9565 11.851 18.0004 12.0214 18.0005C12.1917 18.0007 12.3593 17.9571 12.508 17.874L21.486 12.874C21.6419 12.7873 21.7719 12.6604 21.8622 12.5065C21.9526 12.3526 22.0002 12.1774 22 11.9989C21.9998 11.8205 21.9518 11.6453 21.8611 11.4916C21.7703 11.338 21.6401 11.2114 21.484 11.125L12.462 6.125C12.3139 6.0429 12.1474 5.99974 11.9781 5.99957C11.8088 5.99939 11.6422 6.04221 11.494 6.124L2.51599 11.084C2.35978 11.1703 2.22951 11.2968 2.13869 11.4504C2.04787 11.604 1.99982 11.7792 1.99951 11.9576C1.99921 12.1361 2.04666 12.3114 2.13695 12.4653C2.22724 12.6192 2.35708 12.7462 2.51299 12.833ZM11.977 8.143L18.941 12.002L12.024 15.855L5.05999 11.965L11.977 8.143Z" fill="black"/>
<path d="M3.48501 15.126L2.51401 16.874L11.514 21.874C11.6625 21.9565 11.8296 21.9998 11.9995 21.9998C12.1694 21.9998 12.3365 21.9565 12.485 21.874L21.485 16.874L20.514 15.126L12 19.856L3.48501 15.126ZM16 4H22V6H16V4Z" fill="black"/>
</svg>
