<svg width="24" height="24" viewBox="0 0 24 24" fill="none" xmlns="http://www.w3.org/2000/svg">
<path d="M12 22C10.8901 22.002 9.78783 21.8161 8.74 21.45C8.45808 21.3682 8.16279 21.3429 7.87106 21.3755C7.57933 21.4081 7.29692 21.498 7.04 21.64C6.27336 22.0181 5.39509 22.1034 4.57 21.88C3.98634 21.7149 3.4547 21.4031 3.02581 20.9742C2.59691 20.5453 2.28506 20.0137 2.12 19.43C1.9066 18.6174 1.99175 17.7552 2.36 17C2.502 16.7431 2.59188 16.4607 2.62449 16.1689C2.65709 15.8772 2.63178 15.5819 2.55 15.3C1.82467 13.1838 1.82467 10.8862 2.55 8.77C3.02989 7.3253 3.83746 6.01118 4.90956 4.93041C5.98165 3.84964 7.28922 3.03151 8.73 2.54C10.8462 1.81467 13.1438 1.81467 15.26 2.54C15.5472 2.62882 15.8494 2.65867 16.1484 2.62773C16.4474 2.5968 16.7371 2.50573 17 2.36C17.7666 1.9819 18.6449 1.89656 19.47 2.12C20.0537 2.28505 20.5853 2.59691 21.0142 3.0258C21.4431 3.4547 21.7549 3.98634 21.92 4.57C22.1211 5.38737 22.0217 6.24977 21.64 7C21.498 7.25691 21.4081 7.53933 21.3755 7.83106C21.3429 8.12278 21.3682 8.41808 21.45 8.7C22.1753 10.8162 22.1753 13.1138 21.45 15.23C20.9638 16.6684 20.1524 17.9752 19.0788 19.0488C18.0052 20.1224 16.6984 20.9338 15.26 21.42C14.2116 21.7874 13.1108 21.9832 12 22ZM8.16 19.36C8.57806 19.3605 8.99333 19.428 9.39 19.56C11.0871 20.1483 12.9329 20.1483 14.63 19.56C15.7782 19.1755 16.8218 18.5303 17.6788 17.675C18.5359 16.8197 19.1832 15.7774 19.57 14.63C20.1583 12.9329 20.1583 11.0871 19.57 9.39C19.4013 8.85935 19.34 8.3004 19.3898 7.7458C19.4396 7.19121 19.5995 6.65211 19.86 6.16C20.0208 5.82304 20.0528 5.43892 19.95 5.08C19.8792 4.84352 19.7508 4.62835 19.5762 4.4538C19.4017 4.27925 19.1865 4.1508 18.95 4.08C18.5911 3.97722 18.207 4.00923 17.87 4.17C17.3779 4.43053 16.8388 4.59037 16.2842 4.64016C15.7296 4.68996 15.1707 4.62871 14.64 4.46C12.9429 3.87174 11.0971 3.87174 9.4 4.46C8.24838 4.83848 7.20021 5.47885 6.33785 6.3308C5.4755 7.18274 4.82244 8.22306 4.43 9.37C3.84175 11.0671 3.84175 12.9129 4.43 14.61C4.59871 15.1406 4.65996 15.6996 4.61017 16.2542C4.56037 16.8088 4.40054 17.3479 4.14 17.84C3.97924 18.177 3.94723 18.5611 4.05 18.92C4.12081 19.1565 4.24926 19.3717 4.4238 19.5462C4.59835 19.7207 4.81353 19.8492 5.05 19.92C5.40893 20.0228 5.79304 19.9908 6.13 19.83C6.7602 19.5156 7.45576 19.3546 8.16 19.36Z" fill="black"/>
<path d="M8 12H6C6 10.4087 6.63214 8.88258 7.75736 7.75736C8.88258 6.63214 10.4087 6 12 6V8C10.9391 8 9.92172 8.42143 9.17157 9.17157C8.42143 9.92172 8 10.9391 8 12Z" fill="black"/>
</svg>
