<svg width="24" height="24" viewBox="0 0 24 24" fill="none" xmlns="http://www.w3.org/2000/svg">
<path d="M10.998 16L15.998 12L10.998 8V11H1.99799V13H10.998V16Z" fill="black"/>
<path d="M12.999 2.999C11.8165 2.99572 10.6452 3.22711 9.55276 3.67976C8.46035 4.13242 7.46861 4.79734 6.63501 5.636L8.04901 7.05C9.37101 5.728 11.129 4.999 12.999 4.999C14.869 4.999 16.627 5.728 17.949 7.05C19.271 8.372 20 10.13 20 12C20 13.87 19.271 15.628 17.949 16.95C16.627 18.272 14.869 19.001 12.999 19.001C11.129 19.001 9.37101 18.272 8.04901 16.95L6.63501 18.364C8.33401 20.064 10.594 21.001 12.999 21.001C15.404 21.001 17.664 20.064 19.363 18.364C21.063 16.665 22 14.405 22 12C22 9.595 21.063 7.335 19.363 5.636C18.5294 4.79734 17.5377 4.13242 16.4453 3.67976C15.3529 3.22711 14.1815 2.99572 12.999 2.999Z" fill="black"/>
</svg>
