<svg width="24" height="24" viewBox="0 0 24 24" fill="none" xmlns="http://www.w3.org/2000/svg">
<path d="M11.42 21.815C11.5896 21.935 11.7922 21.9995 12 21.9995C12.2078 21.9995 12.4104 21.935 12.58 21.815C12.884 21.598 20.029 16.44 20 10C20 5.589 16.411 2 12 2C7.589 2 4 5.589 4 9.996C3.971 16.44 11.116 21.598 11.42 21.815ZM12 4C15.309 4 18 6.691 18 10.004C18.021 14.442 13.612 18.427 12 19.735C10.389 18.427 5.979 14.442 6 10C6 6.691 8.691 4 12 4Z" fill="black"/>
<path d="M11 14H13V11H16V9H13V6H11V9H8V11H11V14Z" fill="black"/>
</svg>
