<svg width="24" height="24" viewBox="0 0 24 24" fill="none" xmlns="http://www.w3.org/2000/svg">
<path d="M16.813 4.419C16.7208 4.28935 16.5988 4.18367 16.4574 4.11077C16.316 4.03788 16.1591 3.9999 16 4H3.00001C2.81637 4.00017 2.63633 4.05089 2.47962 4.14662C2.3229 4.24235 2.19558 4.37938 2.1116 4.54269C2.02762 4.706 1.99023 4.88928 2.00354 5.07243C2.01684 5.25558 2.08031 5.43154 2.18701 5.581L6.77101 12L2.18601 18.419C2.07926 18.5685 2.01578 18.7446 2.00252 18.9278C1.98926 19.1111 2.02673 19.2944 2.11083 19.4578C2.19493 19.6211 2.3224 19.7581 2.47926 19.8538C2.63611 19.9494 2.81628 20 3.00001 20H16C16.1591 20.0001 16.316 19.9621 16.4574 19.8892C16.5988 19.8163 16.7208 19.7106 16.813 19.581L21.813 12.581C21.9345 12.4116 21.9998 12.2084 21.9998 12C21.9998 11.7916 21.9345 11.5884 21.813 11.419L16.813 4.419ZM15.485 18H4.94301L8.813 12.581C8.93447 12.4116 8.99979 12.2084 8.99979 12C8.99979 11.7916 8.93447 11.5884 8.813 11.419L4.94301 6H15.485L19.771 12L15.485 18Z" fill="black"/>
</svg>
