<svg width="24" height="24" viewBox="0 0 24 24" fill="none" xmlns="http://www.w3.org/2000/svg">
<path d="M3 20H21C21.176 20.0001 21.3488 19.9537 21.5011 19.8656C21.6534 19.7774 21.7798 19.6507 21.8674 19.4981C21.955 19.3456 22.0009 19.1726 22.0003 18.9966C21.9997 18.8207 21.9527 18.648 21.864 18.496L14.864 6.496C14.505 5.881 13.495 5.883 13.135 6.496L9.866 12.1L8.846 10.468C8.75619 10.3247 8.63144 10.2066 8.48346 10.1247C8.33547 10.0429 8.16912 9.99994 8 10C7.83057 10.0002 7.66295 10.0434 7.5148 10.1256C7.36664 10.2078 7.2418 10.3263 7.152 10.47L2.152 18.47C2.05739 18.6214 2.00503 18.7953 2.00034 18.9738C1.99566 19.1522 2.03882 19.3286 2.12536 19.4848C2.21189 19.6409 2.33864 19.771 2.49244 19.8616C2.64625 19.9522 2.8215 20 3 20ZM14 8.985L19.259 18H13.555L11.069 14.013L14 8.985ZM8.001 12.885L11.197 18H4.805L8.001 12.885ZM6 8C7.654 8 9 6.654 9 5C9 3.346 7.654 2 6 2C4.346 2 3 3.346 3 5C3 6.654 4.346 8 6 8ZM6 4C6.26522 4 6.51957 4.10536 6.70711 4.29289C6.89465 4.48043 7 4.73478 7 5C7 5.26522 6.89465 5.51957 6.70711 5.70711C6.51957 5.89464 6.26522 6 6 6C5.73479 6 5.48043 5.89464 5.2929 5.70711C5.10536 5.51957 5 5.26522 5 5C5 4.73478 5.10536 4.48043 5.2929 4.29289C5.48043 4.10536 5.73479 4 6 4Z" fill="black"/>
</svg>
