<svg width="24" height="24" viewBox="0 0 24 24" fill="none" xmlns="http://www.w3.org/2000/svg">
<path d="M18.464 2.114C18.3025 2.02907 18.1208 1.99003 17.9387 2.00114C17.7566 2.01225 17.581 2.07307 17.431 2.177L4.43099 11.177C4.29855 11.2694 4.19039 11.3925 4.1157 11.5357C4.04102 11.6789 4.00201 11.838 4.00201 11.9995C4.00201 12.161 4.04102 12.3201 4.1157 12.4633C4.19039 12.6065 4.29855 12.7296 4.43099 12.822L17.431 21.822C17.581 21.9258 17.7566 21.9866 17.9387 21.9978C18.1208 22.009 18.3025 21.9701 18.4641 21.8855C18.6257 21.8008 18.761 21.6735 18.8555 21.5175C18.95 21.3614 18.9999 21.1824 19 21V3C19 2.81746 18.9501 2.6384 18.8556 2.48222C18.7611 2.32604 18.6257 2.1987 18.464 2.114ZM17 19.091L6.75699 12L17 4.909V19.091Z" fill="black"/>
</svg>
