<svg width="24" height="24" viewBox="0 0 24 24" fill="none" xmlns="http://www.w3.org/2000/svg">
<path d="M11.999 1.993C6.48602 1.994 2.00002 6.48 1.99902 11.994C1.99902 17.508 6.48502 21.994 12 21.994C17.514 21.993 22 17.507 22 11.994C22 6.48 17.514 1.994 11.999 1.993ZM12 19.994C7.58802 19.994 3.99902 16.405 3.99902 11.994C4.00002 7.583 7.58902 3.994 11.999 3.993C16.411 3.994 20 7.583 20 11.994C20 16.404 16.411 19.993 12 19.994Z" fill="black"/>
<path d="M12.012 7.989L8.00702 11.994L12.012 15.998V12.994H16.006V10.994H12.012V7.989Z" fill="black"/>
</svg>
