<svg width="24" height="24" viewBox="0 0 24 24" fill="none" xmlns="http://www.w3.org/2000/svg">
<path d="M12.006 2.007C10.6926 2.00239 9.39139 2.25837 8.17764 2.76011C6.96389 3.26185 5.86173 3.99938 4.93497 4.93C1.03697 8.828 1.03697 15.172 4.93497 19.072C6.81997 20.957 9.33097 21.995 12.006 21.995C14.681 21.995 17.193 20.957 19.077 19.072C22.975 15.173 22.975 8.829 19.077 4.93C18.1502 3.99942 17.048 3.26192 15.8343 2.76019C14.6205 2.25845 13.3193 2.00245 12.006 2.007ZM17.663 17.657C16.156 19.164 14.147 19.994 12.006 19.994C9.86497 19.994 7.85597 19.164 6.34897 17.657C3.23097 14.538 3.23097 9.463 6.34897 6.344C7.85597 4.837 9.86597 4.007 12.006 4.007C14.146 4.007 16.156 4.837 17.663 6.344C20.781 9.463 20.781 14.538 17.663 17.657Z" fill="black"/>
<path d="M14.346 8.247L11.131 11.462L9.00598 9.337V15H14.669L12.545 12.876L15.76 9.661L14.346 8.247Z" fill="black"/>
</svg>
