<svg width="24" height="24" viewBox="0 0 24 24" fill="none" xmlns="http://www.w3.org/2000/svg">
<path d="M11.993 2.007C10.6797 2.00215 9.37847 2.25792 8.16471 2.75949C6.95095 3.26106 5.84876 3.99847 4.92199 4.929C1.02299 8.828 1.02299 15.172 4.92199 19.072C5.84878 20.0026 6.95095 20.7401 8.16469 21.2418C9.37843 21.7435 10.6796 21.9996 11.993 21.995C13.3064 21.9997 14.6076 21.7438 15.8214 21.242C17.0352 20.7403 18.1373 20.0027 19.064 19.072C22.963 15.173 22.963 8.829 19.064 4.929C18.1373 3.99843 17.0351 3.26099 15.8213 2.75942C14.6075 2.25784 13.3063 2.0021 11.993 2.007ZM17.65 17.657C16.9084 18.4012 16.0266 18.991 15.0556 19.3921C14.0845 19.7933 13.0436 19.9978 11.993 19.994C9.85199 19.994 7.84299 19.164 6.33599 17.657C3.21699 14.538 3.21699 9.462 6.33599 6.343C7.07768 5.599 7.95955 5.00946 8.93056 4.6085C9.90157 4.20753 10.9425 4.00308 11.993 4.007C14.135 4.007 16.143 4.836 17.65 6.343C20.77 9.462 20.77 14.538 17.65 17.657Z" fill="black"/>
<path d="M14.657 9H8.99298V14.663L11.118 12.539L14.333 15.753L15.747 14.339L12.532 11.125L14.657 9Z" fill="black"/>
</svg>
