<svg width="24" height="24" viewBox="0 0 24 24" fill="none" xmlns="http://www.w3.org/2000/svg">
<path d="M22 7.999C21.9998 7.82053 21.9519 7.64536 21.8611 7.49167C21.7704 7.33798 21.6402 7.21138 21.484 7.125L12.462 2.125C12.3138 2.04333 12.1473 2.00049 11.978 2.00049C11.8088 2.00049 11.6422 2.04333 11.494 2.125L2.516 7.085C2.36004 7.17136 2.23 7.29785 2.13935 7.45137C2.0487 7.60488 2.00073 7.77984 2.00043 7.95812C2.00012 8.1364 2.04748 8.31152 2.13761 8.46534C2.22773 8.61917 2.35734 8.7461 2.513 8.833L11.535 13.873C11.6835 13.9565 11.851 14.0004 12.0214 14.0005C12.1917 14.0007 12.3593 13.9571 12.508 13.874L21.486 8.874C21.642 8.78728 21.7719 8.6604 21.8622 8.50654C21.9526 8.35268 22.0002 8.17744 22 7.999ZM12.023 11.854L5.06 7.965L11.977 4.143L18.941 8.002L12.023 11.854Z" fill="black"/>
<path d="M20.515 11.126L12 15.856L3.48498 11.126L2.51398 12.874L11.514 17.874C11.6625 17.9565 11.8296 17.9998 11.9995 17.9998C12.1694 17.9998 12.3365 17.9565 12.485 17.874L21.485 12.874L20.515 11.126Z" fill="black"/>
<path d="M20.515 15.126L12 19.856L3.48498 15.126L2.51398 16.874L11.514 21.874C11.6625 21.9565 11.8296 21.9998 11.9995 21.9998C12.1694 21.9998 12.3365 21.9565 12.485 21.874L21.485 16.874L20.515 15.126Z" fill="black"/>
</svg>
