<svg width="24" height="24" viewBox="0 0 24 24" fill="none" xmlns="http://www.w3.org/2000/svg">
<path d="M2 12L7 16V13H16V11H7V8L2 12Z" fill="black"/>
<path d="M13.001 2.999C11.8186 2.99572 10.6472 3.22711 9.55477 3.67976C8.46236 4.13242 7.47063 4.79734 6.63702 5.636L8.05102 7.05C9.37302 5.728 11.131 4.999 13.001 4.999C14.871 4.999 16.629 5.728 17.951 7.05C19.273 8.372 20.002 10.13 20.002 12C20.002 13.87 19.273 15.628 17.951 16.95C16.629 18.272 14.871 19.001 13.001 19.001C11.131 19.001 9.37302 18.272 8.05102 16.95L6.63702 18.364C8.33602 20.064 10.596 21.001 13.001 21.001C15.406 21.001 17.666 20.064 19.365 18.364C21.065 16.665 22.002 14.405 22.002 12C22.002 9.595 21.065 7.335 19.365 5.636C18.5314 4.79734 17.5397 4.13242 16.4473 3.67976C15.3549 3.22711 14.1835 2.99572 13.001 2.999Z" fill="black"/>
</svg>
