<svg width="24" height="24" viewBox="0 0 24 24" fill="none" xmlns="http://www.w3.org/2000/svg">
<path d="M21.707 20.293L18.319 16.905C19.4079 15.5098 19.9995 13.7908 20 12.021H18C17.9993 13.2604 17.6116 14.4686 16.891 15.477L15.439 14.025C15.787 13.434 16 12.755 16 12.021V6.021C16 3.804 14.215 2 12.021 2C11.951 2 11.881 2.009 11.812 2.025C10.7852 2.07454 9.81673 2.51704 9.10713 3.26089C8.39753 4.00474 8.00115 4.99297 8.00003 6.021V6.586L3.70703 2.293L2.29303 3.707L20.293 21.707L21.707 20.293ZM10 6.021C10 4.918 10.897 4.021 12 4.021C12.055 4.02092 12.1099 4.0159 12.164 4.006C13.188 4.08 14 4.956 14 6.021V12.021C14 12.193 13.971 12.356 13.929 12.515L10 8.586V6.021ZM6.00003 12.021H4.00003C4.00003 16.093 7.06003 19.457 11 19.952V22.021H13V19.951C13.765 19.8554 14.512 19.6496 15.218 19.34L13.66 17.782C13.1207 17.9393 12.5618 18.0197 12 18.021C8.69103 18.021 6.00003 15.329 6.00003 12.021Z" fill="black"/>
<path d="M8.01099 12.132C8.04018 13.151 8.45802 14.1203 9.17887 14.8411C9.89972 15.5619 10.869 15.9798 11.888 16.009L8.01099 12.132Z" fill="black"/>
</svg>
