<svg width="24" height="24" viewBox="0 0 24 24" fill="none" xmlns="http://www.w3.org/2000/svg">
<path d="M19 6H5C3.346 6 2 7.346 2 9V14C2 16.206 3.794 18 6 18H7.637C8.803 18 9.917 17.443 10.618 16.509C11.278 15.63 12.722 15.629 13.382 16.51C13.7301 16.9717 14.1804 17.3465 14.6976 17.605C15.2148 17.8635 15.7848 17.9987 16.363 18H18C20.206 18 22 16.206 22 14V9C22 7.346 20.654 6 19 6ZM20 14C20 15.103 19.103 16 18 16H16.363C15.823 16 15.306 15.741 14.981 15.31C14.271 14.362 13.184 13.818 12 13.818C10.816 13.818 9.729 14.362 9.019 15.309C8.85737 15.5228 8.64857 15.6964 8.40886 15.8162C8.16915 15.9361 7.905 15.999 7.637 16H6C4.897 16 4 15.103 4 14V9C4 8.449 4.448 8 5 8H19C19.552 8 20 8.449 20 9V14Z" fill="black"/>
<path d="M7.5 13C8.88071 13 10 12.3284 10 11.5C10 10.6716 8.88071 10 7.5 10C6.11929 10 5 10.6716 5 11.5C5 12.3284 6.11929 13 7.5 13Z" fill="black"/>
<path d="M16.5 13C17.8807 13 19 12.3284 19 11.5C19 10.6716 17.8807 10 16.5 10C15.1193 10 14 10.6716 14 11.5C14 12.3284 15.1193 13 16.5 13Z" fill="black"/>
</svg>
