<svg width="24" height="24" viewBox="0 0 24 24" fill="none" xmlns="http://www.w3.org/2000/svg">
<path d="M19.684 5.821L10.684 2.549C10.3819 2.43856 10.0576 2.40269 9.73869 2.44443C9.41977 2.48618 9.11563 2.6043 8.85214 2.78877C8.58864 2.97323 8.37358 3.21859 8.22522 3.50397C8.07687 3.78936 7.9996 4.10635 8 4.428V10.557C7.39487 10.1965 6.70439 10.0042 6 10C3.794 10 2 11.794 2 14C2 16.206 3.794 18 6 18C8.206 18 10 16.206 10 14V4.428L19 7.7V14.556C18.3946 14.1962 17.7042 14.0043 17 14C14.794 14 13 15.794 13 18C13 20.206 14.794 22 17 22C19.206 22 21 20.206 21 18V7.7C21 6.862 20.471 6.106 19.684 5.821ZM6 16C4.897 16 4 15.103 4 14C4 12.897 4.897 12 6 12C7.103 12 8 12.897 8 14C8 15.103 7.103 16 6 16ZM17 20C15.897 20 15 19.103 15 18C15 16.897 15.897 16 17 16C18.103 16 19 16.897 19 18C19 19.103 18.103 20 17 20Z" fill="black"/>
</svg>
