<svg width="24" height="24" viewBox="0 0 24 24" fill="none" xmlns="http://www.w3.org/2000/svg">
<path d="M15.535 2.808C14.779 2.052 13.463 2.052 12.707 2.808L2.808 12.707C2.4333 13.0822 2.22284 13.5908 2.22284 14.121C2.22284 14.6512 2.4333 15.1598 2.808 15.535L8.465 21.192C8.843 21.57 9.345 21.778 9.879 21.778C10.413 21.778 10.915 21.57 11.293 21.192L21.192 11.293C21.57 10.915 21.778 10.413 21.778 9.879C21.778 9.345 21.57 8.843 21.192 8.465L15.535 2.808ZM9.879 19.778L4.222 14.121L14.121 4.222L19.778 9.879L9.879 19.778Z" fill="black"/>
<path d="M9 16C9.55228 16 10 15.5523 10 15C10 14.4477 9.55228 14 9 14C8.44772 14 8 14.4477 8 15C8 15.5523 8.44772 16 9 16Z" fill="black"/>
<path d="M15.707 21.707L14.293 20.293L20.293 14.293L21.707 15.708L15.707 21.707ZM8.293 2.293L9.707 3.707L3.707 9.707L2.293 8.292L8.293 2.293Z" fill="black"/>
</svg>
