<svg width="24" height="24" viewBox="0 0 24 24" fill="none" xmlns="http://www.w3.org/2000/svg">
<path d="M16 2H8C6.897 2 6 2.897 6 4V20C6 21.103 6.897 22 8 22H16C17.103 22 18 21.103 18 20V4C18 2.897 17.103 2 16 2ZM8 20V4H16L16.001 20H8ZM3 7H5V5H3V5.5H2V6.5H3V7ZM21 5H19V7H21V6.5H22V5.5H21V5ZM3 11H5V9H3V9.5H2V10.5H3V11ZM21 9H19V11H21V10.5H22V9.5H21V9ZM3 15H5V13H3V13.5H2V14.5H3V15ZM21 13H19V15H21V14.5H22V13.5H21V13ZM3 19H5V17H3V17.5H2V18.5H3V19ZM21 17H19V19H21V18.5H22V17.5H21V17Z" fill="black"/>
</svg>
