<svg width="24" height="24" viewBox="0 0 24 24" fill="none" xmlns="http://www.w3.org/2000/svg">
<path d="M6 6C7.10457 6 8 5.10457 8 4C8 2.89543 7.10457 2 6 2C4.89543 2 4 2.89543 4 4C4 5.10457 4.89543 6 6 6Z" fill="black"/>
<path d="M9 7H3C2.73478 7 2.48043 7.10536 2.29289 7.29289C2.10536 7.48043 2 7.73478 2 8V15H4V22H8V15H10V8C10 7.73478 9.89464 7.48043 9.70711 7.29289C9.51957 7.10536 9.26522 7 9 7Z" fill="black"/>
<path d="M17 6C18.1046 6 19 5.10457 19 4C19 2.89543 18.1046 2 17 2C15.8954 2 15 2.89543 15 4C15 5.10457 15.8954 6 17 6Z" fill="black"/>
<path d="M20.21 7.73C20.1495 7.51369 20.018 7.32405 19.8366 7.19163C19.6552 7.0592 19.4344 6.9917 19.21 7H14.71C14.4856 6.9917 14.2648 7.0592 14.0834 7.19163C13.902 7.32405 13.7705 7.51369 13.71 7.73L12 14H14L13 18H15V22H19V18H21L20 14H22L20.21 7.73Z" fill="black"/>
</svg>
