<svg width="24" height="24" viewBox="0 0 24 24" fill="none" xmlns="http://www.w3.org/2000/svg">
<path d="M8.586 18L12 21.414L15.414 18H19C20.103 18 21 17.103 21 16V4C21 2.897 20.103 2 19 2H5C3.897 2 3 2.897 3 4V16C3 17.103 3.897 18 5 18H8.586ZM5 4H19V16H14.586L12 18.586L9.414 16H5V4Z" fill="black"/>
<path d="M9.70703 13.707L12 11.414L14.293 13.707L15.707 12.293L13.414 10L15.707 7.707L14.293 6.293L12 8.586L9.70703 6.293L8.29303 7.707L10.586 10L8.29303 12.293L9.70703 13.707Z" fill="black"/>
</svg>
