<svg width="24" height="24" viewBox="0 0 24 24" fill="none" xmlns="http://www.w3.org/2000/svg">
<path d="M20.742 13.045C20.0643 13.225 19.3661 13.3161 18.665 13.316C16.53 13.316 14.525 12.486 13.019 10.98C12.03 9.98534 11.3191 8.74886 10.9569 7.39379C10.5948 6.03872 10.5941 4.6124 10.955 3.257C11.0001 3.08753 10.9998 2.90919 10.9542 2.73987C10.9086 2.57055 10.8192 2.4162 10.6951 2.2923C10.571 2.1684 10.4165 2.07932 10.2471 2.03398C10.0777 1.98865 9.89939 1.98865 9.73 2.034C8.03316 2.48618 6.48506 3.37662 5.241 4.616C1.343 8.514 1.343 14.859 5.241 18.759C6.16753 19.6907 7.26963 20.4294 8.48354 20.9323C9.69744 21.4352 10.999 21.6924 12.313 21.689C13.6266 21.6927 14.9279 21.4357 16.1415 20.9329C17.3551 20.4302 18.4569 19.6916 19.383 18.76C20.6233 17.5157 21.5142 15.9668 21.966 14.269C22.0109 14.0996 22.0105 13.9214 21.9649 13.7522C21.9193 13.583 21.8301 13.4287 21.7062 13.3048C21.5823 13.1809 21.428 13.0917 21.2588 13.0461C21.0896 13.0005 20.9114 13.0001 20.742 13.045ZM17.97 17.346C17.229 18.0911 16.3475 18.6818 15.3767 19.084C14.4058 19.4862 13.3648 19.6918 12.314 19.689C11.2628 19.6916 10.2215 19.4858 9.25032 19.0835C8.27915 18.6811 7.39738 18.0902 6.656 17.345C3.538 14.226 3.538 9.15 6.656 6.031C7.2585 5.42917 7.95409 4.92841 8.716 4.548C8.60447 5.98706 8.80495 7.43323 9.30372 8.78769C9.8025 10.1421 10.5878 11.373 11.606 12.396C12.6268 13.4174 13.8572 14.2049 15.2123 14.704C16.5673 15.2032 18.0146 15.4021 19.454 15.287C19.0715 16.0476 18.5706 16.7426 17.97 17.346Z" fill="black"/>
</svg>
