<svg width="24" height="24" viewBox="0 0 24 24" fill="none" xmlns="http://www.w3.org/2000/svg">
<path d="M16 2H8C4.691 2 2 4.691 2 8V21C2 21.2652 2.10536 21.5196 2.29289 21.7071C2.48043 21.8946 2.73478 22 3 22H16C19.309 22 22 19.309 22 16V8C22 4.691 19.309 2 16 2ZM20 16C20 18.206 18.206 20 16 20H4V8C4 5.794 5.794 4 8 4H16C18.206 4 20 5.794 20 8V16Z" fill="black"/>
<path d="M15.292 7.295L12 10.587L8.70801 7.295L7.29401 8.709L10.586 12.001L7.29401 15.293L8.70801 16.707L12 13.415L15.292 16.707L16.706 15.293L13.414 12.001L16.706 8.709L15.292 7.295Z" fill="black"/>
</svg>
