<svg width="24" height="24" viewBox="0 0 24 24" fill="none" xmlns="http://www.w3.org/2000/svg">
<path d="M2.00201 9.63C1.97901 10.041 2.20901 10.424 2.58301 10.596L10.087 14.038L13.529 21.541C13.693 21.897 14.049 22.124 14.438 22.124L14.495 22.122C14.6957 22.1108 14.8884 22.0393 15.0478 21.9169C15.2073 21.7945 15.3262 21.627 15.389 21.436L20.984 4.404C21.101 4.046 21.007 3.651 20.741 3.384C20.475 3.117 20.081 3.026 19.721 3.141L2.68801 8.736C2.49705 8.7988 2.32946 8.9177 2.20709 9.07717C2.08472 9.23665 2.01325 9.4293 2.00201 9.63ZM18.466 5.659L14.284 18.389L11.75 12.867C11.6503 12.6493 11.4757 12.4747 11.258 12.375L5.73401 9.841L18.466 5.659Z" fill="black"/>
</svg>
