<svg width="24" height="24" viewBox="0 0 24 24" fill="none" xmlns="http://www.w3.org/2000/svg">
<path d="M21.71 20.296L19.924 18.51C19.969 18.347 20 18.178 20 18V11H18V16.586L7.41402 5.99999H13V3.99999H6.00002C5.82202 3.99999 5.65302 4.03099 5.49002 4.07599L3.71002 2.29599L2.29602 3.70999L20.296 21.71L21.71 20.296ZM4.00002 8.12099V18C4.00002 19.103 4.89702 20 6.00002 20H15.879L13.879 18H6.00002V10.121L4.00002 8.12099Z" fill="black"/>
<path d="M18 9C19.6569 9 21 7.65685 21 6C21 4.34315 19.6569 3 18 3C16.3431 3 15 4.34315 15 6C15 7.65685 16.3431 9 18 9Z" fill="black"/>
</svg>
