<svg width="24" height="24" viewBox="0 0 24 24" fill="none" xmlns="http://www.w3.org/2000/svg">
<path d="M20.7489 12L21.8529 10.092C21.9856 9.86244 22.0217 9.58958 21.9532 9.33343C21.8848 9.07727 21.7174 8.85878 21.4879 8.726L19.5779 7.622V5.422C19.5779 5.15678 19.4725 4.90243 19.285 4.71489C19.0975 4.52735 18.8431 4.422 18.5779 4.422H16.3789L15.2759 2.513C15.1427 2.28391 14.9246 2.1165 14.6689 2.047C14.5421 2.01261 14.4097 2.00375 14.2794 2.02091C14.1491 2.03808 14.0235 2.08093 13.9099 2.147L11.9999 3.251L10.0899 2.146C9.86021 2.01339 9.58726 1.97746 9.33109 2.0461C9.07492 2.11474 8.8565 2.28232 8.72389 2.512L7.61989 4.422H5.42089C5.15567 4.422 4.90132 4.52735 4.71378 4.71489C4.52625 4.90243 4.42089 5.15678 4.42089 5.422V7.621L2.51089 8.725C2.39692 8.79055 2.29703 8.87798 2.21695 8.98226C2.13688 9.08654 2.07819 9.20561 2.04428 9.33264C2.01036 9.45966 2.00188 9.59214 2.01931 9.72246C2.03675 9.85277 2.07977 9.97836 2.14589 10.092L3.24989 12L2.14589 13.908C2.01388 14.1378 1.97806 14.4104 2.04625 14.6665C2.11443 14.9226 2.28109 15.1413 2.50989 15.275L4.41989 16.379V18.578C4.41989 18.8432 4.52525 19.0976 4.71278 19.2851C4.90032 19.4726 5.15467 19.578 5.41989 19.578H7.61989L8.72389 21.488C8.81242 21.6393 8.93882 21.765 9.09067 21.8527C9.24251 21.9404 9.41456 21.987 9.58989 21.988C9.76389 21.988 9.93689 21.942 10.0909 21.853L11.9989 20.749L13.9089 21.853C14.1385 21.9854 14.4113 22.0213 14.6674 21.9529C14.9234 21.8845 15.1419 21.7173 15.2749 21.488L16.3779 19.578H18.5769C18.8421 19.578 19.0965 19.4726 19.284 19.2851C19.4715 19.0976 19.5769 18.8432 19.5769 18.578V16.379L21.4869 15.275C21.6007 15.2092 21.7004 15.1217 21.7803 15.0174C21.8602 14.9131 21.9188 14.7941 21.9527 14.6671C21.9866 14.5402 21.9951 14.4078 21.9778 14.2775C21.9605 14.1473 21.9177 14.0217 21.8519 13.908L20.7489 12ZM9.49889 6.99C9.89685 6.99013 10.2785 7.14834 10.5598 7.42984C10.8411 7.71133 10.999 8.09304 10.9989 8.491C10.9988 8.88895 10.8405 9.27056 10.559 9.55186C10.2776 9.83317 9.89585 9.99113 9.49789 9.991C9.09993 9.99086 8.71833 9.83265 8.43702 9.55116C8.15572 9.26966 7.99776 8.88795 7.99789 8.49C7.99802 8.09204 8.15624 7.71043 8.43773 7.42913C8.71922 7.14783 9.10093 6.98986 9.49889 6.99ZM9.79889 16.59L8.19889 15.391L14.1989 7.391L15.7989 8.59L9.79889 16.59ZM14.4989 16.99C14.3018 16.9899 14.1067 16.9511 13.9247 16.8756C13.7427 16.8001 13.5773 16.6895 13.438 16.5502C13.2987 16.4108 13.1883 16.2453 13.1129 16.0633C13.0376 15.8812 12.9988 15.686 12.9989 15.489C12.999 15.2919 13.0378 15.0968 13.1133 14.9148C13.1888 14.7328 13.2993 14.5674 13.4387 14.4281C13.5781 14.2888 13.7436 14.1784 13.9256 14.103C14.1077 14.0277 14.3028 13.9889 14.4999 13.989C14.8978 13.9891 15.2795 14.1473 15.5608 14.4288C15.8421 14.7103 16 15.092 15.9999 15.49C15.9998 15.888 15.8415 16.2696 15.56 16.5509C15.2786 16.8322 14.8968 16.9901 14.4989 16.99Z" fill="black"/>
</svg>
