<svg width="24" height="24" viewBox="0 0 24 24" fill="none" xmlns="http://www.w3.org/2000/svg">
<path d="M16.712 13.288C16.6192 13.1951 16.509 13.1213 16.3877 13.071C16.2664 13.0207 16.1363 12.9948 16.005 12.9948C15.8736 12.9948 15.7436 13.0207 15.6223 13.071C15.501 13.1213 15.3908 13.1951 15.298 13.288L13.704 14.882C12.965 14.662 11.586 14.162 10.712 13.288C9.83797 12.414 9.33797 11.035 9.11797 10.296L10.712 8.70201C10.8049 8.60923 10.8787 8.49902 10.929 8.37771C10.9793 8.25639 11.0052 8.12635 11.0052 7.99501C11.0052 7.86368 10.9793 7.73363 10.929 7.61232C10.8787 7.491 10.8049 7.3808 10.712 7.28801L6.71197 3.28801C6.61918 3.19507 6.50898 3.12133 6.38767 3.07102C6.26635 3.02071 6.13631 2.99481 6.00497 2.99481C5.87364 2.99481 5.74359 3.02071 5.62228 3.07102C5.50096 3.12133 5.39076 3.19507 5.29797 3.28801L2.58597 6.00001C2.20597 6.38001 1.99197 6.90201 1.99997 7.43501C2.02297 8.85901 2.39997 13.805 6.29797 17.703C10.196 21.601 15.142 21.977 16.566 22H16.594C17.122 22 17.621 21.792 17.999 21.414L20.711 18.702C20.8039 18.6092 20.8777 18.499 20.928 18.3777C20.9783 18.2564 21.0042 18.1263 21.0042 17.995C21.0042 17.8637 20.9783 17.7336 20.928 17.6123C20.8777 17.491 20.8039 17.3808 20.711 17.288L16.712 13.288ZM16.585 20C15.337 19.979 11.067 19.644 7.71197 16.288C4.34597 12.922 4.01997 8.63701 3.99997 7.41401L6.00497 5.40901L8.59097 7.99501L7.29797 9.28801C7.18043 9.40546 7.09401 9.55035 7.04652 9.70958C6.99903 9.86881 6.99197 10.0374 7.02597 10.2C7.04997 10.315 7.63697 13.042 9.29697 14.702C10.957 16.362 13.684 16.949 13.799 16.973C13.9615 17.0078 14.1302 17.0012 14.2895 16.9538C14.4489 16.9065 14.5938 16.8199 14.711 16.702L16.004 15.409L18.59 17.995L16.585 20Z" fill="black"/>
<path d="M16.795 5.791L12.298 10.288L13.712 11.702L18.209 7.205L21.005 10V2.995H14L16.795 5.791Z" fill="black"/>
</svg>
