<svg width="24" height="24" viewBox="0 0 24 24" fill="none" xmlns="http://www.w3.org/2000/svg">
<path d="M18.404 2.99799C17.647 2.24399 16.327 2.24699 15.576 3.00299L13.792 4.79399L11.586 6.99999H6.99999C6.79481 6.99984 6.59458 7.06294 6.42656 7.18068C6.25854 7.29842 6.13088 7.46509 6.06099 7.65799L2.06099 18.658C1.92799 19.023 2.01899 19.432 2.29299 19.707L4.29299 21.707C4.42744 21.8418 4.59767 21.9353 4.78356 21.9764C4.96946 22.0175 5.16323 22.0045 5.34199 21.939L16.342 17.939C16.5349 17.8691 16.7016 17.7414 16.8193 17.5734C16.937 17.4054 17.0001 17.2052 17 17V12.414L19.207 10.207L19.208 10.206L21 8.40899C21.378 8.03099 21.586 7.52799 21.585 6.99399C21.585 6.45899 21.376 5.95599 20.997 5.57899L18.404 2.99799ZM15.293 11.293C15.1999 11.3857 15.1262 11.4959 15.0759 11.6172C15.0256 11.7386 14.9998 11.8686 15 12V16.3L5.75099 19.663L10.422 14.992C10.448 14.993 10.474 15 10.5 15C10.7967 15 11.0867 14.912 11.3333 14.7472C11.58 14.5824 11.7723 14.3481 11.8858 14.074C11.9993 13.7999 12.029 13.4983 11.9712 13.2074C11.9133 12.9164 11.7704 12.6491 11.5606 12.4393C11.3509 12.2295 11.0836 12.0867 10.7926 12.0288C10.5017 11.9709 10.2001 12.0006 9.92596 12.1142C9.65187 12.2277 9.4176 12.42 9.25278 12.6666C9.08796 12.9133 8.99999 13.2033 8.99999 13.5C8.99999 13.526 9.00699 13.552 9.00799 13.578L4.33699 18.249L7.69999 8.99999H12C12.266 8.99999 12.52 8.89499 12.707 8.70699L14.5 6.91399L17.086 9.49999L15.293 11.293ZM18.499 8.08499L15.913 5.49899L16.992 4.41499L19.585 6.99599L18.499 8.08499Z" fill="black"/>
</svg>
