<svg width="24" height="24" viewBox="0 0 24 24" fill="none" xmlns="http://www.w3.org/2000/svg">
<path d="M20.56 3.34001C20.4151 3.23977 20.2464 3.17959 20.0708 3.16554C19.8952 3.15149 19.719 3.18408 19.56 3.26001L2.56 11.26C2.38673 11.3425 2.24086 11.4731 2.13978 11.6362C2.03871 11.7994 1.98672 11.9881 1.99 12.18C1.99318 12.3718 2.05143 12.5586 2.15781 12.7181C2.26419 12.8777 2.41422 13.0033 2.59 13.08L8 15.45V22.17L13.84 18L18.6 20.08C18.725 20.1394 18.8616 20.1701 19 20.17C19.1838 20.1688 19.3637 20.1169 19.52 20.02C19.6577 19.9367 19.7732 19.8213 19.8568 19.6838C19.9403 19.5463 19.9895 19.3906 20 19.23L21 4.23001C21.0105 4.05619 20.9754 3.88265 20.8983 3.72655C20.8211 3.57045 20.7045 3.43721 20.56 3.34001ZM18.1 17.68L12.83 15.37L16 9.17001L8.35 13.42L5.42 12.13L18.89 5.79001L18.1 17.68Z" fill="black"/>
</svg>
