<svg width="24" height="24" viewBox="0 0 24 24" fill="none" xmlns="http://www.w3.org/2000/svg">
<path d="M15 2C13.154 1.98921 11.3785 2.70804 10.06 4L2.28 11.82C2.09375 12.0074 1.98921 12.2608 1.98921 12.525C1.98921 12.7892 2.09375 13.0426 2.28 13.23L5.82 16.77L2.28 20.3L3.7 21.72L7.23 18.18L10.77 21.72C10.9574 21.9062 11.2108 22.0108 11.475 22.0108C11.7392 22.0108 11.9926 21.9062 12.18 21.72L20 13.94C20.9787 12.9575 21.6435 11.7064 21.9101 10.3455C22.1767 8.98463 22.033 7.5752 21.4974 6.29606C20.9617 5.01691 20.0582 3.9257 18.9014 3.16084C17.7446 2.39598 16.3867 1.99195 15 2ZM18.54 12.54L11.47 19.6L8.65 16.77L7.23 15.35L4.4 12.52L11.47 5.45C12.4089 4.51113 13.6822 3.98368 15.01 3.98368C16.3378 3.98368 17.6111 4.51113 18.55 5.45C19.4889 6.38886 20.0163 7.66224 20.0163 8.99C20.0163 10.3178 19.4889 11.5911 18.55 12.53L18.54 12.54Z" fill="black"/>
</svg>
