<svg width="24" height="24" viewBox="0 0 24 24" fill="none" xmlns="http://www.w3.org/2000/svg">
<path d="M18 8.31C17.64 7.9 17.27 7.49 16.88 7.1L16.59 6.83L16.73 6.71C17.219 6.2902 17.5675 5.73051 17.7285 5.10643C17.8894 4.48235 17.855 3.82393 17.63 3.22C17.3039 2.53897 16.7876 1.96693 16.1434 1.57298C15.4993 1.17903 14.7548 0.98002 14 0.999996V3C14.3558 2.99504 14.7065 3.0851 15.0159 3.26089C15.3252 3.43667 15.5821 3.69182 15.76 4C15.93 4.4 15.76 4.84 15.29 5.31C15.22 5.39 15.14 5.44 15.07 5.51C12.07 3.1 8.78 1.74 7.17 3.35C7.00135 3.52239 6.86277 3.72182 6.76 3.94V4.04L6.58 4.57L2.17 17.67C2.00319 18.1637 1.95639 18.69 2.03349 19.2053C2.11059 19.7206 2.30936 20.2102 2.61334 20.6334C2.91732 21.0567 3.31777 21.4014 3.7815 21.639C4.24523 21.8767 4.75892 22.0004 5.28 22C5.62023 21.9967 5.95778 21.9393 6.28 21.83L20 17.28C20.1686 17.2172 20.3172 17.1101 20.43 16.97L20.64 16.79C22.07 15.35 21.15 12.58 19.23 9.89C20.37 9.22465 21.6828 8.91475 23 9V7C21.2373 6.90301 19.4886 7.36117 18 8.31ZM5.7 19.93C5.473 20.0051 5.2296 20.0157 4.99695 19.9605C4.7643 19.9053 4.55157 19.7866 4.38249 19.6175C4.21342 19.4484 4.09467 19.2357 4.03949 19.003C3.9843 18.7704 3.99487 18.527 4.07 18.3L5.43 14.2C6.40058 16.0509 7.89195 17.577 9.72 18.59L5.7 19.93ZM12.7 17.6C11.1887 17.1998 9.81008 16.4072 8.70373 15.3026C7.59738 14.198 6.80263 12.8206 6.4 11.31L7.4 8.31L7.46 8.4C7.57 8.62 7.71 8.85 7.85 9.08C7.99 9.30999 8.01 9.37 8.11 9.52C8.21 9.67 8.44 10 8.62 10.25C8.8 10.5 8.81 10.53 8.92 10.67C9.03 10.81 9.35 11.22 9.58 11.49L9.87 11.84C10.21 12.23 10.57 12.61 10.95 13C11.33 13.39 11.63 13.64 11.95 14L12.28 14.28L13.06 14.91L13.43 15.19C13.71 15.39 13.98 15.59 14.26 15.77L14.57 15.97C14.93 16.19 15.29 16.4 15.64 16.58H15.69L12.7 17.6ZM19.21 15.37H19.15C18.46 15.75 15.59 14.8 12.36 11.56C12.02 11.22 11.7 10.89 11.41 10.56L11.12 10.21L10.59 9.56999L10.3 9.17C10.17 8.98 10.03 8.8 9.91 8.62L9.65 8.2L9.36 7.73C9.28 7.59 9.22 7.46 9.15 7.33C9.08 7.2 9 7.07 8.94 6.93C8.88636 6.81282 8.83962 6.69262 8.8 6.57C8.75 6.44 8.69 6.31 8.65 6.19C8.61 6.07 8.6 6 8.57 5.88C8.54 5.76 8.52 5.66 8.5 5.56C8.49501 5.4734 8.49501 5.38659 8.5 5.3C8.49036 5.22029 8.49036 5.13971 8.5 5.06L8.61 4.75C8.97 4.39 10.84 4.75 13.34 6.65C12.9162 6.84126 12.4632 6.95959 12 7V9C13.0622 8.9389 14.0928 8.61597 15 8.06L15.48 8.52C15.9 8.94 16.29 9.37 16.66 9.8C16.0876 10.8351 15.8765 12.0315 16.06 13.2L18.06 12.81C18.0011 12.439 18.0011 12.061 18.06 11.69C18.3652 12.1528 18.6359 12.6374 18.87 13.14C19.43 14.46 19.39 15.2 19.21 15.37Z" fill="black"/>
</svg>
