<svg width="24" height="24" viewBox="0 0 24 24" fill="none" xmlns="http://www.w3.org/2000/svg">
<path d="M12 2C10.6863 1.99652 9.38489 2.25359 8.17116 2.75635C6.95743 3.25911 5.85546 3.99757 4.929 4.929C3.04 6.818 2 9.33 2 12C2 14.67 3.04 17.182 4.929 19.071C6.818 20.96 9.33 22 12 22C14.67 22 17.182 20.96 19.071 19.071C20.96 17.182 22 14.67 22 12C22 9.33 20.96 6.818 19.071 4.929C18.1445 3.99757 17.0426 3.25911 15.8288 2.75635C14.6151 2.25359 13.3137 1.99652 12 2ZM17.657 17.657C16.146 19.168 14.137 20 12 20C9.863 20 7.854 19.168 6.343 17.657C4.832 16.146 4 14.137 4 12C4 9.863 4.832 7.854 6.343 6.343C7.59671 5.08464 9.23673 4.28382 11 4.069V12C11 12.2652 11.1054 12.5196 11.2929 12.7071C11.4804 12.8946 11.7348 13 12 13H19.931C19.7162 14.7633 18.9154 16.4033 17.657 17.657ZM13 11V4.062C14.7638 4.28008 16.4035 5.08322 17.657 6.343C18.9175 7.59603 19.7207 9.236 19.938 11H13Z" fill="black"/>
</svg>
