<svg width="24" height="24" viewBox="0 0 24 24" fill="none" xmlns="http://www.w3.org/2000/svg">
<path d="M11.445 21.832C11.6093 21.9416 11.8025 22.0002 12 22.0002C12.1976 22.0002 12.3907 21.9416 12.555 21.832L21.555 15.832C21.6684 15.7567 21.7651 15.6591 21.8394 15.5451C21.9136 15.431 21.9637 15.303 21.9867 15.1689C22.0096 15.0348 22.0049 14.8974 21.9728 14.7652C21.9407 14.6329 21.8819 14.5087 21.8 14.4L12.8 2.4C12.423 1.896 11.577 1.896 11.2 2.4L2.20001 14.4C2.11841 14.5088 2.05985 14.6331 2.02791 14.7652C1.99597 14.8974 1.99133 15.0347 2.01426 15.1687C2.03719 15.3028 2.08722 15.4307 2.16128 15.5448C2.23535 15.6588 2.33189 15.7565 2.44501 15.832L11.445 21.832ZM13 19.131V6L19.565 14.754L13 19.131ZM11 6V19.131L4.43501 14.754L11 6Z" fill="black"/>
</svg>
