<svg width="24" height="24" viewBox="0 0 24 24" fill="none" xmlns="http://www.w3.org/2000/svg">
<path d="M2.76 20.2C3.03435 20.4904 3.36909 20.717 3.74058 20.8638C4.11207 21.0107 4.51127 21.0743 4.91 21.05C6.07912 20.9888 7.22452 20.6965 8.28 20.19C9.86179 20.8988 11.6146 21.1358 13.3278 20.8725C15.0411 20.6091 16.6418 19.8566 17.9377 18.7055C19.2336 17.5543 20.1694 16.0534 20.6328 14.3831C21.0963 12.7129 21.0675 10.9443 20.55 9.29001C21.86 7.06001 22.3 5.03001 21.22 3.81001C20.906 3.4459 20.5076 3.16433 20.0595 2.98999C19.6115 2.81565 19.1275 2.75385 18.65 2.81001C17.7036 2.95438 16.8185 3.3674 16.1 4.00001C14.4869 3.18042 12.6642 2.86607 10.8698 3.09798C9.0753 3.32988 7.39241 4.09727 6.04067 5.30003C4.68892 6.50278 3.73108 8.08504 3.29213 9.84037C2.85318 11.5957 2.9535 13.4426 3.58 15.14C2.52 16.35 1.53 18.82 2.76 20.2ZM4.26 18.88C4.04 18.63 4.26 17.81 4.63 17.12C5.07753 17.7642 5.60508 18.3488 6.2 18.86C5.17 19.16 4.49 19.14 4.26 18.88ZM18.77 13.71C18.3161 15.5057 17.169 17.0484 15.58 18C14.4963 18.6445 13.2608 18.9895 12 19C11.5834 18.9969 11.1682 18.9534 10.76 18.87C12.3289 17.9079 13.8082 16.8068 15.18 15.58C16.5612 14.3604 17.8328 13.0219 18.98 11.58C19.0215 12.2966 18.9507 13.0153 18.77 13.71ZM18.86 4.82001C19.0203 4.79362 19.1847 4.80923 19.3372 4.86531C19.4897 4.9214 19.625 5.01604 19.73 5.14001C19.96 5.40001 19.89 6.08001 19.47 7.07001C19.019 6.38073 18.4775 5.75514 17.86 5.21001C18.1609 5.00857 18.5022 4.87546 18.86 4.82001ZM5.22 10.31C5.43929 9.41594 5.83427 8.57443 6.38193 7.83448C6.92959 7.09453 7.619 6.47094 8.41 6.00001C9.49432 5.34841 10.735 5.00283 12 5.00001C13.2114 4.99166 14.4037 5.3024 15.457 5.90099C16.5102 6.49958 17.3873 7.36493 18 8.41001C18.1324 8.62132 18.2493 8.84189 18.35 9.07001C17.0639 10.9144 15.5559 12.5937 13.86 14.07C12.1931 15.6031 10.3423 16.9232 8.35 18C7.08384 17.2222 6.09806 16.0616 5.53534 14.6863C4.97263 13.311 4.86219 11.7923 5.22 10.35V10.31Z" fill="black"/>
</svg>
