<svg width="24" height="24" viewBox="0 0 24 24" fill="none" xmlns="http://www.w3.org/2000/svg">
<path d="M16.712 13.288C16.6192 13.195 16.509 13.1213 16.3877 13.071C16.2664 13.0207 16.1364 12.9948 16.005 12.9948C15.8737 12.9948 15.7436 13.0207 15.6223 13.071C15.501 13.1213 15.3908 13.195 15.298 13.288L13.701 14.884C12.877 14.639 11.535 14.113 10.711 13.288C9.83703 12.414 9.33703 11.035 9.11703 10.296L10.711 8.70199C10.804 8.6092 10.8777 8.49899 10.928 8.37768C10.9783 8.25636 11.0042 8.12632 11.0042 7.99499C11.0042 7.86365 10.9783 7.73361 10.928 7.61229C10.8777 7.49098 10.804 7.38077 10.711 7.28799L6.71103 3.28799C6.51985 3.10754 6.26691 3.00702 6.00403 3.00702C5.74114 3.00702 5.4882 3.10754 5.29703 3.28799L2.58803 5.99799C2.20603 6.37799 1.99103 6.90199 2.00003 7.43499C2.02203 8.85799 2.39603 13.802 6.29703 17.703C10.195 21.6 15.142 21.977 16.566 22H16.594C17.122 22 17.621 21.792 17.999 21.414L20.711 18.702C20.804 18.6092 20.8777 18.499 20.928 18.3777C20.9783 18.2564 21.0042 18.1263 21.0042 17.995C21.0042 17.8637 20.9783 17.7336 20.928 17.6123C20.8777 17.491 20.804 17.3808 20.711 17.288L16.712 13.288ZM16.585 20C15.337 19.979 11.067 19.644 7.71103 16.288C4.34303 12.92 4.01903 8.63599 4.00003 7.41399L6.00403 5.40899L8.59003 7.99499L7.29703 9.28799C7.05903 9.52599 6.95703 9.86999 7.02603 10.2C7.05003 10.315 7.63703 13.042 9.29703 14.702C10.957 16.362 13.684 16.949 13.799 16.973C13.9616 17.0077 14.1302 17.001 14.2896 16.9537C14.4489 16.9063 14.5938 16.8198 14.711 16.702L16.004 15.409L18.59 17.995L16.585 20Z" fill="black"/>
<path d="M15.795 6.79099L13.005 3.99999V10.995H20L17.209 8.20499L21.712 3.70199L20.298 2.28799L15.795 6.79099Z" fill="black"/>
</svg>
