<svg width="24" height="24" viewBox="0 0 24 24" fill="none" xmlns="http://www.w3.org/2000/svg">
<path d="M16.57 22C16.8356 22.0015 17.0988 21.9501 17.3444 21.8488C17.5899 21.7475 17.8128 21.5984 18 21.41L20.71 18.7C20.8963 18.5126 21.0008 18.2592 21.0008 17.995C21.0008 17.7308 20.8963 17.4774 20.71 17.29L16.71 13.29C16.5226 13.1037 16.2692 12.9992 16.005 12.9992C15.7408 12.9992 15.4874 13.1037 15.3 13.29L13.7 14.88C12.5923 14.5846 11.5663 14.0409 10.7 13.29C9.95112 12.4223 9.40763 11.3968 9.11 10.29L10.7 8.68999C10.8863 8.50263 10.9908 8.24918 10.9908 7.98499C10.9908 7.7208 10.8863 7.46735 10.7 7.27999L6.7 3.27999C6.51264 3.09374 6.25919 2.9892 5.995 2.9892C5.73082 2.9892 5.47737 3.09374 5.29 3.27999L2.59 5.99999C2.40163 6.18723 2.25245 6.41012 2.15115 6.65564C2.04985 6.90116 1.99847 7.1644 2 7.42999C2.09073 11.2723 3.62608 14.9393 6.3 17.7C9.06072 20.3739 12.7277 21.9093 16.57 22ZM6 5.40999L8.59 7.99999L7.3 9.28999C7.17782 9.40444 7.08633 9.54773 7.03392 9.70672C6.9815 9.86571 6.96984 10.0353 7 10.2C7.37377 11.8704 8.16511 13.4186 9.3 14.7C10.5804 15.8363 12.129 16.6279 13.8 17C13.9622 17.0339 14.1302 17.027 14.2891 16.9798C14.4479 16.9327 14.5926 16.8469 14.71 16.73L16 15.41L18.59 18L16.59 20C13.2737 19.9146 10.1095 18.5911 7.72 16.29C5.41291 13.8995 4.08561 10.7311 4 7.40999L6 5.40999ZM20 11H22C22.0259 9.81099 21.8109 8.62905 21.3677 7.5254C20.9246 6.42174 20.2627 5.41923 19.4217 4.57828C18.5808 3.73733 17.5782 3.07535 16.4746 2.63224C15.3709 2.18913 14.189 1.97406 13 1.99999V3.99999C13.9279 3.96789 14.8525 4.127 15.7163 4.46742C16.5801 4.80785 17.3646 5.32231 18.0212 5.97883C18.6777 6.63535 19.1921 7.41989 19.5326 8.28369C19.873 9.14749 20.0321 10.0721 20 11Z" fill="black"/>
<path d="M13 8C15.1 8 16 8.9 16 11H18C18 7.78 16.22 6 13 6V8Z" fill="black"/>
</svg>
