<svg width="24" height="24" viewBox="0 0 24 24" fill="none" xmlns="http://www.w3.org/2000/svg">
<path d="M7.061 22C8.584 22 9.901 21.457 10.971 20.387C12.094 19.264 12.678 17.533 12.522 15.893L21.086 7.329C21.6706 6.74316 21.9988 5.94922 21.9984 5.12159C21.998 4.29395 21.6691 3.5003 21.084 2.915C19.906 1.735 17.85 1.735 16.672 2.915L7.788 11.799C5.875 11.968 3.981 13.32 3.981 15.718C3.981 16.021 4.002 16.306 4.023 16.578C4.103 17.609 4.132 17.996 2.552 18.786C2.39681 18.8638 2.26454 18.9807 2.16817 19.1252C2.07181 19.2696 2.01467 19.4366 2.00237 19.6098C1.99006 19.783 2.02301 19.9564 2.09799 20.113C2.17296 20.2696 2.28738 20.404 2.43 20.503C2.52 20.563 4.623 22 7.061 22C7.06 22 7.06 22 7.061 22ZM18.086 4.328C18.2994 4.12331 18.5837 4.00918 18.8794 4.00955C19.1751 4.00992 19.4591 4.12477 19.672 4.33C19.776 4.434 19.8585 4.55747 19.9148 4.69337C19.9711 4.82926 20.0001 4.97491 20.0001 5.122C20.0001 5.26909 19.9711 5.41474 19.9148 5.55063C19.8585 5.68652 19.776 5.81 19.672 5.914L12 13.586L10.414 12L18.086 4.328ZM6.018 16.423C6 16.199 5.981 15.965 5.981 15.717C5.981 14.172 7.426 13.764 8.191 13.764C8.547 13.764 8.89 13.837 9.155 13.97C10.1 14.445 10.415 15.263 10.512 15.866C10.689 16.956 10.295 18.234 9.556 18.973C8.865 19.664 8.049 20 7.061 20C6.311 20 5.581 19.804 4.986 19.573C6.068 18.6 6.107 17.584 6.018 16.423Z" fill="black"/>
</svg>
