<svg width="24" height="24" viewBox="0 0 24 24" fill="none" xmlns="http://www.w3.org/2000/svg">
<path d="M20.978 13.21C21.0191 13.0193 21.0035 12.8207 20.9331 12.6388C20.8627 12.4568 20.7407 12.2995 20.582 12.186L6.582 2.186C6.42446 2.07272 6.23733 2.00776 6.04349 1.99908C5.84964 1.99039 5.65746 2.03835 5.49042 2.13709C5.32338 2.23583 5.18871 2.38108 5.10286 2.55509C5.01702 2.72911 4.9837 2.92436 5.007 3.117L7.007 20.117C7.03002 20.3119 7.10987 20.4957 7.23662 20.6455C7.36337 20.7954 7.5314 20.9046 7.71978 20.9596C7.90816 21.0146 8.10856 21.013 8.29602 20.9549C8.48348 20.8968 8.64971 20.7849 8.774 20.633L12.386 16.217L15.763 21.677L17.464 20.625L14.107 15.197L20.196 13.979C20.3874 13.9415 20.5635 13.8487 20.7025 13.712C20.8415 13.5753 20.9373 13.4007 20.978 13.21ZM12.304 13.52C12.077 13.5653 11.8727 13.6879 11.726 13.867L8.718 17.544L7.257 5.127L17.54 12.472L12.304 13.52Z" fill="black"/>
</svg>
