<svg width="24" height="24" viewBox="0 0 24 24" fill="none" xmlns="http://www.w3.org/2000/svg">
<path d="M10.09 12.5C9.65841 11.8154 9.32199 11.0753 9.08999 10.3L10.68 8.71001C10.7737 8.61705 10.8481 8.50644 10.8989 8.38459C10.9497 8.26273 10.9758 8.13202 10.9758 8.00001C10.9758 7.868 10.9497 7.73729 10.8989 7.61543C10.8481 7.49357 10.7737 7.38297 10.68 7.29001L6.67999 3.29001C6.49263 3.10376 6.23918 2.99922 5.97499 2.99922C5.71081 2.99922 5.45736 3.10376 5.26999 3.29001L2.58999 6.00001C2.40042 6.18843 2.25053 6.41294 2.14919 6.66027C2.04786 6.9076 1.99712 7.17274 1.99999 7.44001C2.08615 10.9453 3.36282 14.3168 5.61999 17L2.29999 20.29L3.70999 21.71L21.71 3.71001L20.3 2.29001L10.09 12.5ZM6.99999 15.55C5.12445 13.2486 4.06889 10.3881 3.99999 7.42001L5.99999 5.42001L8.58999 8.00001L7.29999 9.29001C7.18153 9.40847 7.09472 9.55479 7.04754 9.71554C7.00037 9.87629 6.99433 10.0463 7.02999 10.21C7.33348 11.5432 7.88286 12.8082 8.64999 13.94L6.99999 15.55ZM16.71 13.29C16.5226 13.1038 16.2692 12.9992 16.005 12.9992C15.7408 12.9992 15.4874 13.1038 15.3 13.29L13.7 14.89L13.36 14.77L11.8 16.32C12.4461 16.5979 13.1154 16.8188 13.8 16.98C13.9622 17.0139 14.1302 17.007 14.2891 16.9599C14.4479 16.9127 14.5926 16.8269 14.71 16.71L16.01 15.41L18.59 18L16.59 20C14.2672 19.9396 11.9985 19.2855 9.99999 18.1L8.56999 19.55C10.9645 21.0785 13.7302 21.9255 16.57 22C16.8349 22.0029 17.0977 21.953 17.3432 21.8535C17.5887 21.7539 17.8119 21.6066 18 21.42L20.71 18.71C20.8037 18.617 20.8781 18.5064 20.9289 18.3846C20.9797 18.2627 21.0058 18.132 21.0058 18C21.0058 17.868 20.9797 17.7373 20.9289 17.6154C20.8781 17.4936 20.8037 17.383 20.71 17.29L16.71 13.29Z" fill="black"/>
</svg>
