<svg width="24" height="24" viewBox="0 0 24 24" fill="none" xmlns="http://www.w3.org/2000/svg">
<path d="M15.203 6.98L16.007 6.819V4H15.007C12.223 4 10.101 4.771 8.69798 6.292C6.80998 8.34 6.99998 10.97 7.00598 11V19C7.00598 19.2652 7.11134 19.5196 7.29888 19.7071C7.48641 19.8946 7.74077 20 8.00598 20H15.006C16.109 20 17.006 19.103 17.006 18V11C17.006 10.7348 16.9006 10.4804 16.7131 10.2929C16.5256 10.1054 16.2712 10 16.006 10H11.927C11.949 9.598 12.05 9.088 12.356 8.604C12.865 7.803 13.822 7.257 15.203 6.98Z" fill="black"/>
</svg>
