<svg width="24" height="24" viewBox="0 0 24 24" fill="none" xmlns="http://www.w3.org/2000/svg">
<path d="M12 2.007C10.6867 2.00215 9.38549 2.25792 8.17173 2.75949C6.95797 3.26106 5.85578 3.99846 4.92901 4.929C1.03001 8.828 1.03001 15.172 4.92901 19.072C5.85577 20.0026 6.95793 20.7401 8.17168 21.2419C9.38543 21.7436 10.6867 21.9996 12 21.995C13.3134 21.9996 14.6146 21.7436 15.8283 21.2419C17.0421 20.7401 18.1443 20.0026 19.071 19.072C22.97 15.173 22.97 8.829 19.071 4.929C18.1442 3.99846 17.0421 3.26106 15.8283 2.75949C14.6145 2.25792 13.3133 2.00215 12 2.007ZM17.657 17.657C16.9154 18.4012 16.0336 18.9909 15.0626 19.392C14.0915 19.7932 13.0506 19.9978 12 19.994C9.85901 19.994 7.85001 19.164 6.34301 17.657C3.22401 14.538 3.22401 9.462 6.34301 6.343C7.08464 5.59891 7.96649 5.00931 8.93751 4.60834C9.90854 4.20736 10.9495 4.00297 12 4.007C14.141 4.007 16.15 4.836 17.657 6.343C20.776 9.462 20.776 14.538 17.657 17.657Z" fill="black"/>
<path d="M9.66101 8.24701L8.24701 9.66101L11.461 12.875L9.33601 15H15V9.33701L12.875 11.461L9.66101 8.24701Z" fill="black"/>
</svg>
