<svg width="24" height="24" viewBox="0 0 24 24" fill="none" xmlns="http://www.w3.org/2000/svg">
<path d="M16.242 17.242C15.8364 17.6477 15.3751 17.9935 14.872 18.269L15.833 20.023C16.8376 19.4722 17.7133 18.7137 18.402 17.798L16.802 16.597C16.631 16.8252 16.4439 17.0407 16.242 17.242ZM17.985 12.571C18.0479 13.4299 17.9244 14.2923 17.623 15.099L19.496 15.8C19.8977 14.7242 20.0625 13.5743 19.979 12.429L17.985 12.571ZM19.497 10.203C19.0939 9.12975 18.4663 8.155 17.656 7.344L16.242 8.758C16.8495 9.36732 17.3206 10.0988 17.624 10.904L19.497 10.203ZM11.369 18.966C11.322 18.961 11.275 18.951 11.228 18.945C11.0711 18.9255 10.915 18.9005 10.76 18.87C9.87814 18.685 9.05013 18.3013 8.33897 17.748C8.1339 17.5921 7.93916 17.4231 7.75597 17.242C7.57135 17.0543 7.39899 16.8549 7.23997 16.645C6.85854 16.1508 6.55781 15.5993 6.34897 15.011C6.24363 14.7171 6.16105 14.4156 6.10197 14.109C6.09398 14.066 6.08997 14.021 6.08297 13.978C6.03015 13.6553 6.0024 13.329 5.99997 13.002V13C5.99997 11.397 6.62397 9.891 7.75797 8.758C8.63709 7.87575 9.77114 7.29194 11 7.089V10L16 6L11 2V5.069C9.23671 5.28355 7.59682 6.08483 6.34397 7.344C5.59832 8.08446 5.00715 8.96564 4.60478 9.9364C4.2024 10.9072 3.99682 11.9482 3.99997 12.999V13.008C3.99997 13.261 4.01397 13.512 4.03697 13.761C4.04397 13.837 4.05797 13.911 4.06697 13.988C4.08797 14.16 4.11097 14.333 4.14297 14.504C4.16197 14.604 4.18697 14.7 4.20897 14.799C4.24097 14.941 4.27397 15.082 4.31397 15.222C4.34597 15.334 4.38397 15.445 4.42097 15.555C4.44697 15.634 4.46797 15.714 4.49697 15.792L4.50497 15.789C4.7723 16.5034 5.14108 17.1757 5.59997 17.785L5.59297 17.79C5.61397 17.818 5.64197 17.843 5.66297 17.871C5.87397 18.143 6.09597 18.409 6.34397 18.656C6.64459 18.9524 6.96754 19.2252 7.30997 19.472C7.57497 19.664 7.84697 19.844 8.13097 20.001L8.15898 20.02L8.15997 20.019C8.82967 20.3861 9.5492 20.654 10.296 20.814L10.295 20.819L10.348 20.828C10.549 20.87 10.753 20.899 10.958 20.926C11.027 20.935 11.096 20.949 11.165 20.956C12.0109 21.0446 12.8655 20.9983 13.697 20.819L13.273 18.864C12.6476 18.9974 12.0051 19.0318 11.369 18.966Z" fill="black"/>
</svg>
