<svg width="24" height="24" viewBox="0 0 24 24" fill="none" xmlns="http://www.w3.org/2000/svg">
<path d="M4 22H20C20.2652 22 20.5196 21.8946 20.7071 21.7071C20.8946 21.5196 21 21.2652 21 21V13H19V20H5V4H10V2H4C3.73478 2 3.48043 2.10536 3.29289 2.29289C3.10536 2.48043 3 2.73478 3 3V21C3 21.2652 3.10536 21.5196 3.29289 21.7071C3.48043 21.8946 3.73478 22 4 22Z" fill="black"/>
<path d="M12 12C12.5523 12 13 11.5523 13 11C13 10.4477 12.5523 10 12 10C11.4477 10 11 10.4477 11 11C11 11.5523 11.4477 12 12 12Z" fill="black"/>
<path d="M15 11H17C17 9.67392 16.4732 8.40215 15.5355 7.46447C14.5979 6.52678 13.3261 6 12 6V8C12.7956 8 13.5587 8.31607 14.1213 8.87868C14.6839 9.44129 15 10.2044 15 11Z" fill="black"/>
<path d="M19 11H21C21 8.61305 20.0518 6.32387 18.364 4.63604C16.6761 2.94821 14.3869 2 12 2V4C13.8565 4 15.637 4.7375 16.9497 6.05025C18.2625 7.36301 19 9.14348 19 11ZM9.65 15.67C9.64995 15.4905 9.60159 15.3144 9.51 15.16C9.42107 15.0175 9.28744 14.9085 9.13 14.85C8.88667 14.7789 8.63325 14.7485 8.38 14.76H7V18H7.65V16.65H7.79C7.89956 16.6361 8.01044 16.6361 8.12 16.65C8.19226 16.6832 8.25693 16.7308 8.31 16.79C8.43663 16.9425 8.55353 17.1028 8.66 17.27L9.13 17.97H9.91L9.52 17.34C9.40982 17.1521 9.28262 16.9747 9.14 16.81C9.0403 16.6999 8.92178 16.6085 8.79 16.54C9.03274 16.5212 9.2603 16.4146 9.43 16.24C9.57228 16.0844 9.65082 15.8809 9.65 15.67ZM8.91 16C8.86485 16.0631 8.80231 16.1118 8.73 16.14C8.53411 16.1647 8.33589 16.1647 8.14 16.14H7.65V15.32H8.65C8.74634 15.3316 8.83519 15.3778 8.9 15.45C8.96324 15.5213 8.99561 15.6148 8.99 15.71C8.99912 15.8131 8.97071 15.9161 8.91 16ZM10.92 16.62H12.28V16.08H10.92V15.31H12.49V14.76H10.27V18H10.92V16.62ZM13.01 14.76H13.66V18H13.01V14.76ZM16.1 14.82C15.8967 14.774 15.6884 14.7539 15.48 14.76H14.28V18H15.52C15.7126 18.008 15.9051 17.9844 16.09 17.93C16.2627 17.8832 16.4208 17.7938 16.55 17.67C16.7126 17.5124 16.833 17.3164 16.9 17.1C16.9735 16.8776 17.0073 16.6441 17 16.41C17.0053 16.1523 16.9681 15.8956 16.89 15.65C16.8294 15.4516 16.7233 15.2701 16.58 15.12C16.4492 14.9795 16.2836 14.876 16.1 14.82ZM16.26 17C16.2292 17.1156 16.1709 17.2219 16.09 17.31C16.0132 17.3766 15.92 17.4215 15.82 17.44C15.6904 17.4542 15.5596 17.4542 15.43 17.44H14.94V15.31H15.23C15.4096 15.2941 15.5904 15.2941 15.77 15.31C15.8805 15.3353 15.9834 15.3868 16.07 15.46C16.157 15.5507 16.222 15.6602 16.26 15.78C16.3066 15.9663 16.3268 16.1581 16.32 16.35C16.3296 16.5684 16.3094 16.7871 16.26 17Z" fill="black"/>
</svg>
