<svg width="24" height="24" viewBox="0 0 24 24" fill="none" xmlns="http://www.w3.org/2000/svg">
<path d="M9.91203 8.53101L7.12103 3.87701C7.08672 3.8188 7.04098 3.76814 6.98657 3.72807C6.93216 3.68799 6.87021 3.65934 6.80444 3.64384C6.73868 3.62833 6.67045 3.62628 6.60387 3.63783C6.5373 3.64937 6.47374 3.67426 6.41703 3.71101C5.15296 4.55934 4.09968 5.68556 3.33774 7.00352C2.57581 8.32147 2.12542 9.79624 2.02103 11.315C2.01795 11.3826 2.02846 11.4501 2.05195 11.5135C2.07544 11.5769 2.11143 11.6349 2.15779 11.6842C2.20414 11.7334 2.25991 11.7729 2.3218 11.8002C2.38368 11.8274 2.45041 11.842 2.51803 11.843L7.93903 11.933C7.95107 11.2449 8.13861 10.5712 8.48389 9.97587C8.82917 9.38052 9.32074 8.88319 9.91203 8.53101ZM18.021 4.02101C17.9643 3.97992 17.8996 3.95112 17.8311 3.93643C17.7626 3.92175 17.6918 3.9215 17.6232 3.93571C17.5546 3.94992 17.4898 3.97827 17.4327 4.01895C17.3757 4.05964 17.3278 4.11177 17.292 4.17201L14.499 8.83001C14.9726 9.20054 15.3572 9.67234 15.6247 10.2108C15.8922 10.7493 16.0358 11.3408 16.045 11.942L21.464 11.852C21.5319 11.851 21.5989 11.8364 21.661 11.809C21.7232 11.7816 21.7792 11.742 21.8257 11.6926C21.8722 11.6432 21.9084 11.5849 21.932 11.5212C21.9556 11.4576 21.9661 11.3898 21.963 11.322C21.8677 9.89361 21.4664 8.5024 20.7862 7.24271C20.1061 5.98302 19.163 4.88429 18.021 4.02101ZM13.954 15.532C13.3559 15.8726 12.6803 16.0537 11.992 16.058C11.3034 16.0539 10.6274 15.8727 10.029 15.532L7.38703 20.287C7.35371 20.3457 7.33261 20.4105 7.325 20.4776C7.3174 20.5446 7.32345 20.6125 7.34279 20.6772C7.36214 20.7419 7.39437 20.8019 7.43754 20.8538C7.48072 20.9057 7.53396 20.9483 7.59403 20.979C8.96241 21.6519 10.4672 22.0012 11.992 22C13.5163 22.0012 15.0204 21.6519 16.388 20.979C16.4481 20.9483 16.5013 20.9057 16.5445 20.8538C16.5877 20.8019 16.6199 20.7419 16.6393 20.6772C16.6586 20.6125 16.6647 20.5446 16.6571 20.4776C16.6495 20.4105 16.6284 20.3457 16.595 20.287L13.954 15.532Z" fill="black"/>
<path d="M12 15C13.6569 15 15 13.6569 15 12C15 10.3431 13.6569 9 12 9C10.3431 9 9 10.3431 9 12C9 13.6569 10.3431 15 12 15Z" fill="black"/>
</svg>
