<svg width="24" height="24" viewBox="0 0 24 24" fill="none" xmlns="http://www.w3.org/2000/svg">
<path d="M20.25 5.02499L12.352 2.06299L11.649 3.93599L14.484 4.99999H4C2.897 4.99999 2 5.89699 2 6.99999V19C2 20.103 2.897 21 4 21H20C21.103 21 22 20.103 22 19V6.99999C22 5.98199 21.233 5.14999 20.25 5.02499ZM4 19V12H20V9.99999H4V6.99999H20L20.001 19H4Z" fill="black"/>
<path d="M16.5 18C17.8807 18 19 16.8807 19 15.5C19 14.1193 17.8807 13 16.5 13C15.1193 13 14 14.1193 14 15.5C14 16.8807 15.1193 18 16.5 18Z" fill="black"/>
<path d="M6 15H10.999V17H6V15Z" fill="black"/>
</svg>
