<svg width="24" height="24" viewBox="0 0 24 24" fill="none" xmlns="http://www.w3.org/2000/svg">
<path d="M12 2C6.579 2 2 6.58 2 12C2 17.42 6.579 22 12 22C17.421 22 22 17.42 22 12C22 6.58 17.421 2 12 2ZM12 20C7.663 20 4 16.336 4 12C4 8.002 7.115 4.583 11 4.073V6.09C8.167 6.569 6 9.033 6 12C6 15.309 8.691 18 12 18C13.595 18 15.1 17.374 16.237 16.237L14.823 14.822C14.4537 15.1953 14.0141 15.4916 13.5295 15.6938C13.0449 15.896 12.5251 16.0001 12 16C9.794 16 8 14.206 8 12C8 10.142 9.279 8.589 11 8.142V10.288C10.41 10.641 10 11.281 10 12C10 13.081 10.919 14 12 14C13.081 14 14 13.081 14 12C14 11.281 13.59 10.641 13 10.288V4.073C16.885 4.583 20 8.002 20 12C20 16.336 16.337 20 12 20Z" fill="black"/>
</svg>
