<svg width="24" height="24" viewBox="0 0 24 24" fill="none" xmlns="http://www.w3.org/2000/svg">
<path d="M5.53601 21.886C5.69777 21.9701 5.8794 22.0086 6.06139 21.9974C6.24338 21.9861 6.41886 21.9255 6.56901 21.822L19.569 12.822C19.7018 12.73 19.8104 12.6071 19.8854 12.464C19.9604 12.3208 19.9995 12.1616 19.9995 12C19.9995 11.8384 19.9604 11.6792 19.8854 11.536C19.8104 11.3929 19.7018 11.27 19.569 11.178L6.56901 2.178C6.41915 2.07345 6.24346 2.01206 6.0611 2.0005C5.87874 1.98895 5.69671 2.02768 5.53486 2.11248C5.373 2.19727 5.23753 2.32488 5.14322 2.48138C5.0489 2.63788 4.99937 2.81727 5.00001 3V21C4.99998 21.1825 5.04991 21.3616 5.14439 21.5178C5.23888 21.674 5.37431 21.8013 5.53601 21.886ZM7.00001 4.909L17.243 12L7.00001 19.091V4.909Z" fill="black"/>
</svg>
