<svg width="24" height="24" viewBox="0 0 24 24" fill="none" xmlns="http://www.w3.org/2000/svg">
<path d="M11.002 2H7.002C6.73678 2 6.48243 2.10536 6.29489 2.29289C6.10736 2.48043 6.002 2.73478 6.002 3V6.812C5.09094 7.33776 4.33418 8.09387 3.80762 9.00447C3.28106 9.91506 3.00323 10.9481 3.002 12V12.988L3 13L3.002 13.072V21C3.002 21.2652 3.10736 21.5196 3.29489 21.7071C3.48243 21.8946 3.73678 22 4.002 22H14.002C14.2672 22 14.5216 21.8946 14.7091 21.7071C14.8966 21.5196 15.002 21.2652 15.002 21V12C15.0007 10.9481 14.7228 9.91512 14.1962 9.00455C13.6697 8.09397 12.913 7.33784 12.002 6.812V3C12.002 2.73478 11.8966 2.48043 11.7091 2.29289C11.5216 2.10536 11.2672 2 11.002 2ZM8.002 6V4H10.002V6H8.002ZM13.003 20H5.003V14H13.003V20ZM5.002 12C5.002 9.794 6.796 8 9.002 8C11.208 8 13.002 9.794 13.002 12H5.002ZM13.003 3H15.003V5H13.003V3ZM16 3H18V5H16V3ZM16 6H18V8H16V6ZM19 3H21V5H19V3ZM19 6H21V8H19V6ZM19 9H21V11H19V9Z" fill="black"/>
</svg>
