<svg width="24" height="24" viewBox="0 0 24 24" fill="none" xmlns="http://www.w3.org/2000/svg">
<path d="M11.63 21.91C11.7455 21.966 11.8717 21.9967 12 22C12.1415 21.9993 12.2813 21.9687 12.41 21.91C22 17.67 21 6.99999 21 6.89999C20.9822 6.73267 20.9225 6.57255 20.8263 6.43446C20.7302 6.29637 20.6008 6.18477 20.45 6.10999L12.45 2.10999C12.3104 2.03966 12.1563 2.00302 12 2.00302C11.8437 2.00302 11.6896 2.03966 11.55 2.10999L3.55002 6.10999C3.39929 6.18477 3.26985 6.29637 3.17371 6.43446C3.07757 6.57255 3.01783 6.73267 3.00002 6.89999C3.00002 6.99999 2.08002 17.67 11.63 21.91ZM5.00002 7.62999L12 4.11999L19 7.62999C19.05 9.62999 18.73 16.63 12 19.9C5.26002 16.63 4.94002 9.63999 5.00002 7.62999Z" fill="black"/>
<path d="M11.06 16H13.06V13H16.07V11H13.06V8H11.06V11H8.06V13H11.06V16Z" fill="black"/>
</svg>
