<svg width="24" height="24" viewBox="0 0 24 24" fill="none" xmlns="http://www.w3.org/2000/svg">
<path d="M16.997 20C16.098 20 15.709 19.689 15.121 19.219C14.441 18.676 13.596 18 11.994 18C10.393 18 9.548 18.676 8.869 19.22C8.282 19.689 7.894 20 6.995 20C6.098 20 5.71 19.689 5.123 19.22C4.444 18.676 3.601 18 2 18V20C2.898 20 3.286 20.311 3.873 20.78C4.552 21.324 5.396 22 6.995 22C8.596 22 9.44 21.324 10.119 20.781C10.707 20.311 11.095 20 11.994 20C12.894 20 13.305 20.328 13.872 20.781C14.551 21.324 15.396 22 16.997 22C18.598 22 19.443 21.324 20.122 20.781C20.689 20.328 21.1 20 22 20V18C20.398 18 19.553 18.676 18.873 19.219C18.285 19.689 17.896 20 16.997 20ZM6 8.5L4 9L6 17H6.995C8.596 17 9.44 16.324 10.119 15.781C10.707 15.311 11.095 15 11.994 15C12.894 15 13.305 15.328 13.872 15.781C14.551 16.324 15.396 17 16.997 17H18L18.027 16.893L18.34 15.641L20 9L18 8.5V5.001C18.0001 4.76974 17.92 4.54559 17.7734 4.36672C17.6268 4.18786 17.4228 4.06533 17.196 4.02L13 3.181V2H11V3.181L6.804 4.02C6.57722 4.06533 6.37316 4.18786 6.22657 4.36672C6.07998 4.54559 5.99991 4.76974 6 5.001V8.5ZM8 5.819L12 5.019L16 5.819V8L12 7L8 8V5.819Z" fill="black"/>
</svg>
