<svg width="24" height="24" viewBox="0 0 24 24" fill="none" xmlns="http://www.w3.org/2000/svg">
<path d="M5.50001 15C6.3751 14.995 7.21678 14.6633 7.86001 14.07L14.12 17.65C14.0403 17.9263 13.9999 18.2124 14 18.5C13.9936 19.3115 14.267 20.1005 14.7742 20.7341C15.2814 21.3676 15.9914 21.807 16.7847 21.9784C17.578 22.1497 18.406 22.0425 19.1295 21.6747C19.853 21.3069 20.4276 20.7011 20.7567 19.9593C21.0858 19.2174 21.1492 18.3848 20.9362 17.6017C20.7233 16.8186 20.247 16.1327 19.5875 15.6597C18.9281 15.1866 18.1258 14.9552 17.3157 15.0044C16.5057 15.0537 15.7373 15.3805 15.14 15.93L8.88001 12.35C8.95556 12.1036 8.99596 11.8477 9.00001 11.59L15.15 8.06999C15.7441 8.60683 16.5047 8.92307 17.3042 8.96569C18.1038 9.0083 18.8937 8.77469 19.5414 8.30404C20.1892 7.83339 20.6554 7.15431 20.8619 6.38071C21.0684 5.60711 21.0026 4.78602 20.6756 4.05517C20.3485 3.32431 19.7801 2.72813 19.0657 2.36662C18.3513 2.0051 17.5343 1.90024 16.7517 2.06961C15.9691 2.23899 15.2686 2.6723 14.7676 3.29688C14.2666 3.92146 13.9956 4.69931 14 5.49999C14.0034 5.7873 14.0437 6.07297 14.12 6.34999L8.43001 9.59999C8.10032 9.08995 7.64358 8.67447 7.10469 8.39439C6.56581 8.11432 5.96331 7.97929 5.35644 8.00258C4.74956 8.02586 4.15919 8.20666 3.64334 8.5272C3.1275 8.84775 2.70394 9.297 2.4143 9.83081C2.12466 10.3646 1.97891 10.9646 1.99137 11.5718C2.00383 12.179 2.17407 12.7725 2.48536 13.294C2.79665 13.8155 3.23828 14.247 3.76684 14.5461C4.2954 14.8452 4.89269 15.0016 5.50001 15ZM17.5 17C17.7967 17 18.0867 17.088 18.3334 17.2528C18.58 17.4176 18.7723 17.6519 18.8858 17.926C18.9994 18.2001 19.0291 18.5017 18.9712 18.7926C18.9133 19.0836 18.7704 19.3509 18.5607 19.5606C18.3509 19.7704 18.0836 19.9133 17.7926 19.9712C17.5017 20.029 17.2001 19.9993 16.926 19.8858C16.6519 19.7723 16.4176 19.58 16.2528 19.3333C16.088 19.0867 16 18.7967 16 18.5C16 18.1022 16.158 17.7206 16.4394 17.4393C16.7207 17.158 17.1022 17 17.5 17ZM17.5 3.99999C17.7967 3.99999 18.0867 4.08796 18.3334 4.25278C18.58 4.41761 18.7723 4.65187 18.8858 4.92596C18.9994 5.20005 19.0291 5.50165 18.9712 5.79262C18.9133 6.0836 18.7704 6.35087 18.5607 6.56065C18.3509 6.77043 18.0836 6.91329 17.7926 6.97117C17.5017 7.02905 17.2001 6.99934 16.926 6.88581C16.6519 6.77228 16.4176 6.58002 16.2528 6.33334C16.088 6.08667 16 5.79666 16 5.49999C16 5.10216 16.158 4.72063 16.4394 4.43933C16.7207 4.15802 17.1022 3.99999 17.5 3.99999ZM5.50001 9.99999C5.79668 9.99999 6.08669 10.088 6.33337 10.2528C6.58004 10.4176 6.7723 10.6519 6.88583 10.926C6.99936 11.2001 7.02907 11.5017 6.97119 11.7926C6.91331 12.0836 6.77045 12.3509 6.56067 12.5606C6.35089 12.7704 6.08362 12.9133 5.79265 12.9712C5.50167 13.029 5.20007 12.9993 4.92599 12.8858C4.6519 12.7723 4.41763 12.58 4.25281 12.3333C4.08798 12.0867 4.00001 11.7967 4.00001 11.5C4.00001 11.1022 4.15805 10.7206 4.43935 10.4393C4.72065 10.158 5.10219 9.99999 5.50001 9.99999Z" fill="black"/>
</svg>
