<svg width="24" height="24" viewBox="0 0 24 24" fill="none" xmlns="http://www.w3.org/2000/svg">
<path d="M20.995 6.90298C20.9789 6.73464 20.9202 6.57317 20.8245 6.43375C20.7288 6.29433 20.5993 6.18153 20.448 6.10598L12.475 2.10598C12.3363 2.03592 12.1831 1.99925 12.0277 1.9989C11.8723 1.99856 11.719 2.03454 11.58 2.10398L3.55298 6.10398C3.25598 6.25398 3.05098 6.54098 3.00898 6.87098C2.99598 6.96798 1.86398 16.612 11.55 21.879C11.6989 21.9602 11.8661 22.002 12.0356 22.0004C12.2052 21.9988 12.3716 21.9539 12.519 21.87C21.826 16.611 21.033 7.29698 20.995 6.90298ZM12.018 19.847C5.15797 15.837 4.87798 9.49498 4.95498 7.64198L12.026 4.11898L19.024 7.62998C19.029 9.49998 18.543 15.873 12.018 19.847Z" fill="black"/>
</svg>
