<svg width="24" height="24" viewBox="0 0 24 24" fill="none" xmlns="http://www.w3.org/2000/svg">
<path d="M20.48 6.10501L12.48 2.10501C12.3411 2.03549 12.1879 1.9993 12.0325 1.9993C11.8772 1.9993 11.724 2.03549 11.585 2.10501L3.58502 6.10501C3.4343 6.18077 3.30514 6.29335 3.20951 6.43233C3.11389 6.5713 3.05491 6.73217 3.03802 6.90001C3.02702 7.00701 2.07702 17.667 11.627 21.914C11.7547 21.9714 11.8931 22.0011 12.033 22.0011C12.173 22.0011 12.3114 21.9714 12.439 21.914C21.989 17.667 21.039 7.00801 21.028 6.90001C21.0111 6.73204 20.952 6.57107 20.8562 6.43207C20.7604 6.29307 20.631 6.18057 20.48 6.10501ZM12.033 19.897C5.26502 16.625 4.94402 9.64201 4.99902 7.63501L12.033 4.11801L19.062 7.63301C19.1 9.62201 18.734 16.651 12.033 19.897Z" fill="black"/>
<path d="M14.293 8.293L12 10.586L9.70703 8.293L8.29303 9.707L10.586 12L8.29303 14.293L9.70703 15.707L12 13.414L14.293 15.707L15.707 14.293L13.414 12L15.707 9.707L14.293 8.293Z" fill="black"/>
</svg>
