<svg width="24" height="24" viewBox="0 0 24 24" fill="none" xmlns="http://www.w3.org/2000/svg">
<path d="M21.438 5.08901C21.2896 5.01113 21.1241 4.97169 20.9566 4.97431C20.789 4.97693 20.6248 5.02153 20.479 5.10401C19.795 5.49301 19.124 5.68101 18.426 5.68101C16.391 5.68101 14.474 4.05201 12.704 2.29101C12.329 1.91801 11.641 1.91801 11.266 2.29101C9.59198 3.95901 7.59798 5.66301 5.50998 5.66301C4.81998 5.66301 4.15898 5.47901 3.49198 5.10201C3.19398 4.93601 2.83398 4.93101 2.53198 5.09001C2.22998 5.24901 2.03098 5.55101 2.00398 5.89101C1.99298 6.02001 1.05998 18.763 11.687 21.932C11.7797 21.9599 11.8761 21.9741 11.973 21.974H12C12.097 21.974 12.192 21.96 12.285 21.933C22.942 18.763 21.98 6.01701 21.969 5.88901C21.9547 5.72182 21.8986 5.56091 21.8058 5.42111C21.713 5.28131 21.5865 5.1671 21.438 5.08901ZM11.986 19.931C5.00698 17.676 4.05198 10.519 3.97198 7.45401C4.47698 7.59401 4.99098 7.66301 5.50898 7.66301C8.00098 7.66301 10.159 6.09601 11.985 4.38001C13.878 6.16801 15.968 7.68101 18.427 7.68101C18.957 7.68101 19.484 7.60701 20.002 7.46101C19.928 10.526 18.981 17.678 11.986 19.931Z" fill="black"/>
</svg>
