<svg width="24" height="24" viewBox="0 0 24 24" fill="none" xmlns="http://www.w3.org/2000/svg">
<path d="M20.41 6.10999L12.41 2.10999C12.2732 2.03647 12.1203 1.99799 11.965 1.99799C11.8097 1.99799 11.6568 2.03647 11.52 2.10999L3.51999 6.10999C3.37486 6.18854 3.25143 6.30179 3.16069 6.43963C3.06996 6.57747 3.01475 6.73563 2.99999 6.89999C2.99999 7.00999 1.99999 17.67 11.59 21.9C11.718 21.9621 11.8578 21.9962 12 22C12.1384 22.0001 12.275 21.9694 12.4 21.91C21.92 17.67 21 6.99999 21 6.89999C20.9783 6.72856 20.9125 6.56567 20.8091 6.42722C20.7057 6.28877 20.5682 6.17947 20.41 6.10999ZM12 19.9C5.19999 16.63 4.87999 9.63999 4.92999 7.62999L11.93 4.11999L18.93 7.62999C19.06 9.63999 18.74 16.63 12 19.9Z" fill="black"/>
<path d="M8 11H16V13H8V11Z" fill="black"/>
</svg>
