<svg width="24" height="24" viewBox="0 0 24 24" fill="none" xmlns="http://www.w3.org/2000/svg">
<path d="M20.787 9.02302C20.662 9.05002 18.984 9.44102 16.834 10.797C16.511 9.23002 15.555 6.29602 12.726 3.31202L12 2.54602L11.274 3.31302C8.435 6.30802 7.483 9.25002 7.163 10.827C5.005 9.44802 3.34 9.05202 3.218 9.02402L2 8.75202V10C2 17.29 5.925 22 12 22C17.981 22 22 17.178 22 10V8.75802L20.787 9.02302ZM8.999 12.038C9.001 12.005 9.151 8.93802 12 5.50602C14.814 8.90602 15 12 15 12V12.125C13.8786 13.0569 12.8685 14.1153 11.99 15.279C11.109 14.1358 10.1061 13.092 8.999 12.166V12.038ZM12 20C6.684 20 4.451 15.804 4.063 11.436C5.718 12.154 8.679 13.862 11.17 17.559L12.011 18.808L12.836 17.548C15.262 13.84 18.261 12.137 19.932 11.426C19.534 15.654 17.304 20 12 20Z" fill="black"/>
</svg>
