<svg width="24" height="24" viewBox="0 0 24 24" fill="none" xmlns="http://www.w3.org/2000/svg">
<path d="M11 7.05V4C11 3.73478 10.8947 3.48043 10.7071 3.29289C10.5196 3.10536 10.2652 3 10 3C9.73767 3.0011 9.48627 3.10526 9.30001 3.29L2.30001 10.29C2.20628 10.383 2.13189 10.4936 2.08112 10.6154C2.03035 10.7373 2.00421 10.868 2.00421 11C2.00421 11.132 2.03035 11.2627 2.08112 11.3846C2.13189 11.5064 2.20628 11.617 2.30001 11.71L9.30001 18.71C9.44039 18.8476 9.61822 18.9408 9.81127 18.9779C10.0043 19.015 10.204 18.9944 10.3854 18.9186C10.5668 18.8429 10.7218 18.7153 10.8312 18.5519C10.9405 18.3886 10.9992 18.1966 11 18V14.9H11.85C13.4299 14.8764 14.9961 15.197 16.4397 15.8393C17.8833 16.4817 19.1698 17.4306 20.21 18.62C20.3354 18.7869 20.5098 18.9104 20.7088 18.9731C20.9079 19.0359 21.1216 19.0348 21.32 18.97C21.5219 18.9019 21.6968 18.771 21.8191 18.5965C21.9414 18.422 22.0048 18.213 22 18C22 8.88 13.92 7.32 11 7.05ZM11.85 12.88C11.1812 12.8779 10.513 12.9213 9.85001 13.01C9.61327 13.0459 9.39728 13.1656 9.24129 13.3473C9.08531 13.5289 8.99969 13.7606 9.00001 14V15.59L4.42001 11L9.00001 6.41V8C9.00001 8.26522 9.10537 8.51957 9.2929 8.70711C9.48044 8.89464 9.73479 9 10 9C10.91 9 18.11 9.2 19.67 15.43C17.4057 13.7606 14.6632 12.8663 11.85 12.88Z" fill="black"/>
</svg>
