<svg width="24" height="24" viewBox="0 0 24 24" fill="none" xmlns="http://www.w3.org/2000/svg">
<path d="M5 21H19C19.5304 21 20.0391 20.7893 20.4142 20.4142C20.7893 20.0391 21 19.5304 21 19V7.99999C21.0008 7.86838 20.9755 7.73792 20.9258 7.61608C20.876 7.49424 20.8027 7.38343 20.71 7.28999L16.71 3.28999C16.6166 3.1973 16.5057 3.12398 16.3839 3.07421C16.2621 3.02445 16.1316 2.99923 16 2.99999H5C4.46957 2.99999 3.96086 3.2107 3.58579 3.58577C3.21071 3.96085 3 4.46955 3 4.99999V19C3 19.5304 3.21071 20.0391 3.58579 20.4142C3.96086 20.7893 4.46957 21 5 21ZM15 19H9V14H15V19ZM13 6.99999H11V4.99999H13V6.99999ZM5 4.99999H7V8.99999H15V4.99999H15.59L19 8.40999V19H17V14C17 13.4696 16.7893 12.9608 16.4142 12.5858C16.0391 12.2107 15.5304 12 15 12H9C8.46957 12 7.96086 12.2107 7.58579 12.5858C7.21071 12.9608 7 13.4696 7 14V19H5V4.99999Z" fill="black"/>
</svg>
