<svg width="24" height="24" viewBox="0 0 24 24" fill="none" xmlns="http://www.w3.org/2000/svg">
<path d="M12 2C6.486 2 2 6.486 2 12C2 17.514 6.486 22 12 22C17.514 22 22 17.514 22 12C22 6.486 17.514 2 12 2ZM12 20C7.589 20 4 16.411 4 12C4 7.589 7.589 4 12 4C16.411 4 20 7.589 20 12C20 16.411 16.411 20 12 20Z" fill="black"/>
<path d="M12 18C13.6569 18 15 16.8807 15 15.5C15 14.1193 13.6569 13 12 13C10.3431 13 9 14.1193 9 15.5C9 16.8807 10.3431 18 12 18Z" fill="black"/>
<path d="M10 7C7.095 7 6.017 9.386 6 10.99L8 11.011C8.002 10.804 8.076 9 10 9V7ZM14 7V9C15.826 9 15.992 10.537 16 11.007L17 11H18C18 9.392 16.935 7 14 7Z" fill="black"/>
</svg>
