<svg width="24" height="24" viewBox="0 0 24 24" fill="none" xmlns="http://www.w3.org/2000/svg">
<path d="M18 15C17.817 15 17.642 15.022 17.468 15.054L8.946 6.532C8.978 6.359 9 6.182 9 6C9 4.346 7.654 3 6 3C4.346 3 3 4.346 3 6C3 7.302 3.839 8.401 5 8.815V15.184C4.41685 15.3897 3.9116 15.7708 3.55354 16.2749C3.19548 16.7791 3.00213 17.3816 3 18C3 19.654 4.346 21 6 21C6.61833 20.9982 7.22095 20.805 7.72501 20.4469C8.22908 20.0888 8.60985 19.5833 8.815 19H15.184C15.3893 19.5832 15.7701 20.0886 16.2741 20.4467C16.7782 20.8048 17.3807 20.9981 17.999 21C19.653 21 20.999 19.654 20.999 18C20.999 16.346 19.654 15 18 15ZM7 15.184V8.816C7.329 8.698 7.629 8.525 7.894 8.308L15.693 16.107C15.4728 16.3731 15.3009 16.6757 15.185 17.001H8.815C8.66645 16.5823 8.42648 16.202 8.11252 15.8877C7.79856 15.5734 7.41851 15.333 7 15.184ZM6 5C6.19806 4.9998 6.39174 5.05837 6.5565 5.16828C6.72127 5.2782 6.84972 5.43452 6.92561 5.61747C7.0015 5.80042 7.02141 6.00177 6.98281 6.19604C6.94422 6.39031 6.84887 6.56876 6.70881 6.70881C6.56876 6.84887 6.39031 6.94422 6.19604 6.98281C6.00177 7.02141 5.80042 7.0015 5.61747 6.92561C5.43452 6.84972 5.2782 6.72127 5.16828 6.5565C5.05837 6.39174 4.9998 6.19806 5 6C5 5.449 5.448 5 6 5ZM6 19C5.74252 18.9885 5.49941 18.8781 5.32128 18.6918C5.14315 18.5055 5.04373 18.2577 5.04373 18C5.04373 17.7423 5.14315 17.4945 5.32128 17.3082C5.49941 17.1219 5.74252 17.0115 6 17C6.25748 17.0115 6.50059 17.1219 6.67872 17.3082C6.85685 17.4945 6.95627 17.7423 6.95627 18C6.95627 18.2577 6.85685 18.5055 6.67872 18.6918C6.50059 18.8781 6.25748 18.9885 6 19ZM18 19C17.7425 18.9885 17.4994 18.8781 17.3213 18.6918C17.1431 18.5055 17.0437 18.2577 17.0437 18C17.0437 17.7423 17.1431 17.4945 17.3213 17.3082C17.4994 17.1219 17.7425 17.0115 18 17C18.2575 17.0115 18.5006 17.1219 18.6787 17.3082C18.8569 17.4945 18.9563 17.7423 18.9563 18C18.9563 18.2577 18.8569 18.5055 18.6787 18.6918C18.5006 18.8781 18.2575 18.9885 18 19Z" fill="black"/>
</svg>
