<svg width="24" height="24" viewBox="0 0 24 24" fill="none" xmlns="http://www.w3.org/2000/svg">
<path d="M17.867 2.504C17.512 1.88 16.486 1.881 16.131 2.504L12.132 9.504C12.0451 9.65606 11.9997 9.82826 12.0003 10.0034C12.0009 10.1785 12.0475 10.3504 12.1354 10.5019C12.2233 10.6533 12.3494 10.7791 12.5011 10.8665C12.6528 10.9539 12.8249 10.9999 13 11H21C21.175 10.9996 21.3469 10.9534 21.4984 10.8659C21.65 10.7784 21.7759 10.6527 21.8638 10.5014C21.9516 10.35 21.9982 10.1782 21.9989 10.0032C21.9997 9.82825 21.9545 9.65611 21.868 9.504L17.867 2.504ZM3 22H10C10.2652 22 10.5196 21.8946 10.7071 21.7071C10.8946 21.5196 11 21.2652 11 21V14C11 13.7348 10.8946 13.4804 10.7071 13.2929C10.5196 13.1054 10.2652 13 10 13H3C2.73478 13 2.48043 13.1054 2.29289 13.2929C2.10536 13.4804 2 13.7348 2 14V21C2 21.2652 2.10536 21.5196 2.29289 21.7071C2.48043 21.8946 2.73478 22 3 22ZM17.5 13C15.019 13 13 15.019 13 17.5C13 19.981 15.019 22 17.5 22C19.981 22 22 19.981 22 17.5C22 15.019 19.981 13 17.5 13Z" fill="black"/>
</svg>
