<svg width="24" height="24" viewBox="0 0 24 24" fill="none" xmlns="http://www.w3.org/2000/svg">
<path d="M21 18.33C20.814 17.1037 20.2952 15.9519 19.5 15C18.7026 15.9505 18.1835 17.103 18 18.33C17.9755 18.5415 17.9961 18.7558 18.0603 18.9589C18.1245 19.1619 18.2309 19.349 18.3726 19.508C18.5143 19.667 18.6879 19.7942 18.8822 19.8813C19.0765 19.9685 19.2871 20.0135 19.5 20.0135C19.7129 20.0135 19.9235 19.9685 20.1178 19.8813C20.3121 19.7942 20.4857 19.667 20.6274 19.508C20.7691 19.349 20.8755 19.1619 20.9397 18.9589C21.0039 18.7558 21.0245 18.5415 21 18.33ZM11 20.33C10.814 19.1037 10.2952 17.9519 9.5 17C8.70261 17.9505 8.1835 19.103 8 20.33C7.97819 20.7502 8.12381 21.1619 8.40497 21.4749C8.68613 21.7879 9.07989 21.9767 9.5 22C9.92011 21.9767 10.3139 21.7879 10.595 21.4749C10.8762 21.1619 11.0218 20.7502 11 20.33ZM14.5 22C14.9201 21.9767 15.3139 21.7879 15.595 21.4749C15.8762 21.1619 16.0218 20.7502 16 20.33C15.814 19.1037 15.2952 17.9519 14.5 17C13.7026 17.9505 13.1835 19.103 13 20.33C12.9782 20.7502 13.1238 21.1619 13.405 21.4749C13.6861 21.7879 14.0799 21.9767 14.5 22ZM3 18.33C2.97819 18.7502 3.12381 19.1619 3.40497 19.4749C3.68613 19.7879 4.07989 19.9767 4.5 20C4.92011 19.9767 5.31387 19.7879 5.59503 19.4749C5.87619 19.1619 6.02181 18.7502 6 18.33C5.81401 17.1037 5.29518 15.9519 4.5 15C3.70261 15.9505 3.1835 17.103 3 18.33ZM13 4.07V2H11V4.07C9.06798 4.31341 7.29107 5.25315 6.0024 6.71303C4.71372 8.17292 4.00177 10.0527 4 12H2V14H22V12H20C19.9982 10.0527 19.2863 8.17292 17.9976 6.71303C16.7089 5.25315 14.932 4.31341 13 4.07ZM6 12C6 10.4087 6.63214 8.88258 7.75736 7.75736C8.88258 6.63214 10.4087 6 12 6C13.5913 6 15.1174 6.63214 16.2426 7.75736C17.3679 8.88258 18 10.4087 18 12H6Z" fill="black"/>
</svg>
