<svg width="24" height="24" viewBox="0 0 24 24" fill="none" xmlns="http://www.w3.org/2000/svg">
<path d="M21.796 9.982C20.849 5.357 16.729 2 12 2C6.486 2 2 6.486 2 12C2 16.729 5.357 20.849 9.982 21.796C10.144 21.8304 10.3121 21.8235 10.4707 21.776C10.6294 21.7285 10.7736 21.6418 10.89 21.524L21.523 10.891C21.761 10.653 21.863 10.313 21.796 9.982ZM11 18C10.9954 16.4064 11.4711 14.8483 12.365 13.529C12.653 13.1038 12.9805 12.7068 13.343 12.343C13.7063 11.9811 14.1027 11.654 14.527 11.366C14.9558 11.0773 15.4112 10.8302 15.887 10.628C16.368 10.425 16.873 10.268 17.388 10.162C18.102 10.0202 18.8319 9.97509 19.558 10.028L11.029 18.557C11.016 18.372 11 18.187 11 18ZM4 12C4 7.589 7.589 4 12 4C14.909 4 17.528 5.589 18.929 8.005C18.2764 8.00738 17.6256 8.0737 16.986 8.203C16.343 8.335 15.712 8.531 15.107 8.786C14.5126 9.0389 13.9437 9.34797 13.408 9.709C12.875 10.07 12.378 10.48 11.929 10.929C11.48 11.378 11.071 11.874 10.708 12.409C10.349 12.942 10.038 13.513 9.786 14.107C9.26669 15.3392 8.99944 16.6629 9 18C9 18.491 9.048 18.979 9.119 19.461C6.089 18.288 4 15.336 4 12Z" fill="black"/>
</svg>
