<svg width="24" height="24" viewBox="0 0 24 24" fill="none" xmlns="http://www.w3.org/2000/svg">
<path d="M12 14C9 14 8 17 8 17H16C16 17 15 14 12 14Z" fill="black"/>
<path d="M12 2C6.486 2 2 6.486 2 12C2 17.514 6.486 22 12 22C17.514 22 22 17.514 22 12C22 6.486 17.514 2 12 2ZM12 20C7.589 20 4 16.411 4 12C4 7.589 7.589 4 12 4C16.411 4 20 7.589 20 12C20 16.411 16.411 20 12 20Z" fill="black"/>
<path d="M17.555 8.83203L16.446 7.16803L13.446 9.16803C13.3004 9.26539 13.1829 9.39924 13.1053 9.55621C13.0276 9.71319 12.9925 9.88779 13.0034 10.0626C13.0143 10.2374 13.0709 10.4062 13.1676 10.5523C13.2642 10.6984 13.3974 10.8166 13.554 10.895L17.554 12.895L18.449 11.106L15.99 9.87703L17.555 8.83203ZM10.998 10.062C11.0089 9.88727 10.9737 9.71272 10.896 9.55583C10.8182 9.39894 10.7006 9.26522 10.555 9.16803L7.555 7.16803L6.445 8.83203L8.011 9.87603L5.552 11.105L6.447 12.894L10.447 10.894C10.6038 10.8159 10.7372 10.6979 10.834 10.5518C10.9307 10.4058 10.9873 10.2369 10.998 10.062Z" fill="black"/>
</svg>
