<svg width="24" height="24" viewBox="0 0 24 24" fill="none" xmlns="http://www.w3.org/2000/svg">
<path d="M20.145 8.27003L21.708 6.70703L20.294 5.29303L18.586 7.00003C17.536 6.37003 16.312 6.00003 15 6.00003C11.141 6.00003 8 9.14003 8 13C8 16.86 11.141 20 15 20C18.859 20 22 16.86 22 13C21.9992 11.2461 21.3368 9.55693 20.145 8.27003ZM15 18C12.243 18 10 15.757 10 13C10 10.243 12.243 8.00003 15 8.00003C17.757 8.00003 20 10.243 20 13C20 15.757 17.757 18 15 18Z" fill="black"/>
<path d="M14 10H16V14H14V10ZM13 3H17V5H13V3ZM3 8H7V10H3V8ZM3 16H7V18H3V16ZM2 12H5.99V14H2V12Z" fill="black"/>
</svg>
