<svg width="24" height="24" viewBox="0 0 24 24" fill="none" xmlns="http://www.w3.org/2000/svg">
<path d="M9 16C9.0202 16.7822 9.34513 17.5257 9.90554 18.0718C10.4659 18.6179 11.2175 18.9235 12 18.9235C12.7825 18.9235 13.5341 18.6179 14.0945 18.0718C14.6549 17.5257 14.9798 16.7822 15 16C15 15.647 14.928 15.314 14.816 15H9.184C9.06548 15.3202 9.00323 15.6586 9 16Z" fill="black"/>
<path d="M18 6V4H14.815C14.6096 3.41685 14.2288 2.91155 13.7248 2.55346C13.2207 2.19538 12.6183 2.00204 12 2C10.346 2 9 3.346 9 5V10.8C8.08916 11.329 7.33286 12.0875 6.80649 12.9999C6.28012 13.9123 6.00205 14.9467 6 16C6 19.309 8.691 22 12 22C15.309 22 18 19.309 18 16C17.998 14.9467 17.7199 13.9123 17.1935 12.9999C16.6671 12.0875 15.9108 11.329 15 10.8V10H18V8H15V6H18ZM13.595 12.324C14.3083 12.6387 14.9151 13.1534 15.3419 13.8058C15.7687 14.4582 15.9973 15.2204 16 16C16 18.206 14.206 20 12 20C9.794 20 8 18.206 8 16C8 14.415 8.944 12.973 10.405 12.324L11 12.061V5C11 4.73478 11.1054 4.48043 11.2929 4.29289C11.4804 4.10536 11.7348 4 12 4C12.2652 4 12.5196 4.10536 12.7071 4.29289C12.8946 4.48043 13 4.73478 13 5V12.061L13.595 12.324Z" fill="black"/>
</svg>
