<svg width="24" height="24" viewBox="0 0 24 24" fill="none" xmlns="http://www.w3.org/2000/svg">
<path d="M20 4H8.51503C8.19672 4.00013 7.88303 4.07623 7.60005 4.22198C7.31707 4.36774 7.07297 4.57893 6.88803 4.838L2.18703 11.419C2.06557 11.5884 2.00024 11.7916 2.00024 12C2.00024 12.2084 2.06557 12.4116 2.18703 12.581L6.88803 19.162C7.07297 19.4211 7.31707 19.6323 7.60005 19.778C7.88303 19.9238 8.19672 19.9999 8.51503 20H20C21.103 20 22 19.103 22 18V6C22 4.897 21.103 4 20 4ZM20 18H8.51503L4.22903 12L8.51503 6H20V18Z" fill="black"/>
</svg>
