<svg width="24" height="24" viewBox="0 0 24 24" fill="none" xmlns="http://www.w3.org/2000/svg">
<path d="M2.95801 16L3.00101 17.042C3.00601 17.162 3.14301 19.297 6.00001 20.38V21.5C6.00001 21.6326 6.05269 21.7598 6.14645 21.8536C6.24022 21.9473 6.3674 22 6.50001 22H17.5C17.6326 22 17.7598 21.9473 17.8536 21.8536C17.9473 21.7598 18 21.6326 18 21.5V20.38C20.857 19.297 20.994 17.162 20.999 17.042L21.043 16H18V14.38C20.857 13.297 20.994 11.162 20.999 11.042L21.043 10H18V8.38C20.857 7.297 20.994 5.162 20.999 5.042L21.043 4H18V2.5C18 2.36739 17.9473 2.24021 17.8536 2.14645C17.7598 2.05268 17.6326 2 17.5 2H6.50001C6.3674 2 6.24022 2.05268 6.14645 2.14645C6.05269 2.24021 6.00001 2.36739 6.00001 2.5V4H2.95801L3.00101 5.042C3.00601 5.162 3.14301 7.297 6.00001 8.38V10H2.95801L3.00101 11.042C3.00601 11.162 3.14301 13.297 6.00001 14.38V16H2.95801ZM12 4C12.2627 4.00007 12.5228 4.05187 12.7655 4.15247C13.0082 4.25307 13.2287 4.40048 13.4144 4.58629C13.6001 4.7721 13.7474 4.99267 13.8479 5.2354C13.9484 5.47814 14.0001 5.73829 14 6.001C13.9999 6.26371 13.9481 6.52383 13.8475 6.76652C13.7469 7.00921 13.5995 7.2297 13.4137 7.41542C13.2279 7.60114 13.0073 7.74844 12.7646 7.84891C12.5219 7.94939 12.2617 8.00107 11.999 8.001C11.4684 8.00087 10.9597 7.78997 10.5846 7.41471C10.2095 7.03945 9.99887 6.53057 9.99901 6C9.99914 5.46943 10.21 4.96065 10.5853 4.58558C10.9606 4.21051 11.4694 3.99987 12 4ZM12 10C12.2627 10.0001 12.5228 10.0519 12.7655 10.1525C13.0082 10.2531 13.2287 10.4005 13.4144 10.5863C13.6001 10.7721 13.7474 10.9927 13.8479 11.2354C13.9484 11.4781 14.0001 11.7383 14 12.001C13.9999 12.2637 13.9481 12.5238 13.8475 12.7665C13.7469 13.0092 13.5995 13.2297 13.4137 13.4154C13.2279 13.6011 13.0073 13.7484 12.7646 13.8489C12.5219 13.9494 12.2617 14.0011 11.999 14.001C11.4684 14.0009 10.9597 13.79 10.5846 13.4147C10.2095 13.0395 9.99887 12.5306 9.99901 12C9.99914 11.4694 10.21 10.9607 10.5853 10.5856C10.9606 10.2105 11.4694 9.99987 12 10ZM12 16C12.2627 16.0001 12.5228 16.0519 12.7655 16.1525C13.0082 16.2531 13.2287 16.4005 13.4144 16.5863C13.6001 16.7721 13.7474 16.9927 13.8479 17.2354C13.9484 17.4781 14.0001 17.7383 14 18.001C13.9999 18.2637 13.9481 18.5238 13.8475 18.7665C13.7469 19.0092 13.5995 19.2297 13.4137 19.4154C13.2279 19.6011 13.0073 19.7484 12.7646 19.8489C12.5219 19.9494 12.2617 20.0011 11.999 20.001C11.4684 20.0009 10.9597 19.79 10.5846 19.4147C10.2095 19.0395 9.99887 18.5306 9.99901 18C9.99914 17.4694 10.21 16.9607 10.5853 16.5856C10.9606 16.2105 11.4694 15.9999 12 16Z" fill="black"/>
</svg>
