<svg width="24" height="24" viewBox="0 0 24 24" fill="none" xmlns="http://www.w3.org/2000/svg">
<path d="M17.868 4.504C17.7806 4.35095 17.6542 4.22372 17.5018 4.13521C17.3494 4.0467 17.1762 4.00006 17 4H2.99998C2.82486 4.00006 2.65283 4.0461 2.50109 4.13352C2.34936 4.22094 2.22324 4.34667 2.13535 4.49814C2.04747 4.64961 2.0009 4.8215 2.00031 4.99662C1.99972 5.17174 2.04512 5.34394 2.13198 5.496L5.84898 12L2.13198 18.504C2.04512 18.6561 1.99972 18.8283 2.00031 19.0034C2.0009 19.1785 2.04747 19.3504 2.13535 19.5019C2.22324 19.6533 2.34936 19.7791 2.50109 19.8665C2.65283 19.9539 2.82486 19.9999 2.99998 20H17C17.1762 19.9999 17.3494 19.9533 17.5018 19.8648C17.6542 19.7763 17.7806 19.6491 17.868 19.496L21.868 12.496C21.9545 12.345 22 12.174 22 12C22 11.826 21.9545 11.655 21.868 11.504L17.868 4.504ZM16.42 18H4.72398L7.86898 12.496C7.95547 12.345 8.00096 12.174 8.00096 12C8.00096 11.826 7.95547 11.655 7.86898 11.504L4.72398 6H16.42L19.849 12L16.42 18Z" fill="black"/>
</svg>
