<svg width="24" height="24" viewBox="0 0 24 24" fill="none" xmlns="http://www.w3.org/2000/svg">
<path d="M21 6H19V3H17V6H7V3H5V6H3C2.73478 6 2.48043 6.10536 2.29289 6.29289C2.10536 6.48043 2 6.73478 2 7V14C2 14.2652 2.10536 14.5196 2.29289 14.7071C2.48043 14.8946 2.73478 15 3 15H5V21H7V15H17V21H19V15H21C21.2652 15 21.5196 14.8946 21.7071 14.7071C21.8946 14.5196 22 14.2652 22 14V7C22 6.73478 21.8946 6.48043 21.7071 6.29289C21.5196 6.10536 21.2652 6 21 6ZM4.42 13L7.277 8H9.58L6.723 13H4.42ZM12.277 8H14.58L11.723 13H9.42L12.277 8ZM17.277 8H19.58L16.723 13H14.42L17.277 8Z" fill="black"/>
</svg>
