<svg width="24" height="24" viewBox="0 0 24 24" fill="none" xmlns="http://www.w3.org/2000/svg">
<path d="M16 9C14.372 9 13 10.372 13 12C13 13.628 14.372 15 16 15C17.628 15 19 13.628 19 12C19 10.372 17.628 9 16 9Z" fill="black"/>
<path d="M16 6H8C4.704 6 2.018 8.682 2 11.986V12.028C2.01002 13.6136 2.64627 15.131 3.77012 16.2496C4.89397 17.3683 6.41434 17.9974 8 18H16C19.309 18 22 15.309 22 12C22 8.691 19.309 6 16 6ZM16 16H8C6.94135 15.9984 5.92636 15.5779 5.17685 14.8302C4.42733 14.0826 4.00423 13.0686 4 12.01C4.004 9.799 5.798 8 8 8H16C18.206 8 20 9.794 20 12C20 14.206 18.206 16 16 16Z" fill="black"/>
</svg>
