<svg width="24" height="24" viewBox="0 0 24 24" fill="none" xmlns="http://www.w3.org/2000/svg">
<path d="M3 20C3 21.103 3.897 22 5 22H19C20.103 22 21 21.103 21 20V5C21 3.897 20.103 3 19 3H17C17 2.73478 16.8946 2.48043 16.7071 2.29289C16.5196 2.10536 16.2652 2 16 2H8C7.73478 2 7.48043 2.10536 7.29289 2.29289C7.10536 2.48043 7 2.73478 7 3H5C3.897 3 3 3.897 3 5V20ZM5 5H7V7H17V5H19V20H5V5Z" fill="black"/>
<path d="M14.292 10.295L12 12.587L9.70801 10.295L8.29401 11.709L10.586 14.001L8.29401 16.293L9.70801 17.707L12 15.415L14.292 17.707L15.706 16.293L13.414 14.001L15.706 11.709L14.292 10.295Z" fill="black"/>
</svg>
