<svg width="24" height="24" viewBox="0 0 24 24" fill="none" xmlns="http://www.w3.org/2000/svg">
<path d="M4.92901 19.081C6.82401 20.976 9.33401 22.019 12 22.019C14.666 22.019 17.177 20.976 19.071 19.081C22.97 15.182 22.97 8.838 19.071 4.938C17.177 3.044 14.665 2 12 2C9.33501 2 6.82301 3.044 4.92901 4.938C1.03001 8.837 1.03001 15.182 4.92901 19.081ZM17.657 17.667C16.6091 18.7179 15.2885 19.4552 13.844 19.796C13.835 18.194 14.43 16.65 15.535 15.545C16.698 14.382 18.267 13.717 19.812 13.694C19.4935 15.199 18.7448 16.5792 17.657 17.667ZM19.982 11.702C17.858 11.681 15.698 12.555 14.121 14.131C12.589 15.663 11.794 17.811 11.858 20.012C9.78373 19.9804 7.80407 19.1388 6.34201 17.667C4.87813 16.2024 4.04177 14.2255 4.01001 12.155C4.08701 12.157 4.16401 12.169 4.24101 12.169C6.35601 12.169 8.40101 11.365 9.87801 9.889C11.458 8.309 12.335 6.15 12.308 4.016C14.3229 4.08836 16.235 4.92375 17.657 6.353C19.0808 7.77763 19.9117 9.68906 19.982 11.702ZM6.34301 6.353C7.42982 5.26113 8.80984 4.50772 10.316 4.184C10.298 5.739 9.63101 7.308 8.46501 8.475C7.36101 9.578 5.82301 10.171 4.22701 10.166C4.5621 8.72221 5.29516 7.40125 6.34301 6.353Z" fill="black"/>
</svg>
