<svg width="24" height="24" viewBox="0 0 24 24" fill="none" xmlns="http://www.w3.org/2000/svg">
<path d="M12 2C6.486 2 2 6.486 2 12C2 17.514 6.486 22 12 22C17.514 22 22 17.514 22 12C22 6.486 17.514 2 12 2ZM11 11H4.069C4.15475 10.3136 4.32955 9.64126 4.589 9H11V11ZM11 15H4.589C4.32955 14.3587 4.15475 13.6864 4.069 13H11V15ZM11 4.069V7H5.765C7.06342 5.38055 8.94071 4.32948 11 4.069ZM5.765 17H11V19.931C8.94071 19.6705 7.06342 18.6194 5.765 17ZM13 19.931V4.069C16.939 4.564 20 7.927 20 12C20 16.073 16.939 19.436 13 19.931Z" fill="black"/>
</svg>
