<svg width="24" height="24" viewBox="0 0 24 24" fill="none" xmlns="http://www.w3.org/2000/svg">
<path d="M12.001 1.99298C6.486 1.99398 2 6.47998 2 11.994C2.001 17.508 6.487 21.994 12 21.994C17.515 21.994 22.001 17.508 22.001 11.994C22.001 6.47998 17.515 1.99398 12.001 1.99298ZM12 19.994C7.59 19.994 4.001 16.405 4 11.994C4 7.58298 7.589 3.99398 12.001 3.99298C16.412 3.99398 20.001 7.58298 20.001 11.994C20.001 16.405 16.412 19.994 12 19.994Z" fill="black"/>
<path d="M12.001 8.00098L7.99597 12.006H11.001V16H13.001V12.006H16.005L12.001 8.00098Z" fill="black"/>
</svg>
