<svg width="24" height="24" viewBox="0 0 24 24" fill="none" xmlns="http://www.w3.org/2000/svg">
<path d="M12 2C6.486 2 2 6.486 2 12C2 17.514 6.486 22 12 22C17.514 22 22 17.514 22 12C22 6.486 17.514 2 12 2ZM12 20C7.589 20 4 16.411 4 12C4 7.589 7.589 4 12 4C16.411 4 20 7.589 20 12C20 16.411 16.411 20 12 20Z" fill="black"/>
<path d="M14.829 9.17199C15.01 9.35299 15.175 9.55199 15.317 9.76399L16.975 8.64499C16.5426 8.00685 15.9924 7.45703 15.354 7.02499C14.7043 6.58567 13.9744 6.27881 13.206 6.12199C12.2336 5.92107 11.2265 5.96522 10.2755 6.25046C9.32443 6.53571 8.45928 7.05309 7.75799 7.75599C7.48567 8.02809 7.24021 8.3258 7.02499 8.64499L8.68199 9.76399C9.2677 8.89766 10.1682 8.29389 11.192 8.08099C11.8411 7.94628 12.5136 7.9755 13.1486 8.16598C13.7836 8.35647 14.3612 8.70223 14.829 9.17199Z" fill="black"/>
<path d="M15.5 15C16.3284 15 17 14.3284 17 13.5C17 12.6716 16.3284 12 15.5 12C14.6716 12 14 12.6716 14 13.5C14 14.3284 14.6716 15 15.5 15Z" fill="black"/>
<path d="M8.50701 15C9.33157 15 10 14.3315 10 13.507C10 12.6824 9.33157 12.014 8.50701 12.014C7.68245 12.014 7.01401 12.6824 7.01401 13.507C7.01401 14.3315 7.68245 15 8.50701 15Z" fill="black"/>
</svg>
