<svg width="24" height="24" viewBox="0 0 24 24" fill="none" xmlns="http://www.w3.org/2000/svg">
<path d="M16 10H17V12H13V6H15L12 2L9 6H11V14H7V11.723C7.596 11.376 8 10.738 8 10C8 9.46957 7.78929 8.96086 7.41421 8.58579C7.03914 8.21071 6.53043 8 6 8C5.46957 8 4.96086 8.21071 4.58579 8.58579C4.21071 8.96086 4 9.46957 4 10C4 10.738 4.404 11.376 5 11.723V14C5 15.103 5.897 16 7 16H11V18.277C10.6966 18.451 10.4444 18.7019 10.2689 19.0044C10.0933 19.3068 10.0006 19.6503 10 20C10 20.5304 10.2107 21.0391 10.5858 21.4142C10.9609 21.7893 11.4696 22 12 22C12.5304 22 13.0391 21.7893 13.4142 21.4142C13.7893 21.0391 14 20.5304 14 20C14 19.262 13.596 18.624 13 18.277V14H17C18.103 14 19 13.103 19 12V10H20V6H16V10Z" fill="black"/>
</svg>
