<svg width="24" height="24" viewBox="0 0 24 24" fill="none" xmlns="http://www.w3.org/2000/svg">
<path d="M11.95 3.56402L12.658 4.27102L3.465 13.464C2.521 14.408 2 15.664 2 17C2 18.336 2.521 19.592 3.465 20.535C4.408 21.479 5.664 22 7 22C8.336 22 9.592 21.479 10.535 20.535L19.728 11.342L20.435 12.05L21.849 10.636L13.364 2.15002L11.95 3.56402ZM9.121 19.121C7.988 20.254 6.012 20.254 4.879 19.121C4.313 18.555 4 17.802 4 17C4 16.198 4.313 15.445 4.879 14.879L5.758 14H14.242L9.121 19.121ZM16.242 12H7.758L14.072 5.68602L18.314 9.92802L16.242 12Z" fill="black"/>
</svg>
