<svg width="24" height="24" viewBox="0 0 24 24" fill="none" xmlns="http://www.w3.org/2000/svg">
<path d="M21.707 20.293L19.684 18.27C21.1845 16.5264 22.0063 14.3004 21.999 12C21.999 7.90903 19.527 4.54703 16 3.00003V5.00003C18.387 6.38603 19.999 9.04703 19.999 12C19.9946 13.7766 19.4072 15.5026 18.327 16.913L17.042 15.628C17.644 14.536 18 13.19 18 12C18 10.229 17.225 8.10003 16 7.00003V14.586L14 12.586V4.00003C13.9999 3.81915 13.9508 3.64167 13.8578 3.48652C13.7648 3.33136 13.6315 3.20433 13.472 3.11895C13.3125 3.03357 13.1329 2.99305 12.9522 3.00169C12.7715 3.01033 12.5966 3.06782 12.446 3.16803L7.727 6.31303L3.707 2.29303L2.293 3.70703L20.293 21.707L21.707 20.293ZM12 5.86803V10.586L9.169 7.75503L12 5.86803ZM4 17H6.697L12.445 20.832C12.5958 20.9322 12.7708 20.9897 12.9516 20.9985C13.1324 21.0073 13.3122 20.967 13.472 20.882C13.6316 20.7966 13.765 20.6694 13.858 20.5141C13.951 20.3587 14.0001 20.1811 14 20V18.121L12 16.121V18.132L7.555 15.168C7.53 15.151 7.499 15.148 7.473 15.135C7.35491 15.0707 7.22491 15.0312 7.091 15.019C7.059 15.016 7.032 15 7 15H4V9.00003H4.879L3.102 7.22303C2.77189 7.38827 2.4941 7.64186 2.29954 7.95559C2.10499 8.26932 2.00129 8.63087 2 9.00003V15C2 16.103 2.897 17 4 17Z" fill="black"/>
</svg>
