<svg width="24" height="24" viewBox="0 0 24 24" fill="none" xmlns="http://www.w3.org/2000/svg">
<path d="M16 21C19.527 19.453 21.999 16.091 21.999 12C21.999 7.909 19.527 4.547 16 3V5C18.387 6.386 19.999 9.047 19.999 12C19.999 14.953 18.387 17.614 16 19V21Z" fill="black"/>
<path d="M16 6.99997V17C17.225 15.9 18 13.771 18 12C18 10.229 17.225 8.09997 16 6.99997ZM4 17H6.697L12.445 20.832C12.5958 20.9321 12.7708 20.9896 12.9516 20.9984C13.1324 21.0072 13.3122 20.967 13.472 20.882C13.6316 20.7965 13.765 20.6693 13.858 20.514C13.951 20.3587 14.0001 20.181 14 20V3.99997C13.9999 3.81909 13.9508 3.64162 13.8578 3.48646C13.7648 3.3313 13.6315 3.20427 13.472 3.11889C13.3125 3.03351 13.1329 2.99299 12.9522 3.00163C12.7715 3.01027 12.5966 3.06776 12.446 3.16797L6.697 6.99997H4C2.897 6.99997 2 7.89697 2 8.99997V15C2 16.103 2.897 17 4 17ZM4 8.99997H7C7.033 8.99997 7.061 8.98397 7.093 8.98097C7.22601 8.96741 7.35509 8.928 7.473 8.86497C7.499 8.84997 7.53 8.84797 7.555 8.83197L12 5.86797V18.132L7.555 15.168C7.53 15.151 7.499 15.148 7.473 15.135C7.35491 15.0707 7.22491 15.0312 7.091 15.019C7.059 15.016 7.032 15 7 15H4V8.99997Z" fill="black"/>
</svg>
