<svg width="24" height="24" viewBox="0 0 24 24" fill="none" xmlns="http://www.w3.org/2000/svg">
<path d="M12 2C7.037 2 3 6.038 3 11C3 14.328 4.82 17.232 7.513 18.79L5.446 20.168C5.26749 20.287 5.132 20.4603 5.05954 20.6623C4.98707 20.8642 4.98148 21.0841 5.04358 21.2895C5.10569 21.4948 5.23219 21.6748 5.40442 21.8027C5.57664 21.9307 5.78545 21.9998 6 22H18C18.2146 22 18.4236 21.931 18.596 21.8032C18.7684 21.6753 18.895 21.4953 18.9573 21.2899C19.0195 21.0845 19.014 20.8645 18.9415 20.6625C18.8691 20.4604 18.7336 20.2871 18.555 20.168L16.488 18.79C19.18 17.232 21 14.328 21 11C21 6.038 16.963 2 12 2ZM12 18C8.141 18 5 14.859 5 11C5 7.14 8.141 4 12 4C15.859 4 19 7.14 19 11C19 14.859 15.859 18 12 18Z" fill="black"/>
<path d="M12 6C9.243 6 7 8.243 7 11C7 13.757 9.243 16 12 16C14.757 16 17 13.757 17 11C17 8.243 14.757 6 12 6ZM12 14C10.346 14 9 12.654 9 11C9 9.346 10.346 8 12 8C13.654 8 15 9.346 15 11C15 12.654 13.654 14 12 14Z" fill="black"/>
</svg>
