<svg width="24" height="24" viewBox="0 0 24 24" fill="none" xmlns="http://www.w3.org/2000/svg">
<path d="M15.5 9C13.5 9 13 11 13 11H18C18 11 17.499 9 15.5 9Z" fill="black"/>
<path d="M12 2C6.486 2 2 6.486 2 12C2 17.514 6.486 22 12 22C17.514 22 22 17.514 22 12C22 6.486 17.514 2 12 2ZM10 18V15H14V18C14 19.103 13.103 20 12 20C10.897 20 10 19.103 10 18ZM15.856 19.005C15.941 18.682 16 18.349 16 18V16.501C17.589 15.028 18 13 18 13H6C6 13 6.412 15.028 8 16.501V18C8 18.349 8.059 18.682 8.144 19.005C6.89003 18.3146 5.84414 17.3005 5.1153 16.0685C4.38645 14.8364 4.00131 13.4315 4 12C4 7.589 7.589 4 12 4C16.411 4 20 7.589 20 12C19.9987 13.4315 19.6136 14.8364 18.8847 16.0685C18.1559 17.3005 17.11 18.3146 15.856 19.005Z" fill="black"/>
<path d="M8.5 11C9.32843 11 10 10.3284 10 9.5C10 8.67157 9.32843 8 8.5 8C7.67157 8 7 8.67157 7 9.5C7 10.3284 7.67157 11 8.5 11Z" fill="black"/>
</svg>
