<svg width="24" height="24" viewBox="0 0 24 24" fill="none" xmlns="http://www.w3.org/2000/svg">
<path d="M5.996 9C7.409 9 8.156 8.253 8.701 7.707C9.191 7.217 9.432 7 9.993 7C10.554 7 10.795 7.217 11.285 7.707C11.83 8.253 12.577 9 13.991 9C15.406 9 16.154 8.253 16.701 7.707C17.192 7.217 17.433 7 17.996 7C18.559 7 18.8 7.217 19.291 7.707C19.837 8.253 20.585 9 22 9V7C21.437 7 21.196 6.783 20.705 6.293C20.159 5.747 19.411 5 17.996 5C16.581 5 15.834 5.747 15.287 6.292C14.796 6.783 14.556 7 13.991 7C13.429 7 13.189 6.783 12.699 6.293C12.154 5.747 11.407 5 9.993 5C8.579 5 7.832 5.747 7.287 6.293C6.797 6.783 6.557 7 5.996 7C5.435 7 5.195 6.783 4.705 6.293C4.16 5.747 3.413 5 2 5V7C2.561 7 2.801 7.217 3.291 7.707C3.836 8.253 4.583 9 5.996 9ZM5.996 14C7.409 14 8.156 13.253 8.701 12.707C9.191 12.217 9.432 12 9.993 12C10.554 12 10.795 12.217 11.285 12.707C11.83 13.253 12.577 14 13.991 14C15.406 14 16.154 13.253 16.701 12.707C17.192 12.217 17.433 12 17.996 12C18.559 12 18.8 12.217 19.291 12.707C19.837 13.253 20.585 14 22 14V12C21.437 12 21.196 11.783 20.705 11.293C20.159 10.747 19.411 10 17.996 10C16.581 10 15.834 10.747 15.287 11.292C14.796 11.783 14.556 12 13.991 12C13.429 12 13.189 11.783 12.699 11.293C12.154 10.747 11.407 10 9.993 10C8.579 10 7.832 10.747 7.287 11.293C6.797 11.783 6.557 12 5.996 12C5.435 12 5.195 11.783 4.705 11.293C4.16 10.747 3.413 10 2 10V12C2.561 12 2.801 12.217 3.291 12.707C3.836 13.253 4.583 14 5.996 14ZM5.996 19C7.409 19 8.156 18.253 8.701 17.707C9.191 17.217 9.432 17 9.993 17C10.554 17 10.795 17.217 11.285 17.707C11.83 18.253 12.577 19 13.991 19C15.406 19 16.154 18.253 16.701 17.707C17.192 17.217 17.433 17 17.996 17C18.559 17 18.8 17.217 19.291 17.707C19.837 18.253 20.585 19 22 19V17C21.437 17 21.196 16.783 20.705 16.293C20.159 15.747 19.411 15 17.996 15C16.581 15 15.834 15.747 15.287 16.292C14.796 16.783 14.556 17 13.991 17C13.429 17 13.189 16.783 12.699 16.293C12.154 15.747 11.407 15 9.993 15C8.579 15 7.832 15.747 7.287 16.293C6.797 16.783 6.557 17 5.996 17C5.435 17 5.195 16.783 4.705 16.293C4.16 15.747 3.413 15 2 15V17C2.561 17 2.801 17.217 3.291 17.707C3.836 18.253 4.583 19 5.996 19Z" fill="black"/>
</svg>
