<svg width="24" height="24" viewBox="0 0 24 24" fill="none" xmlns="http://www.w3.org/2000/svg">
<path d="M12 2C6.486 2 2 6.486 2 12C2 17.514 6.486 22 12 22C17.514 22 22 17.514 22 12C22 6.486 17.514 2 12 2ZM12 20C7.589 20 4 16.411 4 12C4 7.589 7.589 4 12 4C16.411 4 20 7.589 20 12C20 16.411 16.411 20 12 20Z" fill="black"/>
<path d="M14.828 14.828C14.276 15.3815 13.5736 15.7605 12.808 15.918C12.2746 16.025 11.7253 16.025 11.192 15.918C10.9355 15.8648 10.6847 15.7871 10.443 15.686C10.2057 15.5847 9.97842 15.4615 9.76399 15.318C9.33884 15.0282 8.97183 14.6612 8.68199 14.236L7.02399 15.353C7.23899 15.672 7.48599 15.972 7.75699 16.242C8.3134 16.8003 8.97452 17.2434 9.70246 17.5457C10.4304 17.8481 11.2108 18.0038 11.9991 18.004C12.7873 18.0042 13.5678 17.8488 14.2959 17.5468C15.024 17.2448 15.6853 16.8021 16.242 16.244C16.514 15.973 16.762 15.673 16.976 15.353L15.318 14.236C15.175 14.447 15.011 14.646 14.828 14.828Z" fill="black"/>
<path d="M8.5 12C9.32843 12 10 11.3284 10 10.5C10 9.67157 9.32843 9 8.5 9C7.67157 9 7 9.67157 7 10.5C7 11.3284 7.67157 12 8.5 12Z" fill="black"/>
<path d="M15.5 10C13.5 10 13 12 13 12H18C18 12 17.499 10 15.5 10Z" fill="black"/>
</svg>
