<svg width="24" height="24" viewBox="0 0 24 24" fill="none" xmlns="http://www.w3.org/2000/svg">
<path d="M19.713 12.123C19.977 11.171 20.025 10.093 19.856 8.917L18.99 2.858C18.9558 2.6198 18.8369 2.40191 18.6551 2.24431C18.4732 2.08671 18.2406 1.99997 18 2H6C5.75937 1.99997 5.52679 2.08671 5.34494 2.24431C5.16309 2.40191 5.04418 2.6198 5.01 2.858L4.145 8.916C3.976 10.093 4.024 11.171 4.287 12.122C5.151 15.256 7.838 17.514 11 17.916V20H9V22H15V20H13V17.916C16.162 17.514 18.849 15.256 19.713 12.123ZM17.133 4L17.703 8H6.296L6.867 4H17.133ZM6.215 11.59C6.083 11.116 6.034 10.581 6.056 10H17.945C17.966 10.581 17.917 11.116 17.786 11.591C17.4344 12.8564 16.6787 13.9721 15.6341 14.7681C14.5895 15.5641 13.3133 15.9967 12 16C10.6867 15.9967 9.41042 15.564 8.36594 14.7678C7.32147 13.9716 6.56609 12.8556 6.215 11.59Z" fill="black"/>
</svg>
