<svg width="24" height="24" viewBox="0 0 24 24" fill="none" xmlns="http://www.w3.org/2000/svg">
<path d="M1.293 8.39503L2.707 9.80903C3.211 9.30503 3.759 8.85903 4.329 8.45003L2.9 7.02103C2.34 7.44303 1.796 7.89103 1.293 8.39503ZM6.474 5.06003L3.707 2.29303L2.293 3.70703L20.293 21.707L21.707 20.293L16.695 15.281L17.671 14.306C16.5512 13.1949 15.1229 12.4465 13.572 12.158L11.294 9.88003C14.083 9.68903 16.943 10.628 19.023 12.707L20.437 11.293C17.539 8.39403 13.376 7.35703 9.549 8.13503L8.024 6.61003C9.31097 6.20729 10.6515 6.00163 12 6.00003C15.537 6.00003 18.837 7.35303 21.293 9.80903L22.707 8.39503C19.874 5.56103 16.071 4.00003 12 4.00003C10.1081 4.00633 8.23396 4.36582 6.474 5.06003ZM3.563 11.293L4.977 12.707C5.58988 12.0995 6.28216 11.5778 7.035 11.156L5.576 9.69703C4.859 10.148 4.181 10.676 3.563 11.293ZM6.329 14.307L7.743 15.721C8.435 15.029 9.278 14.57 10.172 14.293L8.615 12.736C7.76483 13.1182 6.99046 13.6503 6.329 14.307ZM13.989 18.11L11.889 16.01C11.5039 16.0307 11.133 16.1625 10.8212 16.3894C10.5094 16.6164 10.27 16.9288 10.132 17.289C9.99401 17.6491 9.9633 18.0415 10.0436 18.4187C10.1239 18.796 10.3118 19.1418 10.5845 19.4146C10.8572 19.6873 11.2031 19.8751 11.5803 19.9554C11.9575 20.0357 12.3499 20.005 12.71 19.867C13.0702 19.729 13.3826 19.4897 13.6096 19.1778C13.8366 18.866 13.9684 18.4951 13.989 18.11Z" fill="black"/>
</svg>
