<svg width="24" height="24" viewBox="0 0 24 24" fill="none" xmlns="http://www.w3.org/2000/svg">
<path d="M5.12202 21C5.50002 21.378 6.00202 21.586 6.53602 21.586C7.07001 21.586 7.57202 21.378 7.95002 21L12.286 16.664C13.0041 16.8855 13.7515 16.9978 14.503 16.997C15.488 17 16.4639 16.8076 17.374 16.4308C18.2841 16.054 19.1104 15.5004 19.805 14.802C20.8537 13.7563 21.5685 12.4229 21.8591 10.9707C22.1496 9.51846 22.0027 8.0127 21.437 6.64401L20.867 5.25601L16.623 9.49901L14.502 7.37701L18.745 3.13401L17.356 2.56301C16.4498 2.18994 15.479 1.99865 14.499 2.00001C12.496 2.00001 10.613 2.78001 9.19802 4.19601C8.231 5.15982 7.54627 6.36995 7.21804 7.6952C6.88981 9.02046 6.93061 10.4103 7.33602 11.714L3.00002 16.05C2.62532 16.4252 2.41486 16.9338 2.41486 17.464C2.41486 17.9943 2.62532 18.5028 3.00002 18.878L5.12202 21ZM9.67002 12.209L9.41602 11.593C9.00068 10.5894 8.89263 9.48502 9.10554 8.4199C9.31846 7.35479 9.84276 6.37685 10.612 5.61001C11.1837 5.03462 11.8764 4.59383 12.6397 4.31966C13.4031 4.04549 14.2179 3.94483 15.025 4.02501L11.672 7.37801L16.621 12.328L19.976 8.97301C20.0543 9.78062 19.9525 10.5955 19.6781 11.3591C19.4037 12.1227 18.9634 12.8159 18.389 13.389C16.839 14.939 14.425 15.416 12.405 14.585L11.79 14.33L6.53602 19.586H6.53702L6.53602 20.586V19.586L4.41402 17.464L9.67002 12.209Z" fill="black"/>
</svg>
