<svg width="24" height="24" viewBox="0 0 24 24" fill="none" xmlns="http://www.w3.org/2000/svg">
<path d="M13 6C14.1046 6 15 5.10457 15 4C15 2.89543 14.1046 2 13 2C11.8954 2 11 2.89543 11 4C11 5.10457 11.8954 6 13 6Z" fill="black"/>
<path d="M13.978 12.27C14.223 12.638 14.589 12.917 15.009 13.057L17.684 13.949L18.317 12.053L15.642 11.161L13.979 8.666C13.7855 8.37715 13.5206 8.14324 13.21 7.987L11.776 7.27C11.3494 7.05672 10.8603 7.00384 10.398 7.121L7.20498 7.918C6.92472 7.98783 6.66289 8.11746 6.43746 8.29802C6.21203 8.47857 6.02833 8.70576 5.89898 8.964L4.10498 12.553L5.89398 13.448L7.68798 9.859L9.91098 9.303L8.10698 17.649L4.43298 20.176L5.56598 21.824L9.24098 19.296C9.66198 19.006 9.95398 18.571 10.061 18.071L10.578 15.683L13.095 17.571L14.02 22.196L15.981 21.803L15.056 17.176C14.9589 16.694 14.6876 16.2647 14.294 15.97L12.123 14.342L12.77 10.457L13.978 12.27Z" fill="black"/>
</svg>
