<svg width="24" height="24" viewBox="0 0 24 24" fill="none" xmlns="http://www.w3.org/2000/svg">
<path d="M4 22H20C20.2652 22 20.5196 21.8946 20.7071 21.7071C20.8946 21.5196 21 21.2652 21 21V5C21 3.346 19.654 2 18 2H6C4.346 2 3 3.346 3 5V21C3 21.2652 3.10536 21.5196 3.29289 21.7071C3.48043 21.8946 3.73478 22 4 22ZM18 3.924C18.1313 3.924 18.2614 3.94987 18.3827 4.00012C18.504 4.05038 18.6142 4.12403 18.7071 4.21689C18.8 4.30975 18.8736 4.41999 18.9239 4.54132C18.9741 4.66264 19 4.79268 19 4.924C19 5.05532 18.9741 5.18536 18.9239 5.30668C18.8736 5.42801 18.8 5.53825 18.7071 5.63111C18.6142 5.72397 18.504 5.79762 18.3827 5.84788C18.2614 5.89813 18.1313 5.924 18 5.924C17.7348 5.924 17.4804 5.81864 17.2929 5.63111C17.1054 5.44357 17 5.18922 17 4.924C17 4.65878 17.1054 4.40443 17.2929 4.21689C17.4804 4.02936 17.7348 3.924 18 3.924ZM15 3.924C15.1313 3.924 15.2614 3.94987 15.3827 4.00012C15.504 4.05038 15.6142 4.12403 15.7071 4.21689C15.8 4.30975 15.8736 4.41999 15.9239 4.54132C15.9741 4.66264 16 4.79268 16 4.924C16 5.05532 15.9741 5.18536 15.9239 5.30668C15.8736 5.42801 15.8 5.53825 15.7071 5.63111C15.6142 5.72397 15.504 5.79762 15.3827 5.84788C15.2614 5.89813 15.1313 5.924 15 5.924C14.7348 5.924 14.4804 5.81864 14.2929 5.63111C14.1054 5.44357 14 5.18922 14 4.924C14 4.65878 14.1054 4.40443 14.2929 4.21689C14.4804 4.02936 14.7348 3.924 15 3.924ZM12 7C15.309 7 18 9.691 18 13C18 16.309 15.309 19 12 19C8.691 19 6 16.309 6 13C6 9.691 8.691 7 12 7Z" fill="black"/>
<path d="M12.766 16.929C14.165 16.668 15.337 15.614 15.789 14.264C16.1162 13.3165 16.0614 12.2787 15.636 11.371C15.5893 11.2711 15.5099 11.1903 15.4109 11.1419C15.312 11.0935 15.1994 11.0805 15.092 11.105C14.488 11.254 14.073 11.553 13.592 11.906C12.806 12.483 11.827 13.2 9.99996 13.2C9.18696 13.2 8.54996 13.054 8.01596 12.846L8.00296 12.855C7.98181 13.4569 8.09667 14.0559 8.33899 14.6073C8.58131 15.1587 8.94486 15.6484 9.40258 16.0399C9.8603 16.4314 10.4004 16.7147 10.9827 16.8686C11.565 17.0225 12.1746 17.0432 12.766 16.929Z" fill="black"/>
</svg>
