<svg width="24" height="24" viewBox="0 0 24 24" fill="none" xmlns="http://www.w3.org/2000/svg">
<path d="M20.9801 11.802C20.943 11.6167 20.8539 11.4457 20.7232 11.3092C20.5925 11.1726 20.4256 11.0761 20.2421 11.031L13.3821 9.315L15.9191 3.394C16.0074 3.18853 16.0242 2.95932 15.9667 2.74317C15.9093 2.52701 15.7808 2.33642 15.6021 2.202C15.4236 2.06669 15.2048 1.99547 14.9809 1.99982C14.757 2.00418 14.5411 2.08386 14.3681 2.226L3.36805 11.226C3.22457 11.3434 3.11654 11.4983 3.05602 11.6735C2.9955 11.8488 2.98487 12.0373 3.02532 12.2182C3.06578 12.3992 3.15572 12.5653 3.28511 12.698C3.4145 12.8308 3.57824 12.9249 3.75805 12.97L10.4771 14.651L7.13205 20.505C7.04576 20.6571 7.00081 20.8291 7.00168 21.004C7.00254 21.1788 7.0492 21.3504 7.13699 21.5016C7.22479 21.6528 7.35067 21.7784 7.50209 21.8659C7.65351 21.9533 7.8252 21.9995 8.00005 22C8.21648 22.0004 8.42713 21.9301 8.60005 21.8L20.6001 12.8C20.7512 12.6866 20.8672 12.5326 20.9344 12.356C21.0017 12.1793 21.0175 11.9873 20.9801 11.802Z" fill="black"/>
</svg>
