<svg width="437" height="67" viewBox="0 0 437 67" fill="none" xmlns="http://www.w3.org/2000/svg">
<path d="M8.464 66.6999C5.76533 66.6999 3.68 65.9639 2.208 64.4919C0.736 62.9586 -2.08616e-07 60.8426 -2.08616e-07 58.1439V9.56794C-2.08616e-07 6.80795 0.736 4.69195 2.208 3.21994C3.74133 1.74794 5.85733 1.01194 8.556 1.01194H31.188C38.548 1.01194 44.2213 2.82128 48.208 6.43995C52.256 9.99728 54.28 14.9653 54.28 21.3439C54.28 25.4533 53.36 29.0413 51.52 32.1079C49.7413 35.1133 47.1347 37.4439 43.7 39.0999C40.3267 40.6946 36.156 41.4919 31.188 41.4919L31.924 39.8359H36.34C38.9773 39.8359 41.308 40.4799 43.332 41.7679C45.356 42.9946 47.0427 44.8959 48.392 47.4719L52.992 55.7519C53.9733 57.5306 54.4333 59.2786 54.372 60.9959C54.3107 62.6519 53.636 64.0319 52.348 65.1359C51.1213 66.1786 49.312 66.6999 46.92 66.6999C44.528 66.6999 42.5653 66.2093 41.032 65.2279C39.56 64.2466 38.2413 62.7133 37.076 60.6279L28.704 45.2639C27.968 43.9146 27.0173 42.9946 25.852 42.5039C24.748 41.9519 23.46 41.6759 21.988 41.6759H16.928V58.1439C16.928 60.8426 16.2227 62.9586 14.812 64.4919C13.4013 65.9639 11.2853 66.6999 8.464 66.6999ZM16.928 29.7159H28.152C31.4027 29.7159 33.8867 29.0719 35.604 27.7839C37.3213 26.4959 38.18 24.5026 38.18 21.8039C38.18 19.2279 37.3213 17.2959 35.604 16.0079C33.8867 14.6586 31.4027 13.9839 28.152 13.9839H16.928V29.7159ZM73.789 65.8719C70.9064 65.8719 68.6984 65.1359 67.165 63.6639C65.693 62.1306 64.957 59.9533 64.957 57.1319V9.75195C64.957 6.93061 65.693 4.78395 67.165 3.31195C68.6984 1.77861 70.9064 1.01194 73.789 1.01194H104.977C107.185 1.01194 108.841 1.56394 109.945 2.66794C111.049 3.77195 111.601 5.36661 111.601 7.45194C111.601 9.59861 111.049 11.2546 109.945 12.4199C108.841 13.5239 107.185 14.0759 104.977 14.0759H81.149V26.4039H102.953C105.1 26.4039 106.725 26.9559 107.829 28.0599C108.994 29.1639 109.577 30.7893 109.577 32.9359C109.577 35.0826 108.994 36.7079 107.829 37.8119C106.725 38.9159 105.1 39.4679 102.953 39.4679H81.149V52.8079H104.977C107.185 52.8079 108.841 53.3906 109.945 54.5559C111.049 55.6599 111.601 57.2546 111.601 59.3399C111.601 61.4866 111.049 63.1119 109.945 64.2159C108.841 65.3199 107.185 65.8719 104.977 65.8719H73.789ZM154.768 66.8839C147.347 66.8839 141.03 65.5039 135.816 62.7439C130.664 59.9839 126.739 56.1199 124.04 51.1519C121.342 46.1839 119.992 40.3879 119.992 33.7639C119.992 28.6119 120.79 23.9813 122.384 19.8719C124.04 15.7013 126.402 12.1439 129.468 9.19994C132.535 6.19461 136.276 3.92528 140.692 2.39194C145.17 0.797279 150.23 -5.36442e-05 155.872 -5.36442e-05C158.939 -5.36442e-05 162.067 0.306613 165.256 0.919945C168.446 1.47195 171.574 2.54528 174.64 4.13995C176.235 4.87595 177.308 5.91861 177.86 7.26795C178.474 8.55594 178.658 9.93594 178.412 11.4079C178.228 12.8186 177.707 14.1373 176.848 15.3639C176.051 16.5293 174.947 17.3266 173.536 17.7559C172.126 18.1239 170.531 17.9093 168.752 17.1119C166.912 16.2533 164.919 15.6093 162.772 15.1799C160.626 14.6893 158.356 14.4439 155.964 14.4439C151.855 14.4439 148.42 15.1799 145.66 16.6519C142.962 18.1239 140.938 20.3013 139.588 23.1839C138.239 26.0666 137.564 29.5933 137.564 33.7639C137.564 40.0199 139.098 44.7426 142.164 47.9319C145.231 51.1213 149.77 52.7159 155.78 52.7159C157.62 52.7159 159.614 52.5319 161.76 52.1639C163.968 51.7959 166.176 51.2746 168.384 50.5999L165.256 56.9479V41.2159H158.816C156.731 41.2159 155.106 40.6946 153.94 39.6519C152.836 38.6093 152.284 37.1373 152.284 35.2359C152.284 33.3346 152.836 31.8933 153.94 30.9119C155.106 29.8693 156.731 29.3479 158.816 29.3479H172.432C174.579 29.3479 176.204 29.9306 177.308 31.0959C178.474 32.1999 179.056 33.8253 179.056 35.9719V56.3039C179.056 58.1439 178.658 59.7079 177.86 60.9959C177.124 62.2839 175.928 63.2039 174.272 63.7559C171.39 64.7373 168.262 65.5039 164.888 66.0559C161.515 66.6079 158.142 66.8839 154.768 66.8839ZM219.083 66.8839C214.36 66.8839 210.19 66.3013 206.571 65.1359C202.952 63.9093 199.886 62.0999 197.371 59.7079C194.918 57.3159 193.047 54.3413 191.759 50.7839C190.532 47.1653 189.919 42.9946 189.919 38.2719V8.73994C189.919 5.91861 190.655 3.80261 192.127 2.39194C193.599 0.919944 195.684 0.183944 198.383 0.183944C201.143 0.183944 203.228 0.919944 204.639 2.39194C206.111 3.80261 206.847 5.91861 206.847 8.73994V38.4559C206.847 43.1786 207.89 46.7359 209.975 49.1279C212.06 51.5199 215.096 52.7159 219.083 52.7159C223.008 52.7159 226.014 51.5199 228.099 49.1279C230.184 46.7359 231.227 43.1786 231.227 38.4559V8.73994C231.227 5.91861 231.932 3.80261 233.343 2.39194C234.815 0.919944 236.9 0.183944 239.599 0.183944C242.298 0.183944 244.352 0.919944 245.763 2.39194C247.174 3.80261 247.879 5.91861 247.879 8.73994V38.2719C247.879 44.5893 246.775 49.8946 244.567 54.1879C242.42 58.4199 239.2 61.6093 234.907 63.7559C230.614 65.8413 225.339 66.8839 219.083 66.8839ZM267.755 65.8719C265.057 65.8719 262.941 65.1359 261.407 63.6639C259.935 62.1306 259.199 60.0146 259.199 57.3159V9.47594C259.199 6.71594 259.935 4.59994 261.407 3.12794C262.879 1.65595 264.965 0.919945 267.663 0.919945C270.423 0.919945 272.509 1.65595 273.919 3.12794C275.391 4.59994 276.127 6.71594 276.127 9.47594V51.7959H298.575C300.906 51.7959 302.685 52.4093 303.911 53.6359C305.199 54.8013 305.843 56.5186 305.843 58.7879C305.843 61.0573 305.199 62.8053 303.911 64.0319C302.685 65.2586 300.906 65.8719 298.575 65.8719H267.755ZM315.243 66.6999C313.342 66.6999 311.747 66.2706 310.459 65.4119C309.171 64.4919 308.374 63.2653 308.067 61.7319C307.76 60.1373 308.036 58.3586 308.895 56.3959L331.803 7.08394C332.907 4.69194 334.256 2.94395 335.851 1.83994C337.507 0.735944 339.378 0.183944 341.463 0.183944C343.548 0.183944 345.358 0.735944 346.891 1.83994C348.486 2.94395 349.866 4.69194 351.031 7.08394L373.939 56.3959C374.92 58.3586 375.258 60.1373 374.951 61.7319C374.706 63.3266 373.939 64.5533 372.651 65.4119C371.424 66.2706 369.891 66.6999 368.051 66.6999C365.598 66.6999 363.696 66.1479 362.347 65.0439C361.059 63.9399 359.894 62.1613 358.851 59.7079L353.883 48.0239L360.323 52.7159H322.419L328.951 48.0239L323.983 59.7079C322.879 62.1613 321.744 63.9399 320.579 65.0439C319.414 66.1479 317.635 66.6999 315.243 66.6999ZM341.279 18.6759L330.607 44.1599L328.031 39.7439H354.803L352.227 44.1599L341.463 18.6759H341.279ZM390.839 66.6999C388.14 66.6999 386.055 65.9639 384.583 64.4919C383.111 62.9586 382.375 60.8426 382.375 58.1439V9.56794C382.375 6.80795 383.111 4.69195 384.583 3.21994C386.116 1.74794 388.232 1.01194 390.931 1.01194H413.563C420.923 1.01194 426.596 2.82128 430.583 6.43995C434.631 9.99728 436.655 14.9653 436.655 21.3439C436.655 25.4533 435.735 29.0413 433.895 32.1079C432.116 35.1133 429.51 37.4439 426.075 39.0999C422.702 40.6946 418.531 41.4919 413.563 41.4919L414.299 39.8359H418.715C421.352 39.8359 423.683 40.4799 425.707 41.7679C427.731 42.9946 429.418 44.8959 430.767 47.4719L435.367 55.7519C436.348 57.5306 436.808 59.2786 436.747 60.9959C436.686 62.6519 436.011 64.0319 434.723 65.1359C433.496 66.1786 431.687 66.6999 429.295 66.6999C426.903 66.6999 424.94 66.2093 423.407 65.2279C421.935 64.2466 420.616 62.7133 419.451 60.6279L411.079 45.2639C410.343 43.9146 409.392 42.9946 408.227 42.5039C407.123 41.9519 405.835 41.6759 404.363 41.6759H399.303V58.1439C399.303 60.8426 398.598 62.9586 397.187 64.4919C395.776 65.9639 393.66 66.6999 390.839 66.6999ZM399.303 29.7159H410.527C413.778 29.7159 416.262 29.0719 417.979 27.7839C419.696 26.4959 420.555 24.5026 420.555 21.8039C420.555 19.2279 419.696 17.2959 417.979 16.0079C416.262 14.6586 413.778 13.9839 410.527 13.9839H399.303V29.7159Z" fill="black"/>
</svg>
